<svg width="632" height="475" viewBox="0 0 632 475" fill="none" xmlns="http://www.w3.org/2000/svg">
<path d="M0.78 5.88V4.908H4.116V5.88H0.78ZM9.07209 9V8.268L12.1201 5.58C12.7761 5.004 13.2321 4.524 13.4881 4.14C13.7441 3.756 13.8721 3.356 13.8721 2.94C13.8721 2.46 13.7081 2.072 13.3801 1.776C13.0521 1.48 12.6521 1.332 12.1801 1.332C11.7241 1.332 11.3201 1.448 10.9681 1.68C10.6241 1.912 10.2761 2.276 9.92409 2.772L9.22809 2.268C9.63609 1.66 10.0681 1.212 10.5241 0.924C10.9801 0.628 11.5561 0.48 12.2521 0.48C13.0041 0.48 13.6241 0.707999 14.1121 1.164C14.6081 1.612 14.8561 2.184 14.8561 2.88C14.8561 3.456 14.7001 3.968 14.3881 4.416C14.0761 4.864 13.5241 5.44 12.7321 6.144L10.4881 8.136H14.9401V9H9.07209ZM19.6757 9.144C18.6677 9.144 17.8717 8.812 17.2877 8.148C16.7037 7.484 16.4117 6.44 16.4117 5.016C16.4117 3.704 16.7237 2.616 17.3477 1.752C17.9797 0.888 18.8317 0.456 19.9037 0.456C20.7757 0.456 21.6037 0.776 22.3877 1.416L21.8357 2.148C21.1797 1.596 20.5197 1.32 19.8557 1.32C19.1117 1.32 18.5157 1.66 18.0677 2.34C17.6197 3.02 17.3957 3.904 17.3957 4.992V5.028C17.9797 4.172 18.7757 3.744 19.7837 3.744C20.5917 3.744 21.2757 3.984 21.8357 4.464C22.4037 4.944 22.6877 5.572 22.6877 6.348C22.6877 7.156 22.3997 7.824 21.8237 8.352C21.2477 8.88 20.5317 9.144 19.6757 9.144ZM19.6877 8.304C20.2957 8.304 20.7837 8.12 21.1517 7.752C21.5277 7.384 21.7157 6.92 21.7157 6.36C21.7157 5.84 21.5237 5.412 21.1397 5.076C20.7557 4.732 20.2637 4.56 19.6637 4.56C19.0557 4.56 18.5517 4.748 18.1517 5.124C17.7597 5.492 17.5637 5.924 17.5637 6.42C17.5637 6.956 17.7637 7.404 18.1637 7.764C18.5637 8.124 19.0717 8.304 19.6877 8.304ZM27.0852 9.144C25.9732 9.144 24.9732 8.7 24.0852 7.812L24.7092 7.128C25.5012 7.896 26.2972 8.28 27.0972 8.28C27.6972 8.28 28.1852 8.104 28.5612 7.752C28.9372 7.4 29.1252 6.948 29.1252 6.396C29.1252 5.876 28.9292 5.452 28.5372 5.124C28.1532 4.796 27.6532 4.632 27.0372 4.632C26.4612 4.632 25.8732 4.792 25.2732 5.112L24.6372 4.692L24.8772 0.599999H29.7132V1.476H25.7052L25.5252 4.164C26.0932 3.916 26.6452 3.792 27.1812 3.792C28.0212 3.792 28.7132 4.028 29.2572 4.5C29.8092 4.964 30.0852 5.592 30.0852 6.384C30.0852 7.2 29.8052 7.864 29.2452 8.376C28.6852 8.888 27.9652 9.144 27.0852 9.144ZM34.7929 9.144C33.7849 9.144 32.9889 8.812 32.4049 8.148C31.8209 7.484 31.5289 6.44 31.5289 5.016C31.5289 3.704 31.8409 2.616 32.4649 1.752C33.0969 0.888 33.9489 0.456 35.0209 0.456C35.8929 0.456 36.7209 0.776 37.5049 1.416L36.9529 2.148C36.2969 1.596 35.6369 1.32 34.9729 1.32C34.2289 1.32 33.6329 1.66 33.1849 2.34C32.7369 3.02 32.5129 3.904 32.5129 4.992V5.028C33.0969 4.172 33.8929 3.744 34.9009 3.744C35.7089 3.744 36.3929 3.984 36.9529 4.464C37.5209 4.944 37.8049 5.572 37.8049 6.348C37.8049 7.156 37.5169 7.824 36.9409 8.352C36.3649 8.88 35.6489 9.144 34.7929 9.144ZM34.8049 8.304C35.4129 8.304 35.9009 8.12 36.2689 7.752C36.6449 7.384 36.8329 6.92 36.8329 6.36C36.8329 5.84 36.6409 5.412 36.2569 5.076C35.8729 4.732 35.3809 4.56 34.7809 4.56C34.1729 4.56 33.6689 4.748 33.2689 5.124C32.8769 5.492 32.6809 5.924 32.6809 6.42C32.6809 6.956 32.8809 7.404 33.2809 7.764C33.6809 8.124 34.1889 8.304 34.8049 8.304ZM42.1812 9.144C40.8612 9.144 39.8172 8.644 39.0492 7.644L39.7332 7.032C40.4132 7.864 41.2332 8.28 42.1932 8.28C42.7132 8.28 43.1492 8.128 43.5012 7.824C43.8532 7.52 44.0292 7.12 44.0292 6.624C44.0292 6.112 43.8132 5.716 43.3812 5.436C42.9492 5.148 42.3812 5.004 41.6772 5.004H41.1372L40.9452 4.44L43.5972 1.452H39.4932V0.599999H44.8572V1.296L42.2172 4.224C43.0172 4.288 43.6772 4.52 44.1972 4.92C44.7252 5.312 44.9892 5.876 44.9892 6.612C44.9892 7.348 44.7172 7.956 44.1732 8.436C43.6372 8.908 42.9732 9.144 42.1812 9.144ZM46.7326 9V7.74H47.8366V9H46.7326ZM55.3676 7.884C54.7116 8.724 53.8556 9.144 52.7996 9.144C51.7436 9.144 50.8876 8.728 50.2316 7.896C49.5836 7.056 49.2596 6.024 49.2596 4.8C49.2596 3.592 49.5876 2.568 50.2436 1.728C50.9076 0.88 51.7676 0.456 52.8236 0.456C53.8796 0.456 54.7316 0.876 55.3796 1.716C56.0276 2.548 56.3516 3.576 56.3516 4.8C56.3516 6.008 56.0236 7.036 55.3676 7.884ZM50.9636 7.26C51.4436 7.94 52.0636 8.28 52.8236 8.28C53.5836 8.28 54.1956 7.944 54.6596 7.272C55.1316 6.592 55.3676 5.768 55.3676 4.8C55.3676 3.848 55.1276 3.032 54.6476 2.352C54.1756 1.664 53.5596 1.32 52.7996 1.32C52.0396 1.32 51.4236 1.66 50.9516 2.34C50.4796 3.012 50.2436 3.832 50.2436 4.8C50.2436 5.752 50.4836 6.572 50.9636 7.26Z" transform="translate(573.999 11)" fill="#7C90B9"/>
<path d="M0.78 5.88V4.908H4.116V5.88H0.78ZM9.07209 9V8.268L12.1201 5.58C12.7761 5.004 13.2321 4.524 13.4881 4.14C13.7441 3.756 13.8721 3.356 13.8721 2.94C13.8721 2.46 13.7081 2.072 13.3801 1.776C13.0521 1.48 12.6521 1.332 12.1801 1.332C11.7241 1.332 11.3201 1.448 10.9681 1.68C10.6241 1.912 10.2761 2.276 9.92409 2.772L9.22809 2.268C9.63609 1.66 10.0681 1.212 10.5241 0.924C10.9801 0.628 11.5561 0.48 12.2521 0.48C13.0041 0.48 13.6241 0.707999 14.1121 1.164C14.6081 1.612 14.8561 2.184 14.8561 2.88C14.8561 3.456 14.7001 3.968 14.3881 4.416C14.0761 4.864 13.5241 5.44 12.7321 6.144L10.4881 8.136H14.9401V9H9.07209ZM19.3157 9.144C18.2037 9.144 17.2037 8.7 16.3157 7.812L16.9397 7.128C17.7317 7.896 18.5277 8.28 19.3277 8.28C19.9277 8.28 20.4157 8.104 20.7917 7.752C21.1677 7.4 21.3557 6.948 21.3557 6.396C21.3557 5.876 21.1597 5.452 20.7677 5.124C20.3837 4.796 19.8837 4.632 19.2677 4.632C18.6917 4.632 18.1037 4.792 17.5037 5.112L16.8677 4.692L17.1077 0.599999H21.9437V1.476H17.9357L17.7557 4.164C18.3237 3.916 18.8757 3.792 19.4117 3.792C20.2517 3.792 20.9437 4.028 21.4877 4.5C22.0397 4.964 22.3157 5.592 22.3157 6.384C22.3157 7.2 22.0357 7.864 21.4757 8.376C20.9157 8.888 20.1957 9.144 19.3157 9.144ZM29.0633 8.46C28.4633 8.9 27.7113 9.12 26.8073 9.12C25.9033 9.12 25.1513 8.896 24.5513 8.448C23.9513 8 23.6513 7.424 23.6513 6.72C23.6513 6.24 23.8073 5.824 24.1193 5.472C24.4313 5.12 24.8513 4.848 25.3793 4.656C24.4193 4.216 23.9393 3.564 23.9393 2.7C23.9393 2.068 24.2193 1.54 24.7793 1.116C25.3473 0.692 26.0233 0.48 26.8073 0.48C27.5913 0.48 28.2633 0.692 28.8233 1.116C29.3913 1.54 29.6753 2.076 29.6753 2.724C29.6753 3.572 29.1953 4.216 28.2353 4.656C29.3873 5.088 29.9633 5.78 29.9633 6.732C29.9633 7.436 29.6633 8.012 29.0633 8.46ZM25.4393 3.888C25.8073 4.176 26.2633 4.32 26.8073 4.32C27.3513 4.32 27.8073 4.176 28.1753 3.888C28.5433 3.6 28.7273 3.224 28.7273 2.76C28.7273 2.344 28.5433 2 28.1753 1.728C27.8073 1.448 27.3513 1.308 26.8073 1.308C26.2553 1.308 25.7953 1.448 25.4273 1.728C25.0673 2 24.8873 2.352 24.8873 2.784C24.8873 3.232 25.0713 3.6 25.4393 3.888ZM25.1993 7.836C25.5993 8.14 26.1353 8.292 26.8073 8.292C27.4793 8.292 28.0113 8.14 28.4033 7.836C28.8033 7.532 29.0033 7.152 29.0033 6.696C29.0033 6.232 28.7913 5.852 28.3673 5.556C27.9433 5.252 27.4233 5.1 26.8073 5.1C26.1833 5.1 25.6593 5.252 25.2353 5.556C24.8193 5.86 24.6113 6.248 24.6113 6.72C24.6113 7.16 24.8073 7.532 25.1993 7.836ZM36.6219 8.46C36.0219 8.9 35.2699 9.12 34.3659 9.12C33.4619 9.12 32.7099 8.896 32.1099 8.448C31.5099 8 31.2099 7.424 31.2099 6.72C31.2099 6.24 31.3659 5.824 31.6779 5.472C31.9899 5.12 32.4099 4.848 32.9379 4.656C31.9779 4.216 31.4979 3.564 31.4979 2.7C31.4979 2.068 31.7779 1.54 32.3379 1.116C32.9059 0.692 33.5819 0.48 34.3659 0.48C35.1499 0.48 35.8219 0.692 36.3819 1.116C36.9499 1.54 37.2339 2.076 37.2339 2.724C37.2339 3.572 36.7539 4.216 35.7939 4.656C36.9459 5.088 37.5219 5.78 37.5219 6.732C37.5219 7.436 37.2219 8.012 36.6219 8.46ZM32.9979 3.888C33.3659 4.176 33.8219 4.32 34.3659 4.32C34.9099 4.32 35.3659 4.176 35.7339 3.888C36.1019 3.6 36.2859 3.224 36.2859 2.76C36.2859 2.344 36.1019 2 35.7339 1.728C35.3659 1.448 34.9099 1.308 34.3659 1.308C33.8139 1.308 33.3539 1.448 32.9859 1.728C32.6259 2 32.4459 2.352 32.4459 2.784C32.4459 3.232 32.6299 3.6 32.9979 3.888ZM32.7579 7.836C33.1579 8.14 33.6939 8.292 34.3659 8.292C35.0379 8.292 35.5699 8.14 35.9619 7.836C36.3619 7.532 36.5619 7.152 36.5619 6.696C36.5619 6.232 36.3499 5.852 35.9259 5.556C35.5019 5.252 34.9819 5.1 34.3659 5.1C33.7419 5.1 33.2179 5.252 32.7939 5.556C32.3779 5.86 32.1699 6.248 32.1699 6.72C32.1699 7.16 32.3659 7.532 32.7579 7.836ZM41.8765 9.144C40.5565 9.144 39.5125 8.644 38.7445 7.644L39.4285 7.032C40.1085 7.864 40.9285 8.28 41.8885 8.28C42.4085 8.28 42.8445 8.128 43.1965 7.824C43.5485 7.52 43.7245 7.12 43.7245 6.624C43.7245 6.112 43.5085 5.716 43.0765 5.436C42.6445 5.148 42.0765 5.004 41.3725 5.004H40.8325L40.6405 4.44L43.2925 1.452H39.1885V0.599999H44.5525V1.296L41.9125 4.224C42.7125 4.288 43.3725 4.52 43.8925 4.92C44.4205 5.312 44.6845 5.876 44.6845 6.612C44.6845 7.348 44.4125 7.956 43.8685 8.436C43.3325 8.908 42.6685 9.144 41.8765 9.144ZM46.4279 9V7.74H47.5319V9H46.4279ZM55.0629 7.884C54.4069 8.724 53.5509 9.144 52.4949 9.144C51.4389 9.144 50.5829 8.728 49.9269 7.896C49.2789 7.056 48.9549 6.024 48.9549 4.8C48.9549 3.592 49.2829 2.568 49.9389 1.728C50.6029 0.88 51.4629 0.456 52.5189 0.456C53.5749 0.456 54.4269 0.876 55.0749 1.716C55.7229 2.548 56.0469 3.576 56.0469 4.8C56.0469 6.008 55.7189 7.036 55.0629 7.884ZM50.6589 7.26C51.1389 7.94 51.7589 8.28 52.5189 8.28C53.2789 8.28 53.8909 7.944 54.3549 7.272C54.8269 6.592 55.0629 5.768 55.0629 4.8C55.0629 3.848 54.8229 3.032 54.3429 2.352C53.8709 1.664 53.2549 1.32 52.4949 1.32C51.7349 1.32 51.1189 1.66 50.6469 2.34C50.1749 3.012 49.9389 3.832 49.9389 4.8C49.9389 5.752 50.1789 6.572 50.6589 7.26Z" transform="translate(574.999 45)" fill="#7C90B9"/>
<path d="M0.78 5.88V4.908H4.116V5.88H0.78ZM9.07209 9V8.268L12.1201 5.58C12.7761 5.004 13.2321 4.524 13.4881 4.14C13.7441 3.756 13.8721 3.356 13.8721 2.94C13.8721 2.46 13.7081 2.072 13.3801 1.776C13.0521 1.48 12.6521 1.332 12.1801 1.332C11.7241 1.332 11.3201 1.448 10.9681 1.68C10.6241 1.912 10.2761 2.276 9.92409 2.772L9.22809 2.268C9.63609 1.66 10.0681 1.212 10.5241 0.924C10.9801 0.628 11.5561 0.48 12.2521 0.48C13.0041 0.48 13.6241 0.707999 14.1121 1.164C14.6081 1.612 14.8561 2.184 14.8561 2.88C14.8561 3.456 14.7001 3.968 14.3881 4.416C14.0761 4.864 13.5241 5.44 12.7321 6.144L10.4881 8.136H14.9401V9H9.07209ZM19.3157 9.144C18.2037 9.144 17.2037 8.7 16.3157 7.812L16.9397 7.128C17.7317 7.896 18.5277 8.28 19.3277 8.28C19.9277 8.28 20.4157 8.104 20.7917 7.752C21.1677 7.4 21.3557 6.948 21.3557 6.396C21.3557 5.876 21.1597 5.452 20.7677 5.124C20.3837 4.796 19.8837 4.632 19.2677 4.632C18.6917 4.632 18.1037 4.792 17.5037 5.112L16.8677 4.692L17.1077 0.599999H21.9437V1.476H17.9357L17.7557 4.164C18.3237 3.916 18.8757 3.792 19.4117 3.792C20.2517 3.792 20.9437 4.028 21.4877 4.5C22.0397 4.964 22.3157 5.592 22.3157 6.384C22.3157 7.2 22.0357 7.864 21.4757 8.376C20.9157 8.888 20.1957 9.144 19.3157 9.144ZM23.4862 9V8.268L26.5342 5.58C27.1902 5.004 27.6462 4.524 27.9022 4.14C28.1582 3.756 28.2862 3.356 28.2862 2.94C28.2862 2.46 28.1222 2.072 27.7942 1.776C27.4662 1.48 27.0662 1.332 26.5942 1.332C26.1382 1.332 25.7342 1.448 25.3822 1.68C25.0382 1.912 24.6902 2.276 24.3382 2.772L23.6422 2.268C24.0502 1.66 24.4822 1.212 24.9382 0.924C25.3942 0.628 25.9702 0.48 26.6662 0.48C27.4182 0.48 28.0382 0.707999 28.5262 1.164C29.0222 1.612 29.2702 2.184 29.2702 2.88C29.2702 3.456 29.1142 3.968 28.8022 4.416C28.4902 4.864 27.9382 5.44 27.1462 6.144L24.9022 8.136H29.3542V9H23.4862ZM36.9458 7.884C36.2898 8.724 35.4338 9.144 34.3778 9.144C33.3218 9.144 32.4658 8.728 31.8098 7.896C31.1618 7.056 30.8378 6.024 30.8378 4.8C30.8378 3.592 31.1658 2.568 31.8218 1.728C32.4858 0.88 33.3458 0.456 34.4018 0.456C35.4578 0.456 36.3098 0.876 36.9578 1.716C37.6058 2.548 37.9298 3.576 37.9298 4.8C37.9298 6.008 37.6018 7.036 36.9458 7.884ZM32.5418 7.26C33.0218 7.94 33.6418 8.28 34.4018 8.28C35.1618 8.28 35.7738 7.944 36.2378 7.272C36.7098 6.592 36.9458 5.768 36.9458 4.8C36.9458 3.848 36.7058 3.032 36.2258 2.352C35.7538 1.664 35.1378 1.32 34.3778 1.32C33.6178 1.32 33.0018 1.66 32.5298 2.34C32.0578 3.012 31.8218 3.832 31.8218 4.8C31.8218 5.752 32.0618 6.572 32.5418 7.26ZM42.2867 9.144C40.9667 9.144 39.9227 8.644 39.1547 7.644L39.8387 7.032C40.5187 7.864 41.3387 8.28 42.2987 8.28C42.8187 8.28 43.2547 8.128 43.6067 7.824C43.9587 7.52 44.1347 7.12 44.1347 6.624C44.1347 6.112 43.9187 5.716 43.4867 5.436C43.0547 5.148 42.4867 5.004 41.7827 5.004H41.2427L41.0507 4.44L43.7027 1.452H39.5987V0.599999H44.9627V1.296L42.3227 4.224C43.1227 4.288 43.7827 4.52 44.3027 4.92C44.8307 5.312 45.0947 5.876 45.0947 6.612C45.0947 7.348 44.8227 7.956 44.2787 8.436C43.7427 8.908 43.0787 9.144 42.2867 9.144ZM46.8381 9V7.74H47.9421V9H46.8381ZM55.4731 7.884C54.8171 8.724 53.9611 9.144 52.9051 9.144C51.8491 9.144 50.9931 8.728 50.3371 7.896C49.6891 7.056 49.3651 6.024 49.3651 4.8C49.3651 3.592 49.6931 2.568 50.3491 1.728C51.0131 0.88 51.8731 0.456 52.9291 0.456C53.9851 0.456 54.8371 0.876 55.4851 1.716C56.1331 2.548 56.4571 3.576 56.4571 4.8C56.4571 6.008 56.1291 7.036 55.4731 7.884ZM51.0691 7.26C51.5491 7.94 52.1691 8.28 52.9291 8.28C53.6891 8.28 54.3011 7.944 54.7651 7.272C55.2371 6.592 55.4731 5.768 55.4731 4.8C55.4731 3.848 55.2331 3.032 54.7531 2.352C54.2811 1.664 53.6651 1.32 52.9051 1.32C52.1451 1.32 51.5291 1.66 51.0571 2.34C50.5851 3.012 50.3491 3.832 50.3491 4.8C50.3491 5.752 50.5891 6.572 51.0691 7.26Z" transform="translate(573.999 79)" fill="#7C90B9"/>
<path d="M0.78 5.88V4.908H4.116V5.88H0.78ZM9.07209 9V8.268L12.1201 5.58C12.7761 5.004 13.2321 4.524 13.4881 4.14C13.7441 3.756 13.8721 3.356 13.8721 2.94C13.8721 2.46 13.7081 2.072 13.3801 1.776C13.0521 1.48 12.6521 1.332 12.1801 1.332C11.7241 1.332 11.3201 1.448 10.9681 1.68C10.6241 1.912 10.2761 2.276 9.92409 2.772L9.22809 2.268C9.63609 1.66 10.0681 1.212 10.5241 0.924C10.9801 0.628 11.5561 0.48 12.2521 0.48C13.0041 0.48 13.6241 0.707999 14.1121 1.164C14.6081 1.612 14.8561 2.184 14.8561 2.88C14.8561 3.456 14.7001 3.968 14.3881 4.416C14.0761 4.864 13.5241 5.44 12.7321 6.144L10.4881 8.136H14.9401V9H9.07209ZM20.5473 9V7.008H16.1193L15.8793 6.324L20.6313 0.539999H21.4593V6.216H22.7673V7.008H21.4593V9H20.5473ZM17.0193 6.216H20.5473V1.884L17.0193 6.216ZM27.4101 9.144C26.4021 9.144 25.6061 8.812 25.0221 8.148C24.4381 7.484 24.1461 6.44 24.1461 5.016C24.1461 3.704 24.4581 2.616 25.0821 1.752C25.7141 0.888 26.5661 0.456 27.6381 0.456C28.5101 0.456 29.3381 0.776 30.1221 1.416L29.5701 2.148C28.9141 1.596 28.2541 1.32 27.5901 1.32C26.8461 1.32 26.2501 1.66 25.8021 2.34C25.3541 3.02 25.1301 3.904 25.1301 4.992V5.028C25.7141 4.172 26.5101 3.744 27.5181 3.744C28.3261 3.744 29.0101 3.984 29.5701 4.464C30.1381 4.944 30.4221 5.572 30.4221 6.348C30.4221 7.156 30.1341 7.824 29.5581 8.352C28.9821 8.88 28.2661 9.144 27.4101 9.144ZM27.4221 8.304C28.0301 8.304 28.5181 8.12 28.8861 7.752C29.2621 7.384 29.4501 6.92 29.4501 6.36C29.4501 5.84 29.2581 5.412 28.8741 5.076C28.4901 4.732 27.9981 4.56 27.3981 4.56C26.7901 4.56 26.2861 4.748 25.8861 5.124C25.4941 5.492 25.2981 5.924 25.2981 6.42C25.2981 6.956 25.4981 7.404 25.8981 7.764C26.2981 8.124 26.8061 8.304 27.4221 8.304ZM34.7984 9.144C33.4784 9.144 32.4344 8.644 31.6664 7.644L32.3504 7.032C33.0304 7.864 33.8504 8.28 34.8104 8.28C35.3304 8.28 35.7664 8.128 36.1184 7.824C36.4704 7.52 36.6464 7.12 36.6464 6.624C36.6464 6.112 36.4304 5.716 35.9984 5.436C35.5664 5.148 34.9984 5.004 34.2944 5.004H33.7544L33.5624 4.44L36.2144 1.452H32.1104V0.599999H37.4744V1.296L34.8344 4.224C35.6344 4.288 36.2944 4.52 36.8144 4.92C37.3424 5.312 37.6064 5.876 37.6064 6.612C37.6064 7.348 37.3344 7.956 36.7904 8.436C36.2544 8.908 35.5904 9.144 34.7984 9.144ZM42.0618 9.144C40.9498 9.144 39.9498 8.7 39.0618 7.812L39.6858 7.128C40.4778 7.896 41.2738 8.28 42.0738 8.28C42.6738 8.28 43.1618 8.104 43.5378 7.752C43.9138 7.4 44.1018 6.948 44.1018 6.396C44.1018 5.876 43.9058 5.452 43.5138 5.124C43.1298 4.796 42.6298 4.632 42.0138 4.632C41.4378 4.632 40.8498 4.792 40.2498 5.112L39.6138 4.692L39.8538 0.599999H44.6898V1.476H40.6818L40.5018 4.164C41.0698 3.916 41.6218 3.792 42.1578 3.792C42.9978 3.792 43.6898 4.028 44.2338 4.5C44.7858 4.964 45.0618 5.592 45.0618 6.384C45.0618 7.2 44.7818 7.864 44.2218 8.376C43.6618 8.888 42.9418 9.144 42.0618 9.144ZM46.6974 9V7.74H47.8014V9H46.6974ZM52.3508 9.144C51.2388 9.144 50.2388 8.7 49.3508 7.812L49.9748 7.128C50.7668 7.896 51.5628 8.28 52.3628 8.28C52.9628 8.28 53.4508 8.104 53.8268 7.752C54.2028 7.4 54.3908 6.948 54.3908 6.396C54.3908 5.876 54.1948 5.452 53.8028 5.124C53.4188 4.796 52.9188 4.632 52.3028 4.632C51.7268 4.632 51.1388 4.792 50.5388 5.112L49.9028 4.692L50.1428 0.599999H54.9788V1.476H50.9708L50.7908 4.164C51.3588 3.916 51.9108 3.792 52.4468 3.792C53.2868 3.792 53.9788 4.028 54.5228 4.5C55.0748 4.964 55.3508 5.592 55.3508 6.384C55.3508 7.2 55.0708 7.864 54.5108 8.376C53.9508 8.888 53.2308 9.144 52.3508 9.144Z" transform="translate(574.999 113)" fill="#7C90B9"/>
<path d="M0.78 5.88V4.908H4.116V5.88H0.78ZM9.07209 9V8.268L12.1201 5.58C12.7761 5.004 13.2321 4.524 13.4881 4.14C13.7441 3.756 13.8721 3.356 13.8721 2.94C13.8721 2.46 13.7081 2.072 13.3801 1.776C13.0521 1.48 12.6521 1.332 12.1801 1.332C11.7241 1.332 11.3201 1.448 10.9681 1.68C10.6241 1.912 10.2761 2.276 9.92409 2.772L9.22809 2.268C9.63609 1.66 10.0681 1.212 10.5241 0.924C10.9801 0.628 11.5561 0.48 12.2521 0.48C13.0041 0.48 13.6241 0.707999 14.1121 1.164C14.6081 1.612 14.8561 2.184 14.8561 2.88C14.8561 3.456 14.7001 3.968 14.3881 4.416C14.0761 4.864 13.5241 5.44 12.7321 6.144L10.4881 8.136H14.9401V9H9.07209ZM19.4117 9.144C18.0917 9.144 17.0477 8.644 16.2797 7.644L16.9637 7.032C17.6437 7.864 18.4637 8.28 19.4237 8.28C19.9437 8.28 20.3797 8.128 20.7317 7.824C21.0837 7.52 21.2597 7.12 21.2597 6.624C21.2597 6.112 21.0437 5.716 20.6117 5.436C20.1797 5.148 19.6117 5.004 18.9077 5.004H18.3677L18.1757 4.44L20.8277 1.452H16.7237V0.599999H22.0877V1.296L19.4477 4.224C20.2477 4.288 20.9077 4.52 21.4277 4.92C21.9557 5.312 22.2197 5.876 22.2197 6.612C22.2197 7.348 21.9477 7.956 21.4037 8.436C20.8677 8.908 20.2037 9.144 19.4117 9.144ZM29.0751 8.46C28.4751 8.9 27.7231 9.12 26.8191 9.12C25.9151 9.12 25.1631 8.896 24.5631 8.448C23.9631 8 23.6631 7.424 23.6631 6.72C23.6631 6.24 23.8191 5.824 24.1311 5.472C24.4431 5.12 24.8631 4.848 25.3911 4.656C24.4311 4.216 23.9511 3.564 23.9511 2.7C23.9511 2.068 24.2311 1.54 24.7911 1.116C25.3591 0.692 26.0351 0.48 26.8191 0.48C27.6031 0.48 28.2751 0.692 28.8351 1.116C29.4031 1.54 29.6871 2.076 29.6871 2.724C29.6871 3.572 29.2071 4.216 28.2471 4.656C29.3991 5.088 29.9751 5.78 29.9751 6.732C29.9751 7.436 29.6751 8.012 29.0751 8.46ZM25.4511 3.888C25.8191 4.176 26.2751 4.32 26.8191 4.32C27.3631 4.32 27.8191 4.176 28.1871 3.888C28.5551 3.6 28.7391 3.224 28.7391 2.76C28.7391 2.344 28.5551 2 28.1871 1.728C27.8191 1.448 27.3631 1.308 26.8191 1.308C26.2671 1.308 25.8071 1.448 25.4391 1.728C25.0791 2 24.8991 2.352 24.8991 2.784C24.8991 3.232 25.0831 3.6 25.4511 3.888ZM25.2111 7.836C25.6111 8.14 26.1471 8.292 26.8191 8.292C27.4911 8.292 28.0231 8.14 28.4151 7.836C28.8151 7.532 29.0151 7.152 29.0151 6.696C29.0151 6.232 28.8031 5.852 28.3791 5.556C27.9551 5.252 27.4351 5.1 26.8191 5.1C26.1951 5.1 25.6711 5.252 25.2471 5.556C24.8311 5.86 24.6231 6.248 24.6231 6.72C24.6231 7.16 24.8191 7.532 25.2111 7.836ZM34.5937 9.144C33.5857 9.144 32.7897 8.812 32.2057 8.148C31.6217 7.484 31.3297 6.44 31.3297 5.016C31.3297 3.704 31.6417 2.616 32.2657 1.752C32.8977 0.888 33.7497 0.456 34.8217 0.456C35.6937 0.456 36.5217 0.776 37.3057 1.416L36.7537 2.148C36.0977 1.596 35.4377 1.32 34.7737 1.32C34.0297 1.32 33.4337 1.66 32.9857 2.34C32.5377 3.02 32.3137 3.904 32.3137 4.992V5.028C32.8977 4.172 33.6937 3.744 34.7017 3.744C35.5097 3.744 36.1937 3.984 36.7537 4.464C37.3217 4.944 37.6057 5.572 37.6057 6.348C37.6057 7.156 37.3177 7.824 36.7417 8.352C36.1657 8.88 35.4497 9.144 34.5937 9.144ZM34.6057 8.304C35.2137 8.304 35.7017 8.12 36.0697 7.752C36.4457 7.384 36.6337 6.92 36.6337 6.36C36.6337 5.84 36.4417 5.412 36.0577 5.076C35.6737 4.732 35.1817 4.56 34.5817 4.56C33.9737 4.56 33.4697 4.748 33.0697 5.124C32.6777 5.492 32.4817 5.924 32.4817 6.42C32.4817 6.956 32.6817 7.404 33.0817 7.764C33.4817 8.124 33.9897 8.304 34.6057 8.304ZM41.982 9.144C40.662 9.144 39.618 8.644 38.85 7.644L39.534 7.032C40.214 7.864 41.034 8.28 41.994 8.28C42.514 8.28 42.95 8.128 43.302 7.824C43.654 7.52 43.83 7.12 43.83 6.624C43.83 6.112 43.614 5.716 43.182 5.436C42.75 5.148 42.182 5.004 41.478 5.004H40.938L40.746 4.44L43.398 1.452H39.294V0.599999H44.658V1.296L42.018 4.224C42.818 4.288 43.478 4.52 43.998 4.92C44.526 5.312 44.79 5.876 44.79 6.612C44.79 7.348 44.518 7.956 43.974 8.436C43.438 8.908 42.774 9.144 41.982 9.144ZM46.5334 9V7.74H47.6374V9H46.5334ZM55.1684 7.884C54.5124 8.724 53.6564 9.144 52.6004 9.144C51.5444 9.144 50.6884 8.728 50.0324 7.896C49.3844 7.056 49.0604 6.024 49.0604 4.8C49.0604 3.592 49.3884 2.568 50.0444 1.728C50.7084 0.88 51.5684 0.456 52.6244 0.456C53.6804 0.456 54.5324 0.876 55.1804 1.716C55.8284 2.548 56.1524 3.576 56.1524 4.8C56.1524 6.008 55.8244 7.036 55.1684 7.884ZM50.7644 7.26C51.2444 7.94 51.8644 8.28 52.6244 8.28C53.3844 8.28 53.9964 7.944 54.4604 7.272C54.9324 6.592 55.1684 5.768 55.1684 4.8C55.1684 3.848 54.9284 3.032 54.4484 2.352C53.9764 1.664 53.3604 1.32 52.6004 1.32C51.8404 1.32 51.2244 1.66 50.7524 2.34C50.2804 3.012 50.0444 3.832 50.0444 4.8C50.0444 5.752 50.2844 6.572 50.7644 7.26Z" transform="translate(574.999 147)" fill="#7C90B9"/>
<path d="M0.78 5.88V4.908H4.116V5.88H0.78ZM9.07209 9V8.268L12.1201 5.58C12.7761 5.004 13.2321 4.524 13.4881 4.14C13.7441 3.756 13.8721 3.356 13.8721 2.94C13.8721 2.46 13.7081 2.072 13.3801 1.776C13.0521 1.48 12.6521 1.332 12.1801 1.332C11.7241 1.332 11.3201 1.448 10.9681 1.68C10.6241 1.912 10.2761 2.276 9.92409 2.772L9.22809 2.268C9.63609 1.66 10.0681 1.212 10.5241 0.924C10.9801 0.628 11.5561 0.48 12.2521 0.48C13.0041 0.48 13.6241 0.707999 14.1121 1.164C14.6081 1.612 14.8561 2.184 14.8561 2.88C14.8561 3.456 14.7001 3.968 14.3881 4.416C14.0761 4.864 13.5241 5.44 12.7321 6.144L10.4881 8.136H14.9401V9H9.07209ZM19.4117 9.144C18.0917 9.144 17.0477 8.644 16.2797 7.644L16.9637 7.032C17.6437 7.864 18.4637 8.28 19.4237 8.28C19.9437 8.28 20.3797 8.128 20.7317 7.824C21.0837 7.52 21.2597 7.12 21.2597 6.624C21.2597 6.112 21.0437 5.716 20.6117 5.436C20.1797 5.148 19.6117 5.004 18.9077 5.004H18.3677L18.1757 4.44L20.8277 1.452H16.7237V0.599999H22.0877V1.296L19.4477 4.224C20.2477 4.288 20.9077 4.52 21.4277 4.92C21.9557 5.312 22.2197 5.876 22.2197 6.612C22.2197 7.348 21.9477 7.956 21.4037 8.436C20.8677 8.908 20.2037 9.144 19.4117 9.144ZM25.1871 9V1.524L23.6031 2.016L23.3751 1.248L25.4271 0.539999H26.1231V9H25.1871ZM33.3758 8.46C32.7758 8.9 32.0238 9.12 31.1198 9.12C30.2158 9.12 29.4638 8.896 28.8638 8.448C28.2638 8 27.9638 7.424 27.9638 6.72C27.9638 6.24 28.1198 5.824 28.4318 5.472C28.7438 5.12 29.1638 4.848 29.6918 4.656C28.7318 4.216 28.2518 3.564 28.2518 2.7C28.2518 2.068 28.5318 1.54 29.0918 1.116C29.6598 0.692 30.3358 0.48 31.1198 0.48C31.9038 0.48 32.5758 0.692 33.1358 1.116C33.7038 1.54 33.9878 2.076 33.9878 2.724C33.9878 3.572 33.5078 4.216 32.5478 4.656C33.6998 5.088 34.2758 5.78 34.2758 6.732C34.2758 7.436 33.9758 8.012 33.3758 8.46ZM29.7518 3.888C30.1198 4.176 30.5758 4.32 31.1198 4.32C31.6638 4.32 32.1198 4.176 32.4878 3.888C32.8558 3.6 33.0398 3.224 33.0398 2.76C33.0398 2.344 32.8558 2 32.4878 1.728C32.1198 1.448 31.6638 1.308 31.1198 1.308C30.5678 1.308 30.1078 1.448 29.7398 1.728C29.3798 2 29.1998 2.352 29.1998 2.784C29.1998 3.232 29.3838 3.6 29.7518 3.888ZM29.5118 7.836C29.9118 8.14 30.4478 8.292 31.1198 8.292C31.7918 8.292 32.3238 8.14 32.7158 7.836C33.1158 7.532 33.3158 7.152 33.3158 6.696C33.3158 6.232 33.1038 5.852 32.6798 5.556C32.2558 5.252 31.7358 5.1 31.1198 5.1C30.4958 5.1 29.9718 5.252 29.5478 5.556C29.1318 5.86 28.9238 6.248 28.9238 6.72C28.9238 7.16 29.1198 7.532 29.5118 7.836ZM38.6304 9.144C37.3104 9.144 36.2664 8.644 35.4984 7.644L36.1824 7.032C36.8624 7.864 37.6824 8.28 38.6424 8.28C39.1624 8.28 39.5984 8.128 39.9504 7.824C40.3024 7.52 40.4784 7.12 40.4784 6.624C40.4784 6.112 40.2624 5.716 39.8304 5.436C39.3984 5.148 38.8304 5.004 38.1264 5.004H37.5864L37.3944 4.44L40.0464 1.452H35.9424V0.599999H41.3064V1.296L38.6664 4.224C39.4664 4.288 40.1264 4.52 40.6464 4.92C41.1744 5.312 41.4384 5.876 41.4384 6.612C41.4384 7.348 41.1664 7.956 40.6224 8.436C40.0864 8.908 39.4224 9.144 38.6304 9.144ZM43.1818 9V7.74H44.2858V9H43.1818ZM51.8168 7.884C51.1608 8.724 50.3048 9.144 49.2488 9.144C48.1928 9.144 47.3368 8.728 46.6808 7.896C46.0328 7.056 45.7088 6.024 45.7088 4.8C45.7088 3.592 46.0368 2.568 46.6928 1.728C47.3568 0.88 48.2168 0.456 49.2728 0.456C50.3288 0.456 51.1808 0.876 51.8288 1.716C52.4768 2.548 52.8008 3.576 52.8008 4.8C52.8008 6.008 52.4728 7.036 51.8168 7.884ZM47.4128 7.26C47.8928 7.94 48.5128 8.28 49.2728 8.28C50.0328 8.28 50.6448 7.944 51.1088 7.272C51.5808 6.592 51.8168 5.768 51.8168 4.8C51.8168 3.848 51.5768 3.032 51.0968 2.352C50.6248 1.664 50.0088 1.32 49.2488 1.32C48.4888 1.32 47.8728 1.66 47.4008 2.34C46.9288 3.012 46.6928 3.832 46.6928 4.8C46.6928 5.752 46.9328 6.572 47.4128 7.26Z" transform="translate(577.999 181)" fill="#7C90B9"/>
<path d="M0.78 5.88V4.908H4.116V5.88H0.78ZM9.07209 9V8.268L12.1201 5.58C12.7761 5.004 13.2321 4.524 13.4881 4.14C13.7441 3.756 13.8721 3.356 13.8721 2.94C13.8721 2.46 13.7081 2.072 13.3801 1.776C13.0521 1.48 12.6521 1.332 12.1801 1.332C11.7241 1.332 11.3201 1.448 10.9681 1.68C10.6241 1.912 10.2761 2.276 9.92409 2.772L9.22809 2.268C9.63609 1.66 10.0681 1.212 10.5241 0.924C10.9801 0.628 11.5561 0.48 12.2521 0.48C13.0041 0.48 13.6241 0.707999 14.1121 1.164C14.6081 1.612 14.8561 2.184 14.8561 2.88C14.8561 3.456 14.7001 3.968 14.3881 4.416C14.0761 4.864 13.5241 5.44 12.7321 6.144L10.4881 8.136H14.9401V9H9.07209ZM16.2557 9V8.268L19.3037 5.58C19.9597 5.004 20.4157 4.524 20.6717 4.14C20.9277 3.756 21.0557 3.356 21.0557 2.94C21.0557 2.46 20.8917 2.072 20.5637 1.776C20.2357 1.48 19.8357 1.332 19.3637 1.332C18.9077 1.332 18.5037 1.448 18.1517 1.68C17.8077 1.912 17.4597 2.276 17.1077 2.772L16.4117 2.268C16.8197 1.66 17.2517 1.212 17.7077 0.924C18.1637 0.628 18.7397 0.48 19.4357 0.48C20.1877 0.48 20.8077 0.707999 21.2957 1.164C21.7917 1.612 22.0397 2.184 22.0397 2.88C22.0397 3.456 21.8837 3.968 21.5717 4.416C21.2597 4.864 20.7077 5.44 19.9157 6.144L17.6717 8.136H22.1237V9H16.2557ZM26.4993 9.144C25.3873 9.144 24.3873 8.7 23.4993 7.812L24.1233 7.128C24.9153 7.896 25.7113 8.28 26.5113 8.28C27.1113 8.28 27.5993 8.104 27.9753 7.752C28.3513 7.4 28.5393 6.948 28.5393 6.396C28.5393 5.876 28.3433 5.452 27.9513 5.124C27.5673 4.796 27.0673 4.632 26.4513 4.632C25.8753 4.632 25.2873 4.792 24.6873 5.112L24.0513 4.692L24.2913 0.599999H29.1273V1.476H25.1193L24.9393 4.164C25.5073 3.916 26.0593 3.792 26.5953 3.792C27.4353 3.792 28.1273 4.028 28.6713 4.5C29.2233 4.964 29.4993 5.592 29.4993 6.384C29.4993 7.2 29.2193 7.864 28.6593 8.376C28.0993 8.888 27.3793 9.144 26.4993 9.144ZM30.6698 9V8.268L33.7178 5.58C34.3738 5.004 34.8298 4.524 35.0858 4.14C35.3418 3.756 35.4698 3.356 35.4698 2.94C35.4698 2.46 35.3058 2.072 34.9778 1.776C34.6498 1.48 34.2498 1.332 33.7778 1.332C33.3218 1.332 32.9178 1.448 32.5658 1.68C32.2218 1.912 31.8738 2.276 31.5218 2.772L30.8258 2.268C31.2338 1.66 31.6658 1.212 32.1218 0.924C32.5778 0.628 33.1538 0.48 33.8498 0.48C34.6018 0.48 35.2218 0.707999 35.7098 1.164C36.2058 1.612 36.4538 2.184 36.4538 2.88C36.4538 3.456 36.2978 3.968 35.9858 4.416C35.6738 4.864 35.1218 5.44 34.3298 6.144L32.0858 8.136H36.5378V9H30.6698ZM41.0093 9.144C39.6893 9.144 38.6453 8.644 37.8773 7.644L38.5613 7.032C39.2413 7.864 40.0613 8.28 41.0213 8.28C41.5413 8.28 41.9773 8.128 42.3293 7.824C42.6813 7.52 42.8573 7.12 42.8573 6.624C42.8573 6.112 42.6413 5.716 42.2093 5.436C41.7773 5.148 41.2093 5.004 40.5053 5.004H39.9653L39.7733 4.44L42.4253 1.452H38.3213V0.599999H43.6853V1.296L41.0453 4.224C41.8453 4.288 42.5053 4.52 43.0253 4.92C43.5533 5.312 43.8173 5.876 43.8173 6.612C43.8173 7.348 43.5453 7.956 43.0013 8.436C42.4653 8.908 41.8013 9.144 41.0093 9.144ZM45.5607 9V7.74H46.6647V9H45.5607ZM54.1958 7.884C53.5398 8.724 52.6838 9.144 51.6278 9.144C50.5718 9.144 49.7158 8.728 49.0598 7.896C48.4118 7.056 48.0878 6.024 48.0878 4.8C48.0878 3.592 48.4158 2.568 49.0718 1.728C49.7358 0.88 50.5958 0.456 51.6518 0.456C52.7078 0.456 53.5598 0.876 54.2078 1.716C54.8558 2.548 55.1798 3.576 55.1798 4.8C55.1798 6.008 54.8518 7.036 54.1958 7.884ZM49.7918 7.26C50.2718 7.94 50.8918 8.28 51.6518 8.28C52.4118 8.28 53.0238 7.944 53.4878 7.272C53.9598 6.592 54.1958 5.768 54.1958 4.8C54.1958 3.848 53.9558 3.032 53.4758 2.352C53.0038 1.664 52.3878 1.32 51.6278 1.32C50.8678 1.32 50.2518 1.66 49.7798 2.34C49.3078 3.012 49.0718 3.832 49.0718 4.8C49.0718 5.752 49.3118 6.572 49.7918 7.26Z" transform="translate(575.999 215)" fill="#7C90B9"/>
<path d="M0.78 5.88V4.908H4.116V5.88H0.78ZM9.07209 9V8.268L12.1201 5.58C12.7761 5.004 13.2321 4.524 13.4881 4.14C13.7441 3.756 13.8721 3.356 13.8721 2.94C13.8721 2.46 13.7081 2.072 13.3801 1.776C13.0521 1.48 12.6521 1.332 12.1801 1.332C11.7241 1.332 11.3201 1.448 10.9681 1.68C10.6241 1.912 10.2761 2.276 9.92409 2.772L9.22809 2.268C9.63609 1.66 10.0681 1.212 10.5241 0.924C10.9801 0.628 11.5561 0.48 12.2521 0.48C13.0041 0.48 13.6241 0.707999 14.1121 1.164C14.6081 1.612 14.8561 2.184 14.8561 2.88C14.8561 3.456 14.7001 3.968 14.3881 4.416C14.0761 4.864 13.5241 5.44 12.7321 6.144L10.4881 8.136H14.9401V9H9.07209ZM17.8277 9V1.524L16.2437 2.016L16.0157 1.248L18.0677 0.539999H18.7637V9H17.8277ZM26.0165 8.46C25.4165 8.9 24.6645 9.12 23.7605 9.12C22.8565 9.12 22.1045 8.896 21.5045 8.448C20.9045 8 20.6045 7.424 20.6045 6.72C20.6045 6.24 20.7605 5.824 21.0725 5.472C21.3845 5.12 21.8045 4.848 22.3325 4.656C21.3725 4.216 20.8925 3.564 20.8925 2.7C20.8925 2.068 21.1725 1.54 21.7325 1.116C22.3005 0.692 22.9765 0.48 23.7605 0.48C24.5445 0.48 25.2165 0.692 25.7765 1.116C26.3445 1.54 26.6285 2.076 26.6285 2.724C26.6285 3.572 26.1485 4.216 25.1885 4.656C26.3405 5.088 26.9165 5.78 26.9165 6.732C26.9165 7.436 26.6165 8.012 26.0165 8.46ZM22.3925 3.888C22.7605 4.176 23.2165 4.32 23.7605 4.32C24.3045 4.32 24.7605 4.176 25.1285 3.888C25.4965 3.6 25.6805 3.224 25.6805 2.76C25.6805 2.344 25.4965 2 25.1285 1.728C24.7605 1.448 24.3045 1.308 23.7605 1.308C23.2085 1.308 22.7485 1.448 22.3805 1.728C22.0205 2 21.8405 2.352 21.8405 2.784C21.8405 3.232 22.0245 3.6 22.3925 3.888ZM22.1525 7.836C22.5525 8.14 23.0885 8.292 23.7605 8.292C24.4325 8.292 24.9645 8.14 25.3565 7.836C25.7565 7.532 25.9565 7.152 25.9565 6.696C25.9565 6.232 25.7445 5.852 25.3205 5.556C24.8965 5.252 24.3765 5.1 23.7605 5.1C23.1365 5.1 22.6125 5.252 22.1885 5.556C21.7725 5.86 21.5645 6.248 21.5645 6.72C21.5645 7.16 21.7605 7.532 22.1525 7.836ZM32.7231 9V7.008H28.2951L28.0551 6.324L32.8071 0.539999H33.6351V6.216H34.9431V7.008H33.6351V9H32.7231ZM29.1951 6.216H32.7231V1.884L29.1951 6.216ZM39.3218 9.144C38.0018 9.144 36.9578 8.644 36.1898 7.644L36.8738 7.032C37.5538 7.864 38.3738 8.28 39.3338 8.28C39.8538 8.28 40.2898 8.128 40.6418 7.824C40.9938 7.52 41.1698 7.12 41.1698 6.624C41.1698 6.112 40.9538 5.716 40.5218 5.436C40.0898 5.148 39.5218 5.004 38.8178 5.004H38.2778L38.0858 4.44L40.7378 1.452H36.6338V0.599999H41.9978V1.296L39.3578 4.224C40.1578 4.288 40.8178 4.52 41.3378 4.92C41.8658 5.312 42.1298 5.876 42.1298 6.612C42.1298 7.348 41.8578 7.956 41.3138 8.436C40.7778 8.908 40.1138 9.144 39.3218 9.144ZM43.8732 9V7.74H44.9772V9H43.8732ZM52.5083 7.884C51.8523 8.724 50.9963 9.144 49.9403 9.144C48.8843 9.144 48.0283 8.728 47.3723 7.896C46.7243 7.056 46.4003 6.024 46.4003 4.8C46.4003 3.592 46.7283 2.568 47.3843 1.728C48.0483 0.88 48.9083 0.456 49.9643 0.456C51.0203 0.456 51.8723 0.876 52.5203 1.716C53.1683 2.548 53.4923 3.576 53.4923 4.8C53.4923 6.008 53.1643 7.036 52.5083 7.884ZM48.1043 7.26C48.5843 7.94 49.2043 8.28 49.9643 8.28C50.7243 8.28 51.3363 7.944 51.8003 7.272C52.2723 6.592 52.5083 5.768 52.5083 4.8C52.5083 3.848 52.2683 3.032 51.7883 2.352C51.3163 1.664 50.7003 1.32 49.9403 1.32C49.1803 1.32 48.5643 1.66 48.0923 2.34C47.6203 3.012 47.3843 3.832 47.3843 4.8C47.3843 5.752 47.6243 6.572 48.1043 7.26Z" transform="translate(576.999 249)" fill="#7C90B9"/>
<path d="M0.78 5.88V4.908H4.116V5.88H0.78ZM9.07209 9V8.268L12.1201 5.58C12.7761 5.004 13.2321 4.524 13.4881 4.14C13.7441 3.756 13.8721 3.356 13.8721 2.94C13.8721 2.46 13.7081 2.072 13.3801 1.776C13.0521 1.48 12.6521 1.332 12.1801 1.332C11.7241 1.332 11.3201 1.448 10.9681 1.68C10.6241 1.912 10.2761 2.276 9.92409 2.772L9.22809 2.268C9.63609 1.66 10.0681 1.212 10.5241 0.924C10.9801 0.628 11.5561 0.48 12.2521 0.48C13.0041 0.48 13.6241 0.707999 14.1121 1.164C14.6081 1.612 14.8561 2.184 14.8561 2.88C14.8561 3.456 14.7001 3.968 14.3881 4.416C14.0761 4.864 13.5241 5.44 12.7321 6.144L10.4881 8.136H14.9401V9H9.07209ZM17.8277 9V1.524L16.2437 2.016L16.0157 1.248L18.0677 0.539999H18.7637V9H17.8277ZM22.1285 9V1.524L20.5445 2.016L20.3165 1.248L22.3685 0.539999H23.0645V9H22.1285ZM28.2773 9.144C27.2693 9.144 26.4733 8.812 25.8893 8.148C25.3053 7.484 25.0133 6.44 25.0133 5.016C25.0133 3.704 25.3253 2.616 25.9493 1.752C26.5813 0.888 27.4333 0.456 28.5053 0.456C29.3773 0.456 30.2053 0.776 30.9893 1.416L30.4373 2.148C29.7813 1.596 29.1213 1.32 28.4573 1.32C27.7133 1.32 27.1173 1.66 26.6693 2.34C26.2213 3.02 25.9973 3.904 25.9973 4.992V5.028C26.5813 4.172 27.3773 3.744 28.3853 3.744C29.1933 3.744 29.8773 3.984 30.4373 4.464C31.0053 4.944 31.2893 5.572 31.2893 6.348C31.2893 7.156 31.0013 7.824 30.4253 8.352C29.8493 8.88 29.1333 9.144 28.2773 9.144ZM28.2893 8.304C28.8973 8.304 29.3853 8.12 29.7533 7.752C30.1293 7.384 30.3173 6.92 30.3173 6.36C30.3173 5.84 30.1253 5.412 29.7413 5.076C29.3573 4.732 28.8653 4.56 28.2653 4.56C27.6573 4.56 27.1533 4.748 26.7533 5.124C26.3613 5.492 26.1653 5.924 26.1653 6.42C26.1653 6.956 26.3653 7.404 26.7653 7.764C27.1653 8.124 27.6733 8.304 28.2893 8.304ZM35.6656 9.144C34.3456 9.144 33.3016 8.644 32.5336 7.644L33.2176 7.032C33.8976 7.864 34.7176 8.28 35.6776 8.28C36.1976 8.28 36.6336 8.128 36.9856 7.824C37.3376 7.52 37.5136 7.12 37.5136 6.624C37.5136 6.112 37.2976 5.716 36.8656 5.436C36.4336 5.148 35.8656 5.004 35.1616 5.004H34.6216L34.4296 4.44L37.0816 1.452H32.9776V0.599999H38.3416V1.296L35.7016 4.224C36.5016 4.288 37.1616 4.52 37.6816 4.92C38.2096 5.312 38.4736 5.876 38.4736 6.612C38.4736 7.348 38.2016 7.956 37.6576 8.436C37.1216 8.908 36.4576 9.144 35.6656 9.144ZM40.217 9V7.74H41.321V9H40.217ZM48.852 7.884C48.196 8.724 47.34 9.144 46.284 9.144C45.228 9.144 44.372 8.728 43.716 7.896C43.068 7.056 42.744 6.024 42.744 4.8C42.744 3.592 43.072 2.568 43.728 1.728C44.392 0.88 45.252 0.456 46.308 0.456C47.364 0.456 48.216 0.876 48.864 1.716C49.512 2.548 49.836 3.576 49.836 4.8C49.836 6.008 49.508 7.036 48.852 7.884ZM44.448 7.26C44.928 7.94 45.548 8.28 46.308 8.28C47.068 8.28 47.68 7.944 48.144 7.272C48.616 6.592 48.852 5.768 48.852 4.8C48.852 3.848 48.612 3.032 48.132 2.352C47.66 1.664 47.044 1.32 46.284 1.32C45.524 1.32 44.908 1.66 44.436 2.34C43.964 3.012 43.728 3.832 43.728 4.8C43.728 5.752 43.968 6.572 44.448 7.26Z" transform="translate(580.999 283)" fill="#7C90B9"/>
<path d="M0.78 5.88V4.908H4.116V5.88H0.78ZM9.07209 9V8.268L12.1201 5.58C12.7761 5.004 13.2321 4.524 13.4881 4.14C13.7441 3.756 13.8721 3.356 13.8721 2.94C13.8721 2.46 13.7081 2.072 13.3801 1.776C13.0521 1.48 12.6521 1.332 12.1801 1.332C11.7241 1.332 11.3201 1.448 10.9681 1.68C10.6241 1.912 10.2761 2.276 9.92409 2.772L9.22809 2.268C9.63609 1.66 10.0681 1.212 10.5241 0.924C10.9801 0.628 11.5561 0.48 12.2521 0.48C13.0041 0.48 13.6241 0.707999 14.1121 1.164C14.6081 1.612 14.8561 2.184 14.8561 2.88C14.8561 3.456 14.7001 3.968 14.3881 4.416C14.0761 4.864 13.5241 5.44 12.7321 6.144L10.4881 8.136H14.9401V9H9.07209ZM22.5317 7.884C21.8757 8.724 21.0197 9.144 19.9637 9.144C18.9077 9.144 18.0517 8.728 17.3957 7.896C16.7477 7.056 16.4237 6.024 16.4237 4.8C16.4237 3.592 16.7517 2.568 17.4077 1.728C18.0717 0.88 18.9317 0.456 19.9877 0.456C21.0437 0.456 21.8957 0.876 22.5437 1.716C23.1917 2.548 23.5157 3.576 23.5157 4.8C23.5157 6.008 23.1877 7.036 22.5317 7.884ZM18.1277 7.26C18.6077 7.94 19.2277 8.28 19.9877 8.28C20.7477 8.28 21.3597 7.944 21.8237 7.272C22.2957 6.592 22.5317 5.768 22.5317 4.8C22.5317 3.848 22.2917 3.032 21.8117 2.352C21.3397 1.664 20.7237 1.32 19.9637 1.32C19.2037 1.32 18.5877 1.66 18.1157 2.34C17.6437 3.012 17.4077 3.832 17.4077 4.8C17.4077 5.752 17.6477 6.572 18.1277 7.26ZM29.4418 9V7.008H25.0138L24.7738 6.324L29.5258 0.539999H30.3538V6.216H31.6618V7.008H30.3538V9H29.4418ZM25.9138 6.216H29.4418V1.884L25.9138 6.216ZM38.3446 8.46C37.7446 8.9 36.9926 9.12 36.0886 9.12C35.1846 9.12 34.4326 8.896 33.8326 8.448C33.2326 8 32.9326 7.424 32.9326 6.72C32.9326 6.24 33.0886 5.824 33.4006 5.472C33.7126 5.12 34.1326 4.848 34.6606 4.656C33.7006 4.216 33.2206 3.564 33.2206 2.7C33.2206 2.068 33.5006 1.54 34.0606 1.116C34.6286 0.692 35.3046 0.48 36.0886 0.48C36.8726 0.48 37.5446 0.692 38.1046 1.116C38.6726 1.54 38.9566 2.076 38.9566 2.724C38.9566 3.572 38.4766 4.216 37.5166 4.656C38.6686 5.088 39.2446 5.78 39.2446 6.732C39.2446 7.436 38.9446 8.012 38.3446 8.46ZM34.7206 3.888C35.0886 4.176 35.5446 4.32 36.0886 4.32C36.6326 4.32 37.0886 4.176 37.4566 3.888C37.8246 3.6 38.0086 3.224 38.0086 2.76C38.0086 2.344 37.8246 2 37.4566 1.728C37.0886 1.448 36.6326 1.308 36.0886 1.308C35.5366 1.308 35.0766 1.448 34.7086 1.728C34.3486 2 34.1686 2.352 34.1686 2.784C34.1686 3.232 34.3526 3.6 34.7206 3.888ZM34.4806 7.836C34.8806 8.14 35.4166 8.292 36.0886 8.292C36.7606 8.292 37.2926 8.14 37.6846 7.836C38.0846 7.532 38.2846 7.152 38.2846 6.696C38.2846 6.232 38.0726 5.852 37.6486 5.556C37.2246 5.252 36.7046 5.1 36.0886 5.1C35.4646 5.1 34.9406 5.252 34.5166 5.556C34.1006 5.86 33.8926 6.248 33.8926 6.72C33.8926 7.16 34.0886 7.532 34.4806 7.836ZM43.5992 9.144C42.2792 9.144 41.2352 8.644 40.4672 7.644L41.1512 7.032C41.8312 7.864 42.6512 8.28 43.6112 8.28C44.1312 8.28 44.5672 8.128 44.9192 7.824C45.2712 7.52 45.4472 7.12 45.4472 6.624C45.4472 6.112 45.2312 5.716 44.7992 5.436C44.3672 5.148 43.7992 5.004 43.0952 5.004H42.5552L42.3632 4.44L45.0152 1.452H40.9112V0.599999H46.2752V1.296L43.6352 4.224C44.4352 4.288 45.0952 4.52 45.6152 4.92C46.1432 5.312 46.4072 5.876 46.4072 6.612C46.4072 7.348 46.1352 7.956 45.5912 8.436C45.0552 8.908 44.3912 9.144 43.5992 9.144ZM48.1506 9V7.74H49.2546V9H48.1506ZM56.7856 7.884C56.1296 8.724 55.2736 9.144 54.2176 9.144C53.1616 9.144 52.3056 8.728 51.6496 7.896C51.0016 7.056 50.6776 6.024 50.6776 4.8C50.6776 3.592 51.0056 2.568 51.6616 1.728C52.3256 0.88 53.1856 0.456 54.2416 0.456C55.2976 0.456 56.1496 0.876 56.7976 1.716C57.4456 2.548 57.7696 3.576 57.7696 4.8C57.7696 6.008 57.4416 7.036 56.7856 7.884ZM52.3816 7.26C52.8616 7.94 53.4816 8.28 54.2416 8.28C55.0016 8.28 55.6136 7.944 56.0776 7.272C56.5496 6.592 56.7856 5.768 56.7856 4.8C56.7856 3.848 56.5456 3.032 56.0656 2.352C55.5936 1.664 54.9776 1.32 54.2176 1.32C53.4576 1.32 52.8416 1.66 52.3696 2.34C51.8976 3.012 51.6616 3.832 51.6616 4.8C51.6616 5.752 51.9016 6.572 52.3816 7.26Z" transform="translate(572.999 317)" fill="#7C90B9"/>
<path d="M0.78 5.88V4.908H4.116V5.88H0.78ZM10.6441 9V1.524L9.06009 2.016L8.83209 1.248L10.8841 0.539999H11.5801V9H10.6441ZM16.3369 9.144C15.4409 9.144 14.5769 8.8 13.7449 8.112L14.2969 7.38C14.9769 7.98 15.6649 8.28 16.3609 8.28C17.1049 8.28 17.7049 7.948 18.1609 7.284C18.6249 6.612 18.8569 5.752 18.8569 4.704V4.596C18.2969 5.492 17.5049 5.94 16.4809 5.94C15.6169 5.94 14.9129 5.696 14.3689 5.208C13.8249 4.712 13.5529 4.08 13.5529 3.312C13.5529 2.504 13.8369 1.828 14.4049 1.284C14.9729 0.732 15.6969 0.456 16.5769 0.456C17.5689 0.456 18.3569 0.788 18.9409 1.452C19.5329 2.116 19.8289 3.164 19.8289 4.596C19.8289 5.932 19.5049 7.024 18.8569 7.872C18.2089 8.72 17.3689 9.144 16.3369 9.144ZM16.5889 5.124C17.2049 5.124 17.7049 4.932 18.0889 4.548C18.4809 4.164 18.6769 3.716 18.6769 3.204C18.6769 2.66 18.4769 2.208 18.0769 1.848C17.6769 1.48 17.1649 1.296 16.5409 1.296C15.9329 1.296 15.4449 1.492 15.0769 1.884C14.7089 2.268 14.5249 2.736 14.5249 3.288C14.5249 3.824 14.7169 4.264 15.1009 4.608C15.4849 4.952 15.9809 5.124 16.5889 5.124ZM26.6024 8.46C26.0024 8.9 25.2504 9.12 24.3464 9.12C23.4424 9.12 22.6904 8.896 22.0904 8.448C21.4904 8 21.1904 7.424 21.1904 6.72C21.1904 6.24 21.3464 5.824 21.6584 5.472C21.9704 5.12 22.3904 4.848 22.9184 4.656C21.9584 4.216 21.4784 3.564 21.4784 2.7C21.4784 2.068 21.7584 1.54 22.3184 1.116C22.8864 0.692 23.5624 0.48 24.3464 0.48C25.1304 0.48 25.8024 0.692 26.3624 1.116C26.9304 1.54 27.2144 2.076 27.2144 2.724C27.2144 3.572 26.7344 4.216 25.7744 4.656C26.9264 5.088 27.5024 5.78 27.5024 6.732C27.5024 7.436 27.2024 8.012 26.6024 8.46ZM22.9784 3.888C23.3464 4.176 23.8024 4.32 24.3464 4.32C24.8904 4.32 25.3464 4.176 25.7144 3.888C26.0824 3.6 26.2664 3.224 26.2664 2.76C26.2664 2.344 26.0824 2 25.7144 1.728C25.3464 1.448 24.8904 1.308 24.3464 1.308C23.7944 1.308 23.3344 1.448 22.9664 1.728C22.6064 2 22.4264 2.352 22.4264 2.784C22.4264 3.232 22.6104 3.6 22.9784 3.888ZM22.7384 7.836C23.1384 8.14 23.6744 8.292 24.3464 8.292C25.0184 8.292 25.5504 8.14 25.9424 7.836C26.3424 7.532 26.5424 7.152 26.5424 6.696C26.5424 6.232 26.3304 5.852 25.9064 5.556C25.4824 5.252 24.9624 5.1 24.3464 5.1C23.7224 5.1 23.1984 5.252 22.7744 5.556C22.3584 5.86 22.1504 6.248 22.1504 6.72C22.1504 7.16 22.3464 7.532 22.7384 7.836ZM28.701 9V8.268L31.749 5.58C32.405 5.004 32.861 4.524 33.117 4.14C33.373 3.756 33.501 3.356 33.501 2.94C33.501 2.46 33.337 2.072 33.009 1.776C32.681 1.48 32.281 1.332 31.809 1.332C31.353 1.332 30.949 1.448 30.597 1.68C30.253 1.912 29.905 2.276 29.553 2.772L28.857 2.268C29.265 1.66 29.697 1.212 30.153 0.924C30.609 0.628 31.185 0.48 31.881 0.48C32.633 0.48 33.253 0.707999 33.741 1.164C34.237 1.612 34.485 2.184 34.485 2.88C34.485 3.456 34.329 3.968 34.017 4.416C33.705 4.864 33.153 5.44 32.361 6.144L30.117 8.136H34.569V9H28.701ZM39.0406 9.144C37.7206 9.144 36.6766 8.644 35.9086 7.644L36.5926 7.032C37.2726 7.864 38.0926 8.28 39.0526 8.28C39.5726 8.28 40.0086 8.128 40.3606 7.824C40.7126 7.52 40.8886 7.12 40.8886 6.624C40.8886 6.112 40.6726 5.716 40.2406 5.436C39.8086 5.148 39.2406 5.004 38.5366 5.004H37.9966L37.8046 4.44L40.4566 1.452H36.3526V0.599999H41.7166V1.296L39.0766 4.224C39.8766 4.288 40.5366 4.52 41.0566 4.92C41.5846 5.312 41.8486 5.876 41.8486 6.612C41.8486 7.348 41.5766 7.956 41.0326 8.436C40.4966 8.908 39.8326 9.144 39.0406 9.144ZM43.592 9V7.74H44.696V9H43.592ZM52.227 7.884C51.571 8.724 50.715 9.144 49.659 9.144C48.603 9.144 47.747 8.728 47.091 7.896C46.443 7.056 46.119 6.024 46.119 4.8C46.119 3.592 46.447 2.568 47.103 1.728C47.767 0.88 48.627 0.456 49.683 0.456C50.739 0.456 51.591 0.876 52.239 1.716C52.887 2.548 53.211 3.576 53.211 4.8C53.211 6.008 52.883 7.036 52.227 7.884ZM47.823 7.26C48.303 7.94 48.923 8.28 49.683 8.28C50.443 8.28 51.055 7.944 51.519 7.272C51.991 6.592 52.227 5.768 52.227 4.8C52.227 3.848 51.987 3.032 51.507 2.352C51.035 1.664 50.419 1.32 49.659 1.32C48.899 1.32 48.283 1.66 47.811 2.34C47.339 3.012 47.103 3.832 47.103 4.8C47.103 5.752 47.343 6.572 47.823 7.26Z" transform="translate(577.999 351)" fill="#7C90B9"/>
<path d="M0.78 5.88V4.908H4.116V5.88H0.78ZM10.6441 9V1.524L9.06009 2.016L8.83209 1.248L10.8841 0.539999H11.5801V9H10.6441ZM16.3369 9.144C15.4409 9.144 14.5769 8.8 13.7449 8.112L14.2969 7.38C14.9769 7.98 15.6649 8.28 16.3609 8.28C17.1049 8.28 17.7049 7.948 18.1609 7.284C18.6249 6.612 18.8569 5.752 18.8569 4.704V4.596C18.2969 5.492 17.5049 5.94 16.4809 5.94C15.6169 5.94 14.9129 5.696 14.3689 5.208C13.8249 4.712 13.5529 4.08 13.5529 3.312C13.5529 2.504 13.8369 1.828 14.4049 1.284C14.9729 0.732 15.6969 0.456 16.5769 0.456C17.5689 0.456 18.3569 0.788 18.9409 1.452C19.5329 2.116 19.8289 3.164 19.8289 4.596C19.8289 5.932 19.5049 7.024 18.8569 7.872C18.2089 8.72 17.3689 9.144 16.3369 9.144ZM16.5889 5.124C17.2049 5.124 17.7049 4.932 18.0889 4.548C18.4809 4.164 18.6769 3.716 18.6769 3.204C18.6769 2.66 18.4769 2.208 18.0769 1.848C17.6769 1.48 17.1649 1.296 16.5409 1.296C15.9329 1.296 15.4449 1.492 15.0769 1.884C14.7089 2.268 14.5249 2.736 14.5249 3.288C14.5249 3.824 14.7169 4.264 15.1009 4.608C15.4849 4.952 15.9809 5.124 16.5889 5.124ZM22.7144 9V1.524L21.1304 2.016L20.9024 1.248L22.9544 0.539999H23.6504V9H22.7144ZM30.0512 9V7.008H25.6232L25.3832 6.324L30.1352 0.539999H30.9632V6.216H32.2712V7.008H30.9632V9H30.0512ZM26.5232 6.216H30.0512V1.884L26.5232 6.216ZM36.65 9.144C35.33 9.144 34.286 8.644 33.518 7.644L34.202 7.032C34.882 7.864 35.702 8.28 36.662 8.28C37.182 8.28 37.618 8.128 37.97 7.824C38.322 7.52 38.498 7.12 38.498 6.624C38.498 6.112 38.282 5.716 37.85 5.436C37.418 5.148 36.85 5.004 36.146 5.004H35.606L35.414 4.44L38.066 1.452H33.962V0.599999H39.326V1.296L36.686 4.224C37.486 4.288 38.146 4.52 38.666 4.92C39.194 5.312 39.458 5.876 39.458 6.612C39.458 7.348 39.186 7.956 38.642 8.436C38.106 8.908 37.442 9.144 36.65 9.144ZM41.2013 9V7.74H42.3053V9H41.2013ZM49.8364 7.884C49.1804 8.724 48.3244 9.144 47.2684 9.144C46.2124 9.144 45.3564 8.728 44.7004 7.896C44.0524 7.056 43.7284 6.024 43.7284 4.8C43.7284 3.592 44.0564 2.568 44.7124 1.728C45.3764 0.88 46.2364 0.456 47.2924 0.456C48.3484 0.456 49.2004 0.876 49.8484 1.716C50.4964 2.548 50.8204 3.576 50.8204 4.8C50.8204 6.008 50.4924 7.036 49.8364 7.884ZM45.4324 7.26C45.9124 7.94 46.5324 8.28 47.2924 8.28C48.0524 8.28 48.6644 7.944 49.1284 7.272C49.6004 6.592 49.8364 5.768 49.8364 4.8C49.8364 3.848 49.5964 3.032 49.1164 2.352C48.6444 1.664 48.0284 1.32 47.2684 1.32C46.5084 1.32 45.8924 1.66 45.4204 2.34C44.9484 3.012 44.7124 3.832 44.7124 4.8C44.7124 5.752 44.9524 6.572 45.4324 7.26Z" transform="translate(579.999 385)" fill="#7C90B9"/>
<path d="M0.78 5.88V4.908H4.116V5.88H0.78ZM10.6441 9V1.524L9.06009 2.016L8.83209 1.248L10.8841 0.539999H11.5801V9H10.6441ZM18.8329 8.46C18.2329 8.9 17.4809 9.12 16.5769 9.12C15.6729 9.12 14.9209 8.896 14.3209 8.448C13.7209 8 13.4209 7.424 13.4209 6.72C13.4209 6.24 13.5769 5.824 13.8889 5.472C14.2009 5.12 14.6209 4.848 15.1489 4.656C14.1889 4.216 13.7089 3.564 13.7089 2.7C13.7089 2.068 13.9889 1.54 14.5489 1.116C15.1169 0.692 15.7929 0.48 16.5769 0.48C17.3609 0.48 18.0329 0.692 18.5929 1.116C19.1609 1.54 19.4449 2.076 19.4449 2.724C19.4449 3.572 18.9649 4.216 18.0049 4.656C19.1569 5.088 19.7329 5.78 19.7329 6.732C19.7329 7.436 19.4329 8.012 18.8329 8.46ZM15.2089 3.888C15.5769 4.176 16.0329 4.32 16.5769 4.32C17.1209 4.32 17.5769 4.176 17.9449 3.888C18.3129 3.6 18.4969 3.224 18.4969 2.76C18.4969 2.344 18.3129 2 17.9449 1.728C17.5769 1.448 17.1209 1.308 16.5769 1.308C16.0249 1.308 15.5649 1.448 15.1969 1.728C14.8369 2 14.6569 2.352 14.6569 2.784C14.6569 3.232 14.8409 3.6 15.2089 3.888ZM14.9689 7.836C15.3689 8.14 15.9049 8.292 16.5769 8.292C17.2489 8.292 17.7809 8.14 18.1729 7.836C18.5729 7.532 18.7729 7.152 18.7729 6.696C18.7729 6.232 18.5609 5.852 18.1369 5.556C17.7129 5.252 17.1929 5.1 16.5769 5.1C15.9529 5.1 15.4289 5.252 15.0049 5.556C14.5889 5.86 14.3809 6.248 14.3809 6.72C14.3809 7.16 14.5769 7.532 14.9689 7.836ZM25.5395 9V7.008H21.1115L20.8715 6.324L25.6235 0.539999H26.4515V6.216H27.7595V7.008H26.4515V9H25.5395ZM22.0115 6.216H25.5395V1.884L22.0115 6.216ZM32.4023 9.144C31.3943 9.144 30.5983 8.812 30.0143 8.148C29.4303 7.484 29.1383 6.44 29.1383 5.016C29.1383 3.704 29.4503 2.616 30.0743 1.752C30.7063 0.888 31.5583 0.456 32.6303 0.456C33.5023 0.456 34.3303 0.776 35.1143 1.416L34.5623 2.148C33.9063 1.596 33.2463 1.32 32.5823 1.32C31.8383 1.32 31.2423 1.66 30.7943 2.34C30.3463 3.02 30.1223 3.904 30.1223 4.992V5.028C30.7063 4.172 31.5023 3.744 32.5103 3.744C33.3183 3.744 34.0023 3.984 34.5623 4.464C35.1303 4.944 35.4143 5.572 35.4143 6.348C35.4143 7.156 35.1263 7.824 34.5503 8.352C33.9743 8.88 33.2583 9.144 32.4023 9.144ZM32.4143 8.304C33.0223 8.304 33.5103 8.12 33.8783 7.752C34.2543 7.384 34.4423 6.92 34.4423 6.36C34.4423 5.84 34.2503 5.412 33.8663 5.076C33.4823 4.732 32.9903 4.56 32.3903 4.56C31.7823 4.56 31.2783 4.748 30.8783 5.124C30.4863 5.492 30.2903 5.924 30.2903 6.42C30.2903 6.956 30.4903 7.404 30.8903 7.764C31.2903 8.124 31.7983 8.304 32.4143 8.304ZM39.7906 9.144C38.4706 9.144 37.4266 8.644 36.6586 7.644L37.3426 7.032C38.0226 7.864 38.8426 8.28 39.8026 8.28C40.3226 8.28 40.7586 8.128 41.1106 7.824C41.4626 7.52 41.6386 7.12 41.6386 6.624C41.6386 6.112 41.4226 5.716 40.9906 5.436C40.5586 5.148 39.9906 5.004 39.2866 5.004H38.7466L38.5546 4.44L41.2066 1.452H37.1026V0.599999H42.4666V1.296L39.8266 4.224C40.6266 4.288 41.2866 4.52 41.8066 4.92C42.3346 5.312 42.5986 5.876 42.5986 6.612C42.5986 7.348 42.3266 7.956 41.7826 8.436C41.2466 8.908 40.5826 9.144 39.7906 9.144ZM44.342 9V7.74H45.446V9H44.342ZM52.977 7.884C52.321 8.724 51.465 9.144 50.409 9.144C49.353 9.144 48.497 8.728 47.841 7.896C47.193 7.056 46.869 6.024 46.869 4.8C46.869 3.592 47.197 2.568 47.853 1.728C48.517 0.88 49.377 0.456 50.433 0.456C51.489 0.456 52.341 0.876 52.989 1.716C53.637 2.548 53.961 3.576 53.961 4.8C53.961 6.008 53.633 7.036 52.977 7.884ZM48.573 7.26C49.053 7.94 49.673 8.28 50.433 8.28C51.193 8.28 51.805 7.944 52.269 7.272C52.741 6.592 52.977 5.768 52.977 4.8C52.977 3.848 52.737 3.032 52.257 2.352C51.785 1.664 51.169 1.32 50.409 1.32C49.649 1.32 49.033 1.66 48.561 2.34C48.089 3.012 47.853 3.832 47.853 4.8C47.853 5.752 48.093 6.572 48.573 7.26Z" transform="translate(576.999 419)" fill="#7C90B9"/>
<path d="M0.78 5.88V4.908H4.116V5.88H0.78ZM10.6441 9V1.524L9.06009 2.016L8.83209 1.248L10.8841 0.539999H11.5801V9H10.6441ZM14.4409 9L18.2329 1.464H13.6129V0.599999H19.3129V1.308L15.4969 9H14.4409ZM21.5893 9L25.3813 1.464H20.7613V0.599999H26.4613V1.308L22.6453 9H21.5893ZM33.0126 8.46C32.4126 8.9 31.6606 9.12 30.7566 9.12C29.8526 9.12 29.1006 8.896 28.5006 8.448C27.9006 8 27.6006 7.424 27.6006 6.72C27.6006 6.24 27.7566 5.824 28.0686 5.472C28.3806 5.12 28.8006 4.848 29.3286 4.656C28.3686 4.216 27.8886 3.564 27.8886 2.7C27.8886 2.068 28.1686 1.54 28.7286 1.116C29.2966 0.692 29.9726 0.48 30.7566 0.48C31.5406 0.48 32.2126 0.692 32.7726 1.116C33.3406 1.54 33.6246 2.076 33.6246 2.724C33.6246 3.572 33.1446 4.216 32.1846 4.656C33.3366 5.088 33.9126 5.78 33.9126 6.732C33.9126 7.436 33.6126 8.012 33.0126 8.46ZM29.3886 3.888C29.7566 4.176 30.2126 4.32 30.7566 4.32C31.3006 4.32 31.7566 4.176 32.1246 3.888C32.4926 3.6 32.6766 3.224 32.6766 2.76C32.6766 2.344 32.4926 2 32.1246 1.728C31.7566 1.448 31.3006 1.308 30.7566 1.308C30.2046 1.308 29.7446 1.448 29.3766 1.728C29.0166 2 28.8366 2.352 28.8366 2.784C28.8366 3.232 29.0206 3.6 29.3886 3.888ZM29.1486 7.836C29.5486 8.14 30.0846 8.292 30.7566 8.292C31.4286 8.292 31.9606 8.14 32.3526 7.836C32.7526 7.532 32.9526 7.152 32.9526 6.696C32.9526 6.232 32.7406 5.852 32.3166 5.556C31.8926 5.252 31.3726 5.1 30.7566 5.1C30.1326 5.1 29.6086 5.252 29.1846 5.556C28.7686 5.86 28.5606 6.248 28.5606 6.72C28.5606 7.16 28.7566 7.532 29.1486 7.836ZM38.2672 9.144C36.9472 9.144 35.9032 8.644 35.1352 7.644L35.8192 7.032C36.4992 7.864 37.3192 8.28 38.2792 8.28C38.7992 8.28 39.2352 8.128 39.5872 7.824C39.9392 7.52 40.1152 7.12 40.1152 6.624C40.1152 6.112 39.8992 5.716 39.4672 5.436C39.0352 5.148 38.4672 5.004 37.7632 5.004H37.2232L37.0312 4.44L39.6832 1.452H35.5792V0.599999H40.9432V1.296L38.3032 4.224C39.1032 4.288 39.7632 4.52 40.2832 4.92C40.8112 5.312 41.0752 5.876 41.0752 6.612C41.0752 7.348 40.8032 7.956 40.2592 8.436C39.7232 8.908 39.0592 9.144 38.2672 9.144ZM42.8185 9V7.74H43.9225V9H42.8185ZM51.4536 7.884C50.7976 8.724 49.9416 9.144 48.8856 9.144C47.8296 9.144 46.9736 8.728 46.3176 7.896C45.6696 7.056 45.3456 6.024 45.3456 4.8C45.3456 3.592 45.6736 2.568 46.3296 1.728C46.9936 0.88 47.8536 0.456 48.9096 0.456C49.9656 0.456 50.8176 0.876 51.4656 1.716C52.1136 2.548 52.4376 3.576 52.4376 4.8C52.4376 6.008 52.1096 7.036 51.4536 7.884ZM47.0496 7.26C47.5296 7.94 48.1496 8.28 48.9096 8.28C49.6696 8.28 50.2816 7.944 50.7456 7.272C51.2176 6.592 51.4536 5.768 51.4536 4.8C51.4536 3.848 51.2136 3.032 50.7336 2.352C50.2616 1.664 49.6456 1.32 48.8856 1.32C48.1256 1.32 47.5096 1.66 47.0376 2.34C46.5656 3.012 46.3296 3.832 46.3296 4.8C46.3296 5.752 46.5696 6.572 47.0496 7.26Z" transform="translate(577.999 453)" fill="#7C90B9"/>
<rect width="73" height="30" transform="translate(488 11)" fill="#00A653"/>
<rect x="0.5" y="0.5" width="19" height="1" transform="translate(468 25)" stroke="#00A653"/>
<path d="M8.82858 10V8.642L12.2026 5.772C12.8932 5.19333 13.3692 4.71733 13.6306 4.344C13.9012 3.96133 14.0366 3.55533 14.0366 3.126C14.0366 2.65933 13.8872 2.29067 13.5886 2.02C13.2899 1.74 12.9119 1.6 12.4546 1.6C12.0252 1.6 11.6379 1.71667 11.2926 1.95C10.9566 2.18333 10.5879 2.55667 10.1866 3.07L8.96858 2.118C9.47258 1.40867 9.99058 0.890666 10.5226 0.564C11.0639 0.228 11.7499 0.0599995 12.5806 0.0599995C13.5419 0.0599995 14.3212 0.330666 14.9186 0.872C15.5159 1.41333 15.8146 2.12733 15.8146 3.014C15.8146 3.39667 15.7679 3.742 15.6746 4.05C15.5812 4.34867 15.4132 4.65667 15.1706 4.974C14.9372 5.282 14.6806 5.56667 14.4006 5.828C14.1299 6.08 13.7519 6.40667 13.2666 6.808L11.2506 8.488H15.9126V10H8.82858ZM21.4465 10.168C20.3172 10.168 19.4118 9.82733 18.7305 9.146C18.3292 8.74467 18.0258 8.25467 17.8205 7.676C17.6245 7.088 17.5265 6.318 17.5265 5.366C17.5265 3.80733 17.8905 2.52867 18.6185 1.53C19.3558 0.531333 20.3918 0.0319998 21.7265 0.0319998C22.8185 0.0319998 23.8172 0.396 24.7225 1.124L23.7985 2.454C23.0612 1.88467 22.3518 1.6 21.6705 1.6C20.9612 1.6 20.4012 1.88933 19.9905 2.468C19.5892 3.03733 19.3652 3.784 19.3185 4.708C19.9905 4.05467 20.7698 3.728 21.6565 3.728C22.6458 3.728 23.4625 4.008 24.1065 4.568C24.7598 5.11867 25.0865 5.87467 25.0865 6.836C25.0865 7.79733 24.7365 8.59533 24.0365 9.23C23.3458 9.85533 22.4825 10.168 21.4465 10.168ZM21.4045 8.684C22.0018 8.684 22.4778 8.516 22.8325 8.18C23.1872 7.844 23.3645 7.41 23.3645 6.878C23.3645 6.38333 23.1778 5.97733 22.8045 5.66C22.4405 5.33333 21.9598 5.17 21.3625 5.17C20.7652 5.17 20.2845 5.338 19.9205 5.674C19.5565 6.01 19.3745 6.42533 19.3745 6.92C19.3745 7.424 19.5612 7.844 19.9345 8.18C20.3078 8.516 20.7978 8.684 21.4045 8.684ZM30.1333 10.168C28.5746 10.168 27.324 9.594 26.3813 8.446L27.5853 7.326C28.3133 8.18467 29.172 8.614 30.1613 8.614C30.656 8.614 31.062 8.47867 31.3793 8.208C31.6966 7.928 31.8553 7.55933 31.8553 7.102C31.8553 6.626 31.65 6.25733 31.2393 5.996C30.838 5.72533 30.292 5.59 29.6013 5.59H28.8033L28.5233 4.512L31.1693 1.698H26.9273V0.199999H33.4093V1.488L30.6793 4.288C31.538 4.40933 32.2333 4.69867 32.7653 5.156C33.2973 5.604 33.5633 6.24333 33.5633 7.074C33.5633 7.97933 33.2413 8.72133 32.5973 9.3C31.9626 9.87867 31.1413 10.168 30.1333 10.168ZM39.1516 10.168C38.0223 10.168 37.1169 9.82733 36.4356 9.146C36.0343 8.74467 35.7309 8.25467 35.5256 7.676C35.3296 7.088 35.2316 6.318 35.2316 5.366C35.2316 3.80733 35.5956 2.52867 36.3236 1.53C37.0609 0.531333 38.0969 0.0319998 39.4316 0.0319998C40.5236 0.0319998 41.5223 0.396 42.4276 1.124L41.5036 2.454C40.7663 1.88467 40.0569 1.6 39.3756 1.6C38.6663 1.6 38.1063 1.88933 37.6956 2.468C37.2943 3.03733 37.0703 3.784 37.0236 4.708C37.6956 4.05467 38.4749 3.728 39.3616 3.728C40.3509 3.728 41.1676 4.008 41.8116 4.568C42.4649 5.11867 42.7916 5.87467 42.7916 6.836C42.7916 7.79733 42.4416 8.59533 41.7416 9.23C41.0509 9.85533 40.1876 10.168 39.1516 10.168ZM39.1096 8.684C39.7069 8.684 40.1829 8.516 40.5376 8.18C40.8923 7.844 41.0696 7.41 41.0696 6.878C41.0696 6.38333 40.8829 5.97733 40.5096 5.66C40.1456 5.33333 39.6649 5.17 39.0676 5.17C38.4703 5.17 37.9896 5.338 37.6256 5.674C37.2616 6.01 37.0796 6.42533 37.0796 6.92C37.0796 7.424 37.2663 7.844 37.6396 8.18C38.0129 8.516 38.5029 8.684 39.1096 8.684ZM44.859 10L49.255 1.712H44.327V0.199999H51.215V1.502L46.791 10H44.859ZM51.4637 10V8.082H53.3257V10H51.4637ZM54.9575 10V8.642L58.3315 5.772C59.0222 5.19333 59.4982 4.71733 59.7595 4.344C60.0302 3.96133 60.1655 3.55533 60.1655 3.126C60.1655 2.65933 60.0162 2.29067 59.7175 2.02C59.4188 1.74 59.0408 1.6 58.5835 1.6C58.1542 1.6 57.7668 1.71667 57.4215 1.95C57.0855 2.18333 56.7168 2.55667 56.3155 3.07L55.0975 2.118C55.6015 1.40867 56.1195 0.890666 56.6515 0.564C57.1928 0.228 57.8788 0.0599995 58.7095 0.0599995C59.6708 0.0599995 60.4502 0.330666 61.0475 0.872C61.6448 1.41333 61.9435 2.12733 61.9435 3.014C61.9435 3.39667 61.8968 3.742 61.8035 4.05C61.7102 4.34867 61.5422 4.65667 61.2995 4.974C61.0662 5.282 60.8095 5.56667 60.5295 5.828C60.2588 6.08 59.8808 6.40667 59.3955 6.808L57.3795 8.488H62.0415V10H54.9575Z" transform="translate(489 21)" fill="white"/>
<rect width="69" height="30" transform="translate(245 229)" fill="#00A653"/>
<rect x="0.5" y="0.5" width="19" height="1" transform="translate(314 243)" stroke="#00A653"/>
<path d="M11.0503 10V8.642L14.4243 5.772C15.1149 5.19333 15.5909 4.71733 15.8523 4.344C16.1229 3.96133 16.2583 3.55533 16.2583 3.126C16.2583 2.65933 16.1089 2.29067 15.8103 2.02C15.5116 1.74 15.1336 1.6 14.6763 1.6C14.2469 1.6 13.8596 1.71667 13.5143 1.95C13.1783 2.18333 12.8096 2.55667 12.4083 3.07L11.1903 2.118C11.6943 1.40867 12.2123 0.890666 12.7443 0.564C13.2856 0.228 13.9716 0.0599995 14.8023 0.0599995C15.7636 0.0599995 16.5429 0.330666 17.1403 0.872C17.7376 1.41333 18.0363 2.12733 18.0363 3.014C18.0363 3.39667 17.9896 3.742 17.8963 4.05C17.8029 4.34867 17.6349 4.65667 17.3923 4.974C17.1589 5.282 16.9023 5.56667 16.6223 5.828C16.3516 6.08 15.9736 6.40667 15.4883 6.808L13.4723 8.488H18.1343V10H11.0503ZM21.4422 10V1.88L19.6782 2.37L19.3142 0.969999L21.9462 0.129999H23.1502V10H21.4422ZM28.687 10.168C27.539 10.168 26.4936 9.776 25.551 8.992L26.489 7.676C27.217 8.292 27.9636 8.6 28.729 8.6C29.4383 8.6 30.003 8.32 30.423 7.76C30.843 7.19067 31.067 6.444 31.095 5.52C30.5163 6.21067 29.751 6.556 28.799 6.556C27.7536 6.556 26.9136 6.27133 26.279 5.702C25.6443 5.13267 25.327 4.372 25.327 3.42C25.327 2.44933 25.6676 1.642 26.349 0.998C27.0303 0.354 27.9076 0.0319998 28.981 0.0319998C30.101 0.0319998 31.0063 0.377333 31.697 1.068C32.4903 1.86133 32.887 3.11667 32.887 4.834C32.887 6.43 32.509 7.718 31.753 8.698C31.0063 9.678 29.9843 10.168 28.687 10.168ZM27.595 4.624C27.959 4.95067 28.4443 5.114 29.051 5.114C29.6576 5.114 30.1383 4.94133 30.493 4.596C30.857 4.25067 31.039 3.826 31.039 3.322C31.039 2.79933 30.8523 2.37 30.479 2.034C30.1056 1.68867 29.611 1.516 28.995 1.516C28.3976 1.516 27.9216 1.69333 27.567 2.048C27.2216 2.39333 27.049 2.832 27.049 3.364C27.049 3.87733 27.231 4.29733 27.595 4.624ZM36.1805 10V1.88L34.4165 2.37L34.0525 0.969999L36.6845 0.129999H37.8885V10H36.1805ZM43.4253 10.168C42.2773 10.168 41.2319 9.776 40.2893 8.992L41.2273 7.676C41.9553 8.292 42.7019 8.6 43.4673 8.6C44.1766 8.6 44.7413 8.32 45.1613 7.76C45.5813 7.19067 45.8053 6.444 45.8333 5.52C45.2546 6.21067 44.4893 6.556 43.5373 6.556C42.4919 6.556 41.6519 6.27133 41.0173 5.702C40.3826 5.13267 40.0653 4.372 40.0653 3.42C40.0653 2.44933 40.4059 1.642 41.0873 0.998C41.7686 0.354 42.6459 0.0319998 43.7193 0.0319998C44.8393 0.0319998 45.7446 0.377333 46.4353 1.068C47.2286 1.86133 47.6253 3.11667 47.6253 4.834C47.6253 6.43 47.2473 7.718 46.4913 8.698C45.7446 9.678 44.7226 10.168 43.4253 10.168ZM42.3333 4.624C42.6973 4.95067 43.1826 5.114 43.7893 5.114C44.3959 5.114 44.8766 4.94133 45.2313 4.596C45.5953 4.25067 45.7773 3.826 45.7773 3.322C45.7773 2.79933 45.5906 2.37 45.2173 2.034C44.8439 1.68867 44.3493 1.516 43.7333 1.516C43.1359 1.516 42.6599 1.69333 42.3053 2.048C41.9599 2.39333 41.7873 2.832 41.7873 3.364C41.7873 3.87733 41.9693 4.29733 42.3333 4.624ZM49.242 10V8.082H51.104V10H49.242ZM52.7358 10V8.642L56.1098 5.772C56.8005 5.19333 57.2765 4.71733 57.5378 4.344C57.8085 3.96133 57.9438 3.55533 57.9438 3.126C57.9438 2.65933 57.7945 2.29067 57.4958 2.02C57.1971 1.74 56.8191 1.6 56.3618 1.6C55.9325 1.6 55.5451 1.71667 55.1998 1.95C54.8638 2.18333 54.4951 2.55667 54.0938 3.07L52.8758 2.118C53.3798 1.40867 53.8978 0.890666 54.4298 0.564C54.9711 0.228 55.6571 0.0599995 56.4878 0.0599995C57.4491 0.0599995 58.2285 0.330666 58.8258 0.872C59.4231 1.41333 59.7218 2.12733 59.7218 3.014C59.7218 3.39667 59.6751 3.742 59.5818 4.05C59.4885 4.34867 59.3205 4.65667 59.0778 4.974C58.8445 5.282 58.5878 5.56667 58.3078 5.828C58.0371 6.08 57.6591 6.40667 57.1738 6.808L55.1578 8.488H59.8198V10H52.7358Z" transform="translate(244 239)" fill="white"/>
<path d="M3 0H0V17.38H3V0Z" transform="translate(546.002 98.75)" fill="#00A653"/>
<path d="M1 0H0V29H1V0Z" transform="translate(547.002 94)" fill="#00A653"/>
<path d="M3 0H0V6H3V0Z" transform="translate(541.002 77)" fill="#00A653"/>
<path d="M1 0H0V11.13H1V0Z" transform="translate(542.002 74)" fill="#00A653"/>
<path d="M0.5 26.5V0.5H2.5V26.5H0.5Z" transform="translate(536.002 81)" stroke="#EB431E"/>
<path d="M1 0H0V4H1V0Z" transform="translate(537.002 78)" fill="#EB431E"/>
<path d="M1 0H0V4H1V0Z" transform="translate(537.002 107)" fill="#EB431E"/>
<path d="M0.5 21.375V0.5H2.5V21.375H0.5Z" transform="translate(521.002 104.125)" stroke="#EB431E"/>
<path d="M1 0H0V3.125H1V0Z" transform="translate(522.002 101)" fill="#EB431E"/>
<path d="M1 0H0V9H1V0Z" transform="translate(522.002 126)" fill="#EB431E"/>
<path d="M0.5 18.5V0.5H2.5V18.5H0.5Z" transform="translate(505.002 125)" stroke="#EB431E"/>
<path d="M1 0H0V4H1V0Z" transform="translate(506.002 144)" fill="#EB431E"/>
<path d="M1 0H0V19H1V0Z" transform="translate(506.002 106)" fill="#EB431E"/>
<path d="M0.5 16.5V0.5H2.5V16.5H0.5Z" transform="translate(497.002 132)" stroke="#EB431E"/>
<path d="M1 0H0V9H1V0Z" transform="translate(498.002 149)" fill="#EB431E"/>
<path d="M1 0H0V13H1V0Z" transform="translate(498.002 120)" fill="#EB431E"/>
<path d="M0.5 42.6629V0.5H2.5V42.6629H0.5Z" transform="translate(485.033 80.9941) rotate(0.221641)" stroke="#EB431E"/>
<path d="M1 0H0V5H1V0Z" transform="translate(486.002 124)" fill="#EB431E"/>
<path d="M1 0H0V5H1V0Z" transform="translate(486.002 77)" fill="#EB431E"/>
<path d="M0.5 26.697V0.5H2.34186V26.697H0.5Z" transform="matrix(0.999989 0.00471187 -0.00317584 0.999995 459.158 18.6086)" stroke="#EB431E"/>
<path d="M1 0H0V4H1V0Z" transform="translate(460.002 45)" fill="#EB431E"/>
<path d="M0.947285 0H0V5.76924H0.947285V0Z" transform="translate(460.076 14)" fill="#EB431E"/>
<path d="M0.5 24.7049V0.5H2.34186V24.7049H0.5Z" transform="matrix(0.999989 0.00471187 -0.00317584 0.999995 449.088 56.6086)" stroke="#EB431E"/>
<path d="M1 0H0V4H1V0Z" transform="translate(450.002 81)" fill="#EB431E"/>
<path d="M0.947285 0H0V5.76924H0.947285V0Z" transform="translate(450.006 52)" fill="#EB431E"/>
<path d="M0.5 17.7758V0.5H2.34186V17.7758H0.5Z" transform="matrix(0.999989 0.00471187 -0.00317584 0.999995 445.082 85.6086)" stroke="#EB431E"/>
<path d="M1 0H0V4H1V0Z" transform="translate(446.002 103)" fill="#EB431E"/>
<path d="M0.947285 0H0V5.76924H0.947285V0Z" transform="translate(446 81)" fill="#EB431E"/>
<path d="M0.5 3.79013V0.5H2.34186V3.79013H0.5Z" transform="matrix(0.999989 0.00471187 -0.00317584 0.999995 441.061 106.609)" stroke="#EB431E"/>
<path d="M1 0H0V2H1V0Z" transform="translate(442.002 110)" fill="#EB431E"/>
<path d="M0.947285 0H0V5.76924H0.947285V0Z" transform="translate(441.979 102)" fill="#EB431E"/>
<path d="M0.5 16.0106V0.5H2.34186V16.0106H0.5Z" transform="matrix(0.999989 0.00471187 -0.00317584 0.999995 431 113.609)" stroke="#EB431E"/>
<path d="M1 0H0V2H1V0Z" transform="translate(432 130)" fill="#EB431E"/>
<path d="M0.947285 0H0V5.76924H0.947285V0Z" transform="translate(432 109)" fill="#EB431E"/>
<path d="M0.5 33.458V0.5H2.5V33.458H0.5Z" transform="matrix(0.999989 0.00471187 -0.00317584 0.999995 422 138)" stroke="#EB431E"/>
<path d="M1 0H0V2H1V0Z" transform="translate(423.002 172)" fill="#EB431E"/>
<path d="M1 0H0V5H1V0Z" transform="translate(423.002 134)" fill="#EB431E"/>
<path d="M0.5 8.35514V0.5H2.5V8.35514H0.5Z" transform="matrix(0.999989 0.00471187 -0.00317584 0.999995 417.055 170.925)" stroke="#EB431E"/>
<path d="M1 0H0V2H1V0Z" transform="translate(418.002 179)" fill="#EB431E"/>
<path d="M1 0H0V5H1V0Z" transform="translate(418 166)" fill="#EB431E"/>
<path d="M0.5 8.35514V0.5H2.5V8.35514H0.5Z" transform="matrix(0.999989 0.00471187 -0.00317584 0.999995 403.029 172.925)" stroke="#EB431E"/>
<path d="M1 0H0V2H1V0Z" transform="translate(403.977 181)" fill="#EB431E"/>
<path d="M1 0H0V5H1V0Z" transform="translate(403.975 168)" fill="#EB431E"/>
<path d="M0.5 4.20367V0.5H2.5V4.20367H0.5Z" transform="matrix(0.999989 0.00471187 -0.00317584 0.999995 399.029 176.925)" stroke="#EB431E"/>
<path d="M1 0H0V5H1V0Z" transform="translate(400.002 181)" fill="#EB431E"/>
<path d="M1 0H0V3H1V0Z" transform="translate(400.002 174)" fill="#EB431E"/>
<path d="M0.5 20.7411V0.5H2.5V20.7411H0.5Z" transform="matrix(0.999989 0.00471187 -0.00317584 0.999995 394.016 183.925)" stroke="#EB431E"/>
<path d="M1 0H0V3H1V0Z" transform="translate(395.002 205)" fill="#EB431E"/>
<path d="M1 0H0V3H1V0Z" transform="translate(394.988 181)" fill="#EB431E"/>
<path d="M0.5 4.97775V0.5H2.5V4.97775H0.5Z" transform="matrix(0.999989 0.00471187 -0.00317584 0.999995 390.07 204.925)" stroke="#EB431E"/>
<path d="M1 0H0V3H1V0Z" transform="translate(391.002 210)" fill="#EB431E"/>
<path d="M1 0H0V3H1V0Z" transform="translate(391.041 202)" fill="#EB431E"/>
<path d="M0.5 16.4986V0.5H2.5V16.4986H0.5Z" transform="matrix(0.999989 0.00471187 -0.00317584 0.999995 385.02 211.925)" stroke="#EB431E"/>
<path d="M1 0H0V2H1V0Z" transform="translate(386.002 229)" fill="#EB431E"/>
<path d="M1 0H0V2H1V0Z" transform="translate(386.002 210)" fill="#EB431E"/>
<path d="M0.5 4.84673V0.5H2.5V4.84673H0.5Z" transform="matrix(0.999989 0.00471187 -0.00317584 0.999995 380.057 229.925)" stroke="#EB431E"/>
<path d="M1 0H0V2H1V0Z" transform="translate(381 235)" fill="#EB431E"/>
<path d="M1 0H0V2H1V0Z" transform="translate(381.037 228)" fill="#EB431E"/>
<path d="M0.5 1.95422V0.5H2.5V1.95422H0.5Z" transform="matrix(0.999989 0.00471187 -0.00317584 0.999995 375.02 233.925)" stroke="#EB431E"/>
<path d="M1 0H0V2H1V0Z" transform="translate(376.002 236)" fill="#EB431E"/>
<path d="M1 0H0V4H1V0Z" transform="translate(376.002 230)" fill="#EB431E"/>
<path d="M0.5 18.3148V0.5H2.5V18.3148H0.5Z" transform="matrix(0.999989 0.00471187 -0.00317584 0.999995 371.018 235.566)" stroke="#EB431E"/>
<path d="M1 0H0V1H1V0Z" transform="translate(372 254)" fill="#EB431E"/>
<path d="M1 0H0V2H1V0Z" transform="translate(372 234)" fill="#EB431E"/>
<path d="M0.5 8.18943V0.5H2.5V8.18943H0.5Z" transform="matrix(0.999989 0.00471187 -0.00317584 0.999995 362.062 249.566)" stroke="#EB431E"/>
<path d="M1 0H0V10H1V0Z" transform="translate(363 258)" fill="#EB431E"/>
<path d="M1 0H0V2H1V0Z" transform="translate(363.045 248)" fill="#EB431E"/>
<path d="M0.5 8.18943V0.5H2.5V8.18943H0.5Z" transform="matrix(0.999989 0.00471187 -0.00317584 0.999995 357.029 258.566)" stroke="#EB431E"/>
<path d="M1 0H0V4H1V0Z" transform="translate(358.002 267)" fill="#EB431E"/>
<path d="M1 0H0V3H1V0Z" transform="translate(358.002 256)" fill="#EB431E"/>
<path d="M0.5 8.18943V0.5H2.5V8.18943H0.5Z" transform="matrix(0.999989 0.00471187 -0.00317584 0.999995 343.027 246.566)" stroke="#EB431E"/>
<path d="M1 0H0V4H1V0Z" transform="translate(344 255)" fill="#EB431E"/>
<path d="M1 0H0V3H1V0Z" transform="translate(344 244)" fill="#EB431E"/>
<path d="M0.5 16.1577V0.5H2.5V16.1577H0.5Z" transform="matrix(0.999989 0.00471187 -0.00317584 0.999995 329.027 269.566)" stroke="#EB431E"/>
<path d="M1 0H0V4H1V0Z" transform="translate(330.002 286)" fill="#EB431E"/>
<path d="M1 0H0V3H1V0Z" transform="translate(330.002 267)" fill="#EB431E"/>
<path d="M0.5 10.0642V0.5H2.5V10.0642H0.5Z" transform="matrix(0.999989 0.00471187 -0.00317584 0.999995 310.053 282.566)" stroke="#EB431E"/>
<path d="M1 0H0V4H1V0Z" transform="translate(311 293)" fill="#EB431E"/>
<path d="M1 0H0V3H1V0Z" transform="translate(311.027 280)" fill="#EB431E"/>
<path d="M0.5 10.0642V0.5H2.5V10.0642H0.5Z" transform="matrix(0.999989 0.00471187 -0.00317584 0.999995 301.033 289.566)" stroke="#EB431E"/>
<path d="M1 0H0V4H1V0Z" transform="translate(301.98 300)" fill="#EB431E"/>
<path d="M1 0H0V3H1V0Z" transform="translate(302.008 287)" fill="#EB431E"/>
<path d="M0.5 13.5405V0.5H2.5V13.5405H0.5Z" transform="matrix(0.999989 0.00471187 -0.00317584 0.999995 296.033 297.566)" stroke="#EB431E"/>
<path d="M1 0H0V2H1V0Z" transform="translate(297 311)" fill="#EB431E"/>
<path d="M1 0H0V3H1V0Z" transform="translate(297.008 295)" fill="#EB431E"/>
<path d="M0.5 4.04525V0.5H2.5V4.04525H0.5Z" transform="matrix(0.999989 0.00471187 -0.00317584 0.999995 283.045 302.566)" stroke="#EB431E"/>
<path d="M1 0H0V2H1V0Z" transform="translate(284.002 307)" fill="#EB431E"/>
<path d="M1 0H0V3H1V0Z" transform="translate(284.02 300)" fill="#EB431E"/>
<path d="M0.5 12.1978V0.5H2.5V12.1978H0.5Z" transform="matrix(0.999989 0.00471187 -0.00317584 0.999995 278.016 305.566)" stroke="#EB431E"/>
<path d="M1 0H0V2H1V0Z" transform="translate(279.002 318)" fill="#EB431E"/>
<path d="M1 0H0V9H1V0Z" transform="translate(279.002 297)" fill="#EB431E"/>
<path d="M0.5 6.76253V0.5H2.5V6.76253H0.5Z" transform="matrix(0.999989 0.00471187 -0.00317584 0.999995 274.043 322.566)" stroke="#EB431E"/>
<path d="M1 0H0V7H1V0Z" transform="translate(275.002 329)" fill="#EB431E"/>
<path d="M1 0H0V2H1V0Z" transform="translate(275.002 321)" fill="#EB431E"/>
<path d="M0.5 6.76253V0.5H2.5V6.76253H0.5Z" transform="matrix(0.999989 0.00471187 -0.00317584 0.999995 264.023 318.566)" stroke="#EB431E"/>
<path d="M1 0H0V2H1V0Z" transform="translate(265.002 325)" fill="#EB431E"/>
<path d="M1 0H0V12H1V0Z" transform="translate(265.002 307)" fill="#EB431E"/>
<path d="M0.5 13.2292V0.5H2.5V13.2292H0.5Z" transform="matrix(0.999989 0.00471187 -0.00317584 0.999995 260.023 318.566)" stroke="#EB431E"/>
<path d="M1 0H0V2H1V0Z" transform="translate(261 332)" fill="#EB431E"/>
<path d="M1 0H0V4H1V0Z" transform="translate(261 315)" fill="#EB431E"/>
<path d="M0.5 2.95722V0.5H2.5V2.95722H0.5Z" transform="matrix(0.999989 0.00471187 -0.00317584 0.999995 250.043 304.566)" stroke="#EB431E"/>
<path d="M1 0H0V5H1V0Z" transform="translate(251 308)" fill="#EB431E"/>
<path d="M0.5 13.2292V0.5H2.5V13.2292H0.5Z" transform="matrix(0.999989 0.00471187 -0.00317584 0.999995 241.043 300.566)" stroke="#EB431E"/>
<path d="M0.5 5.77818V0.5H2.5V5.77818H0.5Z" transform="matrix(0.999989 0.00471187 -0.00317584 0.999995 236.043 314.566)" stroke="#EB431E"/>
<path d="M1 0H0V2H1V0Z" transform="translate(237 320)" fill="#EB431E"/>
<path d="M0.5 18.0439V0.5H2.5V18.0439H0.5Z" transform="matrix(0.999989 0.00471187 -0.00317584 0.999995 232.043 322.566)" stroke="#EB431E"/>
<path d="M1 0H0V1H1V0Z" transform="translate(233 341)" fill="#EB431E"/>
<path d="M1 0H0V4H1V0Z" transform="translate(233.02 319)" fill="#EB431E"/>
<path d="M0.5 18.0439V0.5H2.5V18.0439H0.5Z" transform="matrix(0.999989 0.00471187 -0.00317584 0.999995 227.059 338.566)" stroke="#EB431E"/>
<path d="M1 0H0V1H1V0Z" transform="translate(228.016 357)" fill="#EB431E"/>
<path d="M1 0H0V4H1V0Z" transform="translate(228.035 335)" fill="#EB431E"/>
<path d="M0.5 6.72856V0.5H2.5V6.72856H0.5Z" transform="matrix(0.999989 0.00471187 -0.00317584 0.999995 222.059 348.566)" stroke="#EB431E"/>
<path d="M1 0H0V11H1V0Z" transform="translate(223 355)" fill="#EB431E"/>
<path d="M0.5 20.1689V0.5H2.5V20.1689H0.5Z" transform="matrix(0.999989 0.00471187 -0.00317584 0.999995 218.059 347.566)" stroke="#EB431E"/>
<path d="M1 0H0V1H1V0Z" transform="translate(219 368)" fill="#EB431E"/>
<path d="M1 0H0V4H1V0Z" transform="translate(219.035 344)" fill="#EB431E"/>
<path d="M1 0H0V4H1V0Z" transform="translate(223.035 345)" fill="#EB431E"/>
<path d="M0.5 1.21809V0.5H2.5V1.21809H0.5Z" transform="matrix(0.999989 0.00471187 -0.00317584 0.999995 213.023 363.566)" stroke="#EB431E"/>
<path d="M1 0H0V5H1V0Z" transform="translate(214 365)" fill="#EB431E"/>
<path d="M1 0H0V4H1V0Z" transform="translate(214 360)" fill="#EB431E"/>
<path d="M0.5 2.09485V0.5H2.5V2.09485H0.5Z" transform="matrix(0.999989 0.00471187 -0.00317584 0.999995 209.008 359.127)" stroke="#EB431E"/>
<path d="M0.5 8.20684V0.5H2.5V8.20684H0.5Z" transform="matrix(0.999989 0.00471187 -0.00317584 0.999995 204.006 353.566)" stroke="#EB431E"/>
<path d="M0.5 9.38629V0.5H2.5V9.38629H0.5Z" transform="matrix(0.999989 0.00471187 -0.00317584 0.999995 194.006 354.566)" stroke="#EB431E"/>
<path d="M1 0H0V1H1V0Z" transform="translate(195 364)" fill="#EB431E"/>
<path d="M1 0H0V4H1V0Z" transform="translate(194.982 351)" fill="#EB431E"/>
<path d="M0.5 6.20797V0.5H2.5V6.20797H0.5Z" transform="matrix(0.999989 0.00471187 -0.00317584 0.999995 190.031 360.566)" stroke="#EB431E"/>
<path d="M1 0H0V1H1V0Z" transform="translate(191 367)" fill="#EB431E"/>
<path d="M0.5 24.2188V0.5H2.5V24.2188H0.5Z" transform="matrix(0.999989 0.00471187 -0.00317584 0.999995 186 367.566)" stroke="#EB431E"/>
<path d="M1 0H0V3H1V0Z" transform="translate(187 392)" fill="#EB431E"/>
<path d="M1 0H0V4H1V0Z" transform="translate(187 364)" fill="#EB431E"/>
<path d="M0.5 13.862V0.5H2.5V13.862H0.5Z" transform="matrix(0.999989 0.00471187 -0.00317584 0.999995 176.053 396.774)" stroke="#EB431E"/>
<path d="M1 0H0V1H1V0Z" transform="translate(177 411)" fill="#EB431E"/>
<path d="M1 0H0V1H1V0Z" transform="translate(177 396)" fill="#EB431E"/>
<path d="M0.5 3.76885V0.5H2.5V3.76885H0.5Z" transform="matrix(0.999989 0.00471187 -0.00317584 0.999995 181.045 395.774)" stroke="#EB431E"/>
<path d="M1 0H0V1H1V0Z" transform="translate(182 400)" fill="#EB431E"/>
<path d="M0.5 37.6774V0.5H2.5V37.6774H0.5Z" transform="matrix(0.999989 0.00471187 -0.00317584 0.999995 167.045 414.774)" stroke="#EB431E"/>
<path d="M1 0H0V4H1V0Z" transform="translate(168 453)" fill="#EB431E"/>
<path d="M0.5 5.02892V0.5H2.5V5.02892H0.5Z" transform="matrix(0.999989 0.00471187 -0.00317584 0.999995 158.045 441.774)" stroke="#EB431E"/>
<path d="M1 0H0V10H1V0Z" transform="translate(159 447)" fill="#EB431E"/>
<path d="M0.5 6.35094V0.5H2.5V6.35094H0.5Z" transform="matrix(0.999989 0.00471187 -0.00317584 0.999995 153.045 445.774)" stroke="#EB431E"/>
<path d="M1 0H0V4H1V0Z" transform="translate(154 452)" fill="#EB431E"/>
<path d="M1 0H0V3H1V0Z" transform="translate(154 443)" fill="#EB431E"/>
<path d="M0.5 6.35094V0.5H2.5V6.35094H0.5Z" transform="matrix(0.999989 0.00471187 -0.00317584 0.999995 144.021 440.774)" stroke="#EB431E"/>
<path d="M1 0H0V4H1V0Z" transform="translate(144.977 447)" fill="#EB431E"/>
<path d="M1 0H0V3H1V0Z" transform="translate(144.977 438)" fill="#EB431E"/>
<path d="M0.5 10.198V0.5H2.5V10.198H0.5Z" transform="matrix(0.999989 0.00471187 -0.00317584 0.999995 139.021 435.774)" stroke="#EB431E"/>
<path d="M1 0H0V8H1V0Z" transform="translate(140 446)" fill="#EB431E"/>
<path d="M0.5 3.43788V0.5H2.5V3.43788H0.5Z" transform="matrix(0.999989 0.00471187 -0.00317584 0.999995 134.021 439.774)" stroke="#EB431E"/>
<path d="M1 0H0V9H1V0Z" transform="translate(135 443)" fill="#EB431E"/>
<path d="M0.5 6.35094V0.5H2.5V6.35094H0.5Z" transform="matrix(0.999989 0.00471187 -0.00317584 0.999995 130.021 449.774)" stroke="#EB431E"/>
<path d="M1 0H0V13H1V0Z" transform="translate(131 437)" fill="#EB431E"/>
<path d="M1 0H0V8H1V0Z" transform="translate(135 432)" fill="#EB431E"/>
<path d="M1 0H0V3H1V0Z" transform="translate(139.977 433)" fill="#EB431E"/>
<path d="M1 0H0V1H1V0Z" transform="translate(158.992 441)" fill="#EB431E"/>
<path d="M1 0H0V5H1V0Z" transform="translate(168 410)" fill="#EB431E"/>
<path d="M1 0H0V4H1V0Z" transform="translate(182 392)" fill="#EB431E"/>
<path d="M1 0H0V6H1V0Z" transform="translate(191 355)" fill="#EB431E"/>
<path d="M1 0H0V4H1V0Z" transform="translate(205 365) scale(1 -1)" fill="#EB431E"/>
<path d="M1 0H0V4H1V0Z" transform="translate(204.982 350)" fill="#EB431E"/>
<path d="M1 0H0V5H1V0Z" transform="translate(209.982 361)" fill="#EB431E"/>
<path d="M1 0H0V6H1V0Z" transform="translate(210 354)" fill="#EB431E"/>
<path d="M1 0H0V6H1V0Z" transform="translate(237 309)" fill="#EB431E"/>
<path d="M1 0H0V2H1V0Z" transform="translate(242.02 314)" fill="#EB431E"/>
<path d="M1 0H0V8H1V0Z" transform="translate(242 293)" fill="#EB431E"/>
<path d="M1 0H0V4H1V0Z" transform="translate(251 301)" fill="#EB431E"/>
<path d="M0.5 13.0903V0.5H2.5V13.0903H0.5Z" transform="matrix(0.999989 0.00471187 -0.00317584 0.999995 338.027 260.566)" stroke="#EB431E"/>
<path d="M1 0H0V4H1V0Z" transform="translate(339.002 274)" fill="#EB431E"/>
<path d="M1 0H0V1H1V0Z" transform="translate(339.002 260)" fill="#EB431E"/>
<path d="M3 0H0V6H3V0Z" transform="translate(533.002 111.12)" fill="#00A653"/>
<path d="M1 0H0V36H1V0Z" transform="translate(534.002 108)" fill="#00A653"/>
<path d="M3 0H0V12H3V0Z" transform="translate(529.002 98)" fill="#00A653"/>
<path d="M1 0H0V23H1V0Z" transform="translate(530.002 91)" fill="#00A653"/>
<path d="M3 0H0V9H3V0Z" transform="translate(525.002 100)" fill="#00A653"/>
<path d="M1 0H0V20H1V0Z" transform="translate(526.002 95)" fill="#00A653"/>
<path d="M3 0H0V12H3V0Z" transform="translate(513.002 118)" fill="#00A653"/>
<path d="M1 0H0V65H1V0Z" transform="translate(514.002 113)" fill="#00A653"/>
<path d="M3 0H0V15H3V0Z" transform="translate(517.002 122)" fill="#00A653"/>
<path d="M1 0H0V50H1V0Z" transform="translate(518.002 119)" fill="#00A653"/>
<path d="M3 0H0V6H3V0Z" transform="translate(509.002 117)" fill="#00A653"/>
<path d="M1 0H0V29H1V0Z" transform="translate(510.002 97)" fill="#00A653"/>
<path d="M3 0H0V15H3V0Z" transform="translate(501.002 141)" fill="#00A653"/>
<path d="M1 0H0V64H1V0Z" transform="translate(502.002 113)" fill="#00A653"/>
<path d="M3 0H0V55H3V0Z" transform="translate(492.002 105)" fill="#00A653"/>
<path d="M1 0H0V63H1V0Z" transform="translate(493.002 95)" fill="#00A653"/>
<path d="M3 0H0V19H3V0Z" transform="translate(489.002 78)" fill="#00A653"/>
<path d="M1 0H0V40H1V0Z" transform="translate(490.002 72)" fill="#00A653"/>
<path d="M3 0H0V53H3V0Z" transform="translate(481.002 71)" fill="#00A653"/>
<path d="M1 0H0V80H1V0Z" transform="translate(482.002 55)" fill="#00A653"/>
<path d="M3 0H0V4H3V0Z" transform="translate(477.002 83)" fill="#00A653"/>
<path d="M1 0H0V25H1V0Z" transform="translate(478.002 78)" fill="#00A653"/>
<path d="M3 0H0V70H3V0Z" transform="translate(469.002 79)" fill="#00A653"/>
<path d="M1 0H0V101H1V0Z" transform="translate(470.002 74)" fill="#00A653"/>
<path d="M3 0H0V51H3V0Z" transform="translate(464.002 16)" fill="#00A653"/>
<path d="M1 0H0V57H1V0Z" transform="translate(465.002 11)" fill="#00A653"/>
<path d="M3 0H0V4H3V0Z" transform="translate(454.002 45)" fill="#00A653"/>
<path d="M1 0H0V18H1V0Z" transform="translate(455.002 40)" fill="#00A653"/>
<path d="M3 0H0V4H3V0Z" transform="translate(436.002 107)" fill="#00A653"/>
<path d="M1 0H0V10H1V0Z" transform="translate(437.002 104)" fill="#00A653"/>
<path d="M3 0H0V12H3V0Z" transform="translate(426 124)" fill="#00A653"/>
<path d="M1 0H0V24H1V0Z" transform="translate(427 121)" fill="#00A653"/>
<path d="M3 0H0V3H3V0Z" transform="translate(412 180)" fill="#00A653"/>
<path d="M1 0H0V13H1V0Z" transform="translate(413 174)" fill="#00A653"/>
<path d="M3 0H0V3H3V0Z" transform="translate(408 174)" fill="#00A653"/>
<path d="M1 0H0V17H1V0Z" transform="translate(409 168)" fill="#00A653"/>
<path d="M3 0H0V8H3V0Z" transform="translate(367 254)" fill="#00A653"/>
<path d="M1 0H0V17H1V0Z" transform="translate(368 253)" fill="#00A653"/>
<path d="M3 0H0V14H3V0Z" transform="translate(352.002 252)" fill="#00A653"/>
<path d="M1 0H0V24.7508H1V0Z" transform="translate(353.012 246) rotate(0.0543808)" fill="#00A653"/>
<path d="M3 0H0V3H3V0Z" transform="translate(334 271)" fill="#00A653"/>
<path d="M1 0H0V9.15495H1V0Z" transform="translate(335.008 268.42) rotate(0.0543808)" fill="#00A653"/>
<path d="M3 0H0V3H3V0Z" transform="translate(324 281.58)" fill="#00A653"/>
<path d="M1 0H0V14.9084H1V0Z" transform="translate(325.014 273.247) rotate(0.0543808)" fill="#00A653"/>
<path d="M3 0H0V3H3V0Z" transform="translate(320 280.333)" fill="#00A653"/>
<path d="M1 0H0V17.5608H1V0Z" transform="translate(321.01 275.993) rotate(0.0543808)" fill="#00A653"/>
<path d="M3 0H0V3H3V0Z" transform="translate(315 281.34)" fill="#00A653"/>
<path d="M1 0H0V11.8173H1V0Z" transform="translate(316.012 274.329) rotate(0.0543808)" fill="#00A653"/>
<path d="M3 0H0V3H3V0Z" transform="translate(306 292.011)" fill="#00A653"/>
<path d="M1 0H0V10.5872H1V0Z" transform="translate(307.01 286.23) rotate(0.0543808)" fill="#00A653"/>
<path d="M3 0H0V4H3V0Z" transform="translate(292.002 308)" fill="#00A653"/>
<path d="M1 0H0V27.1324H1V0Z" transform="translate(293.014 299.962) rotate(0.0543808)" fill="#00A653"/>
<path d="M3 0H0V4H3V0Z" transform="translate(287.002 306.038)" fill="#00A653"/>
<path d="M1 0H0V10.9862H1V0Z" transform="translate(288.01 300.628) rotate(0.0543808)" fill="#00A653"/>
<path d="M3 0H0V4H3V0Z" transform="translate(269.002 322.41)" fill="#00A653"/>
<path d="M1 0H0V13.71H1V0Z" transform="translate(270.014 314.276) rotate(0.0543808)" fill="#00A653"/>
<path d="M3 0H0V15H3V0Z" transform="translate(255 309)" fill="#00A653"/>
<path d="M1 0H0V23.1662H1V0Z" transform="translate(256.021 302.544) rotate(0.0543808)" fill="#00A653"/>
<path d="M3 0H0V4H3V0Z" transform="translate(246 304)" fill="#00A653"/>
<path d="M1 0H0V14.4629H1V0Z" transform="translate(247.021 298) rotate(0.0543808)" fill="#00A653"/>
<path d="M3 0H0V12H3V0Z" transform="translate(199 358)" fill="#00A653"/>
<path d="M1 0H0V19.6583H1V0Z" transform="translate(200.029 351.778) rotate(0.0543808)" fill="#00A653"/>
<path d="M3 0H0V3H3V0Z" transform="translate(172 410)" fill="#00A653"/>
<path d="M1 0H0V7.51371H1V0Z" transform="translate(173.018 407.145) rotate(0.0543808)" fill="#00A653"/>
<path d="M3 0H0V9H3V0Z" transform="translate(162 450)" fill="#00A653"/>
<path d="M1 0H0V20.9524H1V0Z" transform="translate(163.023 446.281) rotate(0.0543808)" fill="#00A653"/>
<path d="M3 0H0V6H3V0Z" transform="translate(148 442)" fill="#00A653"/>
<path d="M1 0H0V26.3942H1V0Z" transform="translate(149.029 434.558) rotate(0.0543808)" fill="#00A653"/>
<path d="M3 0H0V17H3V0Z" transform="translate(125 429)" fill="#00A653"/>
<path d="M1 0H0V21.5519H1V0Z" transform="translate(126.037 425.63) rotate(0.0543808)" fill="#00A653"/>
<path d="M3 0H0V8H3V0Z" transform="translate(116 428)" fill="#00A653"/>
<path d="M1 0H0V15.149H1V0Z" transform="translate(117.039 422.024) rotate(0.0543808)" fill="#00A653"/>
<path d="M0.5 6.35094V0.5H2.5V6.35094H0.5Z" transform="matrix(0.999989 0.00471187 -0.00317584 0.999995 120.021 429.774)" stroke="#EB431E"/>
<path d="M1 0H0V4H1V0Z" transform="translate(120.977 436)" fill="#EB431E"/>
<path d="M1 0H0V3H1V0Z" transform="translate(120.977 427)" fill="#EB431E"/>
<path d="M0.5 3.20365V0.5H2.5V3.20365H0.5Z" transform="matrix(0.999989 0.00471187 -0.00317584 0.999995 106.012 425.921)" stroke="#EB431E"/>
<path d="M1 0H0V3H1V0Z" transform="translate(107 429)" fill="#EB431E"/>
<path d="M1 0H0V3H1V0Z" transform="translate(107 423)" fill="#EB431E"/>
<path d="M0.5 3.20365V0.5H2.5V3.20365H0.5Z" transform="matrix(0.999989 0.00471187 -0.00317584 0.999995 102.012 428.921)" stroke="#EB431E"/>
<path d="M1 0H0V11H1V0Z" transform="translate(103 432)" fill="#EB431E"/>
<path d="M1 0H0V3H1V0Z" transform="translate(103 426)" fill="#EB431E"/>
<path d="M0.5 3.20365V0.5H2.5V3.20365H0.5Z" transform="matrix(0.999989 0.00471187 -0.00317584 0.999995 92.0117 425.921)" stroke="#EB431E"/>
<path d="M1 0H0V2H1V0Z" transform="translate(93 429)" fill="#EB431E"/>
<path d="M1 0H0V3H1V0Z" transform="translate(93 423)" fill="#EB431E"/>
<path d="M0.5 15.8441V0.5H2.5V15.8441H0.5Z" transform="matrix(0.999989 0.00471187 -0.00317584 0.999995 88.0117 428.921)" stroke="#EB431E"/>
<path d="M1 0H0V2H1V0Z" transform="translate(89 445)" fill="#EB431E"/>
<path d="M1 0H0V4H1V0Z" transform="translate(89 425)" fill="#EB431E"/>
<path d="M0.5 15.8441V0.5H2.5V15.8441H0.5Z" transform="matrix(0.999989 0.00471187 -0.00317584 0.999995 83.0527 446.921)" stroke="#EB431E"/>
<path d="M1 0H0V2H1V0Z" transform="translate(84.041 463)" fill="#EB431E"/>
<path d="M1 0H0V4H1V0Z" transform="translate(84.041 443)" fill="#EB431E"/>
<path d="M0.5 8.98739V0.5H2.5V8.98739H0.5Z" transform="matrix(0.999989 0.00471187 -0.00317584 0.999995 79.0527 457.921)" stroke="#EB431E"/>
<path d="M1 0H0V2H1V0Z" transform="translate(80 467)" fill="#EB431E"/>
<path d="M1 0H0V4H1V0Z" transform="translate(80.041 454)" fill="#EB431E"/>
<path d="M0.5 2.79704V0.5H2.5V2.79704H0.5Z" transform="matrix(0.999989 0.00471187 -0.00317584 0.999995 55.0293 462.921)" stroke="#EB431E"/>
<path d="M1 0H0V2H1V0Z" transform="translate(56 466)" fill="#EB431E"/>
<path d="M1 0H0V4H1V0Z" transform="translate(56.0176 459)" fill="#EB431E"/>
<path d="M0.5 6.64705V0.5H2.5V6.64705H0.5Z" transform="matrix(0.999989 0.00471187 -0.00317584 0.999995 42.0098 464.921)" stroke="#EB431E"/>
<path d="M1 0H0V1H1V0Z" transform="translate(43 472)" fill="#EB431E"/>
<path d="M1 0H0V4H1V0Z" transform="translate(42.998 461)" fill="#EB431E"/>
<path d="M0.5 6.64705V0.5H2.5V6.64705H0.5Z" transform="matrix(0.999989 0.00471187 -0.00317584 0.999995 32.0234 453.921)" stroke="#EB431E"/>
<path d="M1 0H0V1H1V0Z" transform="translate(33.0137 461)" fill="#EB431E"/>
<path d="M1 0H0V8H1V0Z" transform="translate(33 446)" fill="#EB431E"/>
<path d="M0.5 9.75099V0.5H2.5V9.75099H0.5Z" transform="matrix(0.999989 0.00471187 -0.00317584 0.999995 27.0234 460.921)" stroke="#EB431E"/>
<path d="M1 0H0V1H1V0Z" transform="translate(28 471)" fill="#EB431E"/>
<path d="M1 0H0V3H1V0Z" transform="translate(28 458)" fill="#EB431E"/>
<path d="M3 0H0V4H3V0Z" transform="translate(111 423)" fill="#00A653"/>
<path d="M1 0H0V11.0268H1V0Z" transform="translate(112.035 421.122) rotate(0.0543808)" fill="#00A653"/>
<path d="M3 0H0V7H3V0Z" transform="translate(97 427)" fill="#00A653"/>
<path d="M1 0H0V13.3058H1V0Z" transform="translate(98.0371 425.721) rotate(0.0543808)" fill="#00A653"/>
<path d="M3 0H0V10H3V0Z" transform="translate(74 460)" fill="#00A653"/>
<path d="M1 0H0V13.3058H1V0Z" transform="translate(75.0371 459) rotate(0.0543808)" fill="#00A653"/>
<path d="M3 0H0V5H3V0Z" transform="translate(69 465)" fill="#00A653"/>
<path d="M1 0H0V10.8206H1V0Z" transform="translate(70.041 460.167) rotate(0.0543808)" fill="#00A653"/>
<path d="M3 0H0V3H3V0Z" transform="translate(65 462)" fill="#00A653"/>
<path d="M1 0H0V12.5967H1V0Z" transform="translate(66.043 453.224) rotate(0.0543808)" fill="#00A653"/>
<path d="M3 0H0V7H3V0Z" transform="translate(60 459)" fill="#00A653"/>
<path d="M1 0H0V10.6398H1V0Z" transform="translate(61.0332 460.708) rotate(0.0543808)" fill="#00A653"/>
<path d="M3 0H0V7H3V0Z" transform="translate(46 466)" fill="#00A653"/>
<path d="M1 0H0V13.0747H1V0Z" transform="translate(47.041 459.807) rotate(0.0543808)" fill="#00A653"/>
<path d="M3 0H0V15H3V0Z" transform="translate(37 456)" fill="#00A653"/>
<path d="M1 0H0V18.9331H1V0Z" transform="translate(38.0469 452.142) rotate(0.0543808)" fill="#00A653"/>
<path d="M3 0H0V4H3V0Z" transform="translate(23 465)" fill="#00A653"/>
<path d="M1 0H0V9.0867H1V0Z" transform="translate(24.0469 461) rotate(0.0543808)" fill="#00A653"/>
<path d="M3 0H0V14H3V0Z" transform="translate(348.002 245)" fill="#00A653"/>
<path d="M1 0H0V17.3937H1V0Z" transform="translate(349.008 241.373) rotate(0.0543808)" fill="#00A653"/>
</svg>
