<svg width="1920" height="902" viewBox="0 0 1920 902" fill="none" xmlns="http://www.w3.org/2000/svg">
<mask id="mask0" mask-type="alpha" maskUnits="userSpaceOnUse" x="0" y="0" width="1920" height="902">
<rect width="1920" height="902" fill="white"/>
</mask>
<g mask="url(#mask0)">
<path fill-rule="evenodd" clip-rule="evenodd" d="M0 940.191L608.095 994.475C619.386 995.943 630.865 994.319 641.304 989.777C651.743 985.235 660.749 977.946 667.359 968.689L871.622 297.093C881.151 270.269 884.163 244.27 863.861 225.971L613.178 0H20.827L0 940.191Z" transform="translate(-211 -8)" fill="url(#paint0_radial)"/>
<g opacity="0.1">
<path d="M1340.77 0H0V0.852074H1340.77V0Z" transform="translate(-360 878.316)" fill="white"/>
<path d="M1340.77 0H0V0.852123H1340.77V0Z" transform="translate(-360 849.486)" fill="white"/>
<path d="M1340.77 0H0V0.852123H1340.77V0Z" transform="translate(-360 820.436)" fill="white"/>
<path d="M1340.77 0H0V0.852074H1340.77V0Z" transform="translate(-360 791.606)" fill="white"/>
<path d="M1340.77 0H0V0.852123H1340.77V0Z" transform="translate(-360 762.776)" fill="white"/>
<path d="M1340.77 0H0V0.852123H1340.77V0Z" transform="translate(-360 733.947)" fill="white"/>
<path d="M1340.77 0H0V0.852123H1340.77V0Z" transform="translate(-360 705.117)" fill="white"/>
<path d="M1340.77 0H0V0.852123H1340.77V0Z" transform="translate(-360 676.287)" fill="white"/>
<path d="M1340.77 0H0V0.852074H1340.77V0Z" transform="translate(-360 647.458)" fill="white"/>
<path d="M1340.77 0H0V0.852123H1340.77V0Z" transform="translate(-360 618.628)" fill="white"/>
<path d="M1340.77 0H0V0.852074H1340.77V0Z" transform="translate(-360 589.578)" fill="white"/>
<path d="M1340.77 0H0V0.852123H1340.77V0Z" transform="translate(-360 560.747)" fill="white"/>
<path d="M1340.77 0H0V0.852123H1340.77V0Z" transform="translate(-360 531.918)" fill="white"/>
<path d="M1340.77 0H0V0.852123H1340.77V0Z" transform="translate(-360 503.088)" fill="white"/>
<path d="M1340.77 0H0V0.852123H1340.77V0Z" transform="translate(-360 474.258)" fill="white"/>
<path d="M1340.77 0H0V0.852099H1340.77V0Z" transform="translate(-360 445.429)" fill="white"/>
<path d="M1340.77 0H0V0.852099H1340.77V0Z" transform="translate(-360 416.598)" fill="white"/>
<path d="M1340.77 0H0V0.852099H1340.77V0Z" transform="translate(-360 387.77)" fill="white"/>
<path d="M1340.77 0H0V0.852123H1340.77V0Z" transform="translate(-360 358.719)" fill="white"/>
<path d="M1340.77 0H0V0.852099H1340.77V0Z" transform="translate(-360 329.889)" fill="white"/>
<path d="M1340.77 0H0V0.852099H1340.77V0Z" transform="translate(-360 301.06)" fill="white"/>
<path d="M1340.77 0H0V0.852123H1340.77V0Z" transform="translate(-360 272.229)" fill="white"/>
<path d="M1340.77 0H0V0.852111H1340.77V0Z" transform="translate(-360 243.4)" fill="white"/>
<path d="M1340.77 0H0V0.852111H1340.77V0Z" transform="translate(-360 214.57)" fill="white"/>
<path d="M1340.77 0H0V0.852111H1340.77V0Z" transform="translate(-360 185.74)" fill="white"/>
<path d="M1340.77 0H0V0.852111H1340.77V0Z" transform="translate(-360 156.911)" fill="white"/>
<path d="M1340.77 0H0V0.852111H1340.77V0Z" transform="translate(-360 127.86)" fill="white"/>
<path d="M1340.77 0H0V0.852111H1340.77V0Z" transform="translate(-360 99.0303)" fill="white"/>
<path d="M1340.77 0H0V0.852111H1340.77V0Z" transform="translate(-360 70.2012)" fill="white"/>
<path d="M0.851622 0H0V931.569H0.851622V0Z" transform="translate(917.19 17.4312)" fill="white"/>
<path d="M0.851719 0H0V931.569H0.851719V0Z" transform="translate(853.345 17.4312)" fill="white"/>
<path d="M0.851719 0H0V931.569H0.851719V0Z" transform="translate(789.489 17.4312)" fill="white"/>
<path d="M0.851622 0H0V931.569H0.851622V0Z" transform="translate(725.633 17.4312)" fill="white"/>
<path d="M0.851622 0H0V931.569H0.851622V0Z" transform="translate(661.789 17.4312)" fill="white"/>
<path d="M0.851622 0H0V931.569H0.851622V0Z" transform="translate(597.928 17.4312)" fill="white"/>
<path d="M0.851719 0H0V931.569H0.851719V0Z" transform="translate(534.087 17.4312)" fill="white"/>
<path d="M0.851719 0H0V931.569H0.851719V0Z" transform="translate(470.229 17.4312)" fill="white"/>
<path d="M0.851622 0H0V931.569H0.851622V0Z" transform="translate(406.387 17.4312)" fill="white"/>
<path d="M0.851671 0H0V931.569H0.851671V0Z" transform="translate(342.543 17.4312)" fill="white"/>
<path d="M0.851671 0H0V931.569H0.851671V0Z" transform="translate(278.353 17.4312)" fill="white"/>
<path d="M0.85167 0H0V931.569H0.85167V0Z" transform="translate(214.51 17.4312)" fill="white"/>
<path d="M0.851671 0H0V931.569H0.851671V0Z" transform="translate(150.652 17.4312)" fill="white"/>
<path d="M0.851671 0H0V931.569H0.851671V0Z" transform="translate(86.792 17.4312)" fill="white"/>
<path d="M0.851646 0H0V931.569H0.851646V0Z" transform="translate(22.9512 17.4312)" fill="white"/>
</g>
<path opacity="0.2" d="M31.2642 0H0V104.226H31.2642V0Z" transform="translate(32.7939 844.11)" fill="url(#paint1_linear)"/>
<path opacity="0.2" d="M31.2642 0H0V93.6288H31.2642V0Z" transform="translate(162.076 854.706)" fill="url(#paint2_linear)"/>
<path opacity="0.2" d="M31.2642 0H0V233.602H31.2642V0Z" transform="translate(291.348 714.733)" fill="url(#paint3_linear)"/>
<path opacity="0.2" d="M31.2642 0H0V277.22H31.2642V0Z" transform="translate(420.629 671.115)" fill="url(#paint4_linear)"/>
<path opacity="0.2" d="M31.2641 0H0V332.82H31.2641V0Z" transform="translate(549.911 615.275)" fill="url(#paint5_linear)"/>
<path opacity="0.2" d="M31.2642 0H0V390.545H31.2642V0Z" transform="translate(679.183 557.573)" fill="url(#paint6_linear)"/>
<path opacity="0.2" d="M31.2641 0H0V548.046H31.2641V0Z" transform="translate(808.465 400.05)" fill="url(#paint7_linear)"/>
<path opacity="0.2" d="M31.2641 0H0V571.095H31.2641V0Z" transform="translate(937.736 377)" fill="url(#paint8_linear)"/>
<g opacity="0.2">
<path d="M12.6878 0H0V93.2356H12.6878V0Z" transform="translate(884.268 -3.53711)" fill="white"/>
<path d="M12.6878 0H0V141.644H12.6878V0Z" transform="translate(857.218 47.1531)" fill="white"/>
<path d="M12.6879 0H0V38.0525H12.6879V0Z" transform="translate(830.143 51.6462)" fill="white"/>
<path d="M12.6878 0H0V126.128H12.6878V0Z" transform="translate(803.093 -20)" fill="white"/>
<path d="M12.6879 0H0V70.699H12.6879V0Z" transform="translate(776.03 70.7781)" fill="white"/>
<path d="M12.6878 0H0V141.644H12.6878V0Z" transform="translate(748.954 106.269)" fill="white"/>
<path d="M12.6878 0H0V141.644H12.6878V0Z" transform="translate(721.903 169.315)" fill="white"/>
<path d="M12.6879 0H0V141.644H12.6879V0Z" transform="translate(694.84 125.961)" fill="white"/>
<path d="M12.6879 0H0V39.3513H12.6879V0Z" transform="translate(667.778 259.883)" fill="white"/>
<path d="M12.6878 0H0V141.644H12.6878V0Z" transform="translate(640.716 181.144)" fill="white"/>
<path d="M12.6879 0H0V70.6287H12.6879V0Z" transform="translate(613.652 299.409)" fill="white"/>
<path d="M12.6878 0H0V141.644H12.6878V0Z" transform="translate(586.591 279.681)" fill="white"/>
<path d="M12.6878 0H0V86.7063H12.6878V0Z" transform="translate(559.527 421.29)" fill="white"/>
<path d="M12.6879 0H0V141.644H12.6879V0Z" transform="translate(532.466 512.068)" fill="white"/>
<path d="M12.6878 0H0V141.644H12.6878V0Z" transform="translate(505.402 441.123)" fill="white"/>
<path d="M12.6878 0H0V31.7689H12.6878V0Z" transform="translate(478.352 397.489)" fill="white"/>
<path d="M12.6879 0H0V141.644H12.6879V0Z" transform="translate(451.29 385.94)" fill="white"/>
<path d="M12.6879 0H0V110.366H12.6879V0Z" transform="translate(424.229 259.707)" fill="white"/>
<path d="M12.6879 0H0V141.644H12.6879V0Z" transform="translate(397.165 204.63)" fill="white"/>
<path d="M12.6758 0H0V94.6046H12.6758V0Z" transform="translate(370.103 322.753)" fill="white"/>
<path d="M12.6758 0H0V141.644H12.6758V0Z" transform="translate(343.04 346.518)" fill="white"/>
<path d="M12.6879 0H0V141.644H12.6879V0Z" transform="translate(315.976 437.156)" fill="white"/>
<path d="M12.6879 0H0V31.2775H12.6879V0Z" transform="translate(288.915 567.252)" fill="white"/>
<path d="M12.6879 0H0V141.644H12.6879V0Z" transform="translate(261.853 555.42)" fill="white"/>
<path d="M12.6879 0H0V141.644H12.6879V0Z" transform="translate(234.803 456.885)" fill="white"/>
<path d="M12.6879 0H0V61.5018H12.6879V0Z" transform="translate(207.727 469.381)" fill="white"/>
<path d="M12.6879 0H0V141.644H12.6879V0Z" transform="translate(180.675 448.986)" fill="white"/>
<path d="M12.6879 0H0V141.644H12.6879V0Z" transform="translate(153.613 385.94)" fill="white"/>
<path d="M12.6879 0H0V47.2848H12.6879V0Z" transform="translate(126.55 366.107)" fill="white"/>
<path d="M12.6879 0H0V141.644H12.6879V0Z" transform="translate(99.4883 303.166)" fill="white"/>
<path d="M12.6879 0H0V110.366H12.6879V0Z" transform="translate(72.4248 389.767)" fill="white"/>
<path d="M12.6879 0H0V31.769H12.6879V0Z" transform="translate(45.3623 425.115)" fill="white"/>
<path d="M12.6879 0H0V141.644H12.6879V0Z" transform="translate(18.3008 445.054)" fill="white"/>
<path d="M12.6879 0H0V86.952H12.6879V0Z" transform="translate(-8.75 539.413)" fill="white"/>
</g>
<g opacity="0.2">
<path d="M12.6884 0H0V27.923H12.6884V0Z" transform="translate(904.312 41.9304)" fill="white"/>
<path d="M12.6884 0H0V42.4207H12.6884V0Z" transform="translate(877.26 57.1113)" fill="white"/>
<path d="M12.6884 0H0V11.3963H12.6884V0Z" transform="translate(850.184 58.4573)" fill="white"/>
<path d="M12.6884 0H0V37.7739H12.6884V0Z" transform="translate(823.132 37)" fill="white"/>
<path d="M12.6884 0H0V21.1735H12.6884V0Z" transform="translate(796.067 64.1873)" fill="white"/>
<path d="M12.6884 0H0V42.4207H12.6884V0Z" transform="translate(768.991 74.8162)" fill="white"/>
<path d="M12.6884 0H0V42.4207H12.6884V0Z" transform="translate(741.938 93.6978)" fill="white"/>
<path d="M12.6884 0H0V42.4207H12.6884V0Z" transform="translate(714.875 80.7139)" fill="white"/>
<path d="M12.6884 0H0V11.7853H12.6884V0Z" transform="translate(687.812 120.822)" fill="white"/>
<path d="M12.6884 0H0V42.4207H12.6884V0Z" transform="translate(660.748 97.2405)" fill="white"/>
<path d="M12.6884 0H0V21.1525H12.6884V0Z" transform="translate(633.684 132.659)" fill="white"/>
<path d="M12.6884 0H0V42.4207H12.6884V0Z" transform="translate(606.621 126.751)" fill="white"/>
<path d="M12.6884 0H0V25.9676H12.6884V0Z" transform="translate(579.557 169.161)" fill="white"/>
<path d="M12.6884 0H0V42.4207H12.6884V0Z" transform="translate(552.493 196.348)" fill="white"/>
<path d="M12.6884 0H0V42.4207H12.6884V0Z" transform="translate(525.429 175.101)" fill="white"/>
<path d="M12.6884 0H0V9.51443H12.6884V0Z" transform="translate(498.377 162.033)" fill="white"/>
<path d="M12.6884 0H0V42.4207H12.6884V0Z" transform="translate(471.314 158.574)" fill="white"/>
<path d="M12.6884 0H0V33.0534H12.6884V0Z" transform="translate(444.25 120.769)" fill="white"/>
<path d="M12.6884 0H0V42.4207H12.6884V0Z" transform="translate(417.188 104.274)" fill="white"/>
<path d="M12.6763 0H0V28.333H12.6763V0Z" transform="translate(390.123 139.651)" fill="white"/>
<path d="M12.6764 0H0V42.4207H12.6764V0Z" transform="translate(363.06 146.768)" fill="white"/>
<path d="M12.6884 0H0V42.4207H12.6884V0Z" transform="translate(335.994 173.913)" fill="white"/>
<path d="M12.6884 0H0V9.36725H12.6884V0Z" transform="translate(308.933 212.875)" fill="white"/>
<path d="M12.6884 0H0V42.4207H12.6884V0Z" transform="translate(281.869 209.332)" fill="white"/>
<path d="M12.6884 0H0V42.4207H12.6884V0Z" transform="translate(254.817 179.822)" fill="white"/>
<path d="M12.6884 0H0V18.4191H12.6884V0Z" transform="translate(227.74 183.564)" fill="white"/>
<path d="M12.6884 0H0V42.4207H12.6884V0Z" transform="translate(200.688 177.456)" fill="white"/>
<path d="M12.6884 0H0V42.4207H12.6884V0Z" transform="translate(173.625 158.574)" fill="white"/>
<path d="M12.6884 0H0V14.1613H12.6884V0Z" transform="translate(146.561 152.635)" fill="white"/>
<path d="M12.6884 0H0V42.4207H12.6884V0Z" transform="translate(119.497 133.784)" fill="white"/>
<path d="M12.6884 0H0V33.0535H12.6884V0Z" transform="translate(92.4326 159.72)" fill="white"/>
<path d="M12.6884 0H0V9.51445H12.6884V0Z" transform="translate(65.3691 170.307)" fill="white"/>
<path d="M12.6884 0H0V42.4207H12.6884V0Z" transform="translate(38.3066 176.279)" fill="white"/>
<path d="M12.6884 0H0V26.0411H12.6884V0Z" transform="translate(11.2549 204.538)" fill="white"/>
</g>
</g>
<defs>
<radialGradient id="paint0_radial" cx="0.5" cy="0.5" r="0.5" gradientUnits="userSpaceOnUse" gradientTransform="matrix(-1396.77 1607.98 -244.325 -7644.93 1551.77 3156.39)">
<stop stop-color="#0DD0FB"/>
<stop offset="1" stop-color="#036FF5"/>
</radialGradient>
<linearGradient id="paint1_linear" x2="1" gradientUnits="userSpaceOnUse" gradientTransform="translate(31.2642) scale(31.2642 104.226) rotate(90)">
<stop stop-color="white"/>
<stop offset="1" stop-color="white" stop-opacity="0"/>
</linearGradient>
<linearGradient id="paint2_linear" x2="1" gradientUnits="userSpaceOnUse" gradientTransform="translate(31.2642) scale(31.2642 93.6288) rotate(90)">
<stop stop-color="white"/>
<stop offset="1" stop-color="white" stop-opacity="0"/>
</linearGradient>
<linearGradient id="paint3_linear" x2="1" gradientUnits="userSpaceOnUse" gradientTransform="translate(31.2642) scale(31.2642 233.602) rotate(90)">
<stop stop-color="white"/>
<stop offset="1" stop-color="white" stop-opacity="0"/>
</linearGradient>
<linearGradient id="paint4_linear" x2="1" gradientUnits="userSpaceOnUse" gradientTransform="translate(31.2642) scale(31.2642 277.22) rotate(90)">
<stop stop-color="white"/>
<stop offset="1" stop-color="white" stop-opacity="0"/>
</linearGradient>
<linearGradient id="paint5_linear" x2="1" gradientUnits="userSpaceOnUse" gradientTransform="translate(31.2641) scale(31.2641 332.82) rotate(90)">
<stop stop-color="white"/>
<stop offset="1" stop-color="white" stop-opacity="0"/>
</linearGradient>
<linearGradient id="paint6_linear" x2="1" gradientUnits="userSpaceOnUse" gradientTransform="translate(31.2642) scale(31.2642 390.545) rotate(90)">
<stop stop-color="white"/>
<stop offset="1" stop-color="white" stop-opacity="0"/>
</linearGradient>
<linearGradient id="paint7_linear" x2="1" gradientUnits="userSpaceOnUse" gradientTransform="translate(31.2641) scale(31.2641 548.046) rotate(90)">
<stop stop-color="white"/>
<stop offset="1" stop-color="white" stop-opacity="0"/>
</linearGradient>
<linearGradient id="paint8_linear" x2="1" gradientUnits="userSpaceOnUse" gradientTransform="translate(31.2641) scale(31.2641 571.095) rotate(90)">
<stop stop-color="white"/>
<stop offset="1" stop-color="white" stop-opacity="0"/>
</linearGradient>
</defs>
</svg>
