<svg xmlns="http://www.w3.org/2000/svg" width="768" height="1090" fill="none"><path fill="url(#paint0_radial)" fill-rule="evenodd" d="M0 1032.79l667.59 59.63a68.948 68.948 0 0 0 36.458-5.16 68.883 68.883 0 0 0 25.609-19.27c2.075-2.51 3.478-5.48 4.425-8.6L956.9 326.354c10.461-29.466 13.768-58.025-8.52-78.127L673.17 0H22.865L0 1032.79z" clip-rule="evenodd" transform="translate(-37 -3)"/><g fill="#fff" opacity=".1"><path d="M889.77 895.146H-451v.852H889.77v-.852zM889.77 866.316H-451v.852H889.77v-.852zM889.77 837.486H-451v.852H889.77v-.852zM889.77 808.436H-451v.852H889.77v-.852zM889.77 779.606H-451v.852H889.77v-.852zM889.77 750.776H-451v.852H889.77v-.852zM889.77 721.946H-451v.852H889.77v-.852zM889.77 693.117H-451v.852H889.77v-.852zM889.77 664.287H-451v.852H889.77v-.852zM889.77 635.458H-451v.852H889.77v-.852zM889.77 606.628H-451v.852H889.77v-.852zM889.77 577.578H-451v.852H889.77v-.852zM889.77 548.747H-451v.852H889.77v-.852zM889.77 519.918H-451v.852H889.77v-.852zM889.77 491.088H-451v.852H889.77v-.852zM889.77 462.258H-451v.852H889.77v-.852zM889.77 433.429H-451v.852H889.77v-.852zM889.77 404.599H-451v.852H889.77v-.852zM889.77 375.77H-451v.852H889.77v-.852zM889.77 346.719H-451v.852H889.77v-.852zM889.77 317.889H-451v.852H889.77v-.852zM889.77 289.06H-451v.852H889.77v-.852zM889.77 260.229H-451v.852H889.77v-.852zM889.77 231.399H-451v.852H889.77v-.852zM889.77 202.57H-451v.852H889.77v-.852zM889.77 173.74H-451v.852H889.77v-.852zM889.77 144.911H-451v.852H889.77v-.852zM889.77 115.86H-451v.852H889.77v-.852zM889.77 87.03H-451v.852H889.77v-.852zM889.77 58.201H-451v.852H889.77v-.852z"/><path d="M763.198 5.431h-.852v931.57h.852V5.43zM699.342 5.431h-.852v931.57h.852V5.43zM635.485 5.431h-.852v931.57h.852V5.43zM571.64 5.431h-.851v931.57h.852V5.43zM507.78 5.431h-.852v931.57h.852V5.43zM443.94 5.431h-.852v931.57h.852V5.43zM380.082 5.431h-.852v931.57h.852V5.43zM316.239 5.431h-.852v931.57h.852V5.43zM252.395 5.431h-.852v931.57h.852V5.43zM188.204 5.431h-.852v931.57h.852V5.43zM124.362 5.431h-.852v931.57h.852V5.43zM60.504 5.431h-.852v931.57h.852V5.43z"/></g><path fill="url(#paint1_linear)" d="M31.264 0H0v93.629h31.264V0z" opacity=".2" transform="translate(71.076 842.707)"/><path fill="url(#paint2_linear)" d="M31.264 0H0v233.602h31.264V0z" opacity=".2" transform="translate(200.348 702.733)"/><path fill="url(#paint3_linear)" d="M31.264 0H0v277.22h31.264V0z" opacity=".2" transform="translate(329.629 659.115)"/><path fill="url(#paint4_linear)" d="M31.264 0H0v332.82h31.264V0z" opacity=".2" transform="translate(458.912 603.275)"/><path fill="url(#paint5_linear)" d="M31.264 0H0v390.545h31.264V0z" opacity=".2" transform="translate(588.182 545.573)"/><path fill="url(#paint6_linear)" d="M31.264 0H0v548.046h31.264V0z" opacity=".2" transform="translate(717.465 388.049)"/><g fill="#fff" opacity=".2"><path d="M778.905 35.153h-12.688v141.644h12.688V35.153zM751.83 39.646h-12.687v38.053h12.688V39.645zM724.78-32h-12.688V94.128h12.688V-32zM697.719 58.778H685.03v70.7h12.688v-70.7zM670.643 94.269h-12.688v141.644h12.688V94.269zM643.59 157.315h-12.688v141.644h12.688V157.315zM616.528 113.961H603.84v141.644h12.688V113.961zM589.465 247.883h-12.688v39.351h12.688v-39.351zM562.405 169.145h-12.688v141.644h12.688V169.145zM535.34 287.409h-12.688v70.629h12.688v-70.629zM508.278 267.681H495.59v141.644h12.688V267.681zM481.215 409.29h-12.688v86.706h12.688V409.29zM454.153 500.067h-12.688v141.644h12.688V500.067zM427.09 429.123h-12.688v141.644h12.688V429.123zM400.04 385.489h-12.688v31.769h12.688v-31.769zM372.979 373.939H360.29v141.644h12.688V373.939zM345.917 247.707h-12.688v110.366h12.688V247.707zM318.852 192.63h-12.688v141.644h12.688V192.63zM291.78 310.753h-12.676v94.605h12.676v-94.605zM264.715 334.518h-12.676v141.644h12.676V334.518zM237.665 425.156h-12.688V566.8h12.688V425.156zM210.602 555.252h-12.688v31.277h12.688v-31.277zM183.54 543.42h-12.688v141.644h12.688V543.42zM156.49 444.885h-12.687v141.644h12.688V444.885zM129.415 457.381h-12.688v61.502h12.688V457.38zM102.364 436.986H89.676V578.63h12.688V436.986zM75.301 373.939H62.613v141.644h12.688V373.939zM48.239 354.107H35.55v47.285h12.688v-47.285zM21.176 291.166H8.488V432.81h12.688V291.166z"/></g><g fill="#fff" opacity=".2"><path d="M771.872 46.458h-12.688v11.396h12.688V46.458zM744.821 25h-12.688v37.774h12.688V25zM717.756 52.187h-12.688v21.174h12.688V52.187zM690.678 62.816H677.99v42.421h12.688v-42.42zM663.626 81.698h-12.688v42.42h12.688v-42.42zM636.563 68.714h-12.688v42.42h12.688v-42.42zM609.5 108.822h-12.688v11.785H609.5v-11.785zM582.436 85.24h-12.688v42.421h12.688v-42.42zM555.372 120.659h-12.688v21.152h12.688V120.66zM528.31 114.751H515.62v42.42h12.688v-42.42zM501.245 157.161h-12.688v25.968h12.688V157.16zM474.182 184.348h-12.688v42.42h12.688v-42.42zM447.118 163.101H434.43v42.42h12.688v-42.42zM420.065 150.033h-12.688v9.514h12.688v-9.514zM393.002 146.574h-12.688v42.42h12.688v-42.42zM365.938 108.769H353.25v33.053h12.688V108.77zM338.876 92.274h-12.688v42.42h12.688v-42.42zM311.8 127.651h-12.677v28.333h12.676v-28.333zM284.737 134.768h-12.676v42.42h12.676v-42.42zM257.682 161.913h-12.688v42.42h12.688v-42.42zM230.62 200.875h-12.688v9.367h12.688v-9.367zM203.557 197.332H190.87v42.42h12.688v-42.42zM176.506 167.822h-12.688v42.42h12.688v-42.42zM149.428 171.564H136.74v18.42h12.688v-18.42zM122.376 165.456h-12.688v42.42h12.688v-42.42zM95.313 146.574H82.625v42.42h12.688v-42.42zM68.249 140.635H55.56v14.161H68.25v-14.161zM41.186 121.785H28.498v42.42h12.688v-42.42zM14.122 147.72H1.434v33.053h12.688V147.72z"/></g><defs><radialGradient id="paint0_radial" cx=".5" cy=".5" r=".5" gradientTransform="matrix(-1533.42 1766.36 -268.23 -8397.89 1703.59 3467.27)" gradientUnits="userSpaceOnUse"><stop stop-color="#0DD0FB"/><stop offset="1" stop-color="#036FF5"/></radialGradient><linearGradient id="paint1_linear" x2="1" gradientTransform="matrix(0 93.6288 -31.2642 0 31.264 0)" gradientUnits="userSpaceOnUse"><stop stop-color="#fff"/><stop offset="1" stop-color="#fff" stop-opacity="0"/></linearGradient><linearGradient id="paint2_linear" x2="1" gradientTransform="matrix(0 233.602 -31.2642 0 31.264 0)" gradientUnits="userSpaceOnUse"><stop stop-color="#fff"/><stop offset="1" stop-color="#fff" stop-opacity="0"/></linearGradient><linearGradient id="paint3_linear" x2="1" gradientTransform="matrix(0 277.22 -31.2642 0 31.264 0)" gradientUnits="userSpaceOnUse"><stop stop-color="#fff"/><stop offset="1" stop-color="#fff" stop-opacity="0"/></linearGradient><linearGradient id="paint4_linear" x2="1" gradientTransform="matrix(0 332.82 -31.2641 0 31.264 0)" gradientUnits="userSpaceOnUse"><stop stop-color="#fff"/><stop offset="1" stop-color="#fff" stop-opacity="0"/></linearGradient><linearGradient id="paint5_linear" x2="1" gradientTransform="matrix(0 390.545 -31.2642 0 31.264 0)" gradientUnits="userSpaceOnUse"><stop stop-color="#fff"/><stop offset="1" stop-color="#fff" stop-opacity="0"/></linearGradient><linearGradient id="paint6_linear" x2="1" gradientTransform="matrix(0 548.046 -31.2641 0 31.264 0)" gradientUnits="userSpaceOnUse"><stop stop-color="#fff"/><stop offset="1" stop-color="#fff" stop-opacity="0"/></linearGradient></defs></svg>