<svg width="320" height="731" viewBox="0 0 320 731" fill="none" xmlns="http://www.w3.org/2000/svg">
<rect width="320" height="731" fill="url(#paint0_radial)"/>
<mask id="mask0" mask-type="alpha" maskUnits="userSpaceOnUse" x="0" y="0" width="320" height="731">
<rect width="320" height="731" fill="url(#paint1_radial)"/>
</mask>
<g mask="url(#mask0)">
<g opacity="0.1">
<path d="M1046 0H0V0.664776H1046V0Z" transform="translate(-318 730.346)" fill="white"/>
<path d="M1046 0H0V0.664776H1046V0Z" transform="translate(-318 707.854)" fill="white"/>
<path d="M1046 0H0V0.664814H1046V0Z" transform="translate(-318 685.361)" fill="white"/>
<path d="M1046 0H0V0.664814H1046V0Z" transform="translate(-318 662.696)" fill="white"/>
<path d="M1046 0H0V0.664776H1046V0Z" transform="translate(-318 640.204)" fill="white"/>
<path d="M1046 0H0V0.664814H1046V0Z" transform="translate(-318 617.711)" fill="white"/>
<path d="M1046 0H0V0.664814H1046V0Z" transform="translate(-318 595.218)" fill="white"/>
<path d="M1046 0H0V0.664814H1046V0Z" transform="translate(-318 572.726)" fill="white"/>
<path d="M1046 0H0V0.664814H1046V0Z" transform="translate(-318 550.233)" fill="white"/>
<path d="M1046 0H0V0.664776H1046V0Z" transform="translate(-318 527.741)" fill="white"/>
<path d="M1046 0H0V0.664814H1046V0Z" transform="translate(-318 505.249)" fill="white"/>
<path d="M1046 0H0V0.664776H1046V0Z" transform="translate(-318 482.584)" fill="white"/>
<path d="M1046 0H0V0.664814H1046V0Z" transform="translate(-318 460.091)" fill="white"/>
<path d="M1046 0H0V0.664814H1046V0Z" transform="translate(-318 437.599)" fill="white"/>
<path d="M1046 0H0V0.664814H1046V0Z" transform="translate(-318 415.106)" fill="white"/>
<path d="M1046 0H0V0.664814H1046V0Z" transform="translate(-318 392.613)" fill="white"/>
<path d="M1046 0H0V0.664795H1046V0Z" transform="translate(-318 370.121)" fill="white"/>
<path d="M1046 0H0V0.664795H1046V0Z" transform="translate(-318 347.628)" fill="white"/>
<path d="M1046 0H0V0.664795H1046V0Z" transform="translate(-318 325.136)" fill="white"/>
<path d="M1046 0H0V0.664814H1046V0Z" transform="translate(-318 302.471)" fill="white"/>
<path d="M1046 0H0V0.664795H1046V0Z" transform="translate(-318 279.979)" fill="white"/>
<path d="M1046 0H0V0.664795H1046V0Z" transform="translate(-318 257.486)" fill="white"/>
<path d="M1046 0H0V0.664814H1046V0Z" transform="translate(-318 234.993)" fill="white"/>
<path d="M1046 0H0V0.664804H1046V0Z" transform="translate(-318 212.501)" fill="white"/>
<path d="M1046 0H0V0.664804H1046V0Z" transform="translate(-318 190.008)" fill="white"/>
<path d="M1046 0H0V0.664804H1046V0Z" transform="translate(-318 167.516)" fill="white"/>
<path d="M1046 0H0V0.664804H1046V0Z" transform="translate(-318 145.023)" fill="white"/>
<path d="M1046 0H0V0.664804H1046V0Z" transform="translate(-318 122.358)" fill="white"/>
<path d="M1046 0H0V0.664804H1046V0Z" transform="translate(-318 99.866)" fill="white"/>
<path d="M1046 0H0V0.664804H1046V0Z" transform="translate(-318 77.374)" fill="white"/>
<path d="M0.664393 0H0V726.797H0.664393V0Z" transform="translate(279.896 36.2034)" fill="white"/>
<path d="M0.664431 0H0V726.797H0.664431V0Z" transform="translate(230.09 36.2034)" fill="white"/>
<path d="M0.664431 0H0V726.797H0.664431V0Z" transform="translate(180.01 36.2034)" fill="white"/>
<path d="M0.664431 0H0V726.797H0.664431V0Z" transform="translate(130.203 36.2034)" fill="white"/>
<path d="M0.664431 0H0V726.797H0.664431V0Z" transform="translate(80.3848 36.2034)" fill="white"/>
<path d="M0.664431 0H0V726.797H0.664431V0Z" transform="translate(30.5645 36.2034)" fill="white"/>
</g>
<path opacity="0.2" d="M24.3907 0H0V81.3154H24.3907V0Z" transform="translate(-11.5625 681.166)" fill="url(#paint2_linear)"/>
<path opacity="0.2" d="M24.3907 0H0V73.0479H24.3907V0Z" transform="translate(89.2988 689.433)" fill="url(#paint3_linear)"/>
<path opacity="0.2" d="M24.3907 0H0V182.253H24.3907V0Z" transform="translate(190.15 580.228)" fill="url(#paint4_linear)"/>
<path opacity="0.2" d="M24.3907 0H0V216.283H24.3907V0Z" transform="translate(291.008 546.198)" fill="url(#paint5_linear)"/>
<g opacity="0.2">
<path d="M9.89843 0H0V110.508H9.89843V0Z" transform="translate(314.93 323.708)" fill="white"/>
<path d="M9.89843 0H0V86.1061H9.89843V0Z" transform="translate(293.816 225.223)" fill="white"/>
<path d="M9.89843 0H0V110.508H9.89843V0Z" transform="translate(272.703 182.253)" fill="white"/>
<path d="M9.88902 0H0V73.8092H9.88902V0Z" transform="translate(251.592 274.411)" fill="white"/>
<path d="M9.88905 0H0V110.508H9.88905V0Z" transform="translate(230.477 292.952)" fill="white"/>
<path d="M9.89843 0H0V110.508H9.89843V0Z" transform="translate(209.365 363.667)" fill="white"/>
<path d="M9.89843 0H0V24.4022H9.89843V0Z" transform="translate(188.252 465.166)" fill="white"/>
<path d="M9.89843 0H0V110.508H9.89843V0Z" transform="translate(167.139 455.934)" fill="white"/>
<path d="M9.89843 0H0V110.508H9.89843V0Z" transform="translate(146.039 379.059)" fill="white"/>
<path d="M9.89843 0H0V47.9828H9.89843V0Z" transform="translate(124.914 388.808)" fill="white"/>
<path d="M9.89843 0H0V110.508H9.89843V0Z" transform="translate(103.811 372.896)" fill="white"/>
<path d="M9.89843 0H0V110.508H9.89843V0Z" transform="translate(82.6973 323.708)" fill="white"/>
<path d="M9.89844 0H0V36.8909H9.89844V0Z" transform="translate(61.584 308.235)" fill="white"/>
<path d="M9.89843 0H0V110.508H9.89843V0Z" transform="translate(40.4707 259.129)" fill="white"/>
<path d="M9.89843 0H0V86.1062H9.89843V0Z" transform="translate(19.3574 326.694)" fill="white"/>
<path d="M9.89843 0H0V24.7857H9.89843V0Z" transform="translate(-1.75391 354.272)" fill="white"/>
</g>
<g opacity="0.2">
<path d="M9.89885 0H0V25.7878H9.89885V0Z" transform="translate(309.436 116.826)" fill="white"/>
<path d="M9.89885 0H0V33.096H9.89885V0Z" transform="translate(288.322 103.957)" fill="white"/>
<path d="M9.88945 0H0V22.105H9.88945V0Z" transform="translate(267.209 131.557)" fill="white"/>
<path d="M9.88947 0H0V33.096H9.88947V0Z" transform="translate(246.096 137.11)" fill="white"/>
<path d="M9.89885 0H0V33.096H9.89885V0Z" transform="translate(224.98 158.288)" fill="white"/>
<path d="M9.89885 0H0V7.30819H9.89885V0Z" transform="translate(203.867 188.686)" fill="white"/>
<path d="M9.89885 0H0V33.096H9.89885V0Z" transform="translate(182.754 185.921)" fill="white"/>
<path d="M9.89885 0H0V33.096H9.89885V0Z" transform="translate(161.65 162.898)" fill="white"/>
<path d="M9.89885 0H0V14.3703H9.89885V0Z" transform="translate(140.527 165.818)" fill="white"/>
<path d="M9.89885 0H0V33.096H9.89885V0Z" transform="translate(119.42 161.052)" fill="white"/>
<path d="M9.89885 0H0V33.096H9.89885V0Z" transform="translate(98.3086 146.321)" fill="white"/>
<path d="M9.89887 0H0V11.0484H9.89887V0Z" transform="translate(77.1953 141.687)" fill="white"/>
<path d="M9.89885 0H0V33.096H9.89885V0Z" transform="translate(56.0801 126.98)" fill="white"/>
<path d="M9.89885 0H0V25.7878H9.89885V0Z" transform="translate(34.9668 147.215)" fill="white"/>
<path d="M9.89885 0H0V7.42303H9.89885V0Z" transform="translate(13.8516 155.474)" fill="white"/>
<path d="M9.89885 0H0V33.096H9.89885V0Z" transform="translate(-7.26172 160.134)" fill="white"/>
</g>
</g>
<defs>
<radialGradient id="paint0_radial" cx="0.5" cy="0.5" r="0.5" gradientUnits="userSpaceOnUse" gradientTransform="matrix(-508.493 1181.34 -88.9467 -5616.52 564.922 2318.92)">
<stop stop-color="#0DD0FB"/>
<stop offset="1" stop-color="#036FF5"/>
</radialGradient>
<radialGradient id="paint1_radial" cx="0.5" cy="0.5" r="0.5" gradientUnits="userSpaceOnUse" gradientTransform="matrix(-508.493 1181.34 -88.9467 -5616.52 564.922 2318.92)">
<stop stop-color="#0DD0FB"/>
<stop offset="1" stop-color="#036FF5"/>
</radialGradient>
<linearGradient id="paint2_linear" x2="1" gradientUnits="userSpaceOnUse" gradientTransform="translate(24.3907) scale(24.3907 81.3154) rotate(90)">
<stop stop-color="white"/>
<stop offset="1" stop-color="white" stop-opacity="0"/>
</linearGradient>
<linearGradient id="paint3_linear" x2="1" gradientUnits="userSpaceOnUse" gradientTransform="translate(24.3907) scale(24.3907 73.0479) rotate(90)">
<stop stop-color="white"/>
<stop offset="1" stop-color="white" stop-opacity="0"/>
</linearGradient>
<linearGradient id="paint4_linear" x2="1" gradientUnits="userSpaceOnUse" gradientTransform="translate(24.3907) scale(24.3907 182.253) rotate(90)">
<stop stop-color="white"/>
<stop offset="1" stop-color="white" stop-opacity="0"/>
</linearGradient>
<linearGradient id="paint5_linear" x2="1" gradientUnits="userSpaceOnUse" gradientTransform="translate(24.3907) scale(24.3907 216.283) rotate(90)">
<stop stop-color="white"/>
<stop offset="1" stop-color="white" stop-opacity="0"/>
</linearGradient>
</defs>
</svg>
