<svg xmlns="http://www.w3.org/2000/svg" width="532" height="505" fill="none"><path fill="url(#paint0_linear)" fill-rule="evenodd" d="M0 581.235L421.309 614.794C428.294 615.701 435.395 614.697 441.852 611.889C448.309 609.082 453.88 604.575 457.969 598.852L584.321 183.666C590.216 167.083 592.079 151.01 579.521 139.697L424.454 0H12.8831L0 581.235Z" clip-rule="evenodd" opacity=".2" transform="scale(-1 1) rotate(-34 47.6 1772)"/><path fill="url(#paint1_linear)" fill-rule="evenodd" d="M0.418488 562.354C0.183583 572.952 8.25842 581.892 18.8255 582.734L421.309 614.794C428.294 615.701 435.395 614.697 441.852 611.889C447.303 609.519 452.123 605.938 455.952 601.436C457.359 599.783 458.292 597.793 458.924 595.716L584.321 183.666C590.216 167.083 592.079 151.01 579.521 139.697L430.16 5.14062C426.486 1.83134 421.717 0 416.773 0H32.4447C21.5717 0 12.6906 8.68648 12.4496 19.5568L0.418488 562.354Z" clip-rule="evenodd" opacity=".6" transform="scale(-1 1) rotate(-34 468 1632)"/><defs><linearGradient id="paint0_linear" x2="1" gradientTransform="matrix(-409.498 192.529 392.489 -1850.39 472.6 1092.4)" gradientUnits="userSpaceOnUse"><stop stop-color="#0DD0FB" stop-opacity="0"/><stop offset="1" stop-color="#036FF5"/></linearGradient><linearGradient id="paint1_linear" x2="1" gradientTransform="matrix(-409.498 192.529 392.489 -1850.39 472.6 1092.4)" gradientUnits="userSpaceOnUse"><stop stop-color="#0DD0FB" stop-opacity="0"/><stop offset="1" stop-color="#036FF5"/></linearGradient></defs></svg>