<svg xmlns="http://www.w3.org/2000/svg" width="559" height="242" fill="none"><g fill="#fff" opacity=".4"><path d="M558.294 239.706C558.294 240.518 557.636 241.176 556.824 241.176 556.011 241.176 555.353 240.518 555.353 239.706 555.353 238.894 556.011 238.235 556.824 238.235 557.636 238.235 558.294 238.894 558.294 239.706zM531.824 239.706C531.824 240.518 531.165 241.176 530.353 241.176 529.541 241.176 528.882 240.518 528.882 239.706 528.882 238.894 529.541 238.235 530.353 238.235 531.165 238.235 531.824 238.894 531.824 239.706zM558.294 186.765C558.294 187.577 557.636 188.235 556.824 188.235 556.011 188.235 555.353 187.577 555.353 186.765 555.353 185.953 556.011 185.294 556.824 185.294 557.636 185.294 558.294 185.953 558.294 186.765zM531.824 186.765C531.824 187.577 531.165 188.235 530.353 188.235 529.541 188.235 528.882 187.577 528.882 186.765 528.882 185.953 529.541 185.294 530.353 185.294 531.165 185.294 531.824 185.953 531.824 186.765zM558.294 213.235C558.294 214.047 557.636 214.706 556.824 214.706 556.011 214.706 555.353 214.047 555.353 213.235 555.353 212.423 556.011 211.765 556.824 211.765 557.636 211.765 558.294 212.423 558.294 213.235zM531.824 213.235C531.824 214.047 531.165 214.706 530.353 214.706 529.541 214.706 528.882 214.047 528.882 213.235 528.882 212.423 529.541 211.765 530.353 211.765 531.165 211.765 531.824 212.423 531.824 213.235zM505.353 239.706C505.353 240.518 504.695 241.176 503.882 241.176 503.07 241.176 502.412 240.518 502.412 239.706 502.412 238.894 503.07 238.235 503.882 238.235 504.695 238.235 505.353 238.894 505.353 239.706zM478.882 239.706C478.882 240.518 478.224 241.176 477.412 241.176 476.6 241.176 475.941 240.518 475.941 239.706 475.941 238.894 476.6 238.235 477.412 238.235 478.224 238.235 478.882 238.894 478.882 239.706zM505.353 186.765C505.353 187.577 504.695 188.235 503.882 188.235 503.07 188.235 502.412 187.577 502.412 186.765 502.412 185.953 503.07 185.294 503.882 185.294 504.695 185.294 505.353 185.953 505.353 186.765zM478.882 186.765C478.882 187.577 478.224 188.235 477.412 188.235 476.6 188.235 475.941 187.577 475.941 186.765 475.941 185.953 476.6 185.294 477.412 185.294 478.224 185.294 478.882 185.953 478.882 186.765zM505.353 213.235C505.353 214.047 504.695 214.706 503.882 214.706 503.07 214.706 502.412 214.047 502.412 213.235 502.412 212.423 503.07 211.765 503.882 211.765 504.695 211.765 505.353 212.423 505.353 213.235zM478.882 213.235C478.882 214.047 478.224 214.706 477.412 214.706 476.6 214.706 475.941 214.047 475.941 213.235 475.941 212.423 476.6 211.765 477.412 211.765 478.224 211.765 478.882 212.423 478.882 213.235zM558.294 27.9412C558.294 28.7534 557.636 29.4118 556.824 29.4118 556.011 29.4118 555.353 28.7534 555.353 27.9412 555.353 27.129 556.011 26.4706 556.824 26.4706 557.636 26.4706 558.294 27.129 558.294 27.9412zM531.824 27.9412C531.824 28.7534 531.165 29.4118 530.353 29.4118 529.541 29.4118 528.882 28.7534 528.882 27.9412 528.882 27.129 529.541 26.4706 530.353 26.4706 531.165 26.4706 531.824 27.129 531.824 27.9412zM558.294 54.4118C558.294 55.2239 557.636 55.8824 556.824 55.8824 556.011 55.8824 555.353 55.2239 555.353 54.4118 555.353 53.5996 556.011 52.9412 556.824 52.9412 557.636 52.9412 558.294 53.5996 558.294 54.4118zM531.824 54.4118C531.824 55.2239 531.165 55.8824 530.353 55.8824 529.541 55.8824 528.882 55.2239 528.882 54.4118 528.882 53.5996 529.541 52.9412 530.353 52.9412 531.165 52.9412 531.824 53.5996 531.824 54.4118zM558.294 1.47059C558.294 2.28277 557.636 2.94118 556.824 2.94118 556.011 2.94118 555.353 2.28277 555.353 1.47059 555.353.658405 556.011 0 556.824 0 557.636 0 558.294.658405 558.294 1.47059zM531.824 1.47059C531.824 2.28277 531.165 2.94118 530.353 2.94118 529.541 2.94118 528.882 2.28277 528.882 1.47059 528.882.658405 529.541 0 530.353 0 531.165 0 531.824.658405 531.824 1.47059zM505.353 27.9412C505.353 28.7534 504.695 29.4118 503.882 29.4118 503.07 29.4118 502.412 28.7534 502.412 27.9412 502.412 27.129 503.07 26.4706 503.882 26.4706 504.695 26.4706 505.353 27.129 505.353 27.9412zM478.882 27.9412C478.882 28.7534 478.224 29.4118 477.412 29.4118 476.6 29.4118 475.941 28.7534 475.941 27.9412 475.941 27.129 476.6 26.4706 477.412 26.4706 478.224 26.4706 478.882 27.129 478.882 27.9412zM505.353 54.4118C505.353 55.2239 504.695 55.8824 503.882 55.8824 503.07 55.8824 502.412 55.2239 502.412 54.4118 502.412 53.5996 503.07 52.9412 503.882 52.9412 504.695 52.9412 505.353 53.5996 505.353 54.4118zM478.882 54.4118C478.882 55.2239 478.224 55.8824 477.412 55.8824 476.6 55.8824 475.941 55.2239 475.941 54.4118 475.941 53.5996 476.6 52.9412 477.412 52.9412 478.224 52.9412 478.882 53.5996 478.882 54.4118zM505.353 1.47059C505.353 2.28277 504.695 2.94118 503.882 2.94118 503.07 2.94118 502.412 2.28277 502.412 1.47059 502.412.658405 503.07 0 503.882 0 504.695 0 505.353.658405 505.353 1.47059zM478.882 1.47059C478.882 2.28277 478.224 2.94118 477.412 2.94118 476.6 2.94118 475.941 2.28277 475.941 1.47059 475.941.658405 476.6 0 477.412 0 478.224 0 478.882.658405 478.882 1.47059zM558.294 133.824C558.294 134.636 557.636 135.294 556.824 135.294 556.011 135.294 555.353 134.636 555.353 133.824 555.353 133.011 556.011 132.353 556.824 132.353 557.636 132.353 558.294 133.011 558.294 133.824zM531.824 133.824C531.824 134.636 531.165 135.294 530.353 135.294 529.541 135.294 528.882 134.636 528.882 133.824 528.882 133.011 529.541 132.353 530.353 132.353 531.165 132.353 531.824 133.011 531.824 133.824zM558.294 160.294C558.294 161.106 557.636 161.765 556.824 161.765 556.011 161.765 555.353 161.106 555.353 160.294 555.353 159.482 556.011 158.824 556.824 158.824 557.636 158.824 558.294 159.482 558.294 160.294zM531.824 160.294C531.824 161.106 531.165 161.765 530.353 161.765 529.541 161.765 528.882 161.106 528.882 160.294 528.882 159.482 529.541 158.824 530.353 158.824 531.165 158.824 531.824 159.482 531.824 160.294zM558.294 80.8824C558.294 81.6945 557.636 82.3529 556.824 82.3529 556.011 82.3529 555.353 81.6945 555.353 80.8824 555.353 80.0702 556.011 79.4118 556.824 79.4118 557.636 79.4118 558.294 80.0702 558.294 80.8824zM531.824 80.8824C531.824 81.6945 531.165 82.3529 530.353 82.3529 529.541 82.3529 528.882 81.6945 528.882 80.8824 528.882 80.0702 529.541 79.4118 530.353 79.4118 531.165 79.4118 531.824 80.0702 531.824 80.8824zM558.294 107.353C558.294 108.165 557.636 108.824 556.824 108.824 556.011 108.824 555.353 108.165 555.353 107.353 555.353 106.541 556.011 105.882 556.824 105.882 557.636 105.882 558.294 106.541 558.294 107.353zM531.824 107.353C531.824 108.165 531.165 108.824 530.353 108.824 529.541 108.824 528.882 108.165 528.882 107.353 528.882 106.541 529.541 105.882 530.353 105.882 531.165 105.882 531.824 106.541 531.824 107.353zM505.353 133.824C505.353 134.636 504.695 135.294 503.882 135.294 503.07 135.294 502.412 134.636 502.412 133.824 502.412 133.011 503.07 132.353 503.882 132.353 504.695 132.353 505.353 133.011 505.353 133.824zM478.882 133.824C478.882 134.636 478.224 135.294 477.412 135.294 476.6 135.294 475.941 134.636 475.941 133.824 475.941 133.011 476.6 132.353 477.412 132.353 478.224 132.353 478.882 133.011 478.882 133.824zM505.353 160.294C505.353 161.106 504.695 161.765 503.882 161.765 503.07 161.765 502.412 161.106 502.412 160.294 502.412 159.482 503.07 158.824 503.882 158.824 504.695 158.824 505.353 159.482 505.353 160.294zM478.882 160.294C478.882 161.106 478.224 161.765 477.412 161.765 476.6 161.765 475.941 161.106 475.941 160.294 475.941 159.482 476.6 158.824 477.412 158.824 478.224 158.824 478.882 159.482 478.882 160.294zM505.353 80.8824C505.353 81.6945 504.695 82.3529 503.882 82.3529 503.07 82.3529 502.412 81.6945 502.412 80.8824 502.412 80.0702 503.07 79.4118 503.882 79.4118 504.695 79.4118 505.353 80.0702 505.353 80.8824zM478.882 80.8824C478.882 81.6945 478.224 82.3529 477.412 82.3529 476.6 82.3529 475.941 81.6945 475.941 80.8824 475.941 80.0702 476.6 79.4118 477.412 79.4118 478.224 79.4118 478.882 80.0702 478.882 80.8824zM505.353 107.353C505.353 108.165 504.695 108.824 503.882 108.824 503.07 108.824 502.412 108.165 502.412 107.353 502.412 106.541 503.07 105.882 503.882 105.882 504.695 105.882 505.353 106.541 505.353 107.353zM478.882 107.353C478.882 108.165 478.224 108.824 477.412 108.824 476.6 108.824 475.941 108.165 475.941 107.353 475.941 106.541 476.6 105.882 477.412 105.882 478.224 105.882 478.882 106.541 478.882 107.353zM452.412 27.9412C452.412 28.7534 451.753 29.4118 450.941 29.4118 450.129 29.4118 449.471 28.7534 449.471 27.9412 449.471 27.129 450.129 26.4706 450.941 26.4706 451.753 26.4706 452.412 27.129 452.412 27.9412zM425.941 27.9412C425.941 28.7534 425.283 29.4118 424.471 29.4118 423.658 29.4118 423 28.7534 423 27.9412 423 27.129 423.658 26.4706 424.471 26.4706 425.283 26.4706 425.941 27.129 425.941 27.9412zM452.412 54.4118C452.412 55.2239 451.753 55.8824 450.941 55.8824 450.129 55.8824 449.471 55.2239 449.471 54.4118 449.471 53.5996 450.129 52.9412 450.941 52.9412 451.753 52.9412 452.412 53.5996 452.412 54.4118zM425.941 54.4118C425.941 55.2239 425.283 55.8824 424.471 55.8824 423.658 55.8824 423 55.2239 423 54.4118 423 53.5996 423.658 52.9412 424.471 52.9412 425.283 52.9412 425.941 53.5996 425.941 54.4118zM452.412 1.47059C452.412 2.28277 451.753 2.94118 450.941 2.94118 450.129 2.94118 449.471 2.28277 449.471 1.47059 449.471.658405 450.129 0 450.941 0 451.753 0 452.412.658405 452.412 1.47059zM425.941 1.47059C425.941 2.28277 425.283 2.94118 424.471 2.94118 423.658 2.94118 423 2.28277 423 1.47059 423 .658405 423.658 0 424.471 0 425.283 0 425.941.658405 425.941 1.47059zM399.471 27.9412C399.471 28.7534 398.812 29.4118 398 29.4118 397.188 29.4118 396.529 28.7534 396.529 27.9412 396.529 27.129 397.188 26.4706 398 26.4706 398.812 26.4706 399.471 27.129 399.471 27.9412zM373 27.9412C373 28.7534 372.342 29.4118 371.529 29.4118 370.717 29.4118 370.059 28.7534 370.059 27.9412 370.059 27.129 370.717 26.4706 371.529 26.4706 372.342 26.4706 373 27.129 373 27.9412zM399.471 54.4118C399.471 55.2239 398.812 55.8824 398 55.8824 397.188 55.8824 396.529 55.2239 396.529 54.4118 396.529 53.5996 397.188 52.9412 398 52.9412 398.812 52.9412 399.471 53.5996 399.471 54.4118zM373 54.4118C373 55.2239 372.342 55.8824 371.529 55.8824 370.717 55.8824 370.059 55.2239 370.059 54.4118 370.059 53.5996 370.717 52.9412 371.529 52.9412 372.342 52.9412 373 53.5996 373 54.4118zM399.471 1.47059C399.471 2.28277 398.812 2.94118 398 2.94118 397.188 2.94118 396.529 2.28277 396.529 1.47059 396.529.658405 397.188 0 398 0 398.812 0 399.471.658405 399.471 1.47059zM373 1.47059C373 2.28277 372.342 2.94118 371.529 2.94118 370.717 2.94118 370.059 2.28277 370.059 1.47059 370.059.658405 370.717 0 371.529 0 372.342 0 373 .658405 373 1.47059zM452.412 133.824C452.412 134.636 451.753 135.294 450.941 135.294 450.129 135.294 449.471 134.636 449.471 133.824 449.471 133.011 450.129 132.353 450.941 132.353 451.753 132.353 452.412 133.011 452.412 133.824zM425.941 133.824C425.941 134.636 425.283 135.294 424.471 135.294 423.658 135.294 423 134.636 423 133.824 423 133.011 423.658 132.353 424.471 132.353 425.283 132.353 425.941 133.011 425.941 133.824zM452.412 160.294C452.412 161.106 451.753 161.765 450.941 161.765 450.129 161.765 449.471 161.106 449.471 160.294 449.471 159.482 450.129 158.824 450.941 158.824 451.753 158.824 452.412 159.482 452.412 160.294zM425.941 160.294C425.941 161.106 425.283 161.765 424.471 161.765 423.658 161.765 423 161.106 423 160.294 423 159.482 423.658 158.824 424.471 158.824 425.283 158.824 425.941 159.482 425.941 160.294zM452.412 80.8824C452.412 81.6945 451.753 82.3529 450.941 82.3529 450.129 82.3529 449.471 81.6945 449.471 80.8824 449.471 80.0702 450.129 79.4118 450.941 79.4118 451.753 79.4118 452.412 80.0702 452.412 80.8824zM425.941 80.8824C425.941 81.6945 425.283 82.3529 424.471 82.3529 423.658 82.3529 423 81.6945 423 80.8824 423 80.0702 423.658 79.4118 424.471 79.4118 425.283 79.4118 425.941 80.0702 425.941 80.8824zM452.412 107.353C452.412 108.165 451.753 108.824 450.941 108.824 450.129 108.824 449.471 108.165 449.471 107.353 449.471 106.541 450.129 105.882 450.941 105.882 451.753 105.882 452.412 106.541 452.412 107.353zM425.941 107.353C425.941 108.165 425.283 108.824 424.471 108.824 423.658 108.824 423 108.165 423 107.353 423 106.541 423.658 105.882 424.471 105.882 425.283 105.882 425.941 106.541 425.941 107.353zM399.471 133.824C399.471 134.636 398.812 135.294 398 135.294 397.188 135.294 396.529 134.636 396.529 133.824 396.529 133.011 397.188 132.353 398 132.353 398.812 132.353 399.471 133.011 399.471 133.824zM373 133.824C373 134.636 372.342 135.294 371.529 135.294 370.717 135.294 370.059 134.636 370.059 133.824 370.059 133.011 370.717 132.353 371.529 132.353 372.342 132.353 373 133.011 373 133.824zM399.471 160.294C399.471 161.106 398.812 161.765 398 161.765 397.188 161.765 396.529 161.106 396.529 160.294 396.529 159.482 397.188 158.824 398 158.824 398.812 158.824 399.471 159.482 399.471 160.294zM373 160.294C373 161.106 372.342 161.765 371.529 161.765 370.717 161.765 370.059 161.106 370.059 160.294 370.059 159.482 370.717 158.824 371.529 158.824 372.342 158.824 373 159.482 373 160.294zM399.471 80.8824C399.471 81.6945 398.812 82.3529 398 82.3529 397.188 82.3529 396.529 81.6945 396.529 80.8824 396.529 80.0702 397.188 79.4118 398 79.4118 398.812 79.4118 399.471 80.0702 399.471 80.8824zM373 80.8824C373 81.6945 372.342 82.3529 371.529 82.3529 370.717 82.3529 370.059 81.6945 370.059 80.8824 370.059 80.0702 370.717 79.4118 371.529 79.4118 372.342 79.4118 373 80.0702 373 80.8824zM399.471 107.353C399.471 108.165 398.812 108.824 398 108.824 397.188 108.824 396.529 108.165 396.529 107.353 396.529 106.541 397.188 105.882 398 105.882 398.812 105.882 399.471 106.541 399.471 107.353zM373 107.353C373 108.165 372.342 108.824 371.529 108.824 370.717 108.824 370.059 108.165 370.059 107.353 370.059 106.541 370.717 105.882 371.529 105.882 372.342 105.882 373 106.541 373 107.353zM346.529 27.9412C346.529 28.7534 345.871 29.4118 345.059 29.4118 344.247 29.4118 343.588 28.7534 343.588 27.9412 343.588 27.129 344.247 26.4706 345.059 26.4706 345.871 26.4706 346.529 27.129 346.529 27.9412zM320.059 27.9412C320.059 28.7534 319.4 29.4118 318.588 29.4118 317.776 29.4118 317.118 28.7534 317.118 27.9412 317.118 27.129 317.776 26.4706 318.588 26.4706 319.4 26.4706 320.059 27.129 320.059 27.9412zM346.529 54.4118C346.529 55.2239 345.871 55.8824 345.059 55.8824 344.247 55.8824 343.588 55.2239 343.588 54.4118 343.588 53.5996 344.247 52.9412 345.059 52.9412 345.871 52.9412 346.529 53.5996 346.529 54.4118zM320.059 54.4118C320.059 55.2239 319.4 55.8824 318.588 55.8824 317.776 55.8824 317.118 55.2239 317.118 54.4118 317.118 53.5996 317.776 52.9412 318.588 52.9412 319.4 52.9412 320.059 53.5996 320.059 54.4118zM346.529 1.47059C346.529 2.28277 345.871 2.94118 345.059 2.94118 344.247 2.94118 343.588 2.28277 343.588 1.47059 343.588.658405 344.247 0 345.059 0 345.871 0 346.529.658405 346.529 1.47059zM320.059 1.47059C320.059 2.28277 319.4 2.94118 318.588 2.94118 317.776 2.94118 317.118 2.28277 317.118 1.47059 317.118.658405 317.776 0 318.588 0 319.4 0 320.059.658405 320.059 1.47059zM293.588 27.9412C293.588 28.7534 292.93 29.4118 292.118 29.4118 291.305 29.4118 290.647 28.7534 290.647 27.9412 290.647 27.129 291.305 26.4706 292.118 26.4706 292.93 26.4706 293.588 27.129 293.588 27.9412zM267.118 27.9412C267.118 28.7534 266.459 29.4118 265.647 29.4118 264.835 29.4118 264.176 28.7534 264.176 27.9412 264.176 27.129 264.835 26.4706 265.647 26.4706 266.459 26.4706 267.118 27.129 267.118 27.9412zM293.588 54.4118C293.588 55.2239 292.93 55.8824 292.118 55.8824 291.305 55.8824 290.647 55.2239 290.647 54.4118 290.647 53.5996 291.305 52.9412 292.118 52.9412 292.93 52.9412 293.588 53.5996 293.588 54.4118zM267.118 54.4118C267.118 55.2239 266.459 55.8824 265.647 55.8824 264.835 55.8824 264.176 55.2239 264.176 54.4118 264.176 53.5996 264.835 52.9412 265.647 52.9412 266.459 52.9412 267.118 53.5996 267.118 54.4118zM293.588 1.47059C293.588 2.28277 292.93 2.94118 292.118 2.94118 291.305 2.94118 290.647 2.28277 290.647 1.47059 290.647.658405 291.305 0 292.118 0 292.93 0 293.588.658405 293.588 1.47059zM267.118 1.47059C267.118 2.28277 266.459 2.94118 265.647 2.94118 264.835 2.94118 264.176 2.28277 264.176 1.47059 264.176.658405 264.835 0 265.647 0 266.459 0 267.118.658405 267.118 1.47059zM346.529 133.824C346.529 134.636 345.871 135.294 345.059 135.294 344.247 135.294 343.588 134.636 343.588 133.824 343.588 133.011 344.247 132.353 345.059 132.353 345.871 132.353 346.529 133.011 346.529 133.824zM320.059 133.824C320.059 134.636 319.4 135.294 318.588 135.294 317.776 135.294 317.118 134.636 317.118 133.824 317.118 133.011 317.776 132.353 318.588 132.353 319.4 132.353 320.059 133.011 320.059 133.824zM346.529 160.294C346.529 161.106 345.871 161.765 345.059 161.765 344.247 161.765 343.588 161.106 343.588 160.294 343.588 159.482 344.247 158.824 345.059 158.824 345.871 158.824 346.529 159.482 346.529 160.294zM320.059 160.294C320.059 161.106 319.4 161.765 318.588 161.765 317.776 161.765 317.118 161.106 317.118 160.294 317.118 159.482 317.776 158.824 318.588 158.824 319.4 158.824 320.059 159.482 320.059 160.294zM346.529 80.8824C346.529 81.6945 345.871 82.3529 345.059 82.3529 344.247 82.3529 343.588 81.6945 343.588 80.8824 343.588 80.0702 344.247 79.4118 345.059 79.4118 345.871 79.4118 346.529 80.0702 346.529 80.8824zM320.059 80.8824C320.059 81.6945 319.4 82.3529 318.588 82.3529 317.776 82.3529 317.118 81.6945 317.118 80.8824 317.118 80.0702 317.776 79.4118 318.588 79.4118 319.4 79.4118 320.059 80.0702 320.059 80.8824zM346.529 107.353C346.529 108.165 345.871 108.824 345.059 108.824 344.247 108.824 343.588 108.165 343.588 107.353 343.588 106.541 344.247 105.882 345.059 105.882 345.871 105.882 346.529 106.541 346.529 107.353zM320.059 107.353C320.059 108.165 319.4 108.824 318.588 108.824 317.776 108.824 317.118 108.165 317.118 107.353 317.118 106.541 317.776 105.882 318.588 105.882 319.4 105.882 320.059 106.541 320.059 107.353zM293.588 133.824C293.588 134.636 292.93 135.294 292.118 135.294 291.305 135.294 290.647 134.636 290.647 133.824 290.647 133.011 291.305 132.353 292.118 132.353 292.93 132.353 293.588 133.011 293.588 133.824zM267.118 133.824C267.118 134.636 266.459 135.294 265.647 135.294 264.835 135.294 264.176 134.636 264.176 133.824 264.176 133.011 264.835 132.353 265.647 132.353 266.459 132.353 267.118 133.011 267.118 133.824zM293.588 160.294C293.588 161.106 292.93 161.765 292.118 161.765 291.305 161.765 290.647 161.106 290.647 160.294 290.647 159.482 291.305 158.824 292.118 158.824 292.93 158.824 293.588 159.482 293.588 160.294zM267.118 160.294C267.118 161.106 266.459 161.765 265.647 161.765 264.835 161.765 264.176 161.106 264.176 160.294 264.176 159.482 264.835 158.824 265.647 158.824 266.459 158.824 267.118 159.482 267.118 160.294zM293.588 80.8824C293.588 81.6945 292.93 82.3529 292.118 82.3529 291.305 82.3529 290.647 81.6945 290.647 80.8824 290.647 80.0702 291.305 79.4118 292.118 79.4118 292.93 79.4118 293.588 80.0702 293.588 80.8824zM267.118 80.8824C267.118 81.6945 266.459 82.3529 265.647 82.3529 264.835 82.3529 264.176 81.6945 264.176 80.8824 264.176 80.0702 264.835 79.4118 265.647 79.4118 266.459 79.4118 267.118 80.0702 267.118 80.8824zM293.588 107.353C293.588 108.165 292.93 108.824 292.118 108.824 291.305 108.824 290.647 108.165 290.647 107.353 290.647 106.541 291.305 105.882 292.118 105.882 292.93 105.882 293.588 106.541 293.588 107.353zM267.118 107.353C267.118 108.165 266.459 108.824 265.647 108.824 264.835 108.824 264.176 108.165 264.176 107.353 264.176 106.541 264.835 105.882 265.647 105.882 266.459 105.882 267.118 106.541 267.118 107.353zM452.412 239.706C452.412 240.518 451.753 241.176 450.941 241.176 450.129 241.176 449.471 240.518 449.471 239.706 449.471 238.894 450.129 238.235 450.941 238.235 451.753 238.235 452.412 238.894 452.412 239.706zM425.941 239.706C425.941 240.518 425.283 241.176 424.471 241.176 423.658 241.176 423 240.518 423 239.706 423 238.894 423.658 238.235 424.471 238.235 425.283 238.235 425.941 238.894 425.941 239.706zM452.412 186.765C452.412 187.577 451.753 188.235 450.941 188.235 450.129 188.235 449.471 187.577 449.471 186.765 449.471 185.953 450.129 185.294 450.941 185.294 451.753 185.294 452.412 185.953 452.412 186.765zM425.941 186.765C425.941 187.577 425.283 188.235 424.471 188.235 423.658 188.235 423 187.577 423 186.765 423 185.953 423.658 185.294 424.471 185.294 425.283 185.294 425.941 185.953 425.941 186.765zM452.412 213.235C452.412 214.047 451.753 214.706 450.941 214.706 450.129 214.706 449.471 214.047 449.471 213.235 449.471 212.423 450.129 211.765 450.941 211.765 451.753 211.765 452.412 212.423 452.412 213.235zM425.941 213.235C425.941 214.047 425.283 214.706 424.471 214.706 423.658 214.706 423 214.047 423 213.235 423 212.423 423.658 211.765 424.471 211.765 425.283 211.765 425.941 212.423 425.941 213.235zM399.471 239.706C399.471 240.518 398.812 241.176 398 241.176 397.188 241.176 396.529 240.518 396.529 239.706 396.529 238.894 397.188 238.235 398 238.235 398.812 238.235 399.471 238.894 399.471 239.706zM373 239.706C373 240.518 372.342 241.176 371.529 241.176 370.717 241.176 370.059 240.518 370.059 239.706 370.059 238.894 370.717 238.235 371.529 238.235 372.342 238.235 373 238.894 373 239.706zM399.471 186.765C399.471 187.577 398.812 188.235 398 188.235 397.188 188.235 396.529 187.577 396.529 186.765 396.529 185.953 397.188 185.294 398 185.294 398.812 185.294 399.471 185.953 399.471 186.765zM373 186.765C373 187.577 372.342 188.235 371.529 188.235 370.717 188.235 370.059 187.577 370.059 186.765 370.059 185.953 370.717 185.294 371.529 185.294 372.342 185.294 373 185.953 373 186.765zM399.471 213.235C399.471 214.047 398.812 214.706 398 214.706 397.188 214.706 396.529 214.047 396.529 213.235 396.529 212.423 397.188 211.765 398 211.765 398.812 211.765 399.471 212.423 399.471 213.235zM373 213.235C373 214.047 372.342 214.706 371.529 214.706 370.717 214.706 370.059 214.047 370.059 213.235 370.059 212.423 370.717 211.765 371.529 211.765 372.342 211.765 373 212.423 373 213.235zM346.529 239.706C346.529 240.518 345.871 241.176 345.059 241.176 344.247 241.176 343.588 240.518 343.588 239.706 343.588 238.894 344.247 238.235 345.059 238.235 345.871 238.235 346.529 238.894 346.529 239.706zM320.059 239.706C320.059 240.518 319.4 241.176 318.588 241.176 317.776 241.176 317.118 240.518 317.118 239.706 317.118 238.894 317.776 238.235 318.588 238.235 319.4 238.235 320.059 238.894 320.059 239.706zM346.529 186.765C346.529 187.577 345.871 188.235 345.059 188.235 344.247 188.235 343.588 187.577 343.588 186.765 343.588 185.953 344.247 185.294 345.059 185.294 345.871 185.294 346.529 185.953 346.529 186.765zM320.059 186.765C320.059 187.577 319.4 188.235 318.588 188.235 317.776 188.235 317.118 187.577 317.118 186.765 317.118 185.953 317.776 185.294 318.588 185.294 319.4 185.294 320.059 185.953 320.059 186.765zM346.529 213.235C346.529 214.047 345.871 214.706 345.059 214.706 344.247 214.706 343.588 214.047 343.588 213.235 343.588 212.423 344.247 211.765 345.059 211.765 345.871 211.765 346.529 212.423 346.529 213.235zM320.059 213.235C320.059 214.047 319.4 214.706 318.588 214.706 317.776 214.706 317.118 214.047 317.118 213.235 317.118 212.423 317.776 211.765 318.588 211.765 319.4 211.765 320.059 212.423 320.059 213.235zM293.588 239.706C293.588 240.518 292.93 241.176 292.118 241.176 291.305 241.176 290.647 240.518 290.647 239.706 290.647 238.894 291.305 238.235 292.118 238.235 292.93 238.235 293.588 238.894 293.588 239.706zM267.118 239.706C267.118 240.518 266.459 241.176 265.647 241.176 264.835 241.176 264.176 240.518 264.176 239.706 264.176 238.894 264.835 238.235 265.647 238.235 266.459 238.235 267.118 238.894 267.118 239.706zM293.588 186.765C293.588 187.577 292.93 188.235 292.118 188.235 291.305 188.235 290.647 187.577 290.647 186.765 290.647 185.953 291.305 185.294 292.118 185.294 292.93 185.294 293.588 185.953 293.588 186.765zM267.118 186.765C267.118 187.577 266.459 188.235 265.647 188.235 264.835 188.235 264.176 187.577 264.176 186.765 264.176 185.953 264.835 185.294 265.647 185.294 266.459 185.294 267.118 185.953 267.118 186.765zM293.588 213.235C293.588 214.047 292.93 214.706 292.118 214.706 291.305 214.706 290.647 214.047 290.647 213.235 290.647 212.423 291.305 211.765 292.118 211.765 292.93 211.765 293.588 212.423 293.588 213.235zM267.118 213.235C267.118 214.047 266.459 214.706 265.647 214.706 264.835 214.706 264.176 214.047 264.176 213.235 264.176 212.423 264.835 211.765 265.647 211.765 266.459 211.765 267.118 212.423 267.118 213.235zM241.176 239.706C241.176 240.518 240.518 241.176 239.706 241.176 238.894 241.176 238.235 240.518 238.235 239.706 238.235 238.894 238.894 238.235 239.706 238.235 240.518 238.235 241.176 238.894 241.176 239.706zM214.706 239.706C214.706 240.518 214.047 241.176 213.235 241.176 212.423 241.176 211.765 240.518 211.765 239.706 211.765 238.894 212.423 238.235 213.235 238.235 214.047 238.235 214.706 238.894 214.706 239.706zM241.176 186.765C241.176 187.577 240.518 188.235 239.706 188.235 238.894 188.235 238.235 187.577 238.235 186.765 238.235 185.953 238.894 185.294 239.706 185.294 240.518 185.294 241.176 185.953 241.176 186.765zM214.706 186.765C214.706 187.577 214.047 188.235 213.235 188.235 212.423 188.235 211.765 187.577 211.765 186.765 211.765 185.953 212.423 185.294 213.235 185.294 214.047 185.294 214.706 185.953 214.706 186.765zM241.176 213.235C241.176 214.047 240.518 214.706 239.706 214.706 238.894 214.706 238.235 214.047 238.235 213.235 238.235 212.423 238.894 211.765 239.706 211.765 240.518 211.765 241.176 212.423 241.176 213.235zM214.706 213.235C214.706 214.047 214.047 214.706 213.235 214.706 212.423 214.706 211.765 214.047 211.765 213.235 211.765 212.423 212.423 211.765 213.235 211.765 214.047 211.765 214.706 212.423 214.706 213.235zM188.235 239.706C188.235 240.518 187.577 241.176 186.765 241.176 185.953 241.176 185.294 240.518 185.294 239.706 185.294 238.894 185.953 238.235 186.765 238.235 187.577 238.235 188.235 238.894 188.235 239.706zM161.765 239.706C161.765 240.518 161.106 241.176 160.294 241.176 159.482 241.176 158.824 240.518 158.824 239.706 158.824 238.894 159.482 238.235 160.294 238.235 161.106 238.235 161.765 238.894 161.765 239.706zM188.235 186.765C188.235 187.577 187.577 188.235 186.765 188.235 185.953 188.235 185.294 187.577 185.294 186.765 185.294 185.953 185.953 185.294 186.765 185.294 187.577 185.294 188.235 185.953 188.235 186.765zM161.765 186.765C161.765 187.577 161.106 188.235 160.294 188.235 159.482 188.235 158.824 187.577 158.824 186.765 158.824 185.953 159.482 185.294 160.294 185.294 161.106 185.294 161.765 185.953 161.765 186.765zM188.235 213.235C188.235 214.047 187.577 214.706 186.765 214.706 185.953 214.706 185.294 214.047 185.294 213.235 185.294 212.423 185.953 211.765 186.765 211.765 187.577 211.765 188.235 212.423 188.235 213.235zM161.765 213.235C161.765 214.047 161.106 214.706 160.294 214.706 159.482 214.706 158.824 214.047 158.824 213.235 158.824 212.423 159.482 211.765 160.294 211.765 161.106 211.765 161.765 212.423 161.765 213.235zM135.294 239.706C135.294 240.518 134.636 241.176 133.824 241.176 133.011 241.176 132.353 240.518 132.353 239.706 132.353 238.894 133.011 238.235 133.824 238.235 134.636 238.235 135.294 238.894 135.294 239.706zM108.824 239.706C108.824 240.518 108.165 241.176 107.353 241.176 106.541 241.176 105.882 240.518 105.882 239.706 105.882 238.894 106.541 238.235 107.353 238.235 108.165 238.235 108.824 238.894 108.824 239.706zM135.294 186.765C135.294 187.577 134.636 188.235 133.824 188.235 133.011 188.235 132.353 187.577 132.353 186.765 132.353 185.953 133.011 185.294 133.824 185.294 134.636 185.294 135.294 185.953 135.294 186.765zM108.824 186.765C108.824 187.577 108.165 188.235 107.353 188.235 106.541 188.235 105.882 187.577 105.882 186.765 105.882 185.953 106.541 185.294 107.353 185.294 108.165 185.294 108.824 185.953 108.824 186.765zM135.294 213.235C135.294 214.047 134.636 214.706 133.824 214.706 133.011 214.706 132.353 214.047 132.353 213.235 132.353 212.423 133.011 211.765 133.824 211.765 134.636 211.765 135.294 212.423 135.294 213.235zM108.824 213.235C108.824 214.047 108.165 214.706 107.353 214.706 106.541 214.706 105.882 214.047 105.882 213.235 105.882 212.423 106.541 211.765 107.353 211.765 108.165 211.765 108.824 212.423 108.824 213.235zM82.353 239.706C82.353 240.518 81.6945 241.176 80.8824 241.176 80.0702 241.176 79.4118 240.518 79.4118 239.706 79.4118 238.894 80.0702 238.235 80.8824 238.235 81.6945 238.235 82.353 238.894 82.353 239.706zM55.8824 239.706C55.8824 240.518 55.224 241.176 54.4118 241.176 53.5996 241.176 52.9412 240.518 52.9412 239.706 52.9412 238.894 53.5996 238.235 54.4118 238.235 55.224 238.235 55.8824 238.894 55.8824 239.706zM82.353 186.765C82.353 187.577 81.6945 188.235 80.8824 188.235 80.0702 188.235 79.4118 187.577 79.4118 186.765 79.4118 185.953 80.0702 185.294 80.8824 185.294 81.6945 185.294 82.353 185.953 82.353 186.765zM55.8824 186.765C55.8824 187.577 55.224 188.235 54.4118 188.235 53.5996 188.235 52.9412 187.577 52.9412 186.765 52.9412 185.953 53.5996 185.294 54.4118 185.294 55.224 185.294 55.8824 185.953 55.8824 186.765zM82.353 213.235C82.353 214.047 81.6945 214.706 80.8824 214.706 80.0702 214.706 79.4118 214.047 79.4118 213.235 79.4118 212.423 80.0702 211.765 80.8824 211.765 81.6945 211.765 82.353 212.423 82.353 213.235zM55.8824 213.235C55.8824 214.047 55.224 214.706 54.4118 214.706 53.5996 214.706 52.9412 214.047 52.9412 213.235 52.9412 212.423 53.5996 211.765 54.4118 211.765 55.224 211.765 55.8824 212.423 55.8824 213.235zM241.176 27.9412C241.176 28.7534 240.518 29.4118 239.706 29.4118 238.894 29.4118 238.235 28.7534 238.235 27.9412 238.235 27.129 238.894 26.4706 239.706 26.4706 240.518 26.4706 241.176 27.129 241.176 27.9412zM214.706 27.9412C214.706 28.7534 214.047 29.4118 213.235 29.4118 212.423 29.4118 211.765 28.7534 211.765 27.9412 211.765 27.129 212.423 26.4706 213.235 26.4706 214.047 26.4706 214.706 27.129 214.706 27.9412zM241.176 54.4118C241.176 55.2239 240.518 55.8824 239.706 55.8824 238.894 55.8824 238.235 55.2239 238.235 54.4118 238.235 53.5996 238.894 52.9412 239.706 52.9412 240.518 52.9412 241.176 53.5996 241.176 54.4118zM214.706 54.4118C214.706 55.2239 214.047 55.8824 213.235 55.8824 212.423 55.8824 211.765 55.2239 211.765 54.4118 211.765 53.5996 212.423 52.9412 213.235 52.9412 214.047 52.9412 214.706 53.5996 214.706 54.4118zM241.176 1.47059C241.176 2.28277 240.518 2.94118 239.706 2.94118 238.894 2.94118 238.235 2.28277 238.235 1.47059 238.235.658405 238.894 0 239.706 0 240.518 0 241.176.658405 241.176 1.47059zM214.706 1.47059C214.706 2.28277 214.047 2.94118 213.235 2.94118 212.423 2.94118 211.765 2.28277 211.765 1.47059 211.765.658405 212.423 0 213.235 0 214.047 0 214.706.658405 214.706 1.47059zM188.235 27.9412C188.235 28.7534 187.577 29.4118 186.765 29.4118 185.953 29.4118 185.294 28.7534 185.294 27.9412 185.294 27.129 185.953 26.4706 186.765 26.4706 187.577 26.4706 188.235 27.129 188.235 27.9412zM161.765 27.9412C161.765 28.7534 161.106 29.4118 160.294 29.4118 159.482 29.4118 158.824 28.7534 158.824 27.9412 158.824 27.129 159.482 26.4706 160.294 26.4706 161.106 26.4706 161.765 27.129 161.765 27.9412zM188.235 54.4118C188.235 55.2239 187.577 55.8824 186.765 55.8824 185.953 55.8824 185.294 55.2239 185.294 54.4118 185.294 53.5996 185.953 52.9412 186.765 52.9412 187.577 52.9412 188.235 53.5996 188.235 54.4118zM161.765 54.4118C161.765 55.2239 161.106 55.8824 160.294 55.8824 159.482 55.8824 158.824 55.2239 158.824 54.4118 158.824 53.5996 159.482 52.9412 160.294 52.9412 161.106 52.9412 161.765 53.5996 161.765 54.4118zM188.235 1.47059C188.235 2.28277 187.577 2.94118 186.765 2.94118 185.953 2.94118 185.294 2.28277 185.294 1.47059 185.294.658405 185.953 0 186.765 0 187.577 0 188.235.658405 188.235 1.47059zM161.765 1.47059C161.765 2.28277 161.106 2.94118 160.294 2.94118 159.482 2.94118 158.824 2.28277 158.824 1.47059 158.824.658405 159.482 0 160.294 0 161.106 0 161.765.658405 161.765 1.47059zM241.176 133.824C241.176 134.636 240.518 135.294 239.706 135.294 238.894 135.294 238.235 134.636 238.235 133.824 238.235 133.011 238.894 132.353 239.706 132.353 240.518 132.353 241.176 133.011 241.176 133.824zM214.706 133.824C214.706 134.636 214.047 135.294 213.235 135.294 212.423 135.294 211.765 134.636 211.765 133.824 211.765 133.011 212.423 132.353 213.235 132.353 214.047 132.353 214.706 133.011 214.706 133.824zM241.176 160.294C241.176 161.106 240.518 161.765 239.706 161.765 238.894 161.765 238.235 161.106 238.235 160.294 238.235 159.482 238.894 158.824 239.706 158.824 240.518 158.824 241.176 159.482 241.176 160.294zM214.706 160.294C214.706 161.106 214.047 161.765 213.235 161.765 212.423 161.765 211.765 161.106 211.765 160.294 211.765 159.482 212.423 158.824 213.235 158.824 214.047 158.824 214.706 159.482 214.706 160.294zM241.176 80.8824C241.176 81.6945 240.518 82.3529 239.706 82.3529 238.894 82.3529 238.235 81.6945 238.235 80.8824 238.235 80.0702 238.894 79.4118 239.706 79.4118 240.518 79.4118 241.176 80.0702 241.176 80.8824zM214.706 80.8824C214.706 81.6945 214.047 82.3529 213.235 82.3529 212.423 82.3529 211.765 81.6945 211.765 80.8824 211.765 80.0702 212.423 79.4118 213.235 79.4118 214.047 79.4118 214.706 80.0702 214.706 80.8824zM241.176 107.353C241.176 108.165 240.518 108.824 239.706 108.824 238.894 108.824 238.235 108.165 238.235 107.353 238.235 106.541 238.894 105.882 239.706 105.882 240.518 105.882 241.176 106.541 241.176 107.353zM214.706 107.353C214.706 108.165 214.047 108.824 213.235 108.824 212.423 108.824 211.765 108.165 211.765 107.353 211.765 106.541 212.423 105.882 213.235 105.882 214.047 105.882 214.706 106.541 214.706 107.353zM188.235 133.824C188.235 134.636 187.577 135.294 186.765 135.294 185.953 135.294 185.294 134.636 185.294 133.824 185.294 133.011 185.953 132.353 186.765 132.353 187.577 132.353 188.235 133.011 188.235 133.824zM161.765 133.824C161.765 134.636 161.106 135.294 160.294 135.294 159.482 135.294 158.824 134.636 158.824 133.824 158.824 133.011 159.482 132.353 160.294 132.353 161.106 132.353 161.765 133.011 161.765 133.824zM188.235 160.294C188.235 161.106 187.577 161.765 186.765 161.765 185.953 161.765 185.294 161.106 185.294 160.294 185.294 159.482 185.953 158.824 186.765 158.824 187.577 158.824 188.235 159.482 188.235 160.294zM161.765 160.294C161.765 161.106 161.106 161.765 160.294 161.765 159.482 161.765 158.824 161.106 158.824 160.294 158.824 159.482 159.482 158.824 160.294 158.824 161.106 158.824 161.765 159.482 161.765 160.294zM188.235 80.8824C188.235 81.6945 187.577 82.3529 186.765 82.3529 185.953 82.3529 185.294 81.6945 185.294 80.8824 185.294 80.0702 185.953 79.4118 186.765 79.4118 187.577 79.4118 188.235 80.0702 188.235 80.8824zM161.765 80.8824C161.765 81.6945 161.106 82.3529 160.294 82.3529 159.482 82.3529 158.824 81.6945 158.824 80.8824 158.824 80.0702 159.482 79.4118 160.294 79.4118 161.106 79.4118 161.765 80.0702 161.765 80.8824zM188.235 107.353C188.235 108.165 187.577 108.824 186.765 108.824 185.953 108.824 185.294 108.165 185.294 107.353 185.294 106.541 185.953 105.882 186.765 105.882 187.577 105.882 188.235 106.541 188.235 107.353zM161.765 107.353C161.765 108.165 161.106 108.824 160.294 108.824 159.482 108.824 158.824 108.165 158.824 107.353 158.824 106.541 159.482 105.882 160.294 105.882 161.106 105.882 161.765 106.541 161.765 107.353zM135.294 27.9412C135.294 28.7534 134.636 29.4118 133.824 29.4118 133.011 29.4118 132.353 28.7534 132.353 27.9412 132.353 27.129 133.011 26.4706 133.824 26.4706 134.636 26.4706 135.294 27.129 135.294 27.9412zM108.824 27.9412C108.824 28.7534 108.165 29.4118 107.353 29.4118 106.541 29.4118 105.882 28.7534 105.882 27.9412 105.882 27.129 106.541 26.4706 107.353 26.4706 108.165 26.4706 108.824 27.129 108.824 27.9412zM135.294 54.4118C135.294 55.2239 134.636 55.8824 133.824 55.8824 133.011 55.8824 132.353 55.2239 132.353 54.4118 132.353 53.5996 133.011 52.9412 133.824 52.9412 134.636 52.9412 135.294 53.5996 135.294 54.4118zM108.824 54.4118C108.824 55.2239 108.165 55.8824 107.353 55.8824 106.541 55.8824 105.882 55.2239 105.882 54.4118 105.882 53.5996 106.541 52.9412 107.353 52.9412 108.165 52.9412 108.824 53.5996 108.824 54.4118zM135.294 1.47059C135.294 2.28277 134.636 2.94118 133.824 2.94118 133.011 2.94118 132.353 2.28277 132.353 1.47059 132.353.658405 133.011 0 133.824 0 134.636 0 135.294.658405 135.294 1.47059zM108.824 1.47059C108.824 2.28277 108.165 2.94118 107.353 2.94118 106.541 2.94118 105.882 2.28277 105.882 1.47059 105.882.658405 106.541 0 107.353 0 108.165 0 108.824.658405 108.824 1.47059zM82.353 27.9412C82.353 28.7534 81.6945 29.4118 80.8824 29.4118 80.0702 29.4118 79.4118 28.7534 79.4118 27.9412 79.4118 27.129 80.0702 26.4706 80.8824 26.4706 81.6945 26.4706 82.353 27.129 82.353 27.9412zM55.8824 27.9412C55.8824 28.7534 55.224 29.4118 54.4118 29.4118 53.5996 29.4118 52.9412 28.7534 52.9412 27.9412 52.9412 27.129 53.5996 26.4706 54.4118 26.4706 55.224 26.4706 55.8824 27.129 55.8824 27.9412zM82.353 54.4118C82.353 55.2239 81.6945 55.8824 80.8824 55.8824 80.0702 55.8824 79.4118 55.2239 79.4118 54.4118 79.4118 53.5996 80.0702 52.9412 80.8824 52.9412 81.6945 52.9412 82.353 53.5996 82.353 54.4118zM55.8824 54.4118C55.8824 55.2239 55.224 55.8824 54.4118 55.8824 53.5996 55.8824 52.9412 55.2239 52.9412 54.4118 52.9412 53.5996 53.5996 52.9412 54.4118 52.9412 55.224 52.9412 55.8824 53.5996 55.8824 54.4118zM82.353 1.47059C82.353 2.28277 81.6945 2.94118 80.8824 2.94118 80.0702 2.94118 79.4118 2.28277 79.4118 1.47059 79.4118.658405 80.0702 0 80.8824 0 81.6945 0 82.353.658405 82.353 1.47059zM55.8824 1.47059C55.8824 2.28277 55.224 2.94118 54.4118 2.94118 53.5996 2.94118 52.9412 2.28277 52.9412 1.47059 52.9412.658405 53.5996 0 54.4118 0 55.224 0 55.8824.658405 55.8824 1.47059zM135.294 133.824C135.294 134.636 134.636 135.294 133.824 135.294 133.011 135.294 132.353 134.636 132.353 133.824 132.353 133.011 133.011 132.353 133.824 132.353 134.636 132.353 135.294 133.011 135.294 133.824zM108.824 133.824C108.824 134.636 108.165 135.294 107.353 135.294 106.541 135.294 105.882 134.636 105.882 133.824 105.882 133.011 106.541 132.353 107.353 132.353 108.165 132.353 108.824 133.011 108.824 133.824zM135.294 160.294C135.294 161.106 134.636 161.765 133.824 161.765 133.011 161.765 132.353 161.106 132.353 160.294 132.353 159.482 133.011 158.824 133.824 158.824 134.636 158.824 135.294 159.482 135.294 160.294zM108.824 160.294C108.824 161.106 108.165 161.765 107.353 161.765 106.541 161.765 105.882 161.106 105.882 160.294 105.882 159.482 106.541 158.824 107.353 158.824 108.165 158.824 108.824 159.482 108.824 160.294zM135.294 80.8824C135.294 81.6945 134.636 82.3529 133.824 82.3529 133.011 82.3529 132.353 81.6945 132.353 80.8824 132.353 80.0702 133.011 79.4118 133.824 79.4118 134.636 79.4118 135.294 80.0702 135.294 80.8824zM108.824 80.8824C108.824 81.6945 108.165 82.3529 107.353 82.3529 106.541 82.3529 105.882 81.6945 105.882 80.8824 105.882 80.0702 106.541 79.4118 107.353 79.4118 108.165 79.4118 108.824 80.0702 108.824 80.8824zM135.294 107.353C135.294 108.165 134.636 108.824 133.824 108.824 133.011 108.824 132.353 108.165 132.353 107.353 132.353 106.541 133.011 105.882 133.824 105.882 134.636 105.882 135.294 106.541 135.294 107.353zM108.824 107.353C108.824 108.165 108.165 108.824 107.353 108.824 106.541 108.824 105.882 108.165 105.882 107.353 105.882 106.541 106.541 105.882 107.353 105.882 108.165 105.882 108.824 106.541 108.824 107.353zM82.353 133.824C82.353 134.636 81.6945 135.294 80.8824 135.294 80.0702 135.294 79.4118 134.636 79.4118 133.824 79.4118 133.011 80.0702 132.353 80.8824 132.353 81.6945 132.353 82.353 133.011 82.353 133.824zM55.8824 133.824C55.8824 134.636 55.224 135.294 54.4118 135.294 53.5996 135.294 52.9412 134.636 52.9412 133.824 52.9412 133.011 53.5996 132.353 54.4118 132.353 55.224 132.353 55.8824 133.011 55.8824 133.824zM82.353 160.294C82.353 161.106 81.6945 161.765 80.8824 161.765 80.0702 161.765 79.4118 161.106 79.4118 160.294 79.4118 159.482 80.0702 158.824 80.8824 158.824 81.6945 158.824 82.353 159.482 82.353 160.294zM55.8824 160.294C55.8824 161.106 55.224 161.765 54.4118 161.765 53.5996 161.765 52.9412 161.106 52.9412 160.294 52.9412 159.482 53.5996 158.824 54.4118 158.824 55.224 158.824 55.8824 159.482 55.8824 160.294zM82.353 80.8824C82.353 81.6945 81.6945 82.3529 80.8824 82.3529 80.0702 82.3529 79.4118 81.6945 79.4118 80.8824 79.4118 80.0702 80.0702 79.4118 80.8824 79.4118 81.6945 79.4118 82.353 80.0702 82.353 80.8824zM55.8824 80.8824C55.8824 81.6945 55.224 82.3529 54.4118 82.3529 53.5996 82.3529 52.9412 81.6945 52.9412 80.8824 52.9412 80.0702 53.5996 79.4118 54.4118 79.4118 55.224 79.4118 55.8824 80.0702 55.8824 80.8824zM82.353 107.353C82.353 108.165 81.6945 108.824 80.8824 108.824 80.0702 108.824 79.4118 108.165 79.4118 107.353 79.4118 106.541 80.0702 105.882 80.8824 105.882 81.6945 105.882 82.353 106.541 82.353 107.353zM55.8824 107.353C55.8824 108.165 55.224 108.824 54.4118 108.824 53.5996 108.824 52.9412 108.165 52.9412 107.353 52.9412 106.541 53.5996 105.882 54.4118 105.882 55.224 105.882 55.8824 106.541 55.8824 107.353zM29.4118 27.9412C29.4118 28.7534 28.7534 29.4118 27.9412 29.4118 27.129 29.4118 26.4706 28.7534 26.4706 27.9412 26.4706 27.129 27.129 26.4706 27.9412 26.4706 28.7534 26.4706 29.4118 27.129 29.4118 27.9412zM2.94118 27.9412C2.94118 28.7534 2.28278 29.4118 1.4706 29.4118.658413 29.4118 0 28.7534 0 27.9412 0 27.129.658413 26.4706 1.4706 26.4706 2.28278 26.4706 2.94118 27.129 2.94118 27.9412zM29.4118 54.4118C29.4118 55.2239 28.7534 55.8824 27.9412 55.8824 27.129 55.8824 26.4706 55.2239 26.4706 54.4118 26.4706 53.5996 27.129 52.9412 27.9412 52.9412 28.7534 52.9412 29.4118 53.5996 29.4118 54.4118zM2.94118 54.4118C2.94118 55.2239 2.28278 55.8824 1.4706 55.8824.658413 55.8824 0 55.2239 0 54.4118 0 53.5996.658413 52.9412 1.4706 52.9412 2.28278 52.9412 2.94118 53.5996 2.94118 54.4118zM29.4118 1.47059C29.4118 2.28277 28.7534 2.94118 27.9412 2.94118 27.129 2.94118 26.4706 2.28277 26.4706 1.47059 26.4706.658405 27.129 0 27.9412 0 28.7534 0 29.4118.658405 29.4118 1.47059zM2.94118 1.47059C2.94118 2.28277 2.28278 2.94118 1.4706 2.94118.658413 2.94118 0 2.28277 0 1.47059 0 .658405.658413 0 1.4706 0 2.28278 0 2.94118.658405 2.94118 1.47059zM29.4118 133.824C29.4118 134.636 28.7534 135.294 27.9412 135.294 27.129 135.294 26.4706 134.636 26.4706 133.824 26.4706 133.011 27.129 132.353 27.9412 132.353 28.7534 132.353 29.4118 133.011 29.4118 133.824zM2.94118 133.824C2.94118 134.636 2.28278 135.294 1.4706 135.294.658413 135.294 0 134.636 0 133.824 0 133.011.658413 132.353 1.4706 132.353 2.28278 132.353 2.94118 133.011 2.94118 133.824zM29.4118 160.294C29.4118 161.106 28.7534 161.765 27.9412 161.765 27.129 161.765 26.4706 161.106 26.4706 160.294 26.4706 159.482 27.129 158.824 27.9412 158.824 28.7534 158.824 29.4118 159.482 29.4118 160.294zM2.94118 160.294C2.94118 161.106 2.28278 161.765 1.4706 161.765.658413 161.765 0 161.106 0 160.294 0 159.482.658413 158.824 1.4706 158.824 2.28278 158.824 2.94118 159.482 2.94118 160.294zM29.4118 80.8824C29.4118 81.6945 28.7534 82.3529 27.9412 82.3529 27.129 82.3529 26.4706 81.6945 26.4706 80.8824 26.4706 80.0702 27.129 79.4118 27.9412 79.4118 28.7534 79.4118 29.4118 80.0702 29.4118 80.8824zM2.94118 80.8824C2.94118 81.6945 2.28278 82.3529 1.4706 82.3529.658413 82.3529 0 81.6945 0 80.8824 0 80.0702.658413 79.4118 1.4706 79.4118 2.28278 79.4118 2.94118 80.0702 2.94118 80.8824zM29.4118 107.353C29.4118 108.165 28.7534 108.824 27.9412 108.824 27.129 108.824 26.4706 108.165 26.4706 107.353 26.4706 106.541 27.129 105.882 27.9412 105.882 28.7534 105.882 29.4118 106.541 29.4118 107.353zM2.94118 107.353C2.94118 108.165 2.28278 108.824 1.4706 108.824.658413 108.824 0 108.165 0 107.353 0 106.541.658413 105.882 1.4706 105.882 2.28278 105.882 2.94118 106.541 2.94118 107.353zM29.4118 239.706C29.4118 240.518 28.7534 241.176 27.9412 241.176 27.129 241.176 26.4706 240.518 26.4706 239.706 26.4706 238.894 27.129 238.235 27.9412 238.235 28.7534 238.235 29.4118 238.894 29.4118 239.706zM2.94118 239.706C2.94118 240.518 2.28278 241.176 1.4706 241.176.658413 241.176 0 240.518 0 239.706 0 238.894.658413 238.235 1.4706 238.235 2.28278 238.235 2.94118 238.894 2.94118 239.706zM29.4118 186.765C29.4118 187.577 28.7534 188.235 27.9412 188.235 27.129 188.235 26.4706 187.577 26.4706 186.765 26.4706 185.953 27.129 185.294 27.9412 185.294 28.7534 185.294 29.4118 185.953 29.4118 186.765zM2.94118 186.765C2.94118 187.577 2.28278 188.235 1.4706 188.235.658413 188.235 0 187.577 0 186.765 0 185.953.658413 185.294 1.4706 185.294 2.28278 185.294 2.94118 185.953 2.94118 186.765zM29.4118 213.235C29.4118 214.047 28.7534 214.706 27.9412 214.706 27.129 214.706 26.4706 214.047 26.4706 213.235 26.4706 212.423 27.129 211.765 27.9412 211.765 28.7534 211.765 29.4118 212.423 29.4118 213.235zM2.94118 213.235C2.94118 214.047 2.28278 214.706 1.4706 214.706.658413 214.706 0 214.047 0 213.235 0 212.423.658413 211.765 1.4706 211.765 2.28278 211.765 2.94118 212.423 2.94118 213.235z" transform="translate(0 .5)"/></g></svg>