<svg xmlns="http://www.w3.org/2000/svg" width="586" height="251" fill="none"><path fill="url(#paint0_linear)" fill-rule="evenodd" d="M0 581.235L421.309 614.794C428.294 615.701 435.395 614.697 441.852 611.889C448.309 609.082 453.88 604.575 457.969 598.852L584.321 183.666C590.216 167.083 592.079 151.01 579.521 139.697L424.454 0H12.8831L0 581.235Z" clip-rule="evenodd" opacity=".2" transform="rotate(30 900.7 -378.2)"/><path fill="url(#paint1_linear)" fill-rule="evenodd" d="M0 581.235L421.309 614.794C428.294 615.701 435.395 614.697 441.852 611.889C448.309 609.082 453.88 604.575 457.969 598.852L584.321 183.666C590.216 167.083 592.079 151.01 579.521 139.697L424.454 0H12.8831L0 581.235Z" clip-rule="evenodd" opacity=".1" transform="rotate(30 1262.6 -35.2)"/><defs><linearGradient id="paint0_linear" x2="1" gradientTransform="matrix(-365.459 170.006 356.336 -1646.8 430.2 1073.2)" gradientUnits="userSpaceOnUse"><stop stop-color="#0DD0FB"/><stop offset="1" stop-color="#036FF5" stop-opacity="0"/></linearGradient><linearGradient id="paint1_linear" x2="1" gradientTransform="matrix(-365.459 170.006 356.336 -1646.8 430.2 1073.2)" gradientUnits="userSpaceOnUse"><stop stop-color="#0DD0FB"/><stop offset="1" stop-color="#036FF5" stop-opacity="0"/></linearGradient></defs></svg>