<svg width="279" height="331" viewBox="0 0 279 331" fill="none" xmlns="http://www.w3.org/2000/svg">
<g opacity="0.1" filter="url(#filter0_d)">
<path d="M103.376 260.54C165.257 260.54 208.573 226.604 208.573 169.679C208.573 113.484 167.077 87.9413 121.213 87.9413C105.594 87.9413 94.2234 90.9824 83.4991 95.6765C82.1113 96.2839 80.5481 95.2266 80.6335 93.7141L82.5218 60.2715C82.5816 59.2124 83.4578 58.3843 84.5186 58.3843H195.289C196.393 58.3843 197.289 57.4888 197.289 56.3843V2C197.289 0.89543 196.393 0 195.289 0H28.8269C27.7659 0 26.8896 0.828478 26.83 1.88778L19.7263 128.291C19.6833 129.055 20.0803 129.777 20.7487 130.15L60.499 152.326C61.1277 152.677 61.8959 152.662 62.5144 152.293C74.2543 145.298 87.0648 140.122 102.284 140.122C124.489 140.122 139.777 151.434 139.777 169.679C139.777 188.654 125.581 200.331 102.284 200.331C81.3367 200.331 62.1205 190.61 41.9335 173.878C41.0857 173.175 39.827 173.276 39.113 174.114L1.23891 218.581C0.545712 219.395 0.615613 220.612 1.40416 221.334C27.6881 245.395 59.0326 260.54 103.376 260.54Z" transform="translate(46.4268 36.46)" fill="white"/>
</g>
<g opacity="0.12" filter="url(#filter1_d)">
<path d="M103.376 260.54C165.257 260.54 208.573 226.604 208.573 169.679C208.573 113.484 167.077 87.9413 121.213 87.9413C105.594 87.9413 94.2234 90.9824 83.4991 95.6765C82.1113 96.2839 80.5481 95.2266 80.6335 93.7141L82.5218 60.2715C82.5816 59.2124 83.4578 58.3843 84.5186 58.3843H195.289C196.393 58.3843 197.289 57.4888 197.289 56.3843V2C197.289 0.89543 196.393 0 195.289 0H28.8269C27.7659 0 26.8896 0.828478 26.83 1.88778L19.7263 128.291C19.6833 129.055 20.0803 129.777 20.7487 130.15L60.499 152.326C61.1277 152.677 61.8959 152.662 62.5144 152.293C74.2543 145.298 87.0648 140.122 102.284 140.122C124.489 140.122 139.777 151.434 139.777 169.679C139.777 188.654 125.581 200.331 102.284 200.331C81.3367 200.331 62.1205 190.61 41.9335 173.878C41.0857 173.175 39.827 173.276 39.113 174.114L1.23891 218.581C0.545712 219.395 0.615613 220.612 1.40416 221.334C27.6881 245.395 59.0326 260.54 103.376 260.54Z" transform="translate(35.2139 25.2305)" fill="white"/>
</g>
<g filter="url(#filter2_d)">
<path d="M103.376 260.54C165.257 260.54 208.573 226.604 208.573 169.679C208.573 113.484 167.077 87.9413 121.213 87.9413C105.594 87.9413 94.2234 90.9824 83.4991 95.6765C82.1113 96.2839 80.5481 95.2266 80.6335 93.7141L82.5218 60.2715C82.5816 59.2124 83.4578 58.3843 84.5186 58.3843H195.289C196.393 58.3843 197.289 57.4888 197.289 56.3843V2C197.289 0.89543 196.393 0 195.289 0H28.8269C27.7659 0 26.8896 0.828478 26.83 1.88778L19.7263 128.291C19.6833 129.055 20.0803 129.777 20.7487 130.15L60.4989 152.326C61.1277 152.677 61.8959 152.662 62.5144 152.293C74.2543 145.298 87.0648 140.122 102.284 140.122C124.489 140.122 139.777 151.434 139.777 169.679C139.777 188.654 125.581 200.331 102.284 200.331C81.3367 200.331 62.1205 190.61 41.9335 173.878C41.0857 173.175 39.827 173.276 39.113 174.114L1.23891 218.581C0.545712 219.395 0.615613 220.612 1.40416 221.334C27.6881 245.395 59.0326 260.54 103.376 260.54Z" transform="translate(24 14)" fill="white"/>
</g>
<defs>
<filter id="filter0_d" x="23.1895" y="22.46" width="255.811" height="308.54" filterUnits="userSpaceOnUse" color-interpolation-filters="sRGB">
<feFlood flood-opacity="0" result="BackgroundImageFix"/>
<feColorMatrix in="SourceAlpha" type="matrix" values="0 0 0 0 0 0 0 0 0 0 0 0 0 0 0 0 0 0 255 0"/>
<feOffset dy="10"/>
<feGaussianBlur stdDeviation="12"/>
<feColorMatrix type="matrix" values="0 0 0 0 0 0 0 0 0 0.149909 0 0 0 0 0.336245 0 0 0 0.2 0"/>
<feBlend mode="normal" in2="BackgroundImageFix" result="effect1_dropShadow"/>
<feBlend mode="normal" in="SourceGraphic" in2="effect1_dropShadow" result="shape"/>
</filter>
<filter id="filter1_d" x="11.9766" y="11.2305" width="255.811" height="308.54" filterUnits="userSpaceOnUse" color-interpolation-filters="sRGB">
<feFlood flood-opacity="0" result="BackgroundImageFix"/>
<feColorMatrix in="SourceAlpha" type="matrix" values="0 0 0 0 0 0 0 0 0 0 0 0 0 0 0 0 0 0 255 0"/>
<feOffset dy="10"/>
<feGaussianBlur stdDeviation="12"/>
<feColorMatrix type="matrix" values="0 0 0 0 0 0 0 0 0 0.149909 0 0 0 0 0.336245 0 0 0 0.2 0"/>
<feBlend mode="normal" in2="BackgroundImageFix" result="effect1_dropShadow"/>
<feBlend mode="normal" in="SourceGraphic" in2="effect1_dropShadow" result="shape"/>
</filter>
<filter id="filter2_d" x="0.762695" y="0" width="255.811" height="308.54" filterUnits="userSpaceOnUse" color-interpolation-filters="sRGB">
<feFlood flood-opacity="0" result="BackgroundImageFix"/>
<feColorMatrix in="SourceAlpha" type="matrix" values="0 0 0 0 0 0 0 0 0 0 0 0 0 0 0 0 0 0 255 0"/>
<feOffset dy="10"/>
<feGaussianBlur stdDeviation="12"/>
<feColorMatrix type="matrix" values="0 0 0 0 0 0 0 0 0 0.149909 0 0 0 0 0.336245 0 0 0 0.2 0"/>
<feBlend mode="normal" in2="BackgroundImageFix" result="effect1_dropShadow"/>
<feBlend mode="normal" in="SourceGraphic" in2="effect1_dropShadow" result="shape"/>
</filter>
</defs>
</svg>
