<svg width="360" height="199" viewBox="0 0 360 199" fill="none" xmlns="http://www.w3.org/2000/svg">
<mask id="mask0" mask-type="alpha" maskUnits="userSpaceOnUse" x="0" y="0" width="360" height="199">
<rect width="360" height="199" rx="5" fill="white"/>
</mask>
<g mask="url(#mask0)">
<path d="M56.8 142.8C90.8 142.8 114.6 124.2 114.6 93C114.6 62.2 91.8 48.2 66.6 48.2C57.2 48.2 50.6 50.2 44.2 53.2L45.4 32H108.4V0H14.8L10.8 71L33.8 83.8C40.4 79.8 47.6 76.8 56.2 76.8C68.4 76.8 76.8 83 76.8 93C76.8 103.4 69 109.8 56.2 109.8C44.4 109.8 33.6 104.2 22.2 94.6L0 120.6C14.6 134.2 32 142.8 56.8 142.8Z" transform="translate(255 76.9995)" fill="#EDF5FF"/>
</g>
</svg>
