<svg width="100" height="100" viewBox="0 0 100 100" fill="none" xmlns="http://www.w3.org/2000/svg">
<path d="M0 2.73632C5.21739 0.995025 10.6832 0 16.1491 0C24.7205 0 33.2919 2.23881 40.7453 6.46766C43.7267 8.20895 46.5838 10.199 49.1925 12.4378L47.5776 14.3035C45.0932 12.0647 42.3602 10.199 39.5031 8.58209C32.5466 4.60199 24.472 2.48756 16.2733 2.48756C11.0559 2.48756 5.83851 3.35821 0.869564 5.0995L0 2.73632Z" transform="translate(33.6641)" fill="#003C84"/>
<path d="M0 4.10448C1.86335 2.61194 3.85093 1.24378 5.96273 0L7.20497 2.11443C5.21739 3.35821 3.35404 4.60199 1.49068 6.09453L0 4.10448Z" transform="translate(19.0059 6.59204)" fill="#003C84"/>
<path d="M0 25.7463C0 17.0398 2.23603 8.45771 6.58385 0.870648L8.69565 2.11443C4.59627 9.20398 2.48447 17.4129 2.48447 25.7463C2.48447 51.8657 23.7267 73.2587 49.9379 73.2587C76.1491 73.2587 97.3913 51.9901 97.3913 25.7463C97.3913 20.0249 96.3975 14.3035 94.4099 8.95522C93.4161 6.34328 92.1739 3.73134 90.6832 1.24378L92.795 0C94.4099 2.61194 95.6522 5.34826 96.7702 8.08458C98.882 13.6816 100 19.6517 100 25.7463C100 53.2338 77.6397 75.7463 50.0621 75.7463C22.4845 75.7463 0 53.2338 0 25.7463Z" transform="translate(0 24.2537)" fill="#003C84"/>
<path d="M0 0H2.48447C2.48447 26.1194 23.7267 47.2637 49.6894 47.2637V49.7512C22.3602 49.7512 0 27.4876 0 0Z" transform="translate(0 50.1245)" fill="#036FF5"/>
<path d="M41.9876 0C41.8634 0 41.8634 0 41.9876 0C41.8634 0 41.8634 0 41.9876 0C41.8634 0 41.8634 0 41.9876 0C41.8634 0 41.8634 0 41.9876 0C41.8634 0 41.8634 0 41.9876 0C41.8634 0 41.8634 0 41.9876 0C41.8634 0 41.8634 0 41.9876 0C41.8634 0 41.8634 0 41.9876 0C41.8634 0 41.8634 0 41.9876 0C41.8634 0 41.8634 0 41.9876 0C41.8634 0 41.8634 0 41.9876 0C41.8634 0 41.8633 0 41.8633 0C41.8633 0 41.8634 0 41.7391 0H41.6149C41.4907 0 41.3665 0 41.2422 0V1.24378C41.6149 1.24378 41.9876 1.24378 42.4845 1.24378V0H41.9876ZM37.0186 0.373134C36.646 0.373134 36.2733 0.497512 35.7764 0.497512L35.9006 1.74129C36.2733 1.74129 36.646 1.61691 37.1429 1.61691L37.0186 0.373134ZM32.0497 1.24378C31.9255 1.24378 31.8012 1.24378 31.677 1.36816C31.5528 1.36816 31.4286 1.49254 31.3043 1.49254L31.677 2.73632C32.0497 2.61194 32.4224 2.48756 32.795 2.48756L32.0497 1.24378ZM27.3292 2.61194C27.205 2.73632 26.9565 2.73632 26.8323 2.8607C26.7081 2.98507 26.4596 2.98507 26.3354 3.10945L26.8323 4.22885C27.205 4.10448 27.5776 3.9801 27.9503 3.73134L27.3292 2.61194ZM22.8571 4.60199C22.7329 4.60199 22.7329 4.72637 22.6087 4.72637C22.6087 4.72637 22.6087 4.72637 22.4845 4.72637C22.4845 4.72637 22.4845 4.72637 22.3602 4.72637C22.3602 4.72637 22.3602 4.72637 22.236 4.72637C22.236 4.72637 22.236 4.72637 22.1118 4.72637C22.1118 4.72637 22.1118 4.72637 21.9876 4.72637C21.9876 4.72637 21.9876 4.72637 21.8634 4.72637C21.7391 4.72637 21.7391 4.85075 21.6149 4.85075C21.6149 4.85075 21.6149 4.85075 21.4907 4.85075L22.1118 5.97015C22.4845 5.72139 22.8571 5.59701 23.2298 5.34826L22.8571 4.60199ZM18.5093 7.21393C18.1366 7.46269 17.764 7.71144 17.5155 7.9602L18.2609 8.95522C18.6335 8.70647 18.882 8.45771 19.2547 8.20895L18.5093 7.21393ZM14.5342 10.199C14.5342 10.3234 14.5342 10.3234 14.5342 10.199C14.5342 10.3234 14.5342 10.3234 14.5342 10.199C14.4099 10.3234 14.4099 10.3234 14.5342 10.199C14.4099 10.3234 14.4099 10.3234 14.5342 10.199C14.4099 10.3234 14.4099 10.3234 14.4099 10.3234C14.1615 10.5721 13.913 10.8209 13.6646 11.0696L14.5342 11.9403C14.7826 11.6915 15.1553 11.4428 15.4037 11.194L14.5342 10.199ZM11.0559 13.6816C10.8075 13.9303 10.6832 14.0547 10.4348 14.3035C10.3106 14.4279 10.3106 14.4279 10.1863 14.5522L11.1801 15.4229C11.4286 15.1741 11.677 14.801 11.9255 14.5522L11.0559 13.6816ZM7.82609 17.5373C7.70186 17.6617 7.57764 17.7861 7.57764 17.9104C7.45342 18.0348 7.45342 18.1592 7.32919 18.1592L8.32298 18.9055C8.57143 18.5323 8.81988 18.2836 9.06832 17.9104L7.82609 17.5373ZM5.21739 21.6418C5.21739 21.7662 5.21739 21.7662 5.21739 21.6418C5.09317 21.7662 5.09317 21.7662 5.21739 21.6418C5.09317 21.7662 5.09317 21.7662 5.21739 21.6418C5.09317 21.7662 5.09317 21.7662 5.21739 21.6418C5.09317 21.7662 5.09317 21.7662 5.21739 21.6418C5.09317 21.7662 5.09317 21.7662 5.21739 21.6418C5.09317 21.7662 5.09317 21.7662 5.21739 21.6418C5.09317 21.7662 5.09317 21.7662 5.09317 21.7662C5.09317 21.8905 4.96894 21.8905 4.96894 22.0149C4.84472 22.1393 4.84472 22.3881 4.7205 22.5124L5.83851 23.1343C5.96273 22.7612 6.21118 22.3881 6.45963 22.0149L5.21739 21.6418ZM2.98137 26.1194C2.98137 26.2438 2.85714 26.3682 2.85714 26.6169C2.73292 26.8657 2.73292 26.99 2.6087 27.2388L3.72671 27.7363C3.85093 27.3632 3.97516 26.99 4.2236 26.6169L2.98137 26.1194ZM1.49068 30.8458C1.36646 31.2189 1.24224 31.592 1.11801 32.0895L2.36025 32.3383C2.48447 31.9652 2.6087 31.592 2.6087 31.2189L1.49068 30.8458ZM0.37267 35.6965C0.37267 35.9453 0.248447 36.3184 0.248447 36.5672C0.248447 36.6915 0.248447 36.6915 0.248447 36.8159L1.49068 36.9403C1.49068 36.5672 1.61491 36.194 1.61491 35.6965H0.37267ZM0 40.6716C0 41.0448 0 41.4179 0 41.791H1.24224C1.24224 41.4179 1.24224 41.0448 1.24224 40.5473L0 40.6716ZM1.24224 45.5224L0 45.6468C0 45.6468 0 45.6468 0 45.7711C0 45.7711 0 45.7711 0 45.8955C0 46.0199 0 46.1443 0 46.393L1.24224 46.2687C1.36646 46.393 1.36646 46.0199 1.24224 45.5224ZM1.98758 50.3731L0.745341 50.6219C0.869565 50.995 0.869565 51.2438 0.993788 51.6169L2.23602 51.3682C2.1118 51.1194 2.1118 50.7463 1.98758 50.3731ZM3.22981 54.9751L1.98758 55.3483C2.1118 55.597 2.1118 55.8458 2.23602 55.9701C2.23602 56.0945 2.23602 56.0945 2.36025 56.2189L3.47826 55.8458C3.47826 55.7214 3.35404 55.3483 3.22981 54.9751ZM4.96894 59.4527L3.85093 59.9502C3.85093 59.9502 3.85093 59.9502 3.85093 60.0746C3.85093 60.199 3.97516 60.3234 3.97516 60.4478L5.09317 59.8259C5.34161 60.199 5.21739 59.8259 4.96894 59.4527ZM7.32919 63.6816L6.3354 64.3035C6.3354 64.3035 6.3354 64.3035 6.3354 64.4279C6.45963 64.6766 6.70807 64.9254 6.8323 65.1741L7.82609 64.4279C7.70186 64.4279 7.57764 64.0547 7.32919 63.6816ZM10.0621 67.6617L9.06832 68.408C9.19255 68.5323 9.19255 68.5323 9.31677 68.6567C9.44099 68.7811 9.56522 69.0298 9.81366 69.1542L10.8075 68.408C10.559 68.2836 10.3106 67.9104 10.0621 67.6617ZM13.2919 71.2686L12.4224 72.1393C12.6708 72.3881 12.795 72.5124 13.0435 72.7612L13.1677 72.8856L14.0373 72.0149C13.913 71.7662 13.6646 71.5174 13.2919 71.2686ZM17.0186 74.3781L16.2733 75.3731L16.3975 75.4975C16.646 75.7463 16.8944 75.8706 17.1429 76.1194L17.8882 75.1244C17.6398 74.8756 17.2671 74.6269 17.0186 74.3781ZM20.9938 77.1144L20.3727 78.2338L20.4969 78.3582C20.7453 78.4826 20.9938 78.7313 21.2422 78.8557L21.8634 77.7363C21.6149 77.4876 21.2422 77.3632 20.9938 77.1144ZM25.2174 79.3532L24.7205 80.4726C24.7205 80.4726 24.8447 80.4726 24.8447 80.597C24.8447 80.597 24.8447 80.597 24.9689 80.597C24.9689 80.597 24.9689 80.597 25.0932 80.597C25.3416 80.7214 25.4658 80.7214 25.7143 80.8458L26.2112 79.7264C25.9627 79.7264 25.5901 79.602 25.2174 79.3532ZM29.6894 81.0945L29.3168 82.3383H29.441C29.441 82.3383 29.441 82.3383 29.5652 82.3383C29.8137 82.3383 29.9379 82.4627 30.1863 82.4627L30.559 81.2189C30.4348 81.3433 30.0621 81.2189 29.6894 81.0945ZM34.4099 82.2139L34.1615 83.4577C34.2857 83.4577 34.4099 83.4577 34.5342 83.4577C34.5342 83.4577 34.5342 83.4577 34.6584 83.4577C34.7826 83.4577 35.0311 83.4577 35.1553 83.5821L35.4037 82.3383C35.1553 82.4627 34.7826 82.3383 34.4099 82.2139ZM39.1304 82.8358L39.0062 84.0796C39.1304 84.0796 39.2547 84.0796 39.3789 84.0796C39.6273 84.0796 39.8758 84.0796 40.2484 84.0796V82.8358C40 82.9602 39.6273 82.8358 39.1304 82.8358ZM45.2174 82.8358C44.8447 82.8358 44.472 82.8358 43.9752 82.9602V84.204C44.3478 84.204 44.7205 84.204 45.0932 84.0796L45.2174 82.8358ZM49.9379 82.2139C49.5652 82.3383 49.1925 82.3383 48.6956 82.4627L48.9441 83.7065C49.3168 83.5821 49.6894 83.5821 50.1863 83.4577L49.9379 82.2139ZM54.6584 80.9701C54.2857 81.0945 53.913 81.2189 53.5404 81.3433L53.913 82.5871C54.0373 82.5871 54.2857 82.4627 54.4099 82.4627C54.6584 82.4627 54.7826 82.3383 55.0311 82.2139L54.6584 80.9701ZM59.1304 79.2289C58.7578 79.3532 58.3851 79.602 58.0124 79.7264L58.5093 80.8458C58.6335 80.8458 58.6335 80.7214 58.7578 80.7214C59.0062 80.597 59.1304 80.4726 59.3789 80.4726L59.1304 79.2289ZM63.354 76.8657C62.9814 77.1144 62.6087 77.2388 62.3602 77.4876L62.9814 78.607C63.1056 78.4826 63.2298 78.4826 63.354 78.3582H63.4783L63.354 76.8657ZM67.3292 74.1293C66.9565 74.3781 66.7081 74.6269 66.3354 74.8756L67.0807 75.8706C67.205 75.7463 67.3292 75.7463 67.4534 75.6219C67.5776 75.4975 67.5776 75.4975 67.7019 75.3731L67.3292 74.1293ZM70.9317 70.8955C70.6832 71.1443 70.3106 71.5174 70.0621 71.7662L70.9317 72.6368V70.8955ZM74.0373 67.2886C73.7888 67.6617 73.5404 67.9104 73.2919 68.2836L74.2857 69.0298C74.4099 68.9055 74.5342 68.6567 74.7826 68.5323C74.9068 68.408 74.9068 68.2836 75.0311 68.1592L74.0373 67.2886ZM76.7702 63.3085C76.5217 63.6816 76.3975 64.0547 76.1491 64.3035L77.1429 64.9254C77.1429 64.801 77.2671 64.801 77.2671 64.6766C77.3913 64.4279 77.5155 64.1791 77.764 63.9303L76.7702 63.3085ZM79.1304 59.0796C79.0062 59.4527 78.7578 59.8259 78.6335 60.199L79.7515 60.6965C79.8758 60.3234 80.1242 59.9502 80.2484 59.5771L79.1304 59.0796ZM80.8696 54.602C80.7453 54.9751 80.6211 55.3483 80.4969 55.7214L81.6149 56.0945C81.6149 55.9701 81.7391 55.8458 81.7391 55.597C81.7391 55.4726 81.8634 55.3483 81.8634 55.2239L80.8696 54.602ZM81.9876 49.8756C81.8633 50.2488 81.8633 50.6219 81.7391 50.995L82.9814 51.2438C82.9814 51.1194 83.1056 50.995 83.1056 50.7463C83.1056 50.6219 83.1056 50.4975 83.2298 50.3731L81.9876 49.8756ZM82.6087 45.0249C82.6087 45.398 82.4845 45.7711 82.4845 46.2687L83.7267 46.393C83.7267 46.0199 83.8509 45.5224 83.8509 45.1493L82.6087 45.0249ZM83.9752 40.1741H82.7329C82.7329 40.5473 82.7329 40.9204 82.7329 41.4179H83.9752C83.9752 41.1691 83.9752 40.9204 83.9752 40.5473C83.9752 40.2985 83.9752 40.2985 83.9752 40.1741C83.9752 40.2985 83.9752 40.2985 83.9752 40.1741C83.9752 40.2985 83.9752 40.2985 83.9752 40.1741C83.9752 40.2985 83.9752 40.2985 83.9752 40.1741ZM83.4783 35.199L82.236 35.4478C82.3602 35.8209 82.3602 36.194 82.3602 36.6915L83.6025 36.5672C83.6025 36.0696 83.4783 35.6965 83.4783 35.199C83.4783 35.3234 83.4783 35.3234 83.4783 35.199C83.4783 35.3234 83.4783 35.3234 83.4783 35.199C83.4783 35.3234 83.4783 35.3234 83.4783 35.199C83.4783 35.3234 83.4783 35.3234 83.4783 35.199C83.4783 35.3234 83.4783 35.3234 83.4783 35.199C83.4783 35.3234 83.4783 35.3234 83.4783 35.199C83.4783 35.3234 83.4783 35.3234 83.4783 35.199C83.4783 35.3234 83.4783 35.3234 83.4783 35.199C83.4783 35.3234 83.4783 35.3234 83.4783 35.199C83.4783 35.3234 83.4783 35.3234 83.4783 35.199C83.4783 35.3234 83.4783 35.3234 83.4783 35.199ZM82.3602 30.3483L81.118 30.7214C81.2422 31.0945 81.3665 31.4677 81.4907 31.8408L82.7329 31.592C82.6087 31.2189 82.4845 30.8458 82.3602 30.3483ZM80.6211 25.7463L79.5031 26.2438C79.6273 26.6169 79.7516 26.99 80 27.3632L81.118 26.8657C81.118 26.7413 80.9938 26.6169 80.9938 26.3682C80.8696 26.1194 80.7453 25.995 80.6211 25.7463ZM78.5093 21.2687L77.3913 21.8905C77.6397 22.2637 77.764 22.6368 78.0124 22.8856L79.1304 22.2637C78.882 22.0149 78.6335 21.6418 78.5093 21.2687ZM75.7764 17.0398L74.7826 17.7861C75.0311 18.1592 75.2795 18.408 75.5279 18.7811L76.5217 18.0348C76.3975 17.7861 76.2733 17.6617 76.0248 17.4129C75.9006 17.2886 75.7764 17.1642 75.7764 17.0398ZM72.5466 13.3085L71.677 14.1791C71.9255 14.4279 72.1739 14.801 72.5466 15.0497L73.4161 14.1791C73.1677 13.9303 72.795 13.5572 72.5466 13.3085ZM68.9441 9.82587L68.1988 10.8209C68.4472 11.0697 68.8199 11.3184 69.0683 11.5672L69.9379 10.6965C69.5652 10.3234 69.1925 10.0746 68.9441 9.82587ZM64.9689 6.96517L64.3478 7.9602C64.7205 8.20895 64.9689 8.45771 65.3416 8.58209L66.087 7.58706C65.2174 7.08955 65.0932 6.96517 64.9689 6.96517ZM60.6211 4.47761L60.1242 5.59701C60.4969 5.72139 60.8696 5.97015 61.2422 6.09453L61.8634 4.97512C61.7391 4.85075 61.4907 4.72637 61.3665 4.72637C60.8696 4.60199 60.7453 4.47761 60.6211 4.47761C60.7453 4.47761 60.7453 4.47761 60.6211 4.47761C60.7453 4.47761 60.7453 4.47761 60.6211 4.47761ZM56.0248 2.48756L55.6522 3.60696C56.0248 3.73134 56.3975 3.85572 56.7702 3.9801L57.2671 2.8607C56.8944 2.73632 56.5217 2.61194 56.0248 2.48756ZM51.3043 1.1194L51.0559 2.36318C51.4286 2.48756 51.8012 2.48756 52.1739 2.61194L52.5466 1.36816C52.1739 1.24378 51.9255 1.24378 51.5528 1.1194C51.4286 1.1194 51.4286 1.1194 51.3043 1.1194C51.4286 1.1194 51.4286 1.1194 51.3043 1.1194C51.4286 1.1194 51.4286 1.1194 51.3043 1.1194C51.4286 1.1194 51.4286 1.1194 51.3043 1.1194C51.4286 1.1194 51.4286 1.1194 51.3043 1.1194C51.4286 1.1194 51.3043 1.1194 51.3043 1.1194ZM46.4596 0.248756L46.3354 1.49254C46.7081 1.49254 47.0807 1.61691 47.5776 1.61691L47.7019 0.373134C47.4534 0.373134 47.205 0.248756 46.9565 0.248756C46.5839 0.248756 46.5838 0.248756 46.4596 0.248756C46.5838 0.248756 46.4596 0.248756 46.4596 0.248756ZM41.9876 0V1.24378C42.236 1.24378 42.4845 1.24378 42.7329 1.24378V0C42.6087 0 42.4845 0 42.3602 0C42.1118 0 42.1118 0 41.9876 0C42.1118 0 42.1118 0 41.9876 0C42.1118 0 41.9876 0 41.9876 0Z" transform="translate(7.95117 7.83594)" fill="#489BFD"/>
<path d="M33.5404 67.1642C52.0642 67.1642 67.0807 52.129 67.0807 33.5821C67.0807 15.0352 52.0642 0 33.5404 0C15.0165 0 0 15.0352 0 33.5821C0 52.129 15.0165 67.1642 33.5404 67.1642Z" transform="translate(16.1494 16.2937)" fill="#00225E"/>
<path d="M1.24224 13.3085C0.496894 13.3085 0 12.8109 0 12.0647V1.24378C0 0.497512 0.496894 0 1.24224 0C1.98758 0 2.48447 0.497512 2.48447 1.24378V12.0647C2.48447 12.8109 1.98758 13.3085 1.24224 13.3085Z" transform="translate(48.4473 10.3235)" fill="#036FF5"/>
<path d="M7.94605 6.33902C7.69761 6.33902 7.57338 6.33902 7.32494 6.21464L0.616862 2.35892C-0.00425559 1.98579 -0.128479 1.23952 0.119968 0.61763C0.492639 -0.00426088 1.23798 -0.128639 1.8591 0.120118L8.56717 3.97584C9.18829 4.34897 9.31252 5.09524 9.06407 5.71713C8.81562 6.09027 8.44295 6.33902 7.94605 6.33902Z" transform="translate(20.377 29.8552)" fill="#036FF5"/>
<path d="M1.23798 9.44848C0.989531 9.44848 0.865308 9.44848 0.616861 9.3241C-0.0042574 8.95096 -0.128478 8.20469 0.119969 7.5828L4.09512 0.61763C4.46779 -0.00426088 5.21314 -0.128639 5.83425 0.120118C6.45537 0.493252 6.5796 1.23952 6.33115 1.86141L2.35599 8.82659C2.10755 9.19972 1.73487 9.44848 1.23798 9.44848Z" transform="translate(60.626 17.9148)" fill="#036FF5"/>
<path d="M5.26827 9.50367C4.8956 9.50367 4.3987 9.25492 4.15025 8.88178L0.175098 1.91661C-0.197573 1.29472 0.0508742 0.54845 0.671992 0.175316C1.29311 -0.197818 2.03845 0.0509374 2.41112 0.672828L6.38628 7.638C6.75895 8.25989 6.5105 9.00616 5.88938 9.37929C5.64094 9.37929 5.51671 9.50367 5.26827 9.50367Z" transform="translate(32.2471 17.8596)" fill="#036FF5"/>
<path d="M1.29311 6.39422C0.920441 6.39422 0.423545 6.14547 0.175098 5.77233C-0.197573 5.15044 0.050876 4.40417 0.671994 4.03104L7.38007 0.175316C8.00118 -0.197818 8.74653 0.0509374 9.1192 0.672828C9.49187 1.29472 9.24342 2.04099 8.6223 2.41412L1.91423 6.26984C1.79001 6.26984 1.54156 6.39422 1.29311 6.39422Z" transform="translate(69.7627 29.8)" fill="#036FF5"/>
<path d="M1.11801 4.97512L0 4.47761L1.73913 0H6.45962V1.24378H2.48447L1.11801 4.97512Z" transform="translate(58.2617 54.8508)" fill="#036FF5"/>
<path d="M35.9006 22.3881H0L8.4472 0H27.5776L35.9006 22.3881ZM3.60248 19.9005H32.2981L25.7143 2.48756H10.0621L3.60248 19.9005Z" transform="translate(15.6514 49.2539)" fill="#036FF5"/>
<path d="M35.9006 22.3881H0L8.44721 0H27.5776L35.9006 22.3881ZM3.60249 19.9005H32.2981L25.7143 2.48756H10.0621L3.60249 19.9005Z" transform="translate(47.9502 49.2539)" fill="#036FF5"/>
<path d="M1.11801 4.97512L0 4.47761L1.73913 0H6.45963V1.24378H2.48447L1.11801 4.97512Z" transform="translate(25.9629 54.8508)" fill="#036FF5"/>
<path d="M1.11801 4.85075L0 4.47761L1.73913 0H6.45962V1.24378H2.48447L1.11801 4.85075Z" transform="translate(42.3115 32.5972)" fill="white"/>
<path d="M35.9006 22.3881H0L8.32298 0H27.4534L35.9006 22.3881ZM3.60248 19.9005H32.2981L25.7143 2.48756H10.0621L3.60248 19.9005Z" transform="translate(32 27)" fill="white"/>
</svg>
