<svg width="100" height="100" viewBox="0 0 100 100" fill="none" xmlns="http://www.w3.org/2000/svg">
<path d="M0.995029 0C5.97015 2.37278 10.4478 5.61973 14.4279 9.61598C20.5224 15.7352 25 23.3531 27.2388 31.7203C28.1095 35.0921 28.7313 38.4639 28.9801 41.9607L26.4925 42.0855C26.2438 38.8386 25.7463 35.4668 24.8756 32.3447C22.7612 24.4771 18.5323 17.2338 12.6866 11.3643C8.95523 7.61786 4.72637 4.49579 0 2.24789L0.995029 0Z" transform="translate(71.0205 4.74561)" fill="#003C84"/>
<path d="M0.248757 0C2.61194 0.249766 4.97512 0.749297 7.33831 1.37371L6.71641 3.74649C4.47761 3.12207 2.23881 2.74742 0 2.49766L0.248757 0Z" transform="translate(55.5977)" fill="#003C84"/>
<path d="M14.6455 12.9878C20.8644 6.74368 28.4515 2.37278 36.9092 0L37.5311 2.37278C29.5709 4.49578 22.2326 8.7418 16.3868 14.6113C-2.14552 33.2189 -2.14552 63.4405 16.3868 82.0481C34.9192 100.656 65.0187 100.656 83.551 82.0481C87.6555 77.9269 90.8893 73.1814 93.2525 67.9363C94.3719 65.3138 95.3669 62.5663 96.1132 59.8189L98.4764 60.4433C97.7301 63.4405 96.7351 66.3128 95.4913 69.0603C93.0037 74.5551 89.5211 79.5504 85.2923 83.9213C65.7649 103.528 34.1729 103.528 14.6455 83.9213C-4.88184 64.3147 -4.88184 32.4696 14.6455 12.9878Z" transform="translate(0.03125 1.37378)" fill="#003C84"/>
<path d="M14.5522 0L16.2935 1.74836C-2.11443 20.231 -2.11443 50.3278 16.2935 68.9354L14.5522 70.6837C-4.85075 51.202 -4.85075 19.4817 14.5522 0Z" transform="translate(0 14.4866)" fill="#036FF5"/>
<path d="M42.0398 0C41.9154 0 41.9154 0 42.0398 0C41.9154 0 41.9154 0 42.0398 0C41.9154 0 41.9154 0 42.0398 0C41.9154 0 41.9154 0 42.0398 0C41.9154 0 41.9154 0 42.0398 0C41.9154 0 41.9154 0 41.9154 0C41.9154 0 41.9154 0 41.791 0H41.6667C41.5423 0 41.4179 0 41.2935 0V1.24883C41.6667 1.24883 42.0398 1.24883 42.5373 1.24883V0H42.0398ZM37.0647 0.249766C36.6915 0.249766 36.3184 0.374649 35.8209 0.374649L35.9453 1.62348C36.3184 1.62348 36.6915 1.4986 37.1891 1.4986L37.0647 0.249766ZM32.2139 1.12395C32.0896 1.12395 31.9652 1.12395 31.8408 1.24883C31.7164 1.24883 31.592 1.37371 31.4677 1.37371L31.8408 2.62254C31.7164 2.49766 32.0896 2.37278 32.4627 2.37278L32.2139 1.12395ZM27.4876 2.62254C27.3632 2.74742 27.1144 2.74742 26.9901 2.87231C26.8657 2.99719 26.6169 2.99719 26.4925 3.12207L26.9901 4.24602C27.3632 4.12114 27.7363 3.99625 28.1095 3.74649L27.4876 2.62254ZM22.8856 4.62067C22.7612 4.62067 22.7612 4.74555 22.6368 4.74555C22.6368 4.74555 22.6368 4.74555 22.5124 4.74555C22.5124 4.74555 22.5124 4.74555 22.3881 4.74555C22.3881 4.74555 22.3881 4.74555 22.2637 4.74555C22.2637 4.74555 22.2637 4.74555 22.1393 4.74555C22.1393 4.74555 22.1393 4.74555 22.0149 4.74555C22.0149 4.74555 22.0149 4.74555 21.8905 4.74555C21.7662 4.74555 21.7662 4.87043 21.6418 4.87043C21.6418 4.87043 21.6418 4.87043 21.5174 4.87043L22.1393 5.99438C22.5124 5.74461 22.8856 5.61973 23.2587 5.36997L22.8856 4.62067ZM18.6567 7.11833C18.2836 7.36809 17.9104 7.61786 17.6617 7.86762L18.408 8.86669C18.7811 8.61692 19.0299 8.36716 19.403 8.11739L18.6567 7.11833ZM14.6766 10.1155C14.5522 10.1155 14.5522 10.1155 14.6766 10.1155C14.5522 10.1155 14.5522 10.1155 14.6766 10.1155C14.5522 10.1155 14.5522 10.1155 14.6766 10.1155C14.5522 10.1155 14.5522 10.2404 14.6766 10.1155C14.5522 10.2404 14.5522 10.2404 14.6766 10.1155C14.5522 10.2404 14.5522 10.2404 14.6766 10.1155C14.5522 10.2404 14.5522 10.2404 14.6766 10.1155C14.5522 10.2404 14.5522 10.2404 14.6766 10.1155C14.5522 10.2404 14.5522 10.2404 14.6766 10.1155C14.5522 10.2404 14.5522 10.2404 14.6766 10.1155C14.5522 10.2404 14.5522 10.2404 14.6766 10.1155C14.5522 10.2404 14.5522 10.2404 14.6766 10.1155C14.5522 10.2404 14.5522 10.2404 14.5522 10.2404C14.3035 10.4902 14.0547 10.7399 13.806 10.9897L14.6766 11.8639C14.9254 11.6141 15.2985 11.3643 15.5473 11.1146L14.6766 10.1155ZM11.0697 13.6122C10.8209 13.862 10.6965 13.9869 10.4478 14.2367C10.3234 14.3615 10.3234 14.3615 10.199 14.4864L11.194 15.3606C11.4428 15.1108 11.6915 14.7362 11.9403 14.4864L11.0697 13.6122ZM7.9602 17.4836C7.83582 17.6085 7.71144 17.7334 7.71144 17.8583C7.58707 17.9831 7.58706 18.108 7.46269 18.108L8.45771 18.8573C8.70647 18.4827 8.95522 18.2329 9.20398 17.8583L7.9602 17.4836ZM5.22388 21.7296C5.22388 21.7296 5.22388 21.8545 5.22388 21.7296C5.22388 21.8545 5.22388 21.8545 5.22388 21.7296C5.0995 21.8545 5.0995 21.8545 5.0995 21.8545C5.0995 21.9794 4.97512 21.9794 4.97512 22.1043C4.85075 22.2292 4.85075 22.4789 4.72637 22.6038L5.84577 23.2282C5.97015 22.8536 6.21891 22.4789 6.46766 22.1043L5.22388 21.7296ZM3.10945 26.2254C3.10945 26.3503 2.98507 26.4752 2.98507 26.7249C2.8607 26.9747 2.8607 27.0996 2.73632 27.3494L3.85572 27.8489C3.9801 27.4742 4.10448 27.0996 4.35323 26.7249L3.10945 26.2254ZM1.49254 30.8461C1.36816 31.2207 1.24378 31.5954 1.1194 32.0949L2.36318 32.3447C2.48756 31.97 2.61194 31.5954 2.61194 31.2207L1.49254 30.8461ZM0.497513 35.8414C0.497513 36.0912 0.373134 36.4658 0.373134 36.7156C0.373134 36.8405 0.373134 36.8405 0.373134 36.9653L1.61692 37.0902C1.61692 36.7156 1.74129 36.3409 1.74129 35.8414H0.497513ZM0 40.7118C0 41.0865 0 41.4611 0 41.8358H1.24378C1.24378 41.4611 1.24378 41.0865 1.24378 40.5869L0 40.7118ZM1.36816 45.7071L0.124378 45.832C0.124378 45.832 0.124378 45.832 0.124378 45.9569C0.124378 45.9569 0.124378 45.9569 0.124378 46.0818C0.124378 46.2067 0.124378 46.3316 0.124378 46.5813L1.36816 46.4564C1.36816 46.4564 1.36816 46.0818 1.36816 45.7071ZM1.99005 50.4527L0.746269 50.7025C0.870647 51.0771 0.870646 51.3269 0.995025 51.7015L2.23881 51.4518C2.23881 51.202 2.11443 50.8273 1.99005 50.4527ZM3.23383 55.0734L2.11443 55.448C2.23881 55.6978 2.23881 55.9475 2.36318 56.0724C2.36318 56.1973 2.36318 56.1973 2.48756 56.3222L3.60697 55.9475C3.48259 55.9475 3.35821 55.448 3.23383 55.0734ZM5.0995 59.5691L3.9801 60.0687C3.9801 60.0687 3.9801 60.0687 3.9801 60.1936C3.9801 60.3184 4.10448 60.4433 4.10448 60.5682L5.22388 59.9438C5.47264 60.3184 5.22388 59.9438 5.0995 59.5691ZM7.33831 63.8152L6.34328 64.4396C6.34328 64.4396 6.34328 64.4396 6.34328 64.5645C6.46766 64.8142 6.71642 65.064 6.8408 65.3138L7.83582 64.5645C7.83582 64.5645 7.58706 64.1898 7.33831 63.8152ZM10.199 67.8114L9.20398 68.5607C9.32836 68.6856 9.32836 68.6856 9.45274 68.8105C9.57711 68.9354 9.70149 69.1851 9.95025 69.31L10.9453 68.5607C10.6965 68.4358 10.4478 68.1861 10.199 67.8114ZM13.4328 71.433L12.5622 72.3072C12.8109 72.557 12.9353 72.6819 13.1841 72.9316L13.3085 73.0565L14.1791 72.1823C13.9303 71.9326 13.6816 71.6828 13.4328 71.433ZM17.0398 74.5551L16.2935 75.5542L16.4179 75.679C16.6667 75.9288 16.9154 76.0537 17.1642 76.3035L17.9104 75.3044C17.6617 75.0546 17.4129 74.8049 17.0398 74.5551ZM21.0199 77.3025L20.398 78.4265L20.5224 78.5514C20.7711 78.6762 21.0199 78.926 21.2687 79.0509L21.8905 77.9269C21.7662 77.8021 21.393 77.5523 21.0199 77.3025ZM25.2488 79.5504L24.7512 80.6744C24.7512 80.6744 24.8756 80.6744 24.8756 80.7992C24.8756 80.7992 24.8756 80.7992 25 80.7992C25 80.7992 25 80.7992 25.1244 80.7992C25.3731 80.9241 25.4975 80.9241 25.7463 81.049L26.2438 79.9251C25.995 79.9251 25.6219 79.8002 25.2488 79.5504ZM29.8507 81.2988L29.4776 82.5476H29.602C29.602 82.5476 29.602 82.5476 29.7264 82.5476C29.9751 82.5476 30.0995 82.6725 30.3483 82.6725L30.7214 81.4237C30.597 81.5485 30.2239 81.4237 29.8507 81.2988ZM34.4527 82.5476L34.204 83.7964C34.3284 83.7964 34.4527 83.7964 34.5771 83.7964C34.5771 83.7964 34.5771 83.7964 34.7015 83.7964C34.8259 83.7964 35.0746 83.7964 35.199 83.9213L35.4478 82.6725C35.3234 82.6725 34.8259 82.5476 34.4527 82.5476ZM39.3035 83.0471L39.1791 84.296C39.3035 84.296 39.4279 84.296 39.5522 84.296C39.801 84.296 40.0498 84.296 40.4229 84.296V83.0471C40.0498 83.172 39.6766 83.172 39.3035 83.0471ZM45.2736 83.0471C44.9005 83.0471 44.5274 83.0471 44.0298 83.172V84.4208C44.403 84.4208 44.7761 84.4209 45.1493 84.296L45.2736 83.0471ZM50.1244 82.4227C49.7512 82.5476 49.3781 82.5476 48.8806 82.6725L49.1294 83.9213C49.5025 83.7964 49.8756 83.7964 50.3731 83.6716L50.1244 82.4227ZM54.7264 81.1739C54.3532 81.2988 53.9801 81.4237 53.607 81.5485L53.9801 82.7974C54.1045 82.7974 54.3532 82.6725 54.4776 82.6725C54.7264 82.6725 54.8507 82.5476 55.0995 82.4227L54.7264 81.1739ZM59.204 79.4255C58.8308 79.5504 58.4577 79.8002 58.0846 79.9251L58.5821 81.049C58.7065 81.049 58.7065 80.9241 58.8308 80.9241C59.0796 80.7992 59.204 80.6744 59.4527 80.6744L59.204 79.4255ZM63.4328 77.0528C63.0597 77.3025 62.6866 77.4274 62.4378 77.6772L63.0597 78.8011C63.1841 78.6762 63.3085 78.6762 63.4328 78.5514H63.5572L63.4328 77.0528ZM67.4129 74.3053C67.0398 74.5551 66.791 74.8049 66.4179 75.0546L67.1642 76.0537C67.2886 75.9288 67.4129 75.9288 67.5373 75.8039C67.6617 75.6791 67.6617 75.679 67.7861 75.5542L67.4129 74.3053ZM71.0199 71.0584C70.7711 71.3081 70.398 71.6828 70.1493 71.9326L71.0199 72.8067V71.0584ZM74.2537 67.4368C74.005 67.8114 73.7562 68.0612 73.5075 68.4358L74.5025 69.1851C74.6269 69.0602 74.7512 68.8105 75 68.6856C75.1244 68.5607 75.1244 68.4358 75.2488 68.311L74.2537 67.4368ZM76.9901 63.4405C76.7413 63.8152 76.6169 64.1898 76.3682 64.4396L77.3632 65.064C77.3632 64.9391 77.4876 64.9391 77.4876 64.8142C77.6119 64.5645 77.7363 64.3147 77.9851 64.0649L76.9901 63.4405ZM79.2289 59.1945C79.1045 59.5692 78.8557 59.9438 78.7313 60.3185L79.8507 60.818C79.9751 60.4433 80.2239 60.0687 80.3483 59.694L79.2289 59.1945ZM80.9701 54.6987C80.8458 55.0734 80.7214 55.448 80.597 55.8227L81.7164 56.1973C81.7164 56.0724 81.8408 55.9475 81.8408 55.6978C81.8408 55.5729 81.9652 55.448 81.9652 55.3231L80.9701 54.6987ZM82.2139 49.9532C82.0896 50.3278 82.0896 50.7025 81.9652 51.0771L83.209 51.3269C83.209 51.202 83.3333 51.0771 83.3333 50.8273C83.3333 50.7025 83.3333 50.5776 83.4577 50.4527L82.2139 49.9532ZM82.8358 45.2076C82.8358 45.5823 82.7114 45.9569 82.7114 46.4564L83.9552 46.5813C83.9552 46.2067 84.0796 45.7071 84.0796 45.3325L82.8358 45.2076ZM84.0796 40.2123H82.8358C82.8358 40.5869 82.8358 40.9616 82.8358 41.4611H84.0796C84.0796 41.2114 84.0796 40.9616 84.0796 40.5869C84.0796 40.3372 84.0796 40.3372 84.0796 40.2123C84.0796 40.3372 84.0796 40.3372 84.0796 40.2123C84.0796 40.3372 84.0796 40.3372 84.0796 40.2123C84.0796 40.3372 84.0796 40.3372 84.0796 40.2123C84.0796 40.3372 84.0796 40.3372 84.0796 40.2123C84.0796 40.3372 84.0796 40.3372 84.0796 40.2123C84.0796 40.3372 84.0796 40.2123 84.0796 40.2123ZM83.5821 35.3419L82.3383 35.5916C82.4627 35.9663 82.4627 36.3409 82.4627 36.8405L83.7065 36.7156C83.7065 36.216 83.7065 35.8414 83.5821 35.3419C83.5821 35.4667 83.5821 35.4667 83.5821 35.3419C83.5821 35.4667 83.5821 35.3419 83.5821 35.3419ZM82.4627 30.4714L81.2189 30.8461C81.3433 31.2207 81.4677 31.5954 81.592 31.97L82.8358 31.7203C82.7114 31.2207 82.5871 30.8461 82.4627 30.4714ZM80.8458 25.7259L79.7264 26.2254C79.8507 26.6001 79.9751 26.9747 80.2239 27.3494L81.3433 26.8498C81.3433 26.7249 81.2189 26.6001 81.2189 26.3503C80.9701 26.2254 80.8458 25.9756 80.8458 25.7259ZM78.607 21.2301L77.4876 21.8545C77.7363 22.2292 77.8607 22.6038 78.1094 22.8536L79.2289 22.2292C78.9801 21.9794 78.8557 21.6047 78.607 21.2301ZM75.8706 17.109L74.8756 17.8583C75.1244 18.2329 75.3731 18.4827 75.6219 18.8573L76.6169 18.108C76.4925 17.8583 76.3682 17.7334 76.1194 17.4836C75.995 17.2338 75.995 17.109 75.8706 17.109ZM72.6368 13.2376L71.7662 14.1118C72.0149 14.3615 72.2637 14.7362 72.6368 14.9859L73.5075 14.1118C73.2587 13.862 73.0099 13.4874 72.6368 13.2376ZM69.0299 9.86575L68.2836 10.8648C68.5323 11.1146 68.9055 11.3643 69.1542 11.6141L70.0249 10.7399C69.6517 10.3653 69.403 10.1155 69.0299 9.86575ZM65.0498 6.86856L64.4279 7.86762C64.801 8.11739 65.0498 8.36716 65.4229 8.49204L66.1692 7.49298C65.2985 6.99344 65.1741 6.86856 65.0498 6.86856ZM60.8209 4.3709L60.3234 5.49485C60.6965 5.61973 61.0696 5.8695 61.4428 5.99438L62.0647 4.87043C61.9403 4.74555 61.6915 4.62067 61.5672 4.62067C61.0697 4.49579 60.9453 4.3709 60.8209 4.3709ZM56.2189 2.37278L55.8458 3.6216C56.2189 3.74649 56.592 3.87137 56.9652 3.99625L57.4627 2.87231C56.9652 2.62254 56.592 2.49766 56.2189 2.37278ZM51.4925 0.999064L51.2438 2.24789C51.6169 2.37278 51.99 2.37278 52.3632 2.49766L52.7363 1.24883C52.3632 1.12395 52.1144 1.12395 51.7413 0.999064C51.6169 0.999064 51.4925 0.999064 51.4925 0.999064ZM46.5174 0.124883L46.393 1.37371C46.7662 1.37371 47.1393 1.4986 47.6368 1.4986L47.7612 0.249766C47.5124 0.249766 47.2637 0.124883 47.0149 0.124883C46.6418 0.249766 46.6418 0.249766 46.5174 0.124883C46.6418 0.249766 46.6418 0.249766 46.5174 0.124883C46.6418 0.249766 46.5174 0.124883 46.5174 0.124883ZM42.0398 0V1.24883C42.2886 1.24883 42.5373 1.24883 42.7861 1.24883V0C42.6617 0 42.5373 0 42.4129 0C42.1642 0 42.1642 0 42.0398 0C42.1642 0 42.1642 0 42.0398 0C42.1642 0 42.1642 0 42.0398 0C42.1642 0 42.1642 0 42.0398 0C42.1642 0 42.1642 0 42.0398 0C42.1642 0 42.1642 0 42.0398 0C42.1642 0 42.1642 0 42.0398 0Z" transform="translate(7.96094 7.61792)" fill="#489BFD"/>
<path d="M33.5821 67.4368C52.129 67.4368 67.1642 52.3405 67.1642 33.7184C67.1642 15.0962 52.129 0 33.5821 0C15.0352 0 0 15.0962 0 33.7184C0 52.3405 15.0352 67.4368 33.5821 67.4368Z" transform="translate(16.293 15.4854)" fill="#00225E"/>
<path d="M20.7711 1.74836L19.6517 0L0 19.8564L7.21393 46.8311L8.83084 45.2076L2.23881 20.3559L18.6567 3.87137L20.7711 1.74836Z" transform="translate(23.8809 22.1042)" fill="#036FF5"/>
<path d="M25.2488 8.74181L31.2189 31.3456L8.70647 25.3512L2.73632 2.74743L25.2488 8.74181ZM26.8657 7.11833L0 0L7.21393 26.9747L34.0796 34.2179L26.8657 7.11833Z" transform="translate(43.5322 22.2292)" fill="#036FF5"/>
<path d="M46.5174 1.12395L44.7761 0L26.2438 18.6076L1.49254 11.9888L0 13.6122L26.8657 20.8554L46.5174 1.12395Z" transform="translate(31.0947 55.3232)" fill="#036FF5"/>
<path fill-rule="evenodd" clip-rule="evenodd" d="M11.6915 6.99344C11.6915 6.74368 11.6915 6.36903 11.4428 6.24415C11.3184 6.11926 11.0696 5.86949 10.6965 5.74461C11.194 5.74461 11.6915 5.74461 12.0647 5.61973C12.4378 5.49485 12.8109 5.36997 13.1841 5.24508C13.5572 5.1202 13.806 4.87043 14.0547 4.62067C14.4279 4.24602 14.5522 3.99626 14.5522 3.62161C14.5522 3.24696 14.4279 2.99719 14.0547 2.74743C13.9303 2.62254 13.806 2.49766 13.5572 2.49766L14.801 1.24883L13.1841 0.874181L12.0647 1.99812L11.0696 1.74836L12.1891 0.624415L10.5721 0L9.45273 1.12395L6.96517 0.499534L5.97015 1.4986L6.34328 1.62348C6.59204 1.74836 6.71642 1.74836 6.8408 1.87324C6.8408 1.87324 6.96517 1.99812 6.8408 1.99812C6.8408 2.12301 6.71642 2.24789 6.46766 2.37278L2.73632 6.24415C2.48756 6.49391 2.36318 6.61879 2.23881 6.61879C2.11443 6.61879 1.99005 6.74368 1.86567 6.74368C1.74129 6.74368 1.61691 6.74368 1.36816 6.61879L0.995024 6.49391L0 7.49297L2.48756 8.11739L1.36816 9.24134L2.98507 9.61598L4.10448 8.49204L5.0995 8.7418L3.9801 9.99063L5.59701 10.3653L6.8408 9.11645C7.08955 9.11645 7.46269 9.11645 7.71144 9.11645C8.45771 9.11645 9.0796 8.99157 9.70149 8.7418C10.3234 8.49204 10.8209 8.24227 11.194 7.86762C11.4428 7.61786 11.6915 7.36809 11.6915 6.99344ZM10.4478 2.87231C11.0696 2.99719 11.4428 3.12207 11.6915 3.24695C11.8159 3.37184 11.9403 3.49672 11.9403 3.62161C11.9403 3.74649 11.8159 3.99625 11.6915 4.12114C11.5672 4.24602 11.3184 4.49578 11.0696 4.49578C10.8209 4.62067 10.4478 4.62067 10.199 4.62067C9.82587 4.62067 9.45273 4.49578 8.83084 4.3709L7.83582 4.12114L9.57712 2.37278L10.4478 2.87231ZM7.9602 7.61786C7.58706 7.74274 7.21393 7.74274 6.96517 7.74274C6.59204 7.74274 6.34328 7.61786 5.84577 7.61786L5.22388 7.49297C4.97513 7.49297 4.85074 7.36809 4.85074 7.36809V7.24321C4.85074 7.24321 4.97513 7.11833 5.22388 6.86856L6.71641 5.36996L7.9602 5.74461C8.45771 5.86949 8.83084 5.99438 9.0796 6.11926C9.32836 6.24415 9.32836 6.36903 9.32836 6.61879C9.32836 6.74368 9.20398 6.99344 8.95522 7.24321C8.70647 7.36809 8.33333 7.49297 7.9602 7.61786Z" transform="translate(46.2686 57.446)" fill="white"/>
<path d="M8.16628 12.9355C7.29563 12.6857 6.42498 12.3111 5.55434 11.8116C3.81304 10.8125 2.3205 9.18902 1.32548 7.56554C0.827966 6.69136 0.454834 5.81718 0.206078 4.943C-0.042678 4.06882 -0.0426809 3.31952 0.0816972 2.57023C0.454832 0.447216 2.32051 -0.426966 4.93245 0.197449C5.80309 0.447215 6.67374 0.821865 7.54438 1.3214C10.1563 2.94487 12.2708 5.6923 13.017 8.18996C13.2658 9.06414 13.2658 9.81343 13.1414 10.5627C12.8926 11.9364 12.022 12.8106 10.6538 13.0604C9.78319 13.3102 9.03692 13.1853 8.16628 12.9355ZM5.1812 1.69604C3.81304 1.3214 2.81802 1.57116 2.07175 2.19558C1.44986 2.81999 1.2011 3.94394 1.57424 5.31765C1.94737 6.69136 2.81802 8.06507 3.93742 9.18902C5.05682 10.313 6.54936 11.1871 7.79314 11.5618C9.1613 11.9364 10.1563 11.6867 10.9026 11.0623C11.5245 10.4378 11.7732 9.3139 11.4001 7.94019C11.027 6.56648 10.1563 5.19277 9.03692 4.06882C7.79314 2.94487 6.42498 2.07069 5.1812 1.69604Z" transform="translate(54.1475 32.6467)" fill="white"/>
<path d="M3.10945 5.74461L5.84577 6.49391L6.21891 7.86762L4.47761 7.49298C4.60199 7.86762 4.72637 8.24228 4.85075 8.61692L3.48259 8.24227L3.23383 7.11833L1.49254 6.61879C1.36816 6.11926 1.24378 5.74462 1.1194 5.24508C1.1194 4.99532 1.24378 4.87043 1.36816 4.74555C1.7413 4.24602 2.11443 3.74649 2.48756 3.24696C2.61194 3.12207 2.73632 2.87231 2.98508 2.74743L0.373133 1.99813L0 0.624415L1.61691 0.999062L1.24378 0L2.61194 0.374648L2.8607 1.4986L4.60199 1.99813C4.72637 2.49766 4.85075 2.87231 4.97512 3.37184C4.97512 3.62161 4.85075 3.74649 4.72637 3.87137C4.35323 4.3709 3.9801 4.87043 3.60697 5.36996C3.35821 5.49485 3.23383 5.61973 3.10945 5.74461Z" transform="translate(57.5869 34.9673)" fill="white"/>
<path d="M6.71642 8.86669L3.73134 10.3653L1.61692 2.49766L0 3.24696L2.36318 11.8639C2.73632 13.1127 3.60697 13.6122 4.60199 13.1127L7.46269 11.6141C8.33334 11.2395 8.95522 9.61599 8.58209 8.49204L6.34328 0L4.72637 0.874179L6.71642 8.86669Z" transform="translate(32.8359 38.8384)" fill="#036FF5"/>
<path d="M1.24378 5.61973L2.8607 4.62067L1.61691 0L0 0.999062L1.24378 5.61973Z" transform="translate(34.9512 38.9634)" fill="#036FF5"/>
<path d="M1.9941 0H0V28.1666H1.9941V0Z" transform="translate(50.748 47.739) scale(0.997963 1.00201) rotate(45)" fill="#036FF5"/>
<path d="M3.86355 0H0V3.86356H3.86355V0Z" transform="translate(83.3926 40.208) scale(0.997963 1.00201) rotate(45)" fill="white"/>
<path d="M3.49663 0H0V3.48268H3.49663V0Z" transform="matrix(0.0789731 0.996925 -0.996875 0.0796114 52.0879 78.7048)" fill="#036FF5"/>
<path d="M3.49594 0H0V3.48337H3.49594V0Z" transform="matrix(-0.2349 0.972018 -0.97158 -0.236704 20.1699 53.3394)" fill="white"/>
<path d="M1.99207 0H0V1.99611H1.99207V0Z" transform="matrix(0.865121 0.50152 -0.498482 0.866875 41.0361 16.8335)" fill="white"/>
</svg>
