<svg width="100" height="100" viewBox="0 0 100 100" fill="none" xmlns="http://www.w3.org/2000/svg">
<path d="M49.3151 11.5672C44.0847 13.3085 38.6052 14.3035 33.1258 14.3035C24.533 14.3035 15.9402 12.0647 8.46824 7.83581C5.47945 6.09452 2.61519 4.10448 0 1.86567L1.61893 0C4.10959 2.23881 6.84931 4.10448 9.71357 5.72139C16.812 9.70149 24.9066 11.8159 33.1258 11.8159C38.3562 11.8159 43.5865 10.9453 48.5679 9.20398L49.3151 11.5672Z" transform="translate(16.9355 85.6963)" fill="#003C84"/>
<path d="M7.22291 1.86567C5.35492 3.35821 3.36239 4.72637 1.24533 5.97015L0 3.85573C1.99253 2.73633 3.86052 1.36816 5.72852 0L7.22291 1.86567Z" transform="translate(73.7236 87.3135)" fill="#003C84"/>
<path d="M100 50C100 58.7065 97.7584 67.2886 93.3997 74.8756L91.2827 73.6318C95.3923 66.5423 97.5093 58.3333 97.5093 50C97.5093 23.7562 76.2142 2.48756 50.0623 2.48756C23.9103 2.48756 2.49066 23.7562 2.49066 50C2.49066 55.7214 3.48692 61.4428 5.47945 66.791C6.47572 69.403 7.72105 72.0149 9.21544 74.5025L7.09838 75.7463C5.47945 73.1343 4.23412 70.398 3.11332 67.6617C1.1208 61.9403 0 56.0945 0 50C0 22.3881 22.4159 0 50.0623 0C77.5841 0 100 22.3881 100 50Z" fill="#003C84"/>
<path d="M49.8132 49.7512H47.3225C47.3225 23.6318 26.0274 2.48756 0 2.48756V0C27.5218 0 49.8132 22.3881 49.8132 49.7512Z" transform="translate(50.1865)" fill="#036FF5"/>
<path d="M42.0922 0C41.9676 0 41.9676 0 42.0922 0C41.9676 0 41.9676 0 42.0922 0C41.9676 0 41.9676 0 42.0922 0C41.9676 0 41.9676 0 42.0922 0C41.9676 0 41.9676 0 42.0922 0C41.9676 0 41.9676 0 42.0922 0C41.9676 0 41.9676 0 42.0922 0C41.9676 0 41.9676 0 42.0922 0C41.9676 0 41.9676 0 42.0922 0C41.9676 0 41.9676 0 42.0922 0C41.9676 0 41.9676 0 42.0922 0C41.9676 0 41.9676 0 41.9676 0C41.9676 0 41.9676 0 41.8431 0H41.7186C41.594 0 41.4695 0 41.345 0V1.24378C41.7186 1.24378 42.0921 1.24378 42.5903 1.24378V0H42.0922ZM37.1108 0.373134C36.7372 0.373134 36.3636 0.497512 35.8655 0.497512L35.99 1.74129C36.3636 1.74129 36.7372 1.61691 37.2354 1.61691L37.1108 0.373134ZM32.1295 1.24378C32.005 1.24378 31.8804 1.24378 31.7559 1.36816C31.6314 1.36816 31.5068 1.49254 31.3823 1.49254L31.7559 2.73632C32.1295 2.61194 32.5031 2.48756 32.8767 2.48756L32.1295 1.24378ZM27.3973 2.61194C27.2727 2.73632 27.0237 2.73632 26.8991 2.8607C26.7746 2.98507 26.5255 2.98507 26.401 3.10945L26.8991 4.22885C27.2727 4.10448 27.6463 3.9801 28.0199 3.73134L27.3973 2.61194ZM22.9141 4.60199C22.7895 4.60199 22.7895 4.72637 22.665 4.72637C22.665 4.72637 22.665 4.72637 22.5405 4.72637C22.5405 4.72637 22.5405 4.72637 22.4159 4.72637C22.4159 4.72637 22.4159 4.72637 22.2914 4.72637C22.2914 4.72637 22.2914 4.72637 22.1669 4.72637C22.1669 4.72637 22.1669 4.72637 22.0423 4.72637C22.0423 4.72637 22.0423 4.72637 21.9178 4.72637C21.7933 4.72637 21.7933 4.85075 21.6687 4.85075C21.6687 4.85075 21.6687 4.85075 21.5442 4.85075L22.1669 5.97015C22.5405 5.72139 22.9141 5.59701 23.2877 5.34826L22.9141 4.60199ZM18.5554 7.21393C18.1818 7.46269 17.8082 7.71144 17.5592 7.9602L18.3064 8.95522C18.68 8.70647 18.929 8.45771 19.3026 8.20895L18.5554 7.21393ZM14.5704 10.199C14.5704 10.3234 14.5704 10.3234 14.5704 10.199C14.5704 10.3234 14.5704 10.3234 14.5704 10.199C14.4458 10.3234 14.4458 10.3234 14.5704 10.199C14.4458 10.3234 14.4458 10.3234 14.5704 10.199C14.4458 10.3234 14.4458 10.3234 14.4458 10.3234C14.1968 10.5721 13.9477 10.8209 13.6986 11.0696L14.5704 11.9403C14.8194 11.6915 15.193 11.4428 15.4421 11.194L14.5704 10.199ZM11.0834 13.6816C10.8344 13.9303 10.7098 14.0547 10.4608 14.3035C10.3362 14.4279 10.3362 14.4279 10.2117 14.5522L11.208 15.4229C11.457 15.1741 11.7061 14.801 11.9552 14.5522L11.0834 13.6816ZM7.84558 17.5373C7.72105 17.6617 7.59651 17.7861 7.59651 17.9104C7.47198 18.0348 7.47198 18.1592 7.34745 18.1592L8.34371 18.9055C8.59278 18.5323 8.84184 18.2836 9.09091 17.9104L7.84558 17.5373ZM5.23039 21.6418C5.23039 21.7662 5.23039 21.7662 5.23039 21.6418C5.10585 21.7662 5.10585 21.7662 5.23039 21.6418C5.10585 21.7662 5.10585 21.7662 5.23039 21.6418C5.10585 21.7662 5.10585 21.7662 5.23039 21.6418C5.10585 21.7662 5.10585 21.7662 5.23039 21.6418C5.10585 21.7662 5.10585 21.7662 5.23039 21.6418C5.10585 21.7662 5.10585 21.7662 5.23039 21.6418C5.10585 21.7662 5.10585 21.7662 5.10585 21.7662C5.10585 21.8905 4.98132 21.8905 4.98132 22.0149C4.85679 22.1393 4.85679 22.3881 4.73225 22.5124L5.85305 23.1343C5.97758 22.7612 6.22665 22.3881 6.47572 22.0149L5.23039 21.6418ZM2.98879 26.1194C2.98879 26.2438 2.86426 26.3682 2.86426 26.6169C2.73973 26.8657 2.73973 26.99 2.61519 27.2388L3.73599 27.7363C3.86052 27.3632 3.98506 26.99 4.23412 26.6169L2.98879 26.1194ZM1.4944 30.8458C1.36986 31.2189 1.24533 31.592 1.1208 32.0895L2.36613 32.3383C2.49066 31.9652 2.61519 31.592 2.61519 31.2189L1.4944 30.8458ZM0.373599 35.6965C0.373599 35.9453 0.249066 36.3184 0.249066 36.5672C0.249066 36.6915 0.249066 36.6915 0.249066 36.8159L1.4944 36.9403C1.4944 36.5672 1.61893 36.194 1.61893 35.6965H0.373599ZM0 40.6716C0 41.0448 0 41.4179 0 41.791H1.24533C1.24533 41.4179 1.24533 41.0448 1.24533 40.5473L0 40.6716ZM1.24533 45.5224L0 45.6468C0 45.6468 0 45.6468 0 45.7711C0 45.7711 0 45.7711 0 45.8955C0 46.0199 0 46.1443 0 46.393L1.24533 46.2687C1.36986 46.393 1.36986 46.0199 1.24533 45.5224ZM1.99253 50.3731L0.747198 50.6219C0.871731 50.995 0.871731 51.2438 0.996264 51.6169L2.24159 51.3682C2.11706 51.1194 2.11706 50.7463 1.99253 50.3731ZM3.23786 54.9751L1.99253 55.3483C2.11706 55.597 2.11706 55.8458 2.24159 55.9701C2.24159 56.0945 2.24159 56.0945 2.36613 56.2189L3.48692 55.8458C3.48692 55.7214 3.36239 55.3483 3.23786 54.9751ZM4.98132 59.4527L3.86052 59.9502C3.86052 59.9502 3.86052 59.9502 3.86052 60.0746C3.86052 60.199 3.98506 60.3234 3.98506 60.4478L5.10585 59.8259C5.35492 60.199 5.23039 59.8259 4.98132 59.4527ZM7.34745 63.6816L6.35118 64.3035C6.35118 64.3035 6.35118 64.3035 6.35118 64.4279C6.47572 64.6766 6.72478 64.9254 6.84931 65.1741L7.84558 64.4279C7.72105 64.4279 7.59651 64.0547 7.34745 63.6816ZM10.0872 67.6617L9.09091 68.408C9.21544 68.5323 9.21544 68.5323 9.33997 68.6567C9.46451 68.7811 9.58904 69.0298 9.83811 69.1542L10.8344 68.408C10.5853 68.2836 10.3362 67.9104 10.0872 67.6617ZM13.325 71.2686L12.4533 72.1393C12.7024 72.3881 12.8269 72.5124 13.076 72.7612L13.2005 72.8856L14.0722 72.0149C13.9477 71.7662 13.6986 71.5174 13.325 71.2686ZM17.061 74.3781L16.3138 75.3731L16.4384 75.4975C16.6874 75.7463 16.9365 75.8706 17.1856 76.1194L17.9328 75.1244C17.6837 74.8756 17.3101 74.6269 17.061 74.3781ZM21.0461 77.1144L20.4234 78.2338L20.5479 78.3582C20.797 78.4826 21.0461 78.7313 21.2951 78.8557L21.9178 77.7363C21.6687 77.4876 21.2951 77.3632 21.0461 77.1144ZM25.2802 79.3532L24.7821 80.4726C24.7821 80.4726 24.9066 80.4726 24.9066 80.597C24.9066 80.597 24.9066 80.597 25.0311 80.597C25.0311 80.597 25.0311 80.597 25.1557 80.597C25.4047 80.7214 25.5293 80.7214 25.7783 80.8458L26.2765 79.7264C26.0274 79.7264 25.6538 79.602 25.2802 79.3532ZM29.7634 81.0945L29.3898 82.3383H29.5143C29.5143 82.3383 29.5143 82.3383 29.6389 82.3383C29.8879 82.3383 30.0125 82.4627 30.2615 82.4627L30.6351 81.2189C30.5106 81.3433 30.137 81.2189 29.7634 81.0945ZM34.4956 82.2139L34.2466 83.4577C34.3711 83.4577 34.4956 83.4577 34.6202 83.4577C34.6202 83.4577 34.6202 83.4577 34.7447 83.4577C34.8692 83.4577 35.1183 83.4577 35.2428 83.5821L35.4919 82.3383C35.2428 82.4627 34.8692 82.3383 34.4956 82.2139ZM39.2279 82.8358L39.1034 84.0796C39.2279 84.0796 39.3524 84.0796 39.477 84.0796C39.726 84.0796 39.9751 84.0796 40.3487 84.0796V82.8358C40.0996 82.9602 39.726 82.8358 39.2279 82.8358ZM45.33 82.8358C44.9564 82.8358 44.5828 82.8358 44.0847 82.9602V84.204C44.4583 84.204 44.8319 84.204 45.2055 84.0796L45.33 82.8358ZM50.0623 82.2139C49.6887 82.3383 49.3151 82.3383 48.8169 82.4627L49.066 83.7065C49.4396 83.5821 49.8132 83.5821 50.3113 83.4577L50.0623 82.2139ZM54.7945 80.9701C54.4209 81.0945 54.0473 81.2189 53.6737 81.3433L54.0473 82.5871C54.1719 82.5871 54.4209 82.4627 54.5455 82.4627C54.7945 82.4627 54.9191 82.3383 55.1681 82.2139L54.7945 80.9701ZM59.2777 79.2289C58.9041 79.3532 58.5305 79.602 58.1569 79.7264L58.655 80.8458C58.7796 80.8458 58.7796 80.7214 58.9041 80.7214C59.1532 80.597 59.2777 80.4726 59.5268 80.4726L59.2777 79.2289ZM63.5118 76.8657C63.1382 77.1144 62.7646 77.2388 62.5156 77.4876L63.1382 78.607C63.2628 78.4826 63.3873 78.4826 63.5118 78.3582H63.6364L63.5118 76.8657ZM67.4969 74.1293C67.1233 74.3781 66.8742 74.6269 66.5006 74.8756L67.2478 75.8706C67.3724 75.7463 67.4969 75.7463 67.6214 75.6219C67.7459 75.4975 67.7459 75.4975 67.8705 75.3731L67.4969 74.1293ZM71.1083 70.8955C70.8593 71.1443 70.4857 71.5174 70.2366 71.7662L71.1083 72.6368V70.8955ZM74.2217 67.2886C73.9726 67.6617 73.7235 67.9104 73.4745 68.2836L74.4707 69.0298C74.5953 68.9055 74.7198 68.6567 74.9689 68.5323C75.0934 68.408 75.0934 68.2836 75.2179 68.1592L74.2217 67.2886ZM76.9614 63.3085C76.7123 63.6816 76.5878 64.0547 76.3387 64.3035L77.335 64.9254C77.335 64.801 77.4595 64.801 77.4595 64.6766C77.5841 64.4279 77.7086 64.1791 77.9577 63.9303L76.9614 63.3085ZM79.3275 59.0796C79.203 59.4527 78.9539 59.8259 78.8294 60.199L79.9502 60.6965C80.0747 60.3234 80.3238 59.9502 80.4483 59.5771L79.3275 59.0796ZM81.071 54.602C80.9464 54.9751 80.8219 55.3483 80.6974 55.7214L81.8182 56.0945C81.8182 55.9701 81.9427 55.8458 81.9427 55.597C81.9427 55.4726 82.0672 55.3483 82.0672 55.2239L81.071 54.602ZM82.1918 49.8756C82.0672 50.2488 82.0672 50.6219 81.9427 50.995L83.188 51.2438C83.188 51.1194 83.3126 50.995 83.3126 50.7463C83.3126 50.6219 83.3126 50.4975 83.4371 50.3731L82.1918 49.8756ZM82.8144 45.0249C82.8144 45.398 82.6899 45.7711 82.6899 46.2687L83.9352 46.393C83.9352 46.0199 84.0598 45.5224 84.0598 45.1493L82.8144 45.0249ZM84.1843 40.1741H82.939C82.939 40.5473 82.939 40.9204 82.939 41.4179H84.1843C84.1843 41.1691 84.1843 40.9204 84.1843 40.5473C84.1843 40.2985 84.1843 40.2985 84.1843 40.1741C84.1843 40.2985 84.1843 40.2985 84.1843 40.1741C84.1843 40.2985 84.1843 40.2985 84.1843 40.1741C84.1843 40.2985 84.1843 40.2985 84.1843 40.1741ZM83.6862 35.199L82.4408 35.4478C82.5654 35.8209 82.5654 36.194 82.5654 36.6915L83.8107 36.5672C83.8107 36.0696 83.6862 35.6965 83.6862 35.199C83.6862 35.3234 83.6862 35.3234 83.6862 35.199C83.6862 35.3234 83.6862 35.3234 83.6862 35.199C83.6862 35.3234 83.6862 35.3234 83.6862 35.199C83.6862 35.3234 83.6862 35.3234 83.6862 35.199C83.6862 35.3234 83.6862 35.3234 83.6862 35.199C83.6862 35.3234 83.6862 35.3234 83.6862 35.199C83.6862 35.3234 83.6862 35.3234 83.6862 35.199C83.6862 35.3234 83.6862 35.3234 83.6862 35.199C83.6862 35.3234 83.6862 35.3234 83.6862 35.199C83.6862 35.3234 83.6862 35.3234 83.6862 35.199C83.6862 35.3234 83.6862 35.3234 83.6862 35.199ZM82.5654 30.3483L81.32 30.7214C81.4446 31.0945 81.5691 31.4677 81.6936 31.8408L82.939 31.592C82.8144 31.2189 82.6899 30.8458 82.5654 30.3483ZM80.8219 25.7463L79.7011 26.2438C79.8257 26.6169 79.9502 26.99 80.1992 27.3632L81.32 26.8657C81.32 26.7413 81.1955 26.6169 81.1955 26.3682C81.071 26.1194 80.9464 25.995 80.8219 25.7463ZM78.7048 21.2687L77.5841 21.8905C77.8331 22.2637 77.9576 22.6368 78.2067 22.8856L79.3275 22.2637C79.0785 22.0149 78.8294 21.6418 78.7048 21.2687ZM75.9651 17.0398L74.9689 17.7861C75.2179 18.1592 75.467 18.408 75.7161 18.7811L76.7123 18.0348C76.5878 17.7861 76.4633 17.6617 76.2142 17.4129C76.0897 17.2886 75.9651 17.1642 75.9651 17.0398ZM72.7273 13.3085L71.8555 14.1791C72.1046 14.4279 72.3537 14.801 72.7273 15.0497L73.599 14.1791C73.3499 13.9303 72.9763 13.5572 72.7273 13.3085ZM69.1158 9.82587L68.3686 10.8209C68.6177 11.0697 68.9913 11.3184 69.2403 11.5672L70.1121 10.6965C69.7385 10.3234 69.3649 10.0746 69.1158 9.82587ZM65.1308 6.96517L64.5081 7.9602C64.8817 8.20895 65.1308 8.45771 65.5044 8.58209L66.2515 7.58706C65.3798 7.08955 65.2553 6.96517 65.1308 6.96517ZM60.7721 4.47761L60.274 5.59701C60.6476 5.72139 61.0212 5.97015 61.3948 6.09453L62.0174 4.97512C61.8929 4.85075 61.6438 4.72637 61.5193 4.72637C61.0212 4.60199 60.8966 4.47761 60.7721 4.47761C60.8966 4.47761 60.8966 4.47761 60.7721 4.47761C60.8966 4.47761 60.8966 4.47761 60.7721 4.47761ZM56.1644 2.48756L55.7908 3.60696C56.1644 3.73134 56.538 3.85572 56.9116 3.9801L57.4097 2.8607C57.0361 2.73632 56.6625 2.61194 56.1644 2.48756ZM51.4321 1.1194L51.1831 2.36318C51.5567 2.48756 51.9303 2.48756 52.3039 2.61194L52.6775 1.36816C52.3039 1.24378 52.0548 1.24378 51.6812 1.1194C51.5567 1.1194 51.5567 1.1194 51.4321 1.1194C51.5567 1.1194 51.5567 1.1194 51.4321 1.1194C51.5567 1.1194 51.5567 1.1194 51.4321 1.1194C51.5567 1.1194 51.5567 1.1194 51.4321 1.1194C51.5567 1.1194 51.5567 1.1194 51.4321 1.1194C51.5567 1.1194 51.4321 1.1194 51.4321 1.1194ZM46.5753 0.248756L46.4508 1.49254C46.8244 1.49254 47.198 1.61691 47.6961 1.61691L47.8207 0.373134C47.5716 0.373134 47.3225 0.248756 47.0735 0.248756C46.6999 0.248756 46.6999 0.248756 46.5753 0.248756C46.6999 0.248756 46.5753 0.248756 46.5753 0.248756ZM42.0922 0V1.24378C42.3412 1.24378 42.5903 1.24378 42.8393 1.24378V0C42.7148 0 42.5903 0 42.4658 0C42.2167 0 42.2167 0 42.0922 0C42.2167 0 42.2167 0 42.0922 0C42.2167 0 42.0922 0 42.0922 0Z" transform="translate(7.9707 7.83594)" fill="#489BFD"/>
<path d="M33.6239 67.1642C52.1939 67.1642 67.2478 52.129 67.2478 33.5821C67.2478 15.0352 52.1939 0 33.6239 0C15.0539 0 0 15.0352 0 33.5821C0 52.129 15.0539 67.1642 33.6239 67.1642Z" transform="translate(16.1895 15.6719)" fill="#00225E"/>
<path d="M59.7758 2.48756V42.2886H2.49066V2.48756H59.7758ZM62.2665 0H0V44.7761H62.2665V0Z" transform="translate(18.6797 26.8657)" fill="#036FF5"/>
<path d="M49.8132 0H0V2.48756H49.8132V0Z" transform="translate(23.9102 21.8906)" fill="white"/>
<path d="M49.8132 0H0V2.48756H49.8132V0Z" transform="translate(23.9102 74.1294)" fill="white"/>
<path d="M4.98132 2.48756V7.46269H2.49066V2.48756H4.98132ZM7.47198 0H0V9.95025H7.47198V0Z" transform="translate(24.6572 39.5522)" fill="#036FF5"/>
<path d="M2.49066 0H0V6.46766H2.49066V0Z" transform="translate(27.1484 34.3284)" fill="#036FF5"/>
<path d="M2.49066 0H0V6.46766H2.49066V0Z" transform="translate(27.1484 48.01)" fill="#036FF5"/>
<path d="M4.98132 2.48756V4.10448H2.49066V2.48756H4.98132ZM7.47198 0H0V6.59204H7.47198V0Z" transform="translate(36.1143 49.1294)" fill="white"/>
<path d="M2.49066 0H0V4.22886H2.49066V0Z" transform="translate(38.6055 46.1443)" fill="white"/>
<path d="M2.49066 0H0V9.20398H2.49066V0Z" transform="translate(38.6055 54.7263)" fill="white"/>
<path d="M4.98132 2.48756V15.6716H2.49066V2.48756H4.98132ZM7.47198 0H0V18.1592H7.47198V0Z" transform="translate(47.0732 38.1841)" fill="#036FF5"/>
<path d="M2.49066 0H0V7.58706H2.49066V0Z" transform="translate(49.5635 31.9651)" fill="#036FF5"/>
<path d="M2.49066 0H0V9.45273H2.49066V0Z" transform="translate(49.5635 53.3582)" fill="#036FF5"/>
<path d="M4.98132 2.48756V7.46269H2.49066V2.48756H4.98132ZM7.47198 0H0V9.95025H7.47198V0Z" transform="translate(57.6582 51.3682)" fill="white"/>
<path d="M2.49066 0H0V6.46766H2.49066V0Z" transform="translate(60.1494 46.1443)" fill="white"/>
<path d="M2.49066 0H0V6.46766H2.49066V0Z" transform="translate(60.1494 59.8259)" fill="white"/>
<path d="M4.98132 2.48756V9.0796H2.49066V2.48756H4.98132ZM7.47198 0H0V11.5672H7.47198V0Z" transform="translate(67.6211 41.9153)" fill="white"/>
<path d="M2.49066 0H0V5.72139H2.49066V0Z" transform="translate(70.1123 37.562)" fill="white"/>
<path d="M2.49066 0H0V3.60697H2.49066V0Z" transform="translate(70.1123 52.6121)" fill="white"/>
</svg>
