<svg xmlns="http://www.w3.org/2000/svg" width="23" height="23" fill="none"><path fill="#fff" d="M0.43934 0.43934C1.02513 -0.146447 1.97487 -0.146447 2.56066 0.43934L21.6525 19.5312C22.2383 20.117 22.2383 21.0668 21.6525 21.6525C21.0668 22.2383 20.117 22.2383 19.5312 21.6525L0.43934 2.56066C-0.146447 1.97487 -0.146447 1.02513 0.43934 0.43934Z"/><path fill="#fff" d="M0.439566 21.6525C-0.14622 21.0668 -0.14622 20.117 0.439566 19.5312L19.5314 0.43934C20.1172 -0.146446 21.067 -0.146446 21.6528 0.43934C22.2386 1.02513 22.2386 1.97487 21.6528 2.56066L2.56089 21.6525C1.9751 22.2383 1.02535 22.2383 0.439566 21.6525Z"/></svg>