<svg xmlns="http://www.w3.org/2000/svg" width="8" height="15" fill="none"><path fill="#fff" d="M7.69874 0.00292837L5.77991 0C3.62416 0 2.23102 1.3595 2.23102 3.46368V5.06067H0.301718C0.135004 5.06067 -5.16759e-08 5.18923 -5.16759e-08 5.3478V7.66165C-5.16759e-08 7.82022 0.135158 7.94863 0.301718 7.94863H2.23102V13.7872C2.23102 13.9458 2.36603 14.0742 2.53274 14.0742H5.04993C5.21665 14.0742 5.35165 13.9457 5.35165 13.7872V7.94863H7.60746C7.77417 7.94863 7.90918 7.82022 7.90918 7.66165L7.9101 5.3478C7.9101 5.27166 7.87823 5.19874 7.82174 5.14486C7.76524 5.09098 7.68828 5.06067 7.60823 5.06067H5.35165V3.70688C5.35165 3.0562 5.51467 2.72588 6.40582 2.72588L7.69844 2.72544C7.865 2.72544 8 2.59688 8 2.43846V0.289909C8 0.13163 7.86515 0.00322121 7.69874 0.00292837Z"/></svg>