<svg xmlns="http://www.w3.org/2000/svg" width="14" height="15" fill="none"><path fill="#fff" d="M10.1364 0H3.86341C1.73313 0 0 1.7424 0 3.88397V10.1902C0 12.3319 1.73313 14.0742 3.86341 14.0742H10.1364C12.2669 14.0742 14 12.3318 14 10.1902V3.88397C14.0001 1.7424 12.2669 0 10.1364 0ZM12.7579 10.1902C12.7579 11.6433 11.582 12.8255 10.1365 12.8255H3.86341C2.41805 12.8256 1.24215 11.6433 1.24215 10.1902V3.88397C1.24215 2.43095 2.41805 1.24873 3.86341 1.24873H10.1364C11.5819 1.24873 12.7579 2.43095 12.7579 3.88397V10.1902H12.7579Z"/><path fill="#fff" d="M3.60745 1.01622e-07C1.61827 1.01622e-07 -1.23831e-07 1.62685 -1.23831e-07 3.62657C-1.23831e-07 5.6262 1.61827 7.25297 3.60745 7.25297C5.59662 7.25297 7.21489 5.6262 7.21489 3.62657C7.21489 1.62685 5.59662 1.01622e-07 3.60745 1.01622e-07ZM3.60745 6.00415C2.30327 6.00415 1.24215 4.93757 1.24215 3.62648C1.24215 2.31531 2.30319 1.24865 3.60745 1.24865C4.9117 1.24865 5.97274 2.31531 5.97274 3.62648C5.97274 4.93757 4.91162 6.00415 3.60745 6.00415Z" transform="translate(3.4 3.5)"/><path fill="#fff" d="M0.910909 -4.57299e-08C0.671588 -4.57299e-08 0.436491 0.0974011 0.267476 0.268061C0.0976329 0.437889 -1.97118e-07 0.674315 -1.97118e-07 0.915736C-1.97118e-07 1.15641 0.0977157 1.39275 0.267476 1.56341C0.436408 1.73324 0.671588 1.83147 0.910909 1.83147C1.15106 1.83147 1.38541 1.73324 1.55517 1.56341C1.72493 1.39275 1.82182 1.15633 1.82182 0.915736C1.82182 0.674315 1.72493 0.437889 1.55517 0.268061C1.38624 0.0974011 1.15106 -4.57299e-08 0.910909 -4.57299e-08Z" transform="translate(9.8 2.4)"/></svg>