<svg xmlns="http://www.w3.org/2000/svg" width="124" height="116" fill="none"><g filter="url(#filter0_d)"><path fill="#147DFF" d="M61.5948 3.14086L59.8811 1.66859C57.0366 -0.775874 52.762 -0.503397 50.2506 2.28153L21.5828 34.0685L12.9293 26.6155C10.0878 24.1683 5.81256 24.4353 3.29815 27.2172L1.78295 28.8939C0.554194 30.2527 -0.0838048 32.0452 0.00884784 33.8762C0.102414 35.7062 0.918802 37.4242 2.27975 38.6524L18.142 53.1781C19.5154 54.4678 21.3559 55.1404 23.2371 55.0406C25.1184 54.941 26.8772 54.0767 28.1061 52.6487L62.3282 12.885C63.5238 11.4958 64.1182 9.68866 63.9804 7.86144C63.8428 6.03292 62.9849 4.33516 61.5948 3.14086Z" transform="translate(30 10)"/></g><defs><filter id="filter0_d" width="124" height="115" x="0" y="0" color-interpolation-filters="sRGB" filterUnits="userSpaceOnUse"><feFlood flood-opacity="0" result="BackgroundImageFix"/><feColorMatrix in="SourceAlpha" values="0 0 0 0 0 0 0 0 0 0 0 0 0 0 0 0 0 0 255 0"/><feOffset dy="20"/><feGaussianBlur stdDeviation="15"/><feColorMatrix values="0 0 0 0 0.0117647 0 0 0 0 0.435294 0 0 0 0 0.960784 0 0 0 0.3 0"/><feBlend in2="BackgroundImageFix" result="effect1_dropShadow"/><feBlend in="SourceGraphic" in2="effect1_dropShadow" result="shape"/></filter></defs></svg>