<svg xmlns="http://www.w3.org/2000/svg" width="100" height="28" fill="none"><path fill="#fff" d="M4.25417 5.38259V4.35188H1.41806L4.02728 1.25975C4.14072 1.08797 4.25417 0.858923 4.25417 0.687139C4.25417 0.343569 3.97056 -2.73044e-08 3.51678 -2.73044e-08H0.113444V0.973446H2.83611L0.340333 3.95105C0.226889 4.06557 0 4.35188 0 4.69545C0 4.86723 0.0567222 5.43985 0.907556 5.43985H4.25417V5.38259Z" transform="translate(0 1.5)"/><path fill="#fff" d="M1.07772 2.11868C1.07772 1.71785 1.13444 1.4888 1.24789 1.31702C1.41806 1.14523 1.70167 1.08797 1.92856 1.08797H2.5525V-5.46089e-08H1.92856C1.30461 -5.46089e-08 0.850833 0.171785 0.5105 0.458092C0.056722 0.973446 0 1.4888 0 2.00415V5.49711H1.13444V2.11868H1.07772Z" transform="translate(6.2 1.4)"/><path fill="#fff" d="M2.66595 5.61163C3.23317 5.61163 4.084 5.55437 4.65122 4.98175C4.99156 4.63819 5.33189 4.00831 5.33189 2.80582C5.33189 1.83237 5.105 1.08797 4.65122 0.629877C4.084 0.0572615 3.28989 0 2.66595 0C2.042 0 1.24789 0.0572615 0.680667 0.629877C0.226889 1.08797 4.32756e-07 1.83237 4.32756e-07 2.80582C4.32756e-07 4.00831 0.397055 4.69545 0.680667 4.98175C1.24789 5.55437 2.09872 5.61163 2.66595 5.61163ZM1.13445 2.86308C1.13445 2.46225 1.13445 1.77511 1.41806 1.43154C1.70167 1.14523 2.21217 1.08797 2.66595 1.08797C3.11972 1.08797 3.63022 1.14523 3.91383 1.43154C4.19745 1.77511 4.19745 2.46225 4.19745 2.86308C4.19745 3.20665 4.19745 3.83652 3.91383 4.18009C3.63022 4.52366 3.11972 4.52366 2.66595 4.52366C2.21217 4.52366 1.70167 4.4664 1.41806 4.18009C1.13445 3.83652 1.13445 3.26391 1.13445 2.86308Z" transform="translate(10 1.4)"/><path fill="#fff" d="M2.32561 1.54606H1.13444V4.36871e-07H3.38091e-09V5.9552C3.38091e-09 6.12699 0 6.52782 0.340333 6.81412C0.567222 6.98591 0.907556 7.04317 1.30461 7.04317H2.32561C2.89283 7.04317 3.74367 6.92865 4.25417 6.06972C4.5945 5.55437 4.5945 4.92449 4.5945 4.35188C4.5945 3.89378 4.5945 3.09212 4.19745 2.51951C3.68695 1.54606 2.66594 1.54606 2.32561 1.54606ZM1.13444 5.9552V2.63403H2.26889C2.66594 2.63403 3.11972 2.69129 3.28989 3.14939C3.40333 3.43569 3.46006 4.00831 3.46006 4.52366C3.46006 4.86723 3.46006 5.26806 3.28989 5.49711C3.063 5.89794 2.66595 5.9552 2.21217 5.9552H1.13444C1.19117 5.9552 1.13444 5.9552 1.13444 5.9552Z" transform="translate(.2 10)"/><path fill="#fff" d="M1.07772 0H0V7.04317H1.07772V0Z" transform="translate(7.3 10)"/><path fill="#fff" d="M3.80039 0.343569C3.34661 0.0572616 2.77939 -2.18435e-07 2.43906 -2.18435e-07C1.98528 -2.18435e-07 1.24789 0.0572611 0.73739 0.515354C0.0567227 1.08797 -2.16378e-07 2.00415 -2.16378e-07 2.74855C-2.16378e-07 3.55022 0.0567227 4.18009 0.453778 4.75271C0.794112 5.2108 1.30461 5.49711 1.98528 5.49711H4.65122V4.40914H1.98528C1.47478 4.40914 1.24789 4.00831 1.24789 3.77926C1.19117 3.66474 1.19117 3.43569 1.19117 3.20665H3.74367C4.02728 3.20665 4.31089 3.14939 4.48106 2.9776C4.70794 2.80582 4.76467 2.51951 4.76467 2.11868C4.76467 1.37428 4.42433 0.687139 3.80039 0.343569ZM1.30461 1.4888C1.5315 1.08797 1.87183 1.03071 2.38233 1.03071C2.83611 1.03071 3.11972 1.03071 3.40333 1.31702C3.51678 1.43154 3.63022 1.71785 3.63022 2.11868H1.13444C1.13444 1.88963 1.19117 1.66058 1.30461 1.4888Z" transform="translate(10.4 11.6)"/><path fill="#fff" d="M2.60922 4.36871e-07H0.907556C0.794111 4.36871e-07 0.397056 4.43697e-07 0.170167 0.286308C0 0.515354 0 0.7444 0 0.916184V5.43985H1.13444V1.03071H2.66595C2.94956 1.03071 3.11972 1.08797 3.17645 1.20249C3.28989 1.31702 3.28989 1.4888 3.28989 1.88963V5.43985H4.42433V1.77511C4.42433 1.20249 4.25417 0.744401 3.97056 0.400832C3.5735 0.0572624 3.063 4.36871e-07 2.60922 4.36871e-07Z" transform="translate(.3 21.8)"/><path fill="#fff" d="M2.66595 -8.73742e-07C2.042 -8.73742e-07 1.24789 0.057262 0.680667 0.629877C0.226889 1.08797 -1.08189e-07 1.83237 -1.08189e-07 2.80582C-1.08189e-07 4.00831 0.397055 4.69545 0.680667 4.98175C1.24789 5.55437 2.09872 5.61163 2.66595 5.61163C3.23317 5.61163 4.084 5.55437 4.65122 4.98175C4.99156 4.63818 5.33189 4.00831 5.33189 2.80582C5.33189 1.83237 5.105 1.08797 4.65122 0.629877C4.084 0.057262 3.28989 -8.73742e-07 2.66595 -8.73742e-07ZM1.41806 1.43154C1.70167 1.14523 2.21217 1.08797 2.66595 1.08797C3.11972 1.08797 3.63022 1.14523 3.91383 1.43154C4.19745 1.77511 4.19745 2.46225 4.19745 2.86308C4.19745 3.20665 4.19745 3.83652 3.91383 4.18009C3.63022 4.52366 3.11972 4.52366 2.66595 4.52366C2.21217 4.52366 1.70167 4.4664 1.41806 4.18009C1.13444 3.83652 1.13444 3.20665 1.13444 2.80582C1.13444 2.46225 1.13444 1.77511 1.41806 1.43154Z" transform="translate(6.6 21.8)"/><path fill="#fff" d="M1.19117 0H0V1.37428H1.19117V0Z" transform="translate(14 21.8)"/><path fill="#fff" d="M1.19117 0H0V1.37428H1.19117V0Z" transform="translate(14 26)"/><path fill="#fff" d="M8.65513e-07 0V27.142H79.9216V0H8.65513e-07ZM77.4826 24.737H2.38233V2.40498H77.4826V24.737Z" transform="translate(20 .2)"/><path fill="#fff" d="M0.22689 10.5361H7.48733C8.56506 10.5361 8.62178 9.61994 8.62178 9.16185C8.62178 8.64649 8.50833 8.07388 7.43061 7.78757L2.09872 6.24151C1.92856 6.18425 1.13444 5.89794 0.623944 5.32532C0.0567214 4.63819 0 3.66474 0 2.9776C0 2.2332 0.113445 1.31702 0.794112 0.687139C1.41806 0.0572618 2.21217 -2.18435e-07 2.83611 -2.18435e-07H10.3802V1.83237H3.63022C3.28989 1.83237 2.94956 1.83237 2.66595 2.11868C2.38233 2.40499 2.32561 2.86308 2.32561 3.09212C2.32561 3.66474 2.49578 4.18009 3.46006 4.4664L8.39489 5.89794C9.24572 6.18425 9.75622 6.41329 10.1533 6.75686C10.8907 7.444 10.9474 8.58923 10.9474 9.16185C10.9474 9.96351 10.8339 10.8224 10.3234 11.4523C9.6995 12.254 8.96211 12.3112 8.11128 12.3112H0.22689V10.5361Z" transform="translate(28.6 7.6)"/><path fill="#fff" d="M11.0608 12.3685H8.73522V6.92865H2.32561V12.3685H-1.73103e-06V-2.18435e-07H2.32561V5.09628H8.73522V-2.18435e-07H11.0608V12.3685Z" transform="translate(46.3 7.6)"/><path fill="#fff" d="M11.1743 1.31702C12.4789 2.57677 12.5923 4.69545 12.5923 6.35603C12.5923 7.95935 12.4789 10.1353 11.1743 11.395C9.81295 12.7121 7.71422 12.7121 6.29617 12.7121C4.82139 12.7121 2.77939 12.7121 1.41805 11.395C-8.11418e-07 10.0208 -8.65513e-07 7.78757 -8.65513e-07 6.35603C-8.65513e-07 4.69545 0.113444 2.57677 1.41805 1.31702C2.77939 -1.36522e-07 4.82139 2.18435e-07 6.29617 2.18435e-07C7.77094 2.18435e-07 9.86967 -1.36522e-07 11.1743 1.31702ZM3.11972 9.79172C3.85711 10.7079 4.99155 10.8224 6.29617 10.8224C7.54405 10.8224 8.73522 10.7079 9.47261 9.79172C9.86967 9.27637 10.21 8.36018 10.21 6.35603C10.21 4.23735 9.81295 3.37843 9.47261 2.86308C8.73522 1.94689 7.54405 1.83237 6.29617 1.83237C4.99155 1.83237 3.85711 1.94689 3.11972 2.86308C2.66594 3.49295 2.38234 4.4664 2.38234 6.35603C2.38234 8.36018 2.72267 9.27637 3.11972 9.79172Z" transform="translate(63.9 7.4)"/><path fill="#fff" d="M-3.46205e-06 2.40499H2.32561V4.36871e-07H-3.46205e-06V2.40499Z" transform="translate(85.3 17.5)"/><path fill="#fff" d="M10.3234 2.9776C10.3234 2.40498 10.2667 1.71785 9.86967 1.08797C9.75622 0.916185 9.6995 0.801662 9.58606 0.687138C9.24572 0.343569 8.84867 0.114523 8.28144 0.0572614C8.11128 0.0572614 7.71422 2.18435e-07 7.31717 2.18435e-07H1.73103e-06V1.83237H6.74994C7.09028 1.83237 7.43061 1.83237 7.71422 2.11868C7.99783 2.40498 8.05456 2.86308 8.05456 3.09212C8.05456 3.66474 7.82767 4.12283 6.92011 4.4664C6.40961 4.69545 4.99156 5.2108 4.70795 5.43985C4.31089 5.72615 3.97056 6.06972 3.80039 6.58508C3.63022 7.04317 3.51678 7.444 3.51678 8.24566H5.78567C5.78567 8.24566 5.78567 8.07388 5.78567 7.95935C5.78567 7.84483 5.78567 7.73031 5.84239 7.61578C5.84239 7.50126 5.89911 7.444 5.95584 7.38674C6.01256 7.32948 6.06928 7.27222 6.18272 7.21495C6.29617 7.15769 6.46633 7.10043 6.6365 7.04317C6.6365 7.04317 8.6785 6.24151 9.07556 6.01246C9.30245 5.84068 9.52933 5.61163 9.6995 5.43985C10.2667 4.69545 10.3234 3.722 10.3234 2.9776Z" transform="translate(81.9 7.4)"/></svg>