<svg xmlns="http://www.w3.org/2000/svg" width="16" height="11" fill="none"><path fill="#fff" d="M15.9151 9.07897C15.8958 9.03298 15.8777 8.99484 15.8609 8.96428C15.5833 8.4137 15.0528 7.73789 14.2698 6.93667L14.2533 6.91833L14.245 6.90933L14.2366 6.90011H14.2282C13.8728 6.52702 13.6478 6.27616 13.5535 6.14773C13.3811 5.90307 13.3424 5.65543 13.4367 5.40451C13.5033 5.21493 13.7534 4.81456 14.1864 4.20286C14.4142 3.87868 14.5946 3.61885 14.7279 3.4231C15.6887 2.01635 16.1053 1.11742 15.9775 0.725953L15.9279 0.634472C15.8945 0.579397 15.8084 0.529014 15.6698 0.483065C15.5308 0.437212 15.3531 0.429629 15.1364 0.460187L12.7373 0.478438C12.6985 0.463271 12.643 0.464685 12.5707 0.483065C12.4984 0.501444 12.4623 0.510667 12.4623 0.510667L12.4206 0.533641L12.3874 0.561242C12.3596 0.579494 12.3291 0.611594 12.2957 0.657479C12.2626 0.703203 12.2348 0.756864 12.2126 0.818011C11.9514 1.55805 11.6545 2.2461 11.3212 2.88213C11.1157 3.26138 10.9269 3.59006 10.7546 3.86836C10.5825 4.14656 10.4381 4.35153 10.3215 4.48292C10.2048 4.61444 10.0995 4.7198 10.0049 4.79939C9.91044 4.87902 9.83834 4.91266 9.78842 4.90035C9.73838 4.88805 9.69125 4.87584 9.64664 4.86363C9.56894 4.80855 9.50644 4.73365 9.45932 4.63886C9.41199 4.54407 9.38013 4.42476 9.36347 4.28104C9.3469 4.13721 9.33709 4.0135 9.33429 3.90949C9.33169 3.80561 9.33289 3.65867 9.33852 3.46909C9.3443 3.27941 9.3469 3.15107 9.3469 3.08379C9.3469 2.85134 9.35101 2.59907 9.35927 2.32691C9.36767 2.05475 9.37447 1.83911 9.38016 1.68025C9.38582 1.52123 9.38844 1.35298 9.38844 1.17561C9.38844 0.998242 9.37864 0.859141 9.35927 0.758181C9.34013 0.65735 9.31074 0.559475 9.27202 0.464589C9.23307 0.369798 9.17606 0.296473 9.10125 0.244418C9.02629 0.192428 8.93309 0.15117 8.82219 0.120516C8.52781 0.0471581 8.15296 0.00747478 7.69747 0.00130538C6.66454 -0.0109049 6.00083 0.0625494 5.70648 0.221572C5.58985 0.288761 5.48432 0.380563 5.38996 0.496689C5.28996 0.631291 5.27602 0.704746 5.3482 0.716827C5.68147 0.771806 5.91741 0.903323 6.05626 1.11125L6.1063 1.22143C6.14523 1.30093 6.18409 1.44167 6.22299 1.64346C6.26182 1.84525 6.28689 2.06847 6.29792 2.313C6.32563 2.75954 6.32563 3.14179 6.29792 3.45977C6.27011 3.77788 6.24385 4.02552 6.21878 4.20289C6.19372 4.38026 6.15626 4.52399 6.1063 4.63404C6.05626 4.74413 6.02297 4.81141 6.00628 4.83583C5.98962 4.86025 5.97573 4.87564 5.9647 4.88169C5.89252 4.91215 5.81744 4.92767 5.73974 4.92767C5.66192 4.92767 5.56756 4.8848 5.45651 4.79914C5.34549 4.71347 5.23027 4.5958 5.11084 4.44594C4.99141 4.29604 4.85673 4.08657 4.70673 3.8175C4.55684 3.54842 4.40132 3.23041 4.24026 2.86346L4.107 2.59734C4.0237 2.42614 3.9099 2.17685 3.7655 1.84971C3.62101 1.52245 3.4933 1.20588 3.38228 0.900077C3.3379 0.771645 3.27123 0.673866 3.18238 0.606581L3.14069 0.578979C3.11297 0.554559 3.06847 0.528628 3.00743 0.500994C2.9463 0.473393 2.88252 0.453599 2.81582 0.441421L0.533256 0.459672C0.300008 0.459672 0.141747 0.517864 0.0584143 0.634086L0.0250639 0.689065C0.00840325 0.719687 0 0.768592 0 0.835909C0 0.903194 0.0166606 0.985774 0.050011 1.08355C0.383223 1.94598 0.745584 2.77773 1.13709 3.57891C1.5286 4.3801 1.86882 5.02548 2.15753 5.51447C2.44631 6.00381 2.74066 6.46565 3.04058 6.89975C3.3405 7.33402 3.53902 7.61232 3.63616 7.73458C3.73341 7.85707 3.80979 7.94865 3.86532 8.0098L4.07362 8.22993C4.20691 8.37675 4.40263 8.55257 4.66089 8.75742C4.9192 8.96239 5.20517 9.16418 5.51895 9.36311C5.83279 9.56172 6.19789 9.7238 6.61447 9.84914C7.03098 9.97462 7.43638 10.025 7.83072 10.0007H8.78875C8.98305 9.9822 9.13025 9.91492 9.2303 9.79879L9.26345 9.75281C9.28574 9.71631 9.3066 9.6596 9.32586 9.58328C9.34535 9.50684 9.35504 9.42262 9.35504 9.33101C9.34935 9.06807 9.36752 8.8311 9.40907 8.62012C9.45059 8.4092 9.49792 8.25018 9.55085 8.14308C9.60375 8.03608 9.66345 7.94579 9.72989 7.87259C9.79647 7.79923 9.84391 7.75479 9.87175 7.7395C9.89941 7.72411 9.9215 7.71366 9.93816 7.7074C10.0714 7.65849 10.2283 7.70586 10.409 7.84971C10.5895 7.99344 10.7588 8.17091 10.9172 8.38182C11.0755 8.59293 11.2657 8.82978 11.4878 9.09272C11.71 9.35575 11.9043 9.55128 12.0709 9.6799L12.2374 9.78999C12.3487 9.86344 12.4931 9.93073 12.6708 9.99188C12.8483 10.053 13.0037 10.0683 13.1372 10.0377L15.2697 10.0011C15.4807 10.0011 15.6448 9.96264 15.7612 9.88632C15.8779 9.80988 15.9472 9.72566 15.9695 9.63405C15.9918 9.54234 15.993 9.4383 15.9737 9.32198C15.954 9.20595 15.9345 9.12482 15.9151 9.07897Z"/></svg>