<svg width="100" height="100" viewBox="0 0 100 100" fill="none" xmlns="http://www.w3.org/2000/svg">
<path d="M2.24754 29.1045L0 27.9851C2.3724 23.0099 5.61885 18.5323 9.61448 14.5522C15.7328 8.45771 23.3495 3.9801 31.7153 1.74129C35.0866 0.870646 38.4579 0.248756 41.9541 0L42.079 2.48756C38.8325 2.73632 35.4612 3.23383 32.3396 4.10448C24.4732 6.2189 17.2311 10.4478 11.3626 16.2935C7.61667 20.1492 4.49508 24.3781 2.24754 29.1045Z" transform="translate(4.74414)" fill="#E3F1FF"/>
<path d="M2.49727 7.3383L0 7.08955C0.249727 4.72637 0.74918 2.36318 1.3735 0L3.7459 0.62189C3.24645 2.73632 2.74699 5.0995 2.49727 7.3383Z" transform="translate(0 37.0647)" fill="#E3F1FF"/>
<path d="M48.447 98.383C35.5861 98.383 22.7251 93.5323 12.9858 83.8308C6.74262 77.6119 2.3724 70.0248 0 61.5671L2.3724 60.9452C4.49508 68.9054 8.74044 76.2437 14.609 82.0895C33.3385 100.622 63.5555 100.622 82.1601 82.0895C100.765 63.5572 100.765 33.4577 82.1601 14.9254C78.0396 10.8209 73.2948 7.58706 68.0505 5.22388C65.4284 4.10448 62.6814 3.10945 59.9344 2.36318L60.5587 0C63.5555 0.746268 66.4273 1.74129 69.1743 2.98507C74.6683 5.47263 79.6628 8.95522 84.0331 13.1841C103.512 32.587 103.512 64.3034 83.9082 83.8308C74.1689 93.5323 61.3079 98.383 48.447 98.383Z" transform="translate(1.37305 1.49243)" fill="#E3F1FF"/>
<path d="M33.7131 67.1641C52.3324 67.1641 67.4262 52.1289 67.4262 33.5821C67.4262 15.0352 52.3324 0 33.7131 0C15.0939 0 0 15.0352 0 33.5821C0 52.1289 15.0939 67.1641 33.7131 67.1641Z" transform="translate(16.1074 16.4178)" fill="#E3F1FF"/>
<path d="M35.3363 16.2935C22.6003 16.2935 9.73934 11.4428 0 1.74129L1.74809 0C20.2279 18.4079 50.4448 18.4079 68.9246 0L70.6727 1.74129C60.9333 11.4428 48.0724 16.2935 35.3363 16.2935Z" transform="translate(14.4834 83.7064)" fill="#036FF5"/>
<path d="M42.2038 0C42.2038 0 42.079 0 42.2038 0C42.079 0 42.079 0 42.2038 0C42.079 0 42.079 0 42.2038 0C42.079 0 42.079 0 42.2038 0C42.079 0 42.079 0 42.2038 0C42.079 0 42.079 0 42.2038 0C42.079 0 42.079 0 42.2038 0C42.079 0 42.079 0 42.2038 0C42.079 0 42.079 0 42.079 0C42.079 0 42.079 0 41.9541 0C41.9541 0 41.9541 0 41.8292 0C41.7044 0 41.5795 0 41.4546 0V1.24378C41.8292 1.24378 42.2038 1.24378 42.7033 1.24378V0H42.2038ZM37.2093 0.248756C37.0844 0.248756 36.9596 0.248756 36.9596 0.248756C36.9596 0.248756 36.9596 0.248756 36.8347 0.248756L36.9596 1.49254C37.3342 1.49254 37.7087 1.36816 38.2082 1.36816L37.2093 0.248756ZM32.3396 1.1194C31.965 1.24378 31.5904 1.36816 31.091 1.36816L31.4656 2.61194C31.8402 2.48756 32.2148 2.36318 32.5893 2.36318L32.3396 1.1194ZM27.4699 2.61194C27.2202 2.73632 26.9705 2.73632 26.8456 2.86069C26.7208 2.86069 26.7208 2.86069 26.5959 2.98507L27.0954 4.10448C27.4699 3.9801 27.8445 3.85572 28.2191 3.60696L27.4699 2.61194ZM22.9749 4.60199C22.85 4.60199 22.7251 4.72637 22.6003 4.72637C22.6003 4.72637 22.6003 4.72637 22.4754 4.72637C22.4754 4.72637 22.4754 4.72637 22.3505 4.72637C22.3505 4.72637 22.3505 4.72637 22.2257 4.72637L22.85 5.84577C23.2246 5.59701 23.5992 5.47263 23.9738 5.22388L22.9749 4.60199ZM18.6046 7.08955C18.2301 7.3383 17.8555 7.58706 17.6057 7.83582L18.3549 8.83084C18.7295 8.58208 18.9792 8.33333 19.3538 8.08457L18.6046 7.08955ZM14.7339 10.0746C14.609 10.199 14.609 10.199 14.4842 10.3234L15.3582 11.194C15.6079 10.9453 15.9825 10.6965 16.2322 10.4478L14.7339 10.0746ZM11.1128 13.5572C10.8631 13.806 10.6134 14.1791 10.2388 14.4279L11.2377 15.2985C11.4874 15.0497 11.7372 14.6766 11.9869 14.4279L11.1128 13.5572ZM7.99126 17.4129C7.99126 17.5373 7.86639 17.5373 7.86639 17.6617C7.74153 17.7861 7.74153 17.9104 7.61667 18.0348C7.61667 18.0348 7.61667 18.0348 7.61667 18.1592L8.61557 18.9055C8.8653 18.5323 9.11503 18.2836 9.36475 17.9104L7.99126 17.4129ZM5.24426 21.6418C5.1194 21.8905 4.99454 22.0149 4.99454 22.2637C4.99454 22.2637 4.99454 22.2637 4.99454 22.388C4.86967 22.5124 4.86967 22.6368 4.74481 22.8856L5.86858 23.5074C5.99344 23.1343 6.24317 22.7612 6.4929 22.388L5.24426 21.6418ZM3.12159 26.1194C3.12159 26.2438 2.99672 26.3681 2.99672 26.3681C2.87186 26.6169 2.74699 26.8657 2.74699 27.1144L3.87076 27.6119C3.99563 27.2388 4.12049 26.8657 4.37022 26.4925L3.12159 26.1194ZM1.49836 30.7214C1.3735 31.0945 1.24863 31.4676 1.12377 31.9652L2.3724 32.2139C2.49727 31.8408 2.62213 31.4676 2.62213 31.0945L1.49836 30.7214ZM0.37459 35.6965C0.37459 35.9453 0.249727 36.3184 0.249727 36.5671C0.249727 36.6915 0.249727 36.6915 0.249727 36.8159L1.49836 36.9403C1.49836 36.5671 1.62322 36.194 1.62322 35.6965H0.37459ZM0 40.5472C0 40.9204 0 41.2935 0 41.6666H1.24863C1.24863 41.2935 1.24863 40.9204 1.24863 40.4229L0 40.5472ZM1.3735 45.5224L0.124863 45.6467C0.124863 45.6467 0.124863 45.6467 0.124863 45.7711C0.124863 45.8955 0.124863 46.0199 0.124863 46.1442C0.124863 46.2686 0.124863 46.393 0.124863 46.5174L1.3735 46.393C1.3735 46.2686 1.3735 45.8955 1.3735 45.5224ZM1.99781 50.2487L0.74918 50.4975C0.74918 50.7462 0.874044 50.995 0.874044 51.1194C0.874044 51.1194 0.874044 51.1194 0.874044 51.2437C0.874044 51.3681 0.874044 51.4925 0.998907 51.6169L2.24754 51.3681C2.24754 50.995 2.12268 50.6219 1.99781 50.2487ZM3.24645 54.8507L2.12268 55.2238C2.24754 55.597 2.3724 55.9701 2.49727 56.3432L3.62104 56.0945C3.49617 55.7214 3.37131 55.2238 3.24645 54.8507ZM5.1194 59.3283L3.99563 59.8258C3.99563 59.9502 4.12049 60.0746 4.12049 60.199V60.3233L5.24426 59.7015C5.36913 60.0746 5.24426 59.7015 5.1194 59.3283ZM7.36694 63.5572L6.36803 64.3034C6.4929 64.5522 6.61776 64.6766 6.74262 64.9253L7.74153 64.1791C7.86639 64.3034 7.61667 63.9303 7.36694 63.5572ZM10.2388 67.5373L9.23989 68.2835C9.36475 68.5323 9.48962 68.6567 9.73934 68.781L10.7383 68.0348C10.7383 68.1592 10.4885 67.9104 10.2388 67.5373ZM13.4852 71.1442L12.6112 72.0149L12.7361 72.1393C12.8609 72.2636 12.9858 72.388 13.2355 72.6368L14.1096 71.7661C13.9847 71.6417 13.735 71.393 13.4852 71.1442ZM17.1063 74.2537L16.3571 75.2487C16.482 75.2487 16.482 75.3731 16.6068 75.3731C16.8566 75.4975 17.1063 75.7462 17.356 75.8706L18.1052 74.8756C17.7306 74.7512 17.356 74.5024 17.1063 74.2537ZM21.1019 76.99L20.4776 78.1094C20.4776 78.1094 20.4776 78.1094 20.6025 78.1094C20.7273 78.2338 20.8522 78.2338 20.977 78.3582C20.977 78.3582 21.1019 78.3582 21.1019 78.4825L21.7262 77.3631C21.7262 77.4875 21.4765 77.2388 21.1019 76.99ZM25.3473 79.2288L24.8478 80.4726C24.8478 80.4726 24.9727 80.4726 24.9727 80.597C25.2224 80.7213 25.597 80.8457 25.8467 80.9701L26.3462 79.8507C26.0964 79.6019 25.7219 79.4776 25.3473 79.2288ZM29.8423 80.9701L29.4678 82.2139C29.7175 82.3382 29.9672 82.3382 30.2169 82.4626C30.3418 82.4626 30.4667 82.4626 30.4667 82.587L30.8413 81.3432C30.7164 81.2188 30.3418 81.0945 29.8423 80.9701ZM34.5872 82.2139L34.3374 83.4577C34.4623 83.4577 34.4623 83.4577 34.5872 83.4577C34.5872 83.4577 34.5872 83.4577 34.712 83.4577C34.8369 83.4577 34.8369 83.4577 34.9617 83.4577L35.2115 82.2139C35.3363 82.3382 34.9617 82.2139 34.5872 82.2139ZM39.4568 82.7114L39.332 83.9552C39.4568 83.9552 39.5817 83.9552 39.7066 83.9552H39.8314C39.8314 83.9552 39.8314 83.9552 39.9563 83.9552C40.0811 83.9552 40.206 83.9552 40.3309 83.9552V82.7114C40.206 82.8358 39.8314 82.8358 39.4568 82.7114ZM45.4503 82.7114C45.0757 82.7114 44.7011 82.7114 44.2016 82.8358V84.0795C44.5762 84.0795 45.0757 84.0795 45.4503 83.9552V82.7114ZM50.1951 82.0895C49.8205 82.2139 49.4459 82.2139 48.9464 82.3382L49.1962 83.582C49.321 83.582 49.5708 83.582 49.6956 83.4577C49.9454 83.4577 50.0702 83.3333 50.3199 83.3333L50.1951 82.0895ZM54.9399 80.8457C54.5653 80.9701 54.1907 81.0945 53.8161 81.2188L54.1907 82.4626C54.3156 82.4626 54.4404 82.3382 54.6902 82.3382C54.9399 82.2139 55.1896 82.2139 55.3145 82.0895L54.9399 80.8457ZM59.435 79.1044C59.0604 79.2288 58.6858 79.4776 58.3112 79.6019L58.8107 80.7213C58.9355 80.597 59.1852 80.597 59.3101 80.4726C59.435 80.4726 59.5598 80.3482 59.5598 80.3482L59.435 79.1044ZM63.6803 76.7412C63.3057 76.99 62.9311 77.1144 62.6814 77.3631L63.3057 78.4825C63.4306 78.3582 63.5555 78.3582 63.8052 78.2338C63.8052 78.2338 63.8052 78.2338 63.9301 78.2338C63.9301 78.2338 63.9301 78.2338 64.0549 78.2338C64.0549 78.2338 64.0549 78.2338 64.1798 78.2338C64.1798 78.2338 64.1798 78.2338 64.3046 78.2338H64.4295L63.6803 76.7412ZM67.676 74.0049C67.3014 74.2537 67.0516 74.5024 66.677 74.7512L67.4262 75.7462C67.676 75.4975 68.0505 75.3731 68.3003 75.1243L67.676 74.0049ZM71.297 70.7711C71.0473 71.0199 70.6727 71.393 70.423 71.6417L71.297 72.5124C71.4219 72.388 71.5467 72.388 71.5467 72.2636C71.6716 72.1393 71.9213 71.8905 72.0462 71.7661L71.297 70.7711ZM74.5434 67.1641C74.2937 67.5373 74.044 67.786 73.7943 68.1592L74.7932 68.9054C74.7932 68.7811 74.918 68.7811 74.918 68.6567L74.5434 67.1641ZM77.2904 63.184C77.0407 63.5572 76.9158 63.9303 76.6661 64.1791L77.665 64.801C77.7899 64.6766 77.9147 64.4278 78.0396 64.3034L77.2904 63.184ZM79.538 58.9552C79.4131 59.3283 79.1634 59.7015 79.0385 60.0746L80.1623 60.5721C80.2872 60.199 80.5369 59.8258 80.6617 59.4527L79.538 58.9552ZM81.2861 54.4776C81.1612 54.8507 81.0363 55.2238 80.9115 55.597L82.0352 55.9701C82.1601 55.597 82.285 55.2238 82.4098 54.8507L81.2861 54.4776ZM82.4098 49.7512C82.285 50.1243 82.285 50.4975 82.1601 50.8706L83.4087 51.1194C83.5336 50.7462 83.5336 50.2487 83.6585 49.8756L82.4098 49.7512ZM83.0341 45.0248C83.0341 45.398 82.9093 45.7711 82.9093 46.2686L84.1579 46.393C84.1579 46.2686 84.1579 46.1442 84.1579 46.0199C84.1579 46.0199 84.1579 46.0199 84.1579 45.8955C84.1579 45.8955 84.1579 45.8955 84.1579 45.7711L83.0341 45.0248ZM84.4076 40.0497H83.159C83.159 40.4229 83.159 40.796 83.159 41.2935H84.4076C84.4076 41.0448 84.4076 40.796 84.4076 40.5472C84.4076 40.1741 84.4076 40.1741 84.4076 40.0497C84.4076 40.1741 84.4076 40.1741 84.4076 40.0497C84.4076 40.1741 84.4076 40.1741 84.4076 40.0497C84.4076 40.1741 84.4076 40.1741 84.4076 40.0497C84.4076 40.1741 84.4076 40.1741 84.4076 40.0497C84.4076 40.1741 84.4076 40.1741 84.4076 40.0497C84.4076 40.1741 84.4076 40.1741 84.4076 40.0497C84.4076 40.1741 84.4076 40.1741 84.4076 40.0497C84.4076 40.1741 84.4076 40.1741 84.4076 40.0497C84.4076 40.1741 84.4076 40.1741 84.4076 40.0497C84.4076 40.1741 84.4076 40.1741 84.4076 40.0497C84.4076 40.1741 84.4076 40.1741 84.4076 40.0497C84.4076 40.1741 84.4076 40.0497 84.4076 40.0497ZM83.9082 35.199L82.6596 35.4477C82.7844 35.8209 82.7844 36.194 82.7844 36.6915L84.0331 36.5671C83.9082 35.3234 83.9082 35.199 83.9082 35.199ZM82.7844 30.3482L81.5358 30.7214C81.6607 31.0945 81.7855 31.4676 81.9104 31.8408L83.159 31.592C83.159 31.4676 83.159 31.4676 83.159 31.3433C83.159 31.3433 83.159 31.3433 83.159 31.2189C82.9093 30.597 82.7844 30.4726 82.7844 30.3482ZM81.1612 25.6219L80.0374 26.1194C80.1623 26.4925 80.2872 26.8657 80.5369 27.2388L81.6607 26.7413V26.6169C81.6607 26.4925 81.5358 26.3681 81.5358 26.2438C81.1612 25.7463 81.1612 25.6219 81.1612 25.6219ZM78.9137 21.1443L77.7899 21.7662C78.0396 22.1393 78.1645 22.5124 78.4142 22.7612L79.538 22.1393C79.538 22.0149 79.4131 22.0149 79.4131 21.8905C79.1634 21.7662 79.0385 21.393 78.9137 21.1443ZM76.1667 17.0398L75.1678 17.7861C75.4175 18.1592 75.6672 18.4079 75.9169 18.7811L76.9158 18.0348L76.791 17.9104C76.6661 17.7861 76.5413 17.5373 76.4164 17.4129C76.2915 17.1642 76.2915 17.1642 76.1667 17.0398C76.2915 17.1642 76.2915 17.1642 76.1667 17.0398C76.2915 17.0398 76.1667 17.0398 76.1667 17.0398ZM72.9202 13.1841L72.0462 14.0547C72.2959 14.3035 72.5456 14.6766 72.9202 14.9254L73.7943 14.0547C73.6694 13.9303 73.5445 13.806 73.5445 13.6816C73.0451 13.3084 73.0451 13.1841 72.9202 13.1841ZM69.2992 9.82586L68.55 10.6965C68.7997 10.9453 69.1743 11.194 69.424 11.4428L70.2981 10.5721C69.9235 10.3234 69.6738 10.0746 69.2992 9.82586ZM65.3036 6.84079L64.6792 7.83582C65.0538 8.08457 65.3036 8.33333 65.6781 8.45771L66.4273 7.46268C66.4273 7.46268 66.3025 7.46268 66.3025 7.3383C65.9279 7.21392 65.5533 6.96517 65.3036 6.84079ZM60.9333 4.35323L60.4339 5.47263C60.8085 5.59701 61.1831 5.84577 61.5577 5.97015L62.182 4.85074C62.0571 4.85074 61.9322 4.72637 61.8074 4.72637C61.1831 4.47761 61.0582 4.35323 60.9333 4.35323ZM56.4383 2.36318L56.0637 3.48258C56.4383 3.60696 56.8128 3.73134 57.1874 3.85572L57.6869 2.73632C57.6869 2.73632 57.6869 2.73632 57.562 2.73632C57.0626 2.61194 56.8128 2.48756 56.4383 2.36318ZM51.5686 0.995024L51.3189 2.2388C51.6934 2.36318 52.068 2.36318 52.4426 2.48756L52.8172 1.24378C52.4426 1.24378 52.068 1.1194 51.5686 0.995024ZM46.6989 0.124378L46.574 1.36816C46.9486 1.36816 47.3232 1.49254 47.8227 1.49254L47.9475 0.248756C47.573 0.248756 47.0735 0.248756 46.6989 0.124378ZM42.2038 0V1.24378C42.4536 1.24378 42.7033 1.24378 42.953 1.24378V0C42.8281 0 42.7033 0 42.5784 0C42.3287 0 42.3287 0 42.2038 0C42.3287 0 42.3287 0 42.2038 0C42.3287 0 42.3287 0 42.2038 0C42.3287 0 42.3287 0 42.2038 0C42.3287 0 42.3287 0 42.2038 0Z" transform="translate(7.61621 7.96021)" fill="#489BFD"/>
<path d="M4.74481 2.48756C5.99344 2.48756 6.99235 3.48259 6.99235 4.72637C6.99235 5.97015 5.99344 6.96517 4.74481 6.96517C3.49618 6.96517 2.49727 5.97015 2.49727 4.72637C2.49727 3.48259 3.49618 2.48756 4.74481 2.48756ZM4.74481 0C2.12268 0 0 2.11443 0 4.72637C0 7.3383 2.12268 9.45273 4.74481 9.45273C7.36694 9.45273 9.48962 7.3383 9.48962 4.72637C9.48962 2.11443 7.36694 0 4.74481 0Z" transform="translate(15.4834 28.4824)" fill="#79B5FD"/>
<path d="M4.74481 2.48756C5.99344 2.48756 6.99235 3.48258 6.99235 4.72636C6.99235 5.97014 5.99344 6.96517 4.74481 6.96517C3.49618 6.96517 2.49727 5.97014 2.49727 4.72636C2.49727 3.48258 3.49618 2.48756 4.74481 2.48756ZM4.74481 0C2.12268 0 0 2.11443 0 4.72636C0 7.3383 2.12268 9.45273 4.74481 9.45273C7.36694 9.45273 9.48962 7.3383 9.48962 4.72636C9.48962 2.11443 7.36694 0 4.74481 0Z" transform="translate(27.3457 20.1492)" fill="#79B5FD"/>
<path d="M1.25455 6.97106C0.879959 6.97106 0.505369 6.84668 0.255643 6.47355C-0.118947 5.97604 -0.118949 5.10539 0.505368 4.73226L6.24908 0.254648C6.74854 -0.118486 7.62258 -0.118485 7.99717 0.503405C8.37176 1.00092 8.37176 1.87156 7.74745 2.2447L2.00373 6.72231C1.87887 6.84668 1.50428 6.97106 1.25455 6.97106Z" transform="translate(21.8467 25.1184)" fill="#79B5FD"/>
<path d="M4.12049 5.47263C3.7459 5.47263 3.49617 5.34825 3.24645 5.0995L0.37459 2.11443C-0.124863 1.61691 -0.124863 0.870646 0.37459 0.373134C0.874044 -0.124378 1.62322 -0.124378 2.12268 0.373134L4.99453 3.35821C5.49399 3.85572 5.49399 4.60199 4.99453 5.0995C4.74481 5.34825 4.37022 5.47263 4.12049 5.47263Z" transform="translate(33.5889 26.1194)" fill="#79B5FD"/>
<path d="M4.74481 2.48756C5.99344 2.48756 6.99235 3.48259 6.99235 4.72637C6.99235 5.97015 5.99344 6.96517 4.74481 6.96517C3.49617 6.96517 2.49727 5.97015 2.49727 4.72637C2.49727 3.48259 3.49617 2.48756 4.74481 2.48756ZM4.74481 0C2.12268 0 0 2.11443 0 4.72637C0 7.3383 2.12268 9.45273 4.74481 9.45273C7.36694 9.45273 9.48962 7.3383 9.48962 4.72637C9.48962 2.11443 7.36694 0 4.74481 0Z" transform="translate(74.7939 28.4824)" fill="#79B5FD"/>
<path d="M4.74481 2.48756C5.99344 2.48756 6.99235 3.48258 6.99235 4.72636C6.99235 5.97014 5.99344 6.96517 4.74481 6.96517C3.49617 6.96517 2.49727 5.97014 2.49727 4.72636C2.49727 3.48258 3.49617 2.48756 4.74481 2.48756ZM4.74481 0C2.12268 0 0 2.11443 0 4.72636C0 7.3383 2.12268 9.45273 4.74481 9.45273C7.36694 9.45273 9.48962 7.3383 9.48962 4.72636C9.48962 2.11443 7.36694 0 4.74481 0Z" transform="translate(62.9316 20.1492)" fill="#79B5FD"/>
<path d="M6.96043 6.93337C6.7107 6.93337 6.46097 6.80899 6.21124 6.68462L0.467531 2.20701C-0.0319228 1.83387 -0.156787 0.963226 0.217803 0.465713C0.592393 -0.0317987 1.46644 -0.156178 1.96589 0.216956L7.70961 4.69457C8.20906 5.0677 8.33392 5.93835 7.95933 6.43586C7.70961 6.68461 7.33502 6.93337 6.96043 6.93337Z" transform="translate(69.7061 25.156)" fill="#79B5FD"/>
<path d="M1.24863 5.47263C0.874045 5.47263 0.624317 5.34825 0.37459 5.0995C-0.124863 4.60199 -0.124863 3.85572 0.37459 3.35821L3.24645 0.373134C3.7459 -0.124378 4.49508 -0.124378 4.99454 0.373134C5.49399 0.870646 5.49399 1.61691 4.99454 2.11443L2.12268 5.0995C1.87295 5.34825 1.62322 5.47263 1.24863 5.47263Z" transform="translate(60.8086 26.1194)" fill="#79B5FD"/>
<path d="M4.74481 2.48756C5.99344 2.48756 6.99235 3.48258 6.99235 4.72636C6.99235 5.97014 5.99344 6.96517 4.74481 6.96517C3.49617 6.96517 2.49727 5.97014 2.49727 4.72636C2.49727 3.48258 3.49617 2.48756 4.74481 2.48756ZM4.74481 0C2.12268 0 0 2.11443 0 4.72636C0 7.3383 2.12268 9.45273 4.74481 9.45273C7.36694 9.45273 9.48962 7.3383 9.48962 4.72636C9.48962 2.11443 7.36694 0 4.74481 0Z" transform="translate(74.7939 53.2336)" fill="#79B5FD"/>
<path d="M4.74481 2.48756C5.99344 2.48756 6.99235 3.48258 6.99235 4.72636C6.99235 5.97014 5.99344 6.96517 4.74481 6.96517C3.49617 6.96517 2.49727 5.97014 2.49727 4.72636C2.49727 3.48258 3.49617 2.48756 4.74481 2.48756ZM4.74481 0C2.12268 0 0 2.11443 0 4.72636C0 7.3383 2.12268 9.45273 4.74481 9.45273C7.36694 9.45273 9.48962 7.3383 9.48962 4.72636C9.48962 2.11443 7.36694 0 4.74481 0Z" transform="translate(62.9316 61.5671)" fill="#79B5FD"/>
<path d="M1.25455 6.97106C0.879958 6.97106 0.505369 6.84668 0.255642 6.47355C-0.118948 5.97604 -0.118947 5.10539 0.50537 4.73225L6.24908 0.254648C6.74854 -0.118486 7.62258 -0.118485 7.99717 0.503405C8.37176 1.1253 8.37176 1.87156 7.74744 2.24469L2.00373 6.72231C1.754 6.84668 1.50427 6.97106 1.25455 6.97106Z" transform="translate(69.6689 58.9493)" fill="#79B5FD"/>
<path d="M4.12049 5.47263C3.7459 5.47263 3.49617 5.34825 3.24645 5.0995L0.37459 2.11443C-0.124863 1.61692 -0.124863 0.870646 0.37459 0.373134C0.874044 -0.124378 1.62323 -0.124378 2.12268 0.373134L4.99454 3.35821C5.49399 3.85572 5.49399 4.60199 4.99454 5.0995C4.74481 5.34825 4.49508 5.47263 4.12049 5.47263Z" transform="translate(60.8086 59.4526)" fill="#79B5FD"/>
<path d="M4.74481 2.48756C5.99344 2.48756 6.99235 3.48258 6.99235 4.72636C6.99235 5.97014 5.99344 6.96517 4.74481 6.96517C3.49618 6.96517 2.49727 5.97014 2.49727 4.72636C2.49727 3.48258 3.49618 2.48756 4.74481 2.48756ZM4.74481 0C2.12268 0 0 2.11443 0 4.72636C0 7.3383 2.12268 9.45273 4.74481 9.45273C7.36694 9.45273 9.48962 7.3383 9.48962 4.72636C9.48962 2.11443 7.36694 0 4.74481 0Z" transform="translate(15.4834 53.2336)" fill="#79B5FD"/>
<path d="M4.74481 2.48756C5.99344 2.48756 6.99235 3.48258 6.99235 4.72636C6.99235 5.97014 5.99344 6.96517 4.74481 6.96517C3.49618 6.96517 2.49727 5.97014 2.49727 4.72636C2.49727 3.48258 3.49618 2.48756 4.74481 2.48756ZM4.74481 0C2.12268 0 0 2.11443 0 4.72636C0 7.3383 2.12268 9.45273 4.74481 9.45273C7.36694 9.45273 9.48962 7.3383 9.48962 4.72636C9.48962 2.11443 7.36694 0 4.74481 0Z" transform="translate(27.3457 61.5671)" fill="#79B5FD"/>
<path d="M6.96043 6.93337C6.7107 6.93337 6.46097 6.80899 6.21125 6.68462L0.467529 2.207C-0.0319244 1.83387 -0.156786 0.963226 0.217804 0.465713C0.592394 -0.0317987 1.46644 -0.156178 1.96589 0.216956L7.70961 4.69456C8.20906 5.0677 8.33392 5.93835 7.95933 6.43586C7.7096 6.80899 7.33502 6.93337 6.96043 6.93337Z" transform="translate(21.8838 58.9869)" fill="#79B5FD"/>
<path d="M1.24863 5.47263C0.874042 5.47263 0.624317 5.34825 0.37459 5.0995C-0.124863 4.60199 -0.124863 3.85572 0.37459 3.35821L3.24645 0.373134C3.7459 -0.124378 4.49508 -0.124378 4.99453 0.373134C5.49399 0.870646 5.49399 1.61692 4.99453 2.11443L2.12268 5.0995C1.99781 5.34825 1.62322 5.47263 1.24863 5.47263Z" transform="translate(33.4648 59.4526)" fill="#79B5FD"/>
<path d="M18.9792 37.8109C8.49071 37.8109 0 29.3532 0 18.9055C0 8.45771 8.49071 0 18.9792 0C29.4678 0 37.9585 8.45771 37.9585 18.9055C37.9585 29.3532 29.4678 37.8109 18.9792 37.8109ZM18.9792 2.36318C9.73934 2.36318 2.3724 9.82586 2.3724 18.9055C2.3724 27.9851 9.86421 35.4477 18.9792 35.4477C28.0943 35.4477 35.5861 27.9851 35.5861 18.9055C35.5861 9.82586 28.2191 2.36318 18.9792 2.36318Z" transform="translate(30.8418 26.6169)" fill="#036FF5"/>
<path d="M7.24207 9.82587H0V0H7.24207V9.82587ZM2.62213 7.33831H4.86967V2.48756H2.62213V7.33831Z" transform="translate(46.1992 63.0596)" fill="#036FF5"/>
<path d="M4.74481 15.9204C2.12268 15.9204 0 13.806 0 11.194V0H9.61448V11.194C9.61448 13.6816 7.49181 15.9204 4.74481 15.9204ZM2.49727 2.48756V11.194C2.49727 12.4378 3.49618 13.4328 4.74481 13.4328C5.99345 13.4328 6.99235 12.4378 6.99235 11.194V2.48756H2.49727Z" transform="translate(45.0752 70.3979)" fill="#036FF5"/>
<path d="M13.1107 13.9303L3.62104 23.3831C1.3735 20.8955 0 17.5373 0 13.9303C0 6.46766 5.86858 0.373134 13.2355 0V13.9303H13.1107Z" transform="translate(35.8359 31.592)" fill="#79B5FD"/>
<path d="M9.73935 0H23.0997C22.7251 7.3383 16.482 13.1841 9.11503 13.1841C5.61886 13.1841 2.3724 11.9403 0 9.82586L9.73935 0Z" transform="translate(40.7061 46.3931)" fill="#79B5FD"/>
<path d="M13.1107 13.0597H0V0C6.99235 0.373134 12.7361 6.09452 13.1107 13.0597Z" transform="translate(50.6953 31.592)" fill="#79B5FD"/>
</svg>
