<svg width="100" height="100" viewBox="0 0 100 100" fill="none" xmlns="http://www.w3.org/2000/svg">
<path d="M2.73632 49.3151C0.870647 44.0847 0 38.6052 0 33.1258C0 24.533 2.23881 15.9402 6.46766 8.46824C8.20895 5.47945 10.199 2.61519 12.4378 0L14.3035 1.61893C12.0647 4.10959 10.199 6.84931 8.58209 9.71357C4.60199 16.812 2.48756 24.9066 2.48756 33.1258C2.48756 38.3562 3.35821 43.5865 5.0995 48.5679L2.73632 49.3151Z" transform="translate(0 16.9364)" fill="#E3F1FF"/>
<path d="M4.10448 7.22291C2.61194 5.35492 1.24378 3.36239 0 1.24533L2.11443 0C3.23383 1.99253 4.60199 3.86052 5.97015 5.72852L4.10448 7.22291Z" transform="translate(6.5918 73.7235)" fill="#E3F1FF"/>
<path d="M25.7463 100C17.0398 100 8.45771 97.7584 0.870648 93.3997L2.11443 91.2827C9.20398 95.3923 17.4129 97.5093 25.7463 97.5093C51.8657 97.5093 73.2587 76.2142 73.2587 49.9377C73.2587 23.6613 51.8657 2.49066 25.7463 2.49066C19.9005 2.49066 14.3035 3.48692 8.95522 5.47945C6.34328 6.47572 3.73134 7.72105 1.24378 9.21544L0 7.09838C2.61194 5.47945 5.34826 4.23412 8.08458 3.11332C13.6816 1.1208 19.6517 0 25.7463 0C53.2338 0 75.7463 22.4159 75.7463 50.0623C75.7463 77.7086 53.2338 100 25.7463 100Z" transform="translate(24.2539)" fill="#E3F1FF"/>
<path d="M33.5821 67.2478C52.129 67.2478 67.1642 52.1939 67.1642 33.6239C67.1642 15.0539 52.129 0 33.5821 0C15.0352 0 0 15.0539 0 33.6239C0 52.1939 15.0352 67.2478 33.5821 67.2478Z" transform="translate(16.418 16.4384)" fill="#E3F1FF"/>
<path d="M0 49.8132V47.3225C26.1194 47.3225 47.2637 26.0274 47.2637 0H49.7512C49.7512 27.5218 27.4876 49.8132 0 49.8132Z" transform="translate(50.124 50.1869)" fill="#036FF5"/>
<path d="M10.8321 0H0V2.48809H10.8321V0Z" transform="matrix(0.411674 -0.911292 0.910907 0.412526 36.4053 54.4648)" fill="#036FF5"/>
<path d="M2.49031 0H0V9.20529H2.49031V0Z" transform="matrix(0.337128 -0.941433 0.941166 0.337872 48.6719 42.9119)" fill="#036FF5"/>
<path d="M21.1594 0H0V2.48888H21.1594V0Z" transform="matrix(0.650933 -0.759201 0.758399 0.651867 64.8057 42.7877)" fill="#036FF5"/>
<path d="M1.24378 0H0V15.4421H1.24378V0Z" transform="translate(47.6367 57.2852)" fill="#79B5FD"/>
<path d="M1.24378 0H0V6.97385H1.24378V0Z" transform="translate(59.8252 65.7533)" fill="#79B5FD"/>
<path d="M1.24378 0H0V25.4047H1.24378V0Z" transform="translate(72.1396 47.3225)" fill="#79B5FD"/>
<path d="M1.24378 0H0V2.6152H1.24378V0Z" transform="translate(35.3223 70.1119)" fill="#79B5FD"/>
<path d="M2.61194 0H0V1.24533H2.61194V0Z" transform="translate(25.248 26.899)" fill="#79B5FD"/>
<path d="M2.61194 0H0V1.24533H2.61194V0Z" transform="translate(25.248 41.4694)" fill="#79B5FD"/>
<path d="M2.61194 0H0V1.24533H2.61194V0Z" transform="translate(25.248 34.2466)" fill="#79B5FD"/>
<path d="M2.61194 0H0V1.24533H2.61194V0Z" transform="translate(25.248 48.6924)" fill="#79B5FD"/>
<path d="M2.61194 0H0V1.24533H2.61194V0Z" transform="translate(25.248 56.0398)" fill="#79B5FD"/>
<path d="M2.61194 0H0V1.24533H2.61194V0Z" transform="translate(25.248 63.2627)" fill="#79B5FD"/>
<path d="M2.61194 0H0V1.24533H2.61194V0Z" transform="translate(25.248 70.4856)" fill="#79B5FD"/>
<path d="M53.4826 53.5492H0V0H2.48756V51.0585H53.4826V53.5492Z" transform="translate(22.6367 23.9103)" fill="#036FF5"/>
<path d="M8.70647 8.71731H6.21891V2.49066H0V0H8.70647V8.71731Z" transform="translate(72.1396 26.2765)" fill="#036FF5"/>
<path d="M6.21891 2.49066C8.33333 2.49066 9.95025 4.10959 9.95025 6.22665C9.95025 8.34371 8.33333 9.96264 6.21891 9.96264C4.10448 9.96264 2.48756 8.34371 2.48756 6.22665C2.48756 4.10959 4.10448 2.49066 6.21891 2.49066ZM6.21891 0C2.73632 0 0 2.73973 0 6.22665C0 9.71357 2.73632 12.4533 6.21891 12.4533C9.70149 12.4533 12.4378 9.71357 12.4378 6.22665C12.4378 2.73973 9.70149 0 6.21891 0Z" transform="translate(29.7266 53.3002)" fill="#036FF5"/>
<path d="M6.2189 2.49066C8.33333 2.49066 9.95025 4.10959 9.95025 6.22665C9.95025 8.34371 8.33333 9.96264 6.2189 9.96264C4.10448 9.96264 2.48756 8.34371 2.48756 6.22665C2.48756 4.10959 4.10448 2.49066 6.2189 2.49066ZM6.2189 0C2.73632 0 0 2.73972 0 6.22665C0 9.71357 2.73632 12.4533 6.2189 12.4533C9.70149 12.4533 12.4378 9.71357 12.4378 6.22665C12.4378 2.73972 9.57711 0 6.2189 0Z" transform="translate(37.4375 34.9938)" fill="#036FF5"/>
<path d="M6.21891 2.49066C8.33333 2.49066 9.95025 4.10959 9.95025 6.22665C9.95025 8.34371 8.33333 9.96264 6.21891 9.96264C4.10448 9.96264 2.48756 8.34371 2.48756 6.22665C2.48756 4.10959 4.22886 2.49066 6.21891 2.49066ZM6.21891 0C2.73632 0 0 2.73973 0 6.22665C0 9.71357 2.73632 12.4533 6.21891 12.4533C9.70149 12.4533 12.4378 9.71357 12.4378 6.22665C12.4378 2.73973 9.70149 0 6.21891 0Z" transform="translate(56.4678 40.5978)" fill="#036FF5"/>
<path d="M42.0398 0C41.9154 0 41.9154 0 42.0398 0C41.9154 0 41.9154 0 42.0398 0C41.9154 0 41.9154 0 42.0398 0C41.9154 0 41.9154 0 42.0398 0C41.9154 0 41.9154 0 42.0398 0C41.9154 0 41.9154 0 42.0398 0C41.9154 0 41.9154 0 42.0398 0C41.9154 0 41.9154 0 42.0398 0C41.9154 0 41.9154 0 42.0398 0C41.9154 0 41.9154 0 42.0398 0C41.9154 0 41.9154 0 42.0398 0C41.9154 0 41.9154 0 41.9154 0C41.9154 0 41.9154 0 41.791 0H41.6667C41.5423 0 41.4179 0 41.2935 0V1.24533C41.6667 1.24533 42.0398 1.24533 42.5373 1.24533V0H42.0398ZM37.0647 0.373599C36.6915 0.373599 36.3184 0.498132 35.8209 0.498132L35.9453 1.74346C36.3184 1.74346 36.6915 1.61893 37.1891 1.61893L37.0647 0.373599ZM32.0896 1.24533C31.9652 1.24533 31.8408 1.24533 31.7164 1.36986C31.592 1.36986 31.4677 1.4944 31.3433 1.4944L31.7164 2.73973C32.0896 2.61519 32.4627 2.49066 32.8358 2.49066L32.0896 1.24533ZM27.3632 2.61519C27.2388 2.73973 26.99 2.73973 26.8657 2.86426C26.7413 2.98879 26.4925 2.98879 26.3682 3.11332L26.8657 4.23412C27.2388 4.10959 27.6119 3.98506 27.9851 3.73599L27.3632 2.61519ZM22.8856 4.60772C22.7612 4.60772 22.7612 4.73225 22.6368 4.73225C22.6368 4.73225 22.6368 4.73225 22.5124 4.73225C22.5124 4.73225 22.5124 4.73225 22.3881 4.73225C22.3881 4.73225 22.3881 4.73225 22.2637 4.73225C22.2637 4.73225 22.2637 4.73225 22.1393 4.73225C22.1393 4.73225 22.1393 4.73225 22.0149 4.73225C22.0149 4.73225 22.0149 4.73225 21.8905 4.73225C21.7662 4.73225 21.7662 4.85679 21.6418 4.85679C21.6418 4.85679 21.6418 4.85679 21.5174 4.85679L22.1393 5.97758C22.5124 5.72852 22.8856 5.60399 23.2587 5.35492L22.8856 4.60772ZM18.5323 7.22291C18.1592 7.47198 17.7861 7.72105 17.5373 7.97011L18.2836 8.96638C18.6567 8.71731 18.9055 8.46824 19.2786 8.21918L18.5323 7.22291ZM14.5522 10.2117C14.5522 10.3362 14.5522 10.3362 14.5522 10.2117C14.5522 10.3362 14.5522 10.3362 14.5522 10.2117C14.4279 10.3362 14.4279 10.3362 14.5522 10.2117C14.4279 10.3362 14.4279 10.3362 14.5522 10.2117C14.4279 10.3362 14.4279 10.3362 14.4279 10.3362C14.1791 10.5853 13.9303 10.8344 13.6816 11.0834L14.5522 11.9552C14.801 11.7061 15.1741 11.457 15.4229 11.208L14.5522 10.2117ZM11.0697 13.6986C10.8209 13.9477 10.6965 14.0722 10.4478 14.3213C10.3234 14.4458 10.3234 14.4458 10.199 14.5704L11.194 15.4421C11.4428 15.193 11.6915 14.8194 11.9403 14.5704L11.0697 13.6986ZM7.83582 17.5592C7.71144 17.6837 7.58706 17.8082 7.58706 17.9328C7.46269 18.0573 7.46269 18.1818 7.33831 18.1818L8.33333 18.929C8.58209 18.5554 8.83085 18.3064 9.0796 17.9328L7.83582 17.5592ZM5.22388 21.6687C5.22388 21.7933 5.22388 21.7933 5.22388 21.6687C5.0995 21.7933 5.0995 21.7933 5.22388 21.6687C5.0995 21.7933 5.0995 21.7933 5.22388 21.6687C5.0995 21.7933 5.0995 21.7933 5.22388 21.6687C5.0995 21.7933 5.0995 21.7933 5.22388 21.6687C5.0995 21.7933 5.0995 21.7933 5.22388 21.6687C5.0995 21.7933 5.0995 21.7933 5.22388 21.6687C5.0995 21.7933 5.0995 21.7933 5.0995 21.7933C5.0995 21.9178 4.97512 21.9178 4.97512 22.0423C4.85075 22.1669 4.85075 22.4159 4.72637 22.5405L5.84577 23.1631C5.97015 22.7895 6.21891 22.4159 6.46766 22.0423L5.22388 21.6687ZM2.98507 26.1519C2.98507 26.2765 2.8607 26.401 2.8607 26.6501C2.73632 26.8991 2.73632 27.0237 2.61194 27.2727L3.73134 27.7709C3.85572 27.3973 3.9801 27.0237 4.22886 26.6501L2.98507 26.1519ZM1.49254 30.8842C1.36816 31.2578 1.24378 31.6314 1.1194 32.1295L2.36318 32.3786C2.48756 32.005 2.61194 31.6314 2.61194 31.2578L1.49254 30.8842ZM0.373134 35.741C0.373134 35.99 0.248756 36.3636 0.248756 36.6127C0.248756 36.7372 0.248756 36.7372 0.248756 36.8618L1.49254 36.9863C1.49254 36.6127 1.61692 36.2391 1.61692 35.741H0.373134ZM0 40.7223C0 41.0959 0 41.4695 0 41.8431H1.24378C1.24378 41.4695 1.24378 41.0959 1.24378 40.5978L0 40.7223ZM1.24378 45.5791L0 45.7036C0 45.7036 0 45.7036 0 45.8281C0 45.8281 0 45.8281 0 45.9527C0 46.0772 0 46.2017 0 46.4508L1.24378 46.3263C1.36816 46.4508 1.36816 46.0772 1.24378 45.5791ZM1.99005 50.4359L0.746269 50.6849C0.870647 51.0585 0.870646 51.3076 0.995025 51.6812L2.23881 51.4321C2.11443 51.1831 2.11443 50.8095 1.99005 50.4359ZM3.23383 55.0436L1.99005 55.4172C2.11443 55.6662 2.11443 55.9153 2.23881 56.0398C2.23881 56.1644 2.23881 56.1644 2.36318 56.2889L3.48259 55.9153C3.48259 55.7908 3.35821 55.4172 3.23383 55.0436ZM4.97512 59.5268L3.85572 60.0249C3.85572 60.0249 3.85572 60.0249 3.85572 60.1494C3.85572 60.274 3.9801 60.3985 3.9801 60.523L5.0995 59.9004C5.34826 60.274 5.22388 59.9004 4.97512 59.5268ZM7.33831 63.7609L6.34328 64.3836C6.34328 64.3836 6.34328 64.3836 6.34328 64.5081C6.46766 64.7572 6.71642 65.0062 6.8408 65.2553L7.83582 64.5081C7.71144 64.5081 7.58706 64.1345 7.33831 63.7609ZM10.0746 67.7459L9.0796 68.4931C9.20398 68.6177 9.20398 68.6177 9.32836 68.7422C9.45274 68.8667 9.57711 69.1158 9.82587 69.2403L10.8209 68.4931C10.5721 68.3686 10.3234 67.995 10.0746 67.7459ZM13.3085 71.3574L12.4378 72.2291C12.6866 72.4782 12.8109 72.6027 13.0597 72.8518L13.1841 72.9763L14.0547 72.1046C13.9303 71.8555 13.6816 71.6065 13.3085 71.3574ZM17.0398 74.4707L16.2935 75.467L16.4179 75.5915C16.6667 75.8406 16.9154 75.9651 17.1642 76.2142L17.9104 75.2179C17.6617 74.9689 17.2886 74.7198 17.0398 74.4707ZM21.0199 77.2105L20.398 78.3313L20.5224 78.4558C20.7711 78.5803 21.0199 78.8294 21.2687 78.9539L21.8905 77.8331C21.6418 77.5841 21.2687 77.4595 21.0199 77.2105ZM25.2488 79.452L24.7512 80.5728C24.7512 80.5728 24.8756 80.5728 24.8756 80.6974C24.8756 80.6974 24.8756 80.6974 25 80.6974C25 80.6974 25 80.6974 25.1244 80.6974C25.3731 80.8219 25.4975 80.8219 25.7463 80.9464L26.2438 79.8257C25.995 79.8257 25.6219 79.7011 25.2488 79.452ZM29.7264 81.1955L29.3532 82.4408H29.4776C29.4776 82.4408 29.4776 82.4408 29.602 82.4408C29.8507 82.4408 29.9751 82.5654 30.2239 82.5654L30.597 81.32C30.4726 81.4446 30.0995 81.32 29.7264 81.1955ZM34.4527 82.3163L34.204 83.5616C34.3284 83.5616 34.4527 83.5616 34.5771 83.5616C34.5771 83.5616 34.5771 83.5616 34.7015 83.5616C34.8259 83.5616 35.0746 83.5616 35.199 83.6862L35.4478 82.4408C35.199 82.5654 34.8259 82.4408 34.4527 82.3163ZM39.1791 82.939L39.0547 84.1843C39.1791 84.1843 39.3035 84.1843 39.4279 84.1843C39.6766 84.1843 39.9254 84.1843 40.2985 84.1843V82.939C40.0497 83.0635 39.6766 82.939 39.1791 82.939ZM45.2736 82.939C44.9005 82.939 44.5274 82.939 44.0298 83.0635V84.3088C44.403 84.3088 44.7761 84.3088 45.1493 84.1843L45.2736 82.939ZM50 82.3163C49.6269 82.4408 49.2537 82.4408 48.7562 82.5654L49.005 83.8107C49.3781 83.6862 49.7512 83.6862 50.2488 83.5616L50 82.3163ZM54.7264 81.071C54.3532 81.1955 53.9801 81.32 53.607 81.4446L53.9801 82.6899C54.1045 82.6899 54.3532 82.5654 54.4776 82.5654C54.7264 82.5654 54.8507 82.4408 55.0995 82.3163L54.7264 81.071ZM59.204 79.3275C58.8308 79.4521 58.4577 79.7011 58.0846 79.8257L58.5821 80.9464C58.7065 80.9464 58.7065 80.8219 58.8308 80.8219C59.0796 80.6974 59.204 80.5728 59.4527 80.5728L59.204 79.3275ZM63.4328 76.9614C63.0597 77.2105 62.6866 77.335 62.4378 77.5841L63.0597 78.7049C63.1841 78.5803 63.3085 78.5803 63.4328 78.4558H63.5572L63.4328 76.9614ZM67.4129 74.2217C67.0398 74.4707 66.791 74.7198 66.4179 74.9689L67.1642 75.9651C67.2886 75.8406 67.4129 75.8406 67.5373 75.7161C67.6617 75.5915 67.6617 75.5915 67.7861 75.467L67.4129 74.2217ZM71.0199 70.9838C70.7711 71.2329 70.398 71.6065 70.1493 71.8555L71.0199 72.7273V70.9838ZM74.1293 67.3724C73.8806 67.746 73.6318 67.995 73.3831 68.3686L74.3781 69.1158C74.5025 68.9913 74.6269 68.7422 74.8756 68.6177C75 68.4931 75 68.3686 75.1244 68.2441L74.1293 67.3724ZM76.8657 63.3873C76.6169 63.7609 76.4925 64.1345 76.2438 64.3836L77.2388 65.0062C77.2388 64.8817 77.3632 64.8817 77.3632 64.7572C77.4876 64.5081 77.6119 64.259 77.8607 64.01L76.8657 63.3873ZM79.2289 59.1532C79.1045 59.5268 78.8557 59.9004 78.7313 60.274L79.8507 60.7721C79.9751 60.3985 80.2239 60.0249 80.3483 59.6513L79.2289 59.1532ZM80.9701 54.67C80.8458 55.0436 80.7214 55.4172 80.597 55.7908L81.7164 56.1644C81.7164 56.0399 81.8408 55.9153 81.8408 55.6663C81.8408 55.5417 81.9652 55.4172 81.9652 55.2927L80.9701 54.67ZM82.0896 49.9377C81.9652 50.3113 81.9652 50.6849 81.8408 51.0585L83.0846 51.3076C83.0846 51.1831 83.209 51.0585 83.209 50.8095C83.209 50.6849 83.209 50.5604 83.3333 50.4359L82.0896 49.9377ZM82.7114 45.0809C82.7114 45.4545 82.5871 45.8281 82.5871 46.3263L83.8308 46.4508C83.8308 46.0772 83.9552 45.5791 83.9552 45.2055L82.7114 45.0809ZM84.0796 40.2242H82.8358C82.8358 40.5978 82.8358 40.9714 82.8358 41.4695H84.0796C84.0796 41.2204 84.0796 40.9714 84.0796 40.5978C84.0796 40.3487 84.0796 40.3487 84.0796 40.2242C84.0796 40.3487 84.0796 40.3487 84.0796 40.2242C84.0796 40.3487 84.0796 40.3487 84.0796 40.2242C84.0796 40.3487 84.0796 40.3487 84.0796 40.2242ZM83.5821 35.2428L82.3383 35.4919C82.4627 35.8655 82.4627 36.2391 82.4627 36.7372L83.7065 36.6127C83.7065 36.1146 83.5821 35.741 83.5821 35.2428C83.5821 35.3674 83.5821 35.3674 83.5821 35.2428C83.5821 35.3674 83.5821 35.3674 83.5821 35.2428C83.5821 35.3674 83.5821 35.3674 83.5821 35.2428C83.5821 35.3674 83.5821 35.3674 83.5821 35.2428C83.5821 35.3674 83.5821 35.3674 83.5821 35.2428C83.5821 35.3674 83.5821 35.3674 83.5821 35.2428C83.5821 35.3674 83.5821 35.3674 83.5821 35.2428C83.5821 35.3674 83.5821 35.3674 83.5821 35.2428C83.5821 35.3674 83.5821 35.3674 83.5821 35.2428C83.5821 35.3674 83.5821 35.3674 83.5821 35.2428C83.5821 35.3674 83.5821 35.3674 83.5821 35.2428ZM82.4627 30.3861L81.2189 30.7597C81.3433 31.1333 81.4677 31.5068 81.592 31.8804L82.8358 31.6314C82.7114 31.2578 82.5871 30.8842 82.4627 30.3861ZM80.7214 25.7783L79.602 26.2765C79.7264 26.6501 79.8507 27.0237 80.0995 27.3973L81.2189 26.8991C81.2189 26.7746 81.0945 26.6501 81.0945 26.401C80.9701 26.1519 80.8458 26.0274 80.7214 25.7783ZM78.607 21.2951L77.4876 21.9178C77.7363 22.2914 77.8607 22.665 78.1094 22.9141L79.2289 22.2914C78.9801 22.0423 78.7313 21.6687 78.607 21.2951ZM75.8706 17.061L74.8756 17.8082C75.1244 18.1818 75.3731 18.4309 75.6219 18.8045L76.6169 18.0573C76.4925 17.8082 76.3682 17.6837 76.1194 17.4346C75.995 17.3101 75.8706 17.1856 75.8706 17.061ZM72.6368 13.325L71.7662 14.1968C72.0149 14.4458 72.2637 14.8194 72.6368 15.0685L73.5075 14.1968C73.2587 13.9477 72.8856 13.5741 72.6368 13.325ZM69.0299 9.83811L68.2836 10.8344C68.5323 11.0834 68.9055 11.3325 69.1542 11.5816L70.0249 10.7098C69.6517 10.3362 69.2786 10.0872 69.0299 9.83811ZM65.0498 6.97385L64.4279 7.97011C64.801 8.21918 65.0498 8.46824 65.4229 8.59278L66.1692 7.59651C65.2985 7.09838 65.1741 6.97385 65.0498 6.97385ZM60.6965 4.48319L60.199 5.60398C60.5721 5.72852 60.9453 5.97758 61.3184 6.10212L61.9403 4.98132C61.8159 4.85679 61.5672 4.73225 61.4428 4.73225C60.9453 4.60772 60.8209 4.48319 60.6965 4.48319C60.8209 4.48319 60.8209 4.48319 60.6965 4.48319C60.8209 4.48319 60.8209 4.48319 60.6965 4.48319ZM56.0945 2.49066L55.7214 3.61146C56.0945 3.73599 56.4677 3.86052 56.8408 3.98506L57.3383 2.86426C56.9652 2.73973 56.592 2.61519 56.0945 2.49066ZM51.3682 1.1208L51.1194 2.36613C51.4925 2.49066 51.8657 2.49066 52.2388 2.61519L52.6119 1.36986C52.2388 1.24533 51.9901 1.24533 51.6169 1.1208C51.4925 1.1208 51.4925 1.1208 51.3682 1.1208C51.4925 1.1208 51.4925 1.1208 51.3682 1.1208C51.4925 1.1208 51.4925 1.1208 51.3682 1.1208C51.4925 1.1208 51.4925 1.1208 51.3682 1.1208C51.4925 1.1208 51.4925 1.1208 51.3682 1.1208C51.4925 1.1208 51.3682 1.1208 51.3682 1.1208ZM46.5174 0.249066L46.393 1.4944C46.7662 1.4944 47.1393 1.61893 47.6368 1.61893L47.7612 0.373599C47.5124 0.373599 47.2637 0.249066 47.0149 0.249066C46.6418 0.249066 46.6418 0.249066 46.5174 0.249066C46.6418 0.249066 46.5174 0.249066 46.5174 0.249066ZM42.0398 0V1.24533C42.2886 1.24533 42.5373 1.24533 42.7861 1.24533V0C42.6617 0 42.5373 0 42.4129 0C42.1642 0 42.1642 0 42.0398 0C42.1642 0 42.1642 0 42.0398 0C42.1642 0 42.0398 0 42.0398 0Z" transform="translate(7.96094 7.84558)" fill="#489BFD"/>
</svg>
