<svg width="100" height="100" viewBox="0 0 100 100" fill="none" xmlns="http://www.w3.org/2000/svg">
<path d="M27.9851 42.0724C23.01 39.7004 18.5323 36.4544 14.5522 32.4594C8.45771 26.3421 3.9801 18.7266 1.74129 10.3621C0.870647 6.99127 0.248756 3.62048 0 0.124847L2.48756 0C2.73632 3.24594 3.23383 6.61674 4.10448 9.73783C6.21891 17.603 10.4478 24.844 16.2935 30.7116C20.0249 34.4569 24.2537 37.578 28.9801 39.8252L27.9851 42.0724Z" transform="translate(0 53.1835)" fill="#E3F1FF"/>
<path d="M7.08955 3.74532C4.72637 3.49563 2.36318 2.99626 0 2.37204L0.621891 0C2.8607 0.62422 5.0995 0.998752 7.33831 1.24844L7.08955 3.74532Z" transform="translate(37.0645 96.2546)" fill="#E3F1FF"/>
<path d="M61.5672 98.5019L60.9453 96.1299C68.9055 94.0075 76.2438 89.7628 82.0896 83.8952C100.622 65.2934 100.622 35.0812 82.0896 16.4794C73.1343 7.49064 61.194 2.49688 48.5075 2.49688C35.8209 2.49688 23.8806 7.49064 14.9254 16.4794C10.8209 20.5993 7.58706 25.3433 5.22388 30.5868C4.10448 33.0837 3.10945 35.8302 2.36318 38.7016L0 38.0774C0.746269 35.206 1.74129 32.2098 2.98507 29.4632C5.47264 23.97 8.95522 18.9763 13.1841 14.6067C22.6368 5.24345 35.199 0 48.5075 0C61.8159 0 74.3781 5.24345 83.8308 14.7316C103.358 34.3321 103.358 66.0425 83.8308 85.643C77.6119 91.7603 70.0249 96.2547 61.5672 98.5019Z" transform="translate(1.49316)" fill="#E3F1FF"/>
<path d="M33.5821 67.4157C52.129 67.4157 67.1642 52.3242 67.1642 33.7079C67.1642 15.0915 52.129 0 33.5821 0C15.0352 0 0 15.0915 0 33.7079C0 52.3242 15.0352 67.4157 33.5821 67.4157Z" transform="translate(16.418 16.4794)" fill="#E3F1FF"/>
<path d="M1.7413 70.6617L0 68.9139C18.408 50.3121 18.408 20.2247 0 1.74782L1.7413 0C21.1443 19.4757 21.1443 51.186 1.7413 70.6617Z" transform="translate(83.7061 14.8564)" fill="#036FF5"/>
<path d="M42.0398 0C41.9154 0 41.9154 0 42.0398 0C41.9154 0 41.9154 0 42.0398 0C41.9154 0 41.9154 0 42.0398 0C41.9154 0 41.9154 0 42.0398 0C41.9154 0 41.9154 0 42.0398 0C41.9154 0 41.9154 0 42.0398 0C41.9154 0 41.9154 0 42.0398 0C41.9154 0 41.9154 0 42.0398 0C41.9154 0 41.9154 0 41.9154 0C41.9154 0 41.9154 0 41.791 0H41.6667C41.5423 0 41.4179 0 41.2935 0V1.24844C41.6667 1.24844 42.0398 1.24844 42.5373 1.24844V0H42.0398ZM37.0647 0.374532C36.6915 0.374532 36.194 0.499375 35.8209 0.499375L35.9453 1.74782C36.3184 1.74782 36.6915 1.62297 37.1891 1.62297L37.0647 0.374532ZM32.2139 1.24844C32.0896 1.24844 31.9652 1.37328 31.8408 1.37328C31.8408 1.37328 31.8408 1.37328 31.7164 1.37328C31.592 1.37328 31.4677 1.37328 31.4677 1.49813L31.8408 2.74657C32.2139 2.62172 32.5871 2.49688 32.9602 2.49688L32.2139 1.24844ZM27.3632 2.62172C27.1144 2.74657 26.99 2.74657 26.7413 2.87141C26.6169 2.87141 26.4925 2.99625 26.3682 2.99625L26.8657 4.11985C27.2388 3.99501 27.6119 3.87016 27.9851 3.62047L27.3632 2.62172ZM22.8856 4.61923C22.7612 4.61923 22.6368 4.74407 22.6368 4.74407C22.3881 4.86892 22.2637 4.99376 22.0149 5.1186C22.0149 5.1186 22.0149 5.1186 21.8905 5.1186L22.5124 6.2422C22.8856 5.99251 23.2587 5.86767 23.6318 5.61798L22.8856 4.61923ZM18.5323 7.24095L18.408 7.36579C18.2836 7.49064 18.0348 7.61548 17.9104 7.74033L18.6567 8.73908C19.0299 8.48939 19.2786 8.2397 19.6517 7.99001L18.5323 7.24095ZM14.6766 10.2372C14.5522 10.3621 14.4279 10.4869 14.3035 10.6117C14.1791 10.7366 14.0547 10.8614 13.9303 10.8614L14.801 11.7353C15.0498 11.4856 15.4229 11.236 15.6716 10.9863L14.6766 10.2372ZM11.0697 13.7328C10.9453 13.8577 10.8209 13.9825 10.6965 14.1074C10.5721 14.2322 10.4478 14.3571 10.3234 14.4819L11.3184 15.3558C11.5672 15.1061 11.8159 14.7316 12.0647 14.4819L11.0697 13.7328ZM7.83582 17.603C7.83582 17.7278 7.71144 17.7278 7.71144 17.8527C7.58706 18.1024 7.33831 18.3521 7.21393 18.6018L8.20895 19.3508C8.45771 18.9763 8.70647 18.7266 8.95522 18.3521L7.83582 17.603ZM5.22388 21.7229C5.22388 21.7229 5.22388 21.8477 5.0995 21.8477C4.97512 22.0974 4.85075 22.3471 4.72637 22.5968L5.84577 23.221C5.97015 22.8464 6.2189 22.4719 6.46766 22.0974L5.22388 21.7229ZM3.10945 26.2172C2.98507 26.3421 2.98507 26.4669 2.98507 26.7166C2.98507 26.8415 2.8607 26.9663 2.8607 27.0911L3.9801 27.5905C4.10448 27.216 4.22886 26.8415 4.47761 26.4669L3.10945 26.2172ZM1.49254 30.9613C1.36816 31.3358 1.24378 31.7104 1.1194 32.2097L2.36318 32.4594C2.48756 32.0849 2.61194 31.7104 2.61194 31.3358L1.49254 30.9613ZM0.373134 35.8302C0.373134 35.9551 0.373134 35.9551 0.373134 36.0799C0.373134 36.3296 0.248756 36.5793 0.248756 36.829L1.49254 36.9538C1.49254 36.5793 1.61692 36.2048 1.61692 35.7054L0.373134 35.8302ZM0 40.824C0 41.1985 0 41.573 0 41.9476H1.24378C1.24378 41.573 1.24378 41.1985 1.24378 40.6991L0 40.824ZM1.36816 45.6929L0.124378 45.8177C0.124378 46.0674 0.124378 46.1923 0.124378 46.442C0.124378 46.442 0.124378 46.442 0.124378 46.5668C0.124378 46.6916 0.124378 46.8165 0.124378 46.9413L1.36816 46.8165C1.36816 46.5668 1.36816 46.1923 1.36816 45.6929ZM1.99005 50.5618L0.746269 50.8115C0.870647 50.9363 0.870647 51.0612 0.870647 51.186C0.870647 51.3109 0.995025 51.5606 0.995025 51.6854L2.23881 51.4357C2.23881 51.3109 2.11443 50.9363 1.99005 50.5618ZM3.23383 55.181L2.11443 55.5556C2.11443 55.6804 2.23881 55.9301 2.23881 56.0549C2.23881 56.1798 2.36318 56.4295 2.36318 56.5543L3.48259 56.1798C3.48259 55.9301 3.35821 55.5556 3.23383 55.181ZM5.0995 59.6754L3.9801 60.1748C4.10448 60.5493 4.35323 60.799 4.47761 61.1735L5.59701 60.5493C5.34826 60.4245 5.22388 60.05 5.0995 59.6754ZM7.33831 63.9201L6.34328 64.5443C6.34328 64.5443 6.34328 64.6692 6.46766 64.6692C6.46766 64.794 6.59204 64.794 6.59204 64.9189C6.59204 64.9189 6.59204 64.9189 6.59204 65.0437C6.59204 65.1686 6.71642 65.2934 6.71642 65.2934L7.71144 64.5443C7.83582 64.6692 7.58706 64.2946 7.33831 63.9201ZM10.199 67.9151L9.20398 68.6642C9.32836 68.789 9.45274 69.0387 9.70149 69.1636C9.82587 69.2884 9.82587 69.2884 9.95025 69.4133L10.9453 68.6642C10.6965 68.5393 10.4478 68.1648 10.199 67.9151ZM13.4328 71.5356L12.5622 72.4095L12.6866 72.5344C12.9353 72.6592 13.0597 72.9089 13.3085 73.0337L13.4328 73.1586L14.3035 72.2847C13.9303 72.035 13.6816 71.7853 13.4328 71.5356ZM17.0398 74.6567L16.2935 75.6555C16.6667 75.9051 16.9154 76.1548 17.2886 76.4045L18.0348 75.4058C17.6617 75.1561 17.2886 74.9064 17.0398 74.6567ZM21.0199 77.4033L20.398 78.5269C20.5224 78.6517 20.6468 78.6517 20.7711 78.7766C20.8955 78.7766 20.8955 78.9014 21.0199 78.9014L21.6418 77.7778C21.6418 77.7778 21.393 77.653 21.0199 77.4033ZM25.2488 79.6505L24.7512 80.774C24.8756 80.774 24.8756 80.8989 25 80.8989C25.2488 81.0237 25.4975 81.1486 25.7463 81.1486L26.2438 80.025C25.995 80.025 25.6219 79.9001 25.2488 79.6505ZM29.7264 81.3983L29.3532 82.6467C29.4776 82.6467 29.602 82.7716 29.7264 82.7716C29.9751 82.8964 30.2239 82.8964 30.4726 83.0212L30.8458 81.7728C30.597 81.648 30.0995 81.5231 29.7264 81.3983ZM34.4527 82.5219L34.204 83.7703C34.3284 83.7703 34.3284 83.7703 34.4527 83.7703C34.5771 83.7703 34.8259 83.7703 34.9503 83.8951L35.199 82.6467C35.199 82.7716 34.8259 82.6467 34.4527 82.5219ZM39.3035 83.1461L39.1791 84.3945C39.3035 84.3945 39.5522 84.3945 39.6766 84.3945C39.9254 84.3945 40.0498 84.3945 40.2985 84.3945V83.1461C40.0498 83.2709 39.6766 83.1461 39.3035 83.1461ZM45.2736 83.1461C44.9005 83.1461 44.5274 83.1461 44.0299 83.2709V84.5194C44.0299 84.5194 44.0299 84.5194 44.1542 84.5194C44.1542 84.5194 44.1542 84.5194 44.2786 84.5194C44.2786 84.5194 44.2786 84.5194 44.403 84.5194H44.5274L45.2736 83.1461ZM50 82.5219C49.6269 82.6467 49.2537 82.6467 48.7562 82.7716L49.005 84.02C49.005 84.02 49.005 84.02 49.1294 84.02C49.2537 84.02 49.5025 83.8951 49.6269 83.8951L50 82.5219ZM54.7264 81.2734C54.3532 81.3983 53.9801 81.5231 53.607 81.648L53.9801 82.8964C54.1045 82.8964 54.2289 82.8964 54.2289 82.7716C54.2289 82.7716 54.2289 82.7716 54.3532 82.7716C54.4776 82.7716 54.7264 82.6467 54.8507 82.6467L54.7264 81.2734ZM59.204 79.5256C58.8308 79.6505 58.4577 79.9001 58.0846 80.025L58.5821 81.1486C58.7065 81.1486 58.7065 81.0237 58.8308 81.0237C58.8308 81.0237 58.8308 81.0237 58.9552 81.0237C58.9552 81.0237 59.0796 81.0237 59.0796 80.8989L59.204 79.5256ZM63.4328 77.1536C63.0597 77.4033 62.6866 77.5281 62.4378 77.7778L63.0597 78.9014C63.0597 78.9014 63.1841 78.9014 63.1841 78.7766C63.4328 78.6517 63.6816 78.402 64.0547 78.2772L63.4328 77.1536ZM67.4129 74.407C67.0398 74.6567 66.791 74.9064 66.4179 75.1561L67.1642 76.1548C67.5373 75.9051 67.7861 75.6554 68.1592 75.4058L67.4129 74.407ZM71.0199 71.1611C70.7711 71.4108 70.398 71.7853 70.1493 72.035L71.0199 72.9089C71.1443 72.784 71.2687 72.6592 71.393 72.5344L71.0199 71.1611ZM74.2537 67.5406C74.005 67.9151 73.7562 68.1648 73.5075 68.5393L74.5025 69.2884C74.7512 69.0387 75 68.6642 75.2488 68.4145L74.2537 67.5406ZM76.99 63.5456C76.7413 63.9201 76.6169 64.2946 76.3682 64.5443L77.3632 65.1686C77.4876 65.0437 77.4876 64.9189 77.6119 64.794C77.7363 64.6692 77.8607 64.4195 77.9851 64.1698L76.99 63.5456ZM79.2289 59.3009C79.1045 59.6754 78.8557 60.05 78.7313 60.4245L79.8507 60.9239C79.9751 60.5493 80.2239 60.1748 80.3483 59.8003L79.2289 59.3009ZM80.9701 54.8065C80.8458 55.181 80.7214 55.5556 80.597 55.9301L81.7164 56.3046C81.8408 55.9301 81.9652 55.5556 82.0896 55.181L80.9701 54.8065ZM82.0896 50.0624C81.9652 50.437 81.9652 50.8115 81.8408 51.186L83.0846 51.4357V51.3109C83.0846 51.186 83.2089 51.0612 83.2089 50.8115C83.2089 50.6867 83.2089 50.6867 83.2089 50.5618L82.0896 50.0624ZM82.7114 45.1935C82.7114 45.5681 82.5871 45.9426 82.5871 46.442L83.8308 46.5668C83.8308 46.442 83.8308 46.3171 83.8308 46.3171C83.8308 46.3171 83.8308 46.3171 83.8308 46.1923C83.8308 46.1923 83.8308 46.1923 83.8308 46.0674L82.7114 45.1935ZM84.0796 40.3246H82.8358C82.8358 40.6991 82.8358 41.0737 82.8358 41.573H84.0796C84.0796 41.3234 84.0796 41.0737 84.0796 40.824C84.0796 40.4495 84.0796 40.4494 84.0796 40.3246C84.0796 40.4494 84.0796 40.4494 84.0796 40.3246C84.0796 40.4494 84.0796 40.4494 84.0796 40.3246C84.0796 40.4494 84.0796 40.4494 84.0796 40.3246C84.0796 40.4494 84.0796 40.4494 84.0796 40.3246C84.0796 40.4494 84.0796 40.4494 84.0796 40.3246C84.0796 40.4494 84.0796 40.4494 84.0796 40.3246C84.0796 40.4494 84.0796 40.4494 84.0796 40.3246C84.0796 40.4494 84.0796 40.4494 84.0796 40.3246C84.0796 40.4494 84.0796 40.4494 84.0796 40.3246ZM83.5821 35.3308L82.3383 35.5805C82.4627 35.9551 82.4627 36.3296 82.4627 36.829L83.7065 36.7041C83.7065 36.2048 83.5821 35.8302 83.5821 35.3308ZM82.4627 30.4619L81.2189 30.8365C81.3433 31.211 81.4677 31.5855 81.592 31.9601L82.8358 31.7104C82.7114 31.3358 82.5871 30.9613 82.4627 30.4619ZM80.8458 25.8427L79.7264 26.3421C79.8507 26.7166 79.9751 27.0911 80.2239 27.4657L81.3433 26.9663C81.3433 26.8415 81.2189 26.7166 81.2189 26.4669C80.9701 26.2172 80.8458 25.9675 80.8458 25.8427ZM78.607 21.3483L77.4876 21.9725C77.7363 22.3471 77.8607 22.7216 78.1095 22.9713L79.2289 22.3471C79.1045 22.2222 79.1045 22.0974 78.9801 21.9725C78.607 21.4732 78.607 21.4732 78.607 21.3483C78.607 21.4732 78.607 21.4732 78.607 21.3483ZM75.8707 17.1036L74.8756 17.8527C75.1244 18.2272 75.3731 18.4769 75.6219 18.8514L76.6169 18.1024C76.2438 17.7278 76.1194 17.4782 75.8707 17.1036ZM72.6368 13.3583L71.7662 14.2322C72.0149 14.4819 72.2637 14.8564 72.6368 15.1061L73.5075 14.2322C73.3831 14.1074 73.3831 13.9825 73.2587 13.9825C72.7612 13.4831 72.7612 13.4831 72.6368 13.3583C72.7612 13.4831 72.7612 13.4831 72.6368 13.3583C72.7612 13.4831 72.7612 13.3583 72.6368 13.3583C72.7612 13.3583 72.7612 13.3583 72.6368 13.3583C72.7612 13.3583 72.7612 13.3583 72.6368 13.3583C72.7612 13.3583 72.7612 13.3583 72.6368 13.3583C72.7612 13.3583 72.7612 13.3583 72.6368 13.3583C72.7612 13.3583 72.7612 13.3583 72.6368 13.3583C72.7612 13.3583 72.7612 13.3583 72.6368 13.3583C72.7612 13.3583 72.7612 13.3583 72.6368 13.3583C72.7612 13.3583 72.6368 13.3583 72.6368 13.3583ZM69.0299 9.86267L68.2836 10.8614C68.5323 11.1111 68.9055 11.3608 69.1542 11.6105L70.0249 10.7366C69.403 10.2372 69.2786 10.1124 69.0299 9.86267ZM65.0498 6.99126L64.4279 7.99001C64.801 8.2397 65.0498 8.48939 65.4229 8.61423L66.1692 7.61548L66.0448 7.49064C65.6716 7.36579 65.2985 7.11611 65.0498 6.99126ZM60.6965 4.49438L60.199 5.61798C60.5721 5.74282 60.9453 5.99251 61.3184 6.11735L61.9403 4.99376C61.4428 4.74407 61.0696 4.61923 60.6965 4.49438C60.8209 4.49438 60.8209 4.49438 60.6965 4.49438C60.8209 4.49438 60.8209 4.49438 60.6965 4.49438C60.8209 4.49438 60.8209 4.49438 60.6965 4.49438C60.8209 4.49438 60.8209 4.49438 60.6965 4.49438C60.8209 4.49438 60.8209 4.49438 60.6965 4.49438C60.8209 4.49438 60.8209 4.49438 60.6965 4.49438C60.8209 4.49438 60.8209 4.49438 60.6965 4.49438C60.8209 4.49438 60.6965 4.49438 60.6965 4.49438ZM56.2189 2.49688L55.8458 3.62047C56.2189 3.74532 56.592 3.87016 56.9652 3.99501L57.4627 2.87141C56.8408 2.74657 56.592 2.62172 56.2189 2.49688ZM51.3682 1.1236L51.1194 2.37204C51.4925 2.49688 51.8657 2.49688 52.2388 2.62172L52.6119 1.37328C52.3632 1.37328 52.2388 1.24844 51.99 1.24844C51.6169 1.1236 51.4925 1.1236 51.3682 1.1236ZM46.5174 0.249688L46.393 1.49813C46.7662 1.49813 47.1393 1.62297 47.6368 1.62297L47.7612 0.374532C47.1393 0.374532 46.8905 0.374532 46.5174 0.249688ZM42.0398 0V1.24844C42.2886 1.24844 42.5373 1.24844 42.7861 1.24844V0C42.6617 0 42.5373 0 42.4129 0C42.1642 0 42.1642 0 42.0398 0C42.1642 0 42.1642 0 42.0398 0C42.1642 0 42.1642 0 42.0398 0C42.1642 0 42.1642 0 42.0398 0C42.1642 0 42.1642 0 42.0398 0Z" transform="translate(7.96094 7.86523)" fill="#489BFD"/>
<path d="M23.6318 47.4407C10.5721 47.4407 0 36.829 0 23.7204C0 10.6117 10.5721 0 23.6318 0C36.6915 0 47.2637 10.6117 47.2637 23.7204C47.2637 36.829 36.6915 47.4407 23.6318 47.4407ZM23.6318 2.49688C11.9403 2.49688 2.48756 11.985 2.48756 23.7204C2.48756 35.4557 11.9403 44.9438 23.6318 44.9438C35.3234 44.9438 44.7761 35.4557 44.7761 23.7204C44.7761 11.985 35.3234 2.49688 23.6318 2.49688Z" transform="translate(26.4922 26.4669)" fill="#036FF5"/>
<path d="M8.70647 17.4782C3.85572 17.4782 0 13.608 0 8.73908C0 3.87016 3.85572 0 8.70647 0C13.5572 0 17.4129 3.87016 17.4129 8.73908C17.4129 13.608 13.5572 17.4782 8.70647 17.4782ZM8.70647 2.49688C5.22388 2.49688 2.48756 5.24345 2.48756 8.73908C2.48756 12.2347 5.22388 14.9813 8.70647 14.9813C12.1891 14.9813 14.9254 12.2347 14.9254 8.73908C14.9254 5.24345 12.1891 2.49688 8.70647 2.49688Z" transform="translate(41.418 41.4481)" fill="#036FF5"/>
<path d="M2.48756 4.99376C3.8614 4.99376 4.97512 3.87587 4.97512 2.49688C4.97512 1.11789 3.8614 0 2.48756 0C1.11372 0 0 1.11789 0 2.49688C0 3.87587 1.11372 4.99376 2.48756 4.99376Z" transform="translate(47.6367 47.6903)" fill="#036FF5"/>
<path d="M15.6716 0C15.6716 0 15.5473 0 15.6716 0C15.5473 0 15.5473 0 15.6716 0C15.5473 0 15.5473 0 15.6716 0C15.5473 0 15.5473 0 15.6716 0C15.5473 0 15.5473 0 15.5473 0C14.4279 0 13.3085 0.124843 12.1891 0.374531L12.8109 2.74657C13.806 2.49688 14.9254 2.37204 15.9204 2.37204L15.6716 0ZM6.34328 2.99625C5.59702 3.49563 4.97512 3.99501 4.22886 4.74407C4.10448 4.86891 3.9801 4.99376 3.85572 5.1186L5.72139 6.74157C6.46766 5.99251 7.21393 5.24345 8.08457 4.61923L6.34328 2.99625ZM0.497512 10.7366C0.497512 10.8614 0.497512 10.8614 0.497512 10.7366C0.497512 10.8614 0.497512 10.8614 0.497512 10.7366C0.497512 10.8614 0.497512 10.8614 0.497512 10.7366C0.497512 10.8614 0.497512 10.8614 0.497512 10.7366C0.497512 10.8614 0.497512 10.8614 0.497512 10.7366C0.497512 10.8614 0.497512 10.8614 0.497512 10.7366C0.373134 10.8614 0.373134 10.8614 0.497512 10.7366C0.373134 10.8614 0.373134 10.8614 0.497512 10.7366C0.373134 10.8614 0.373134 10.8614 0.497512 10.7366C0.373134 10.8614 0.373134 10.8614 0.497512 10.7366C0.373134 10.8614 0.373134 10.8614 0.497512 10.7366C0.373134 10.8614 0.373134 10.8614 0.497512 10.7366C0.373134 10.8614 0.373134 10.8614 0.497512 10.7366C0.373134 10.8614 0.373134 10.8614 0.497512 10.7366C0.373134 10.8614 0.373134 10.8614 0.497512 10.7366C0.373134 10.8614 0.373134 10.8614 0.497512 10.7366C0.373134 10.8614 0.373134 10.8614 0.497512 10.7366C0.497512 10.8614 0.497512 10.8614 0.497512 10.8614C0.497512 10.8614 0.497512 10.8614 0.497512 10.9863C0.497512 11.1111 0.373133 11.3608 0.373133 11.4856V11.6105C0.248755 11.985 0.248757 12.2347 0.124379 12.6092C0.124379 12.6092 0.124379 12.6092 0.124379 12.7341C0.124379 12.9838 0 13.2335 0 13.4831L2.48756 13.7328C2.48756 13.1086 2.61194 12.6092 2.73632 11.985C2.8607 11.4856 2.98507 10.9863 3.10945 10.6117L0.497512 10.7366ZM2.48756 19.975L0.124379 20.5993C0.248757 21.2235 0.497513 21.7228 0.746269 22.3471C0.995025 22.8464 1.1194 23.221 1.36816 23.7204L3.48259 22.4719C3.23383 21.9725 2.8607 20.9738 2.48756 19.975ZM7.08955 26.8415L5.47264 28.839C6.34328 29.4632 7.21393 30.0874 8.20896 30.5868C8.20896 30.5868 8.20895 30.5868 8.33333 30.5868L9.45274 28.3396C8.83085 28.0899 7.9602 27.5905 7.08955 26.8415ZM17.9104 29.7129C17.1642 29.8377 16.4179 29.9626 15.6716 29.9626C15.4229 29.9626 15.0498 29.9626 14.801 29.9626L14.6766 32.4594H14.801C15.0498 32.4594 15.2985 32.4594 15.5473 32.4594C16.2935 32.4594 16.9154 32.3346 17.6617 32.2097L17.9104 29.7129ZM25.3731 25.9675C24.6269 26.7166 23.7562 27.3408 22.8856 27.965L24.1294 30.0874C24.8756 29.588 25.4975 28.9638 26.2438 28.3396L25.3731 25.9675ZM29.2289 18.6017C29.2289 18.8514 29.1045 19.1011 29.1045 19.3508C28.9801 20.0999 28.7313 20.8489 28.3582 21.598L30.597 22.5968C30.7214 22.2222 30.8458 21.9725 30.9701 21.598C31.0945 21.3483 31.0945 20.9738 31.0945 20.7241L29.2289 18.6017ZM30.3483 9.23845L28.1095 10.362C28.607 11.3608 28.8557 12.3596 29.1045 13.3583L31.592 12.8589C31.4677 12.4844 31.4677 12.1099 31.3433 11.7353C30.8458 10.6117 30.597 9.86267 30.3483 9.23845ZM23.6318 1.9975L22.3881 4.11985C23.2587 4.61923 24.1294 5.24345 24.8756 5.99251L26.6169 4.11985C26.6169 4.11985 26.6169 4.11985 26.4925 4.11985C24.1294 2.37203 23.8806 2.12235 23.6318 1.9975ZM15.6716 0V2.49688C16.2935 2.49688 16.9154 2.49688 17.4129 2.62172L17.7861 0.124842C17.0398 -1.90683e-06 16.4179 0 15.6716 0Z" transform="translate(34.4531 33.9575)" fill="#79B5FD"/>
<path d="M2.48756 0H0V8.73908H2.48756V0Z" transform="translate(48.8799 21.3483)" fill="#036FF5"/>
<path d="M2.48756 0H0V8.73908H2.48756V0Z" transform="translate(48.8799 70.1622)" fill="#036FF5"/>
<path d="M8.70647 0H0V2.49688H8.70647V0Z" transform="translate(70.1484 48.9387)" fill="#036FF5"/>
<path d="M8.70647 0H0V2.49688H8.70647V0Z" transform="translate(21.5176 48.9387)" fill="#036FF5"/>
<path d="M7.08955 18.1024L0.124381 17.9775L0 10.9863L10.9453 0L11.0697 6.99126L18.0348 7.11611L7.08955 18.1024ZM2.61194 15.4807H6.09453L12.1891 9.3633H8.70647V5.86767L2.61194 11.985V15.4807Z" transform="translate(64.9258 17.2285)" fill="#036FF5"/>
<path d="M24.1294 0C23.7562 0 23.5075 0.124843 23.2587 0.374531L0.373134 23.3458C-0.124378 23.8452 -0.124378 24.5943 0.373134 25.0936C0.621891 25.3433 0.995026 25.4682 1.24378 25.4682C1.49254 25.4682 1.86567 25.3433 2.11442 25.0936L25 2.12235C25.4975 1.62297 25.4975 0.873907 25 0.374531C24.8756 0.124843 24.5025 0 24.1294 0Z" transform="translate(49.751 25.0938)" fill="#036FF5"/>
</svg>
