<svg width="100" height="100" viewBox="0 0 100 100" fill="none" xmlns="http://www.w3.org/2000/svg">
<path d="M1.868 49.3151L0 47.6961C2.24159 45.2055 4.10959 42.4658 5.72852 39.6015C9.71357 32.5031 11.8306 24.4085 11.8306 16.1893C11.8306 10.9589 10.9589 5.72852 9.21543 0.747198L11.5816 0C13.325 5.23039 14.3213 10.7098 14.3213 16.1893C14.3213 24.7821 12.0797 33.3748 7.84557 40.8468C6.22664 43.9602 4.10959 46.6999 1.868 49.3151Z" transform="translate(85.6787 33.7484)" fill="#E3F1FF"/>
<path d="M3.86052 7.22291C2.73972 5.23039 1.36986 3.36239 0 1.4944L1.99253 0C3.48692 1.868 4.85679 3.86052 6.10212 5.97758L3.86052 7.22291Z" transform="translate(87.2969 19.0536)" fill="#E3F1FF"/>
<path d="M50.0623 100C22.4159 100 0 77.5841 0 50.0623C0 22.5405 22.4159 0 50.0623 0C58.7796 0 67.3724 2.24159 74.9689 6.60025L73.7235 8.71731C66.6252 4.60772 58.406 2.49066 50.0623 2.49066C23.7858 2.49066 2.49066 23.7858 2.49066 50.0623C2.49066 76.3387 23.7858 97.6339 50.0623 97.6339C55.7908 97.6339 61.5193 96.6376 66.8742 94.6451C69.4894 93.6488 72.1046 92.4035 74.5953 90.9091L75.8406 93.0261C73.2254 94.6451 70.4857 95.8904 67.7459 97.0112C62.0174 99.0037 56.1644 100 50.0623 100Z" fill="#E3F1FF"/>
<path d="M33.6239 67.2478C52.1939 67.2478 67.2478 52.1939 67.2478 33.6239C67.2478 15.0539 52.1939 0 33.6239 0C15.0539 0 0 15.0539 0 33.6239C0 52.1939 15.0539 67.2478 33.6239 67.2478Z" transform="translate(16.4385 16.4384)" fill="#E3F1FF"/>
<path d="M2.49066 49.8132H0C0 22.4159 22.4159 0 49.8132 0V2.49066C23.7858 2.49066 2.49066 23.7858 2.49066 49.8132Z" fill="#036FF5"/>
<path d="M42.0922 0C41.9676 0 41.9676 0 42.0922 0C41.9676 0 41.9676 0 42.0922 0C41.9676 0 41.9676 0 42.0922 0C41.9676 0 41.9676 0 42.0922 0C41.9676 0 41.9676 0 42.0922 0C41.9676 0 41.9676 0 42.0922 0C41.9676 0 41.9676 0 42.0922 0C41.9676 0 41.9676 0 42.0922 0C41.9676 0 41.9676 0 42.0922 0C41.9676 0 41.9676 0 42.0922 0C41.9676 0 41.9676 0 42.0922 0C41.9676 0 41.9676 0 41.9676 0C41.9676 0 41.9676 0 41.8431 0H41.7186C41.594 0 41.4695 0 41.345 0V1.24533C41.7186 1.24533 42.0921 1.24533 42.5903 1.24533V0H42.0922ZM37.1108 0.373599C36.7372 0.373599 36.3636 0.498132 35.8655 0.498132L35.99 1.74346C36.3636 1.74346 36.7372 1.61893 37.2354 1.61893L37.1108 0.373599ZM32.1295 1.24533C32.005 1.24533 31.8804 1.36986 31.7559 1.36986C31.6314 1.36986 31.5068 1.36986 31.3823 1.4944L31.7559 2.73973C32.1295 2.61519 32.5031 2.49066 32.8767 2.49066L32.1295 1.24533ZM27.3973 2.61519C27.1482 2.73973 27.0237 2.73973 26.7746 2.86426C26.6501 2.86426 26.5255 2.98879 26.401 2.98879L26.8991 4.10959C27.2727 3.98506 27.6463 3.86052 28.0199 3.61146L27.3973 2.61519ZM22.9141 4.60772C22.5405 4.85679 22.1669 4.98132 21.7933 5.23039L22.4159 6.35118C22.7895 6.10212 23.1631 5.97758 23.5367 5.72852L22.9141 4.60772ZM18.5554 7.22291L18.4309 7.34745C18.3064 7.47198 18.0573 7.59651 17.9328 7.72105L18.6799 8.71731C19.0535 8.46824 19.3026 8.21918 19.6762 7.97011L18.5554 7.22291ZM14.5704 10.2117C14.4458 10.3362 14.1968 10.4608 14.0722 10.7098L14.944 11.5816C15.193 11.3325 15.5666 11.0834 15.8157 10.8344L14.5704 10.2117ZM11.0834 13.6986C10.9589 13.8232 10.7098 14.0722 10.5853 14.1968L10.4608 14.3213L11.457 15.193C11.7061 14.944 11.9552 14.5704 12.2042 14.3213L11.0834 13.6986ZM7.84558 17.5592L7.72105 17.6837C7.59651 17.8082 7.59651 17.9328 7.47198 18.0573L8.46824 18.8045C8.71731 18.4309 8.96638 18.1818 9.21544 17.8082L7.84558 17.5592ZM5.23039 21.6687C5.23039 21.7933 5.10585 21.7933 5.10585 21.9178C4.98132 22.1669 4.85679 22.2914 4.73225 22.5405L5.85305 23.1631C5.97758 22.7895 6.22665 22.4159 6.47572 22.0423L5.23039 21.6687ZM2.98879 26.1519C2.86426 26.2765 2.86426 26.5255 2.73973 26.6501C2.73973 26.7746 2.61519 26.8991 2.61519 27.0237L3.73599 27.5218C3.86052 27.1482 3.98506 26.7746 4.23412 26.401L2.98879 26.1519ZM1.4944 30.8842C1.36986 31.2578 1.24533 31.6314 1.1208 32.1295L2.36613 32.3786C2.49066 32.005 2.61519 31.6314 2.61519 31.2578L1.4944 30.8842ZM0.373599 35.741C0.373599 35.8655 0.373599 35.99 0.373599 36.1146C0.373599 36.1146 0.373599 36.1146 0.373599 36.2391C0.373599 36.3636 0.373599 36.4882 0.373599 36.6127V36.7372L1.61893 36.8618C1.61893 36.4882 1.74346 36.1146 1.74346 35.6164L0.373599 35.741ZM0 40.7223C0 41.0959 0 41.4695 0 41.8431H1.24533C1.24533 41.4695 1.24533 41.0959 1.24533 40.5978L0 40.7223ZM1.24533 45.5791L0 45.7036C0 45.7036 0 45.7036 0 45.8281C0 45.8281 0 45.8281 0 45.9527C0 46.2017 -1.2062e-07 46.4508 0.124533 46.6999L1.36986 46.5753C1.36986 46.4508 1.36986 46.0772 1.24533 45.5791ZM1.99253 50.4359L0.747198 50.6849C0.871731 51.0585 0.871731 51.4321 0.996264 51.8057L2.24159 51.5567C2.11706 51.1831 2.11706 50.8095 1.99253 50.4359ZM3.23786 55.0436L1.99253 55.4172C1.99253 55.5417 1.99253 55.5417 2.11706 55.6663V55.7908L3.23786 55.4172C3.48692 55.7908 3.36239 55.4172 3.23786 55.0436ZM4.98132 59.5268L3.86052 60.0249C3.86052 60.1494 3.98506 60.274 3.98506 60.274C4.10959 60.3985 4.10959 60.523 4.23412 60.6476L5.35492 60.0249C5.35492 60.274 5.23039 59.9004 4.98132 59.5268ZM7.34745 63.7609L6.35118 64.3836C6.60025 64.7572 6.84931 65.1308 6.97385 65.3798L7.97011 64.6326C7.72105 64.5081 7.59651 64.1345 7.34745 63.7609ZM10.0872 67.7459L9.09091 68.4931C9.21544 68.7422 9.46451 68.9913 9.58904 69.1158L10.5853 68.3686C10.5853 68.3686 10.3362 67.995 10.0872 67.7459ZM13.325 71.3574L12.4533 72.2291C12.7024 72.4782 12.9514 72.7273 13.325 72.9763L14.1968 72.1046C13.9477 71.8555 13.6986 71.6065 13.325 71.3574ZM17.061 74.4707L16.3138 75.467C16.5629 75.7161 16.9365 75.9651 17.1856 76.0897L17.9328 75.0934C17.6837 74.9689 17.3101 74.7198 17.061 74.4707ZM21.0461 77.2105L20.4234 78.3313C20.4234 78.3313 20.5479 78.3313 20.5479 78.4558C20.5479 78.4558 20.5479 78.4558 20.6725 78.4558C20.797 78.4558 20.9215 78.5803 20.9215 78.5803L21.5442 77.4595C21.6687 77.5841 21.2951 77.4595 21.0461 77.2105ZM25.2802 79.452L24.7821 80.5728C24.7821 80.5728 24.7821 80.5728 24.9066 80.5728C24.9066 80.5728 24.9066 80.5728 25.0311 80.5728C25.0311 80.5728 25.0311 80.5728 25.1557 80.5728H25.2802L25.7783 79.452C26.0274 79.8257 25.6538 79.7011 25.2802 79.452ZM29.7634 81.1955L29.3898 82.4408C29.5143 82.4408 29.6389 82.4408 29.6389 82.5654C29.6389 82.5654 29.6389 82.5654 29.7634 82.5654C29.7634 82.5654 29.7634 82.5654 29.8879 82.5654L30.2615 81.32C30.5106 81.4446 30.137 81.32 29.7634 81.1955ZM34.4956 82.3163L34.2466 83.5616C34.4956 83.5616 34.7447 83.6862 34.9938 83.6862C34.9938 83.6862 34.9938 83.6862 35.1183 83.6862L35.3674 82.4408C35.2428 82.5654 34.8692 82.4408 34.4956 82.3163ZM39.2279 82.939L39.1034 84.1843C39.2279 84.1843 39.3524 84.1843 39.6015 84.1843C39.8506 84.1843 40.0996 84.1843 40.3487 84.1843V82.939C40.0996 83.0635 39.726 82.939 39.2279 82.939ZM45.33 82.939C44.9564 82.939 44.5828 82.939 44.0847 83.0635V84.3088H44.2092H44.3337C44.3337 84.3088 44.3337 84.3088 44.4583 84.3088C44.5828 84.3088 44.5828 84.3088 44.7073 84.3088L45.33 82.939ZM50.0623 82.3163C49.6887 82.4408 49.3151 82.4408 48.8169 82.5654L49.066 83.8107C49.3151 83.8107 49.4396 83.6862 49.6887 83.6862C49.8132 83.6862 49.9377 83.6862 49.9377 83.6862L50.0623 82.3163ZM54.7945 81.071C54.4209 81.1955 54.0473 81.32 53.6737 81.4446L54.0473 82.6899C54.4209 82.5654 54.67 82.4408 55.0436 82.4408H55.1681L54.7945 81.071ZM59.2777 79.3275C58.9041 79.4521 58.5305 79.7011 58.1569 79.8257L58.655 80.9464C59.0286 80.8219 59.4022 80.5728 59.7758 80.4483L59.2777 79.3275ZM63.5118 76.9614C63.1382 77.2105 62.7646 77.335 62.5156 77.5841L63.1382 78.7049C63.3873 78.5803 63.6364 78.4558 63.7609 78.3313C63.7609 78.3313 63.7609 78.3313 63.8854 78.3313C63.8854 78.3313 63.8854 78.3313 64.01 78.3313L63.5118 76.9614ZM67.4969 74.2217C67.1233 74.4707 66.8742 74.7198 66.5006 74.9689L67.2478 75.9651C67.3724 75.8406 67.4969 75.7161 67.7459 75.5915L67.4969 74.2217ZM71.1083 70.9838C70.8593 71.2329 70.4857 71.6065 70.2366 71.8555L71.1083 72.7273C71.3574 72.4782 71.4819 72.3537 71.731 72.1046C71.8555 71.9801 71.8555 71.9801 71.9801 71.8555L71.1083 70.9838ZM74.2217 67.3724C73.9726 67.746 73.7235 67.995 73.4745 68.3686L74.4707 69.1158C74.7198 68.7422 74.9689 68.4931 75.2179 68.1196L74.2217 67.3724ZM76.9614 63.3873C76.7123 63.7609 76.5878 64.1345 76.3387 64.3836L77.335 65.0062C77.5841 64.6326 77.8331 64.259 77.9577 64.01L76.9614 63.3873ZM79.3275 59.1532C79.203 59.5268 78.9539 59.9004 78.8294 60.274L79.9502 60.7721C80.0747 60.3985 80.3238 60.0249 80.4483 59.6513L79.3275 59.1532ZM81.071 54.67C80.9464 55.0436 80.8219 55.4172 80.6974 55.7908L81.8182 56.1644C81.9427 55.7908 82.0672 55.4172 82.1918 55.0436L81.071 54.67ZM82.1918 49.9377C82.0672 50.3113 82.0672 50.6849 81.9427 51.0585L83.188 51.3076C83.188 51.1831 83.188 51.1831 83.188 51.0585C83.188 50.934 83.3126 50.6849 83.3126 50.5604C83.3126 50.4359 83.3126 50.4359 83.3126 50.3113L82.1918 49.9377ZM82.8144 45.0809C82.8144 45.4545 82.6899 45.8281 82.6899 46.3263L83.9352 46.4508C83.9352 46.3263 83.9352 46.2017 83.9352 46.0772C83.9352 46.0772 83.9352 46.0772 83.9352 45.9527C83.9352 45.9527 83.9352 45.9527 83.9352 45.8281L82.8144 45.0809ZM84.1843 40.2242H82.939C82.939 40.5978 82.939 40.9714 82.939 41.4695H84.1843C84.1843 41.2204 84.1843 40.9714 84.1843 40.7223C84.1843 40.3487 84.1843 40.3487 84.1843 40.2242C84.1843 40.3487 84.1843 40.3487 84.1843 40.2242C84.1843 40.3487 84.1843 40.3487 84.1843 40.2242C84.1843 40.3487 84.1843 40.3487 84.1843 40.2242C84.1843 40.3487 84.1843 40.3487 84.1843 40.2242C84.1843 40.3487 84.1843 40.3487 84.1843 40.2242C84.1843 40.3487 84.1843 40.3487 84.1843 40.2242C84.1843 40.3487 84.1843 40.3487 84.1843 40.2242C84.1843 40.3487 84.1843 40.3487 84.1843 40.2242C84.1843 40.3487 84.1843 40.3487 84.1843 40.2242ZM83.6862 35.2428L82.4408 35.4919C82.5654 35.8655 82.5654 36.2391 82.5654 36.7372L83.8107 36.6127C83.6862 35.3674 83.6862 35.3674 83.6862 35.2428ZM82.5654 30.3861L81.32 30.7597C81.4446 31.1333 81.5691 31.5068 81.6936 31.8804L82.939 31.6314V31.5068C82.5654 30.7596 82.5654 30.5106 82.5654 30.3861ZM80.8219 25.7783L79.7011 26.2765C79.8257 26.6501 79.9502 27.0237 80.1992 27.3973L81.32 26.8991C81.32 26.7746 81.32 26.7746 81.1955 26.6501C81.1955 26.6501 81.1955 26.6501 81.1955 26.5255C80.9464 25.9029 80.9464 25.9029 80.8219 25.7783ZM78.7048 21.2951L77.5841 21.9178C77.8331 22.2914 77.9576 22.665 78.2067 22.9141L79.3275 22.2914C79.3275 22.1669 79.203 22.0423 79.203 22.0423C78.8294 21.6687 78.8294 21.5442 78.7048 21.2951ZM75.9651 17.061L74.9689 17.8082C75.2179 18.1818 75.467 18.4309 75.7161 18.8045L76.7123 18.0573C76.5878 17.8082 76.3387 17.5592 76.2142 17.3101C75.9651 17.1856 75.9651 17.1856 75.9651 17.061ZM72.7273 13.325L71.8555 14.1968C72.1046 14.4458 72.3537 14.8194 72.7273 15.0685L73.599 14.1968C73.599 14.1968 73.599 14.1968 73.4745 14.0722C73.1009 13.6986 72.9763 13.5741 72.7273 13.325C72.8518 13.325 72.8518 13.325 72.7273 13.325C72.8518 13.325 72.7273 13.325 72.7273 13.325ZM69.1158 9.83811L68.3686 10.8344C68.6177 11.0834 68.9913 11.3325 69.2403 11.5816L70.1121 10.7098C69.863 10.4608 69.6139 10.3362 69.3649 10.0872C69.2403 9.96264 69.2403 9.96264 69.1158 9.83811C69.2403 9.96264 69.2403 9.96264 69.1158 9.83811C69.2403 9.96264 69.2403 9.96264 69.1158 9.83811C69.2403 9.96264 69.2403 9.96264 69.1158 9.83811C69.2403 9.96264 69.2403 9.96264 69.1158 9.83811C69.2403 9.96264 69.2403 9.96264 69.1158 9.83811C69.2403 9.96264 69.2403 9.96264 69.1158 9.83811C69.2403 9.96264 69.2403 9.96264 69.1158 9.83811C69.2403 9.96264 69.2403 9.96264 69.1158 9.83811C69.1158 9.96264 69.1158 9.96264 69.1158 9.83811C69.1158 9.96264 69.1158 9.96264 69.1158 9.83811C69.1158 9.96264 69.1158 9.96264 69.1158 9.83811C69.1158 9.96264 69.1158 9.96264 69.1158 9.83811C69.1158 9.96264 69.1158 9.96264 69.1158 9.83811C69.1158 9.96264 69.1158 9.96264 69.1158 9.83811ZM65.1308 6.97385L64.5081 7.97011C64.8817 8.21918 65.1308 8.46824 65.5044 8.59278L66.2515 7.59651C65.6289 7.22291 65.3798 7.09838 65.1308 6.97385ZM60.7721 4.48319L60.274 5.60398C60.6476 5.72852 61.0212 5.97758 61.3948 6.10212L62.0174 4.98132C61.5193 4.85679 61.1457 4.60772 60.7721 4.48319ZM56.1644 2.49066L55.7908 3.61146C56.1644 3.73599 56.538 3.86052 56.9116 3.98506L57.4097 2.86426C57.2852 2.86426 57.2852 2.73973 57.1606 2.73973C56.787 2.73973 56.538 2.61519 56.1644 2.49066ZM51.4321 1.1208L51.1831 2.36613C51.5567 2.49066 51.9303 2.49066 52.3039 2.61519L52.6775 1.36986C52.5529 1.36986 52.5529 1.36986 52.4284 1.36986C52.4284 1.36986 52.4284 1.36986 52.3039 1.36986C51.8057 1.24533 51.6812 1.1208 51.4321 1.1208ZM46.5753 0.249066L46.4508 1.4944C46.8244 1.4944 47.198 1.61893 47.6961 1.61893L47.8207 0.373599C47.8207 0.373599 47.8207 0.373599 47.6961 0.373599C46.8244 0.249066 46.6999 0.249066 46.5753 0.249066ZM42.0922 0V1.24533C42.3412 1.24533 42.5903 1.24533 42.8393 1.24533V0C42.7148 0 42.5903 0 42.4658 0C42.2167 0 42.2167 0 42.0922 0C42.2167 0 42.2167 0 42.0922 0C42.2167 0 42.0922 0 42.0922 0Z" transform="translate(7.9707 7.84558)" fill="#489BFD"/>
<path d="M19.0859 41.4768H18.7123C10.6177 41.4768 6.13451 31.3896 4.88918 28.4008C4.64012 28.4008 4.14198 28.4008 3.64385 28.4008C0.655059 28.2763 0.156928 24.4158 0.0323948 22.5478C-0.0921382 21.9251 0.156927 21.3025 0.530526 20.8043C1.15319 20.0571 2.02492 19.6835 2.89665 19.559C2.14945 15.9475 1.02866 6.7321 7.75344 4.49051C7.75344 4.49051 9.99503 3.61878 13.8556 3.61878C14.9764 3.61878 15.2254 3.24518 15.599 2.24891C15.9726 1.37718 16.7198 -0.117215 18.8369 0.00731752C22.3238 0.131851 25.6862 1.50171 30.1694 4.24144C35.7734 7.72836 35.2752 15.823 34.7771 19.3099C35.5243 19.4345 36.2715 19.6835 36.8942 20.1817C37.3923 20.5553 37.7659 21.3025 37.6414 22.5478C37.2678 26.1592 35.8979 28.2763 34.0299 28.4008C33.5318 28.4008 33.1582 28.4008 32.7846 28.4008C31.6638 31.3896 27.1806 41.4768 19.0859 41.4768ZM18.7123 2.24891C18.4633 2.24891 18.3387 2.37344 17.9651 3.12064C17.467 4.11691 16.7198 5.86037 13.9801 5.86037C10.6177 5.86037 8.7497 6.60757 8.7497 6.60757C2.89665 8.6001 5.63638 19.559 5.76091 19.9326L5.88544 20.5553L5.13825 21.5515H4.51558C3.51932 21.6761 2.64759 21.9251 2.52305 22.1742C2.64759 23.4195 3.02118 25.6611 3.89292 25.6611C4.39105 25.6611 4.76465 25.6611 5.01371 25.6611C6.00998 25.6611 7.00624 26.2838 7.37984 27.28C8.37611 30.0198 12.3612 38.8616 18.8369 38.8616H19.2105C25.6862 38.8616 29.6712 30.0198 30.6675 27.28C31.0411 26.2838 31.9128 25.6611 33.0336 25.6611C33.2827 25.6611 33.6563 25.6611 34.1544 25.6611C34.4035 25.6611 35.1507 24.5403 35.3998 22.0497C35.3998 21.9251 35.3998 21.8006 35.3998 21.6761C35.1507 21.427 34.4035 21.427 33.6563 21.427L33.0336 21.5515L32.0374 20.5553L32.1619 19.8081C32.2864 19.4345 34.4035 9.34729 28.9241 5.86037C23.8182 2.62251 20.9539 2.12438 18.8369 1.99985C18.8369 2.24891 18.7123 2.24891 18.7123 2.24891Z" transform="translate(31.3496 13.5668)" fill="#036FF5"/>
<path d="M2.49066 0H0V6.35118H2.49066V0Z" transform="translate(40.4736 49.1906)" fill="#036FF5"/>
<path d="M2.49066 0H0V6.35118H2.49066V0Z" transform="translate(57.5342 49.1906)" fill="#036FF5"/>
<path d="M22.4272 29.6439L20.061 28.8967L26.9104 5.98263C26.9104 5.8581 26.9104 5.60903 26.9104 5.4845L25.5405 2.62024L15.9515 8.84689H13.4608L3.87175 2.62024L2.50189 5.4845C2.50189 5.60903 2.37736 5.73356 2.50189 5.85809L9.3512 28.7722L6.98507 29.5194L0.135762 6.6053C-0.113304 5.8581 0.0112294 5.1109 0.260295 4.3637L1.63016 1.37491C1.87922 0.752244 2.50189 0.254112 3.12455 0.129579C3.74722 -0.119487 4.49441 0.00504654 5.11708 0.378646L14.208 6.2317H15.2043L24.2952 0.378646C24.9178 0.00504654 25.5405 -0.119487 26.2877 0.129579C26.9104 0.378645 27.533 0.752244 27.7821 1.37491L29.152 4.3637C29.5256 5.1109 29.5255 5.8581 29.2765 6.6053L22.4272 29.6439Z" transform="translate(35.4805 53.4197)" fill="#036FF5"/>
<path d="M6.22665 0H0V2.49066H6.22665V0Z" transform="translate(39.7783 67.0681) rotate(-31.3774)" fill="#036FF5"/>
<path d="M2.49066 0H0V6.22665H2.49066V0Z" transform="translate(54.0908 65.9517) rotate(-58.6432)" fill="#036FF5"/>
<path d="M2.49066 0H0V13.8232H2.49066V0Z" transform="translate(51.0732 69.2073) rotate(-10.3346)" fill="#036FF5"/>
<path d="M13.8232 0H0V2.49066H13.8232V0Z" transform="translate(44.4902 82.4812) rotate(-79.6475)" fill="#036FF5"/>
<path d="M31.8804 25.5293H30.7597C15.3176 25.5293 5.10585 20.9215 1.36986 18.0573C0.498131 17.4346 0 16.3138 0 15.193V13.076C0 8.46824 2.98879 4.23412 7.34745 2.73973L17.061 0L17.6837 2.36613L7.97011 5.10586C4.60772 6.22665 2.36613 9.46451 2.36613 13.076V15.193C2.36613 15.5666 2.49066 15.8157 2.73973 16.0648C3.11332 16.3138 12.2042 23.0386 30.6351 23.0386H31.7559C50.1868 23.0386 59.2777 16.4384 59.6513 16.0648C59.9004 15.8157 60.0249 15.5666 60.0249 15.193V13.076C60.0249 9.46451 57.7833 6.22665 54.4209 5.10586L45.0809 2.36613L45.8281 0L55.2926 2.73973C59.7758 4.23412 62.6401 8.46824 62.6401 13.076V15.193C62.6401 16.3138 62.142 17.3101 61.2702 18.0573C57.5342 20.9215 47.3225 25.5293 31.8804 25.5293Z" transform="translate(18.9297 58.655)" fill="#036FF5"/>
<path d="M5.47945 10.9589C2.49066 10.9589 0 8.46825 0 5.47945C0 2.49066 2.49066 0 5.47945 0C8.46825 0 10.9589 2.49066 10.9589 5.47945C10.9589 8.46825 8.46825 10.9589 5.47945 10.9589ZM5.47945 2.49066C3.86052 2.49066 2.49066 3.86052 2.49066 5.47945C2.49066 7.09838 3.86052 8.46825 5.47945 8.46825C7.09838 8.46825 8.46824 7.09838 8.46824 5.47945C8.46824 3.86052 7.09838 2.49066 5.47945 2.49066Z" transform="translate(44.832 59.9004)" fill="#036FF5"/>
</svg>
