<svg width="100" height="100" viewBox="0 0 100 100" fill="none" xmlns="http://www.w3.org/2000/svg">
<path d="M47.4534 14.3213C44.9689 12.0797 42.236 10.2117 39.3789 8.59278C32.4224 4.60772 24.3478 2.49066 16.1491 2.49066C10.9317 2.49066 5.71428 3.36239 0.74534 5.10585L0 2.73973C5.21739 0.996264 10.6832 0 16.1491 0C24.7205 0 33.2919 2.24159 40.7453 6.47572C43.7267 8.21918 46.5839 10.2117 49.1926 12.4533L47.4534 14.3213Z" transform="translate(33.7891)" fill="#E3F1FF"/>
<path d="M1.49068 6.10212L0 4.10959C1.86335 2.61519 3.85093 1.24533 5.96273 0L7.20497 2.11706C5.21739 3.36239 3.35404 4.73225 1.49068 6.10212Z" transform="translate(19.0059 6.60034)" fill="#E3F1FF"/>
<path d="M49.9379 75.7161C22.3602 75.7161 0 53.3001 0 25.7783C0 17.061 2.23603 8.46824 6.58385 0.871732L8.69565 2.11706C4.59627 9.21544 2.48447 17.4346 2.48447 25.7783C2.48447 51.9303 23.7267 73.3499 49.9379 73.3499C76.1491 73.3499 97.3913 52.0548 97.3913 25.7783C97.3913 20.0498 96.3975 14.3213 94.4099 8.96638C93.4161 6.35118 92.1739 3.73599 90.6832 1.24533L92.795 0C94.4099 2.61519 95.6522 5.35492 96.7702 8.09464C98.882 13.6986 100 19.6762 100 25.7783C99.7515 53.3001 77.3913 75.7161 49.9379 75.7161Z" transform="translate(0 24.2839)" fill="#E3F1FF"/>
<path d="M33.5404 67.2478C52.0642 67.2478 67.0807 52.1939 67.0807 33.6239C67.0807 15.0539 52.0642 0 33.5404 0C15.0165 0 0 15.0539 0 33.6239C0 52.1939 15.0165 67.2478 33.5404 67.2478Z" transform="translate(16.3975 16.4384)" fill="#E3F1FF"/>
<path d="M49.6894 49.8132C22.236 49.8132 0 27.3973 0 0H2.48447C2.48447 26.1519 23.7267 47.3225 49.6894 47.3225V49.8132Z" transform="translate(0 50.1869)" fill="#036FF5"/>
<path d="M41.9876 0C41.8634 0 41.8634 0 41.9876 0C41.8634 0 41.8634 0 41.9876 0C41.8634 0 41.8634 0 41.9876 0C41.8634 0 41.8634 0 41.9876 0C41.8634 0 41.8634 0 41.9876 0C41.8634 0 41.8634 0 41.9876 0C41.8634 0 41.8634 0 41.9876 0C41.8634 0 41.8634 0 41.9876 0C41.8634 0 41.8634 0 41.9876 0C41.8634 0 41.8634 0 41.9876 0C41.8634 0 41.8634 0 41.9876 0C41.8634 0 41.8633 0 41.8633 0C41.8633 0 41.8634 0 41.7391 0H41.6149C41.4907 0 41.3665 0 41.2422 0V1.24533C41.6149 1.24533 41.9876 1.24533 42.4845 1.24533V0H41.9876ZM37.0186 0.373599C36.646 0.373599 36.2733 0.498132 36.0248 0.498132H35.9006L36.0248 1.74346C36.3975 1.74346 36.7702 1.61893 37.2671 1.61893L37.0186 0.373599ZM32.0497 1.24533C31.9255 1.24533 31.8012 1.24533 31.8012 1.36986C31.677 1.36986 31.5528 1.4944 31.4286 1.4944L31.8012 2.73973C32.1739 2.61519 32.5466 2.49066 32.9193 2.49066L32.0497 1.24533ZM27.3292 2.61519C27.0807 2.73973 26.9565 2.73973 26.7081 2.86426C26.5839 2.98879 26.3354 2.98879 26.2112 3.11332L26.7081 4.23412C27.0807 4.10959 27.4534 3.98506 27.8261 3.73599L27.3292 2.61519ZM22.8571 4.60772C22.7329 4.60772 22.6087 4.73225 22.6087 4.73225C22.3602 4.85679 22.236 4.98132 21.9876 5.10585C21.9876 5.10585 21.9876 5.10585 21.8634 5.10585L22.4845 6.22665C22.8571 5.97758 23.2298 5.85305 23.6025 5.60398L22.8571 4.60772ZM18.5093 7.22291C18.3851 7.22291 18.3851 7.22291 18.5093 7.22291C18.3851 7.22291 18.3851 7.22291 18.5093 7.22291C18.3851 7.34745 18.3851 7.34745 18.3851 7.34745C18.2609 7.47198 18.2609 7.47198 18.1366 7.59651C18.0124 7.72105 17.764 7.84558 17.6398 7.97011L18.3851 8.96638C18.7578 8.71731 19.0062 8.46824 19.3789 8.21918L18.5093 7.22291ZM14.5342 10.2117C14.4099 10.3362 14.2857 10.4608 14.1615 10.4608C14.0373 10.5853 13.913 10.7098 13.6646 10.8344L14.5342 11.7061C14.7826 11.457 15.1553 11.208 15.4037 10.9589L14.5342 10.2117ZM11.0559 13.6986C10.8075 13.9477 10.6832 14.0722 10.4348 14.3213C10.3106 14.4458 10.3106 14.4458 10.1863 14.5704L11.1801 15.4421C11.4286 15.193 11.677 14.8194 11.9255 14.5704L11.0559 13.6986ZM7.82609 17.5592C7.82609 17.6837 7.70186 17.6837 7.70186 17.8082C7.57764 18.0573 7.32919 18.3064 7.20497 18.4309L8.19876 19.1781C8.4472 18.8045 8.69565 18.5554 8.9441 18.1818L7.82609 17.5592ZM5.21739 21.6687C5.21739 21.7933 5.09317 21.9178 5.09317 22.0423C4.96894 22.2914 4.84472 22.4159 4.7205 22.665L5.83851 23.2877C5.96273 22.9141 6.21118 22.5405 6.45963 22.1669L5.21739 21.6687ZM2.98137 26.1519V26.2765C2.85714 26.5255 2.73292 26.7746 2.73292 27.0237L3.85093 27.5218C3.97516 27.1482 4.09938 26.7746 4.34783 26.401L2.98137 26.1519ZM1.49068 30.8842C1.36646 31.2578 1.24224 31.6314 1.24224 32.005L2.48447 32.254C2.6087 31.8804 2.73292 31.5068 2.73292 31.1332L1.49068 30.8842ZM0.37267 35.741C0.37267 36.1146 0.248447 36.4882 0.248447 36.8618V36.9863L1.49068 37.1108C1.49068 36.7372 1.61491 36.3636 1.61491 35.8655L0.37267 35.741ZM0 40.7223C0 41.0959 0 41.4695 0 41.8431H1.24224C1.24224 41.4695 1.24224 41.0959 1.24224 40.5978L0 40.7223ZM1.24224 45.5791L0 45.7036C0 45.9527 -1.2032e-07 46.3263 0.124223 46.5753C0.124223 46.6999 0.124223 46.6999 0.124223 46.8244L1.36646 46.6999C1.36646 46.4508 1.36646 46.0772 1.24224 45.5791ZM1.98758 50.4359L0.745341 50.6849C0.745341 50.8095 0.745341 50.934 0.869565 51.0585C0.869565 51.3076 0.993788 51.5567 0.993788 51.8057L2.23602 51.5567C2.1118 51.1831 2.1118 50.8095 1.98758 50.4359ZM3.22981 55.0436L1.98758 55.4172C1.98758 55.5417 1.98758 55.5417 2.1118 55.6663C2.1118 55.7908 2.23602 55.9153 2.23602 56.0398L3.35404 55.6663C3.47826 55.7908 3.35404 55.4172 3.22981 55.0436ZM4.96894 59.5268L3.85093 60.0249C3.85093 60.1494 3.97516 60.274 3.97516 60.274C3.97516 60.274 3.97516 60.274 3.97516 60.3985C4.09938 60.6476 4.09938 60.7721 4.2236 60.8966V61.0212L5.34161 60.3985C5.34161 60.274 5.21739 59.9004 4.96894 59.5268ZM7.32919 63.7609L6.3354 64.3836C6.45963 64.5081 6.45963 64.6326 6.58385 64.7572C6.70807 64.8817 6.70807 65.0062 6.8323 65.1308L7.82609 64.3836C7.70186 64.5081 7.57764 64.1345 7.32919 63.7609ZM10.0621 67.7459L9.06832 68.4931C9.31677 68.7422 9.56522 69.1158 9.81366 69.3649L10.8075 68.6177C10.559 68.3686 10.3106 67.995 10.0621 67.7459ZM13.2919 71.3574L12.4224 72.2291C12.5466 72.3537 12.795 72.4782 12.9193 72.7273C13.0435 72.8518 13.1677 72.9763 13.2919 73.1009L14.1615 72.2291C13.913 71.8555 13.6646 71.6065 13.2919 71.3574ZM17.0186 74.4707L16.2733 75.467C16.3975 75.5915 16.3975 75.5915 16.5217 75.7161L16.646 75.8406L17.3913 74.8443C17.6398 74.9689 17.2671 74.7198 17.0186 74.4707ZM20.9938 77.2105L20.3727 78.3313C20.4969 78.3313 20.4969 78.4558 20.6211 78.4558C20.7453 78.5803 20.8696 78.5803 21.118 78.7049C21.118 78.7049 21.118 78.7049 21.2422 78.7049L21.8634 77.5841C21.6149 77.5841 21.2422 77.4595 20.9938 77.2105ZM25.2174 79.452L24.7205 80.5728C24.8447 80.5728 24.9689 80.6974 25.0932 80.6974C25.0932 80.6974 25.0932 80.6974 25.2174 80.6974C25.3416 80.6974 25.3416 80.8219 25.4658 80.8219C25.4658 80.8219 25.4658 80.8219 25.5901 80.8219L26.087 79.7011C25.9627 79.8257 25.5901 79.7011 25.2174 79.452ZM29.6894 81.1955L29.3168 82.4408C29.441 82.4408 29.441 82.4408 29.5652 82.5654C29.8137 82.6899 30.1863 82.6899 30.4348 82.8144L30.8075 81.5691C30.4348 81.4446 30.0621 81.32 29.6894 81.1955ZM34.4099 82.3163L34.1615 83.5616C34.5342 83.6862 35.0311 83.6862 35.4037 83.8107L35.6522 82.5654C35.1553 82.5654 34.7826 82.4408 34.4099 82.3163ZM39.1304 82.939L39.0062 84.1843C39.1304 84.1843 39.2547 84.1843 39.3789 84.1843C39.3789 84.1843 39.3789 84.1843 39.5031 84.1843C39.6273 84.1843 39.8758 84.1843 40 84.1843V82.939C40 83.0635 39.6273 82.939 39.1304 82.939ZM45.2174 82.939C44.8447 82.939 44.472 82.939 43.9752 83.0635V84.3088C44.0994 84.3088 44.0994 84.3088 44.2236 84.3088C44.472 84.3088 44.8447 84.3088 45.0932 84.3088L45.2174 82.939ZM49.9379 82.3163C49.5652 82.4408 49.1925 82.4408 48.6956 82.5654L48.9441 83.8107H49.0683C49.1925 83.8107 49.3168 83.8107 49.3168 83.8107C49.3168 83.8107 49.3168 83.8107 49.441 83.8107L49.9379 82.3163ZM54.6584 81.071C54.2857 81.1955 53.913 81.32 53.5404 81.4446L53.913 82.6899C54.0373 82.6899 54.0373 82.6899 54.1615 82.5654C54.4099 82.4408 54.5342 82.4408 54.7826 82.3163C54.7826 82.3163 54.7826 82.3163 54.9068 82.3163L54.6584 81.071ZM59.1304 79.3275C58.7578 79.4521 58.3851 79.7011 58.0124 79.8257L58.5093 80.9464C58.7578 80.8219 59.1304 80.6974 59.3789 80.5728L59.1304 79.3275ZM63.354 76.9614C62.9814 77.2105 62.6087 77.335 62.3602 77.5841L62.9814 78.7049C63.2298 78.5803 63.4783 78.4558 63.6025 78.3313C63.7267 78.3313 63.8509 78.2067 63.8509 78.2067L63.354 76.9614ZM67.3292 74.2217C66.9565 74.4707 66.7081 74.7198 66.3354 74.9689L67.0807 75.9651C67.3292 75.7161 67.7019 75.467 67.9503 75.3425L67.3292 74.2217ZM70.9317 70.9838C70.6832 71.2329 70.3106 71.6065 70.0621 71.8555L70.9317 72.7273L71.0559 72.6027C71.3043 72.3537 71.4286 72.2291 71.677 71.9801L70.9317 70.9838ZM74.0373 67.3724C73.7888 67.746 73.5404 67.995 73.2919 68.3686L74.2857 69.1158C74.4099 68.9913 74.5342 68.8667 74.6584 68.7422L74.0373 67.3724ZM76.7702 63.3873C76.5217 63.7609 76.3975 64.1345 76.1491 64.3836L77.1429 65.0062C77.2671 64.7572 77.5155 64.3836 77.6397 64.1345L76.7702 63.3873ZM79.1304 59.1532C79.0062 59.5268 78.7578 59.9004 78.6335 60.274L79.7515 60.7721C79.8758 60.3985 80.1242 60.0249 80.2484 59.6513L79.1304 59.1532ZM80.8696 54.67C80.7453 55.0436 80.6211 55.4172 80.4969 55.7908L81.6149 56.1644C81.7391 55.7908 81.8633 55.4172 81.9876 55.0436L80.8696 54.67ZM81.9876 49.9377C81.8633 50.3113 81.8633 50.6849 81.7391 51.0585L82.9814 51.3076C82.9814 51.1831 82.9814 51.1831 82.9814 51.0585C82.9814 50.934 83.1056 50.6849 83.1056 50.5604C83.1056 50.4359 83.1056 50.4359 83.1056 50.3113L81.9876 49.9377ZM82.6087 45.0809C82.6087 45.4545 82.4845 45.8281 82.4845 46.3263L83.7267 46.4508C83.7267 46.4508 83.7267 46.4508 83.7267 46.3263C83.7267 45.9527 83.8509 45.5791 83.8509 45.2055L82.6087 45.0809ZM83.9752 40.2242H82.7329C82.7329 40.5978 82.7329 40.9714 82.7329 41.4695H83.9752C83.9752 41.2204 83.9752 41.0959 83.9752 40.8468C83.9752 40.5978 83.9752 40.4732 83.9752 40.2242ZM83.4783 35.2428L82.236 35.4919C82.3602 35.8655 82.3602 36.2391 82.3602 36.7372L83.6025 36.6127C83.6025 36.4882 83.6025 36.4882 83.6025 36.3636C83.6025 36.3636 83.6025 36.3636 83.6025 36.2391C83.4783 35.741 83.4783 35.4919 83.4783 35.2428ZM82.3602 30.3861L81.118 30.7597C81.2422 31.1333 81.3665 31.5068 81.4907 31.8804L82.7329 31.6314C82.7329 31.5069 82.7329 31.5068 82.7329 31.3823C82.7329 31.2578 82.6087 31.1332 82.6087 30.8842C82.3602 30.5106 82.3602 30.5106 82.3602 30.3861C82.3602 30.5106 82.3602 30.5106 82.3602 30.3861C82.3602 30.5106 82.3602 30.5106 82.3602 30.3861C82.3602 30.5106 82.3602 30.5106 82.3602 30.3861C82.3602 30.5106 82.3602 30.5106 82.3602 30.3861C82.3602 30.5106 82.3602 30.5106 82.3602 30.3861C82.3602 30.5106 82.3602 30.5106 82.3602 30.3861C82.3602 30.5106 82.3602 30.5106 82.3602 30.3861C82.3602 30.5106 82.3602 30.5106 82.3602 30.3861C82.3602 30.5106 82.3602 30.5106 82.3602 30.3861C82.3602 30.5106 82.3602 30.5106 82.3602 30.3861C82.3602 30.5106 82.3602 30.5106 82.3602 30.3861ZM80.6211 25.7783L79.5031 26.2765C79.6273 26.6501 79.7516 27.0237 80 27.3973L81.118 26.8991C81.118 26.7746 80.9938 26.6501 80.9938 26.6501C80.9938 26.5255 80.8696 26.401 80.8696 26.2765C80.7453 25.9029 80.7453 25.7783 80.6211 25.7783ZM78.5093 21.2951L77.3913 21.9178C77.6397 22.2914 77.764 22.665 78.0124 22.9141L79.1304 22.2914C79.1304 22.2914 79.1304 22.1669 79.0062 22.1669C79.0062 22.1669 79.0062 22.1669 79.0062 22.0423C78.6335 21.6687 78.5093 21.4197 78.5093 21.2951ZM75.7764 17.061L74.7826 17.8082C75.0311 18.1818 75.2795 18.4309 75.5279 18.8045L76.5217 18.0573C76.3975 17.9328 76.2733 17.6837 76.1491 17.5592C75.9006 17.4346 75.9006 17.3101 75.7764 17.061ZM72.5466 13.325L71.677 14.1968C71.9255 14.4458 72.1739 14.8194 72.5466 15.0685L73.4161 14.1968C73.1677 13.9477 72.795 13.5741 72.5466 13.325ZM68.9441 9.83811L68.1988 10.8344C68.4472 11.0834 68.8199 11.3325 69.0683 11.5816L69.9379 10.7098C69.8137 10.7098 69.8137 10.5853 69.6894 10.5853C69.441 10.2117 69.1925 10.0872 68.9441 9.83811ZM64.9689 6.97385L64.3478 7.97011C64.7205 8.21918 64.9689 8.46824 65.3416 8.59278L66.087 7.59651C65.5901 7.34745 65.3416 7.09838 64.9689 6.97385ZM60.6211 4.48319L60.1242 5.60398C60.4969 5.72852 60.8696 5.97758 61.2422 6.10212L61.8634 4.98132C61.3665 4.85679 60.9938 4.60772 60.6211 4.48319ZM56.0248 2.49066L55.6522 3.61146C56.0248 3.73599 56.3975 3.86052 56.7702 3.98506L57.2671 2.86426C57.1429 2.86426 57.1429 2.86426 57.0186 2.73973C56.646 2.73973 56.3975 2.61519 56.0248 2.49066ZM51.3043 1.1208L51.0559 2.36613C51.4286 2.49066 51.8012 2.49066 52.1739 2.61519L52.5466 1.36986C52.5466 1.36986 52.5466 1.36986 52.4224 1.36986C52.2981 1.36986 52.0497 1.24533 51.9255 1.24533C51.9255 1.24533 51.9255 1.24533 51.8012 1.24533C51.4286 1.1208 51.4286 1.1208 51.3043 1.1208C51.4286 1.1208 51.4286 1.1208 51.3043 1.1208C51.4286 1.1208 51.4286 1.1208 51.3043 1.1208C51.4286 1.1208 51.4286 1.1208 51.3043 1.1208C51.4286 1.1208 51.4286 1.1208 51.3043 1.1208C51.4286 1.1208 51.4286 1.1208 51.3043 1.1208C51.4286 1.1208 51.3043 1.1208 51.3043 1.1208ZM46.4596 0.249066L46.3354 1.4944C46.7081 1.4944 47.0807 1.61893 47.5776 1.61893L47.7019 0.373599C47.205 0.373599 46.8323 0.373599 46.4596 0.249066ZM41.9876 0V1.24533C42.236 1.24533 42.4845 1.24533 42.7329 1.24533V0C42.6087 0 42.4845 0 42.3602 0C42.1118 0 42.1118 0 41.9876 0C42.1118 0 42.1118 0 41.9876 0C42.1118 0 41.9876 0 41.9876 0Z" transform="translate(7.95117 7.84558)" fill="#489BFD"/>
<path d="M10.0621 49.6887C9.56522 49.6887 8.9441 49.4396 8.57143 49.066C3.10559 43.5866 0 36.3636 0 28.6426C0 13.4496 11.8012 0.996264 26.8323 0C27.5776 0 28.323 0.249066 28.9441 0.747198C29.5652 1.24533 29.8137 1.99253 29.8137 2.73972V27.6463C29.8137 28.6426 29.441 29.5143 28.6957 30.2615L19.1304 40.2242C18.6335 40.7223 17.8882 40.7223 17.3913 40.2242C16.8944 39.726 16.8944 38.9788 17.3913 38.4807L26.9565 28.5181C27.205 28.269 27.3292 27.8954 27.3292 27.6463V2.73972C27.3292 2.61519 27.3292 2.61519 27.205 2.49066C27.205 2.49066 27.0807 2.36613 26.9565 2.36613C13.1677 3.23786 2.48447 14.6949 2.48447 28.5181C2.48447 35.4919 5.09317 41.9676 10.0621 46.8244L15.1553 41.4695C15.6522 40.9714 16.3975 40.9714 16.8944 41.4695C17.3913 41.9676 17.3913 42.7148 16.8944 43.2129L11.5528 48.8169C11.1801 49.4396 10.6832 49.6887 10.0621 49.6887Z" transform="translate(21.2422 21.2952)" fill="#036FF5"/>
<path d="M15.8618 6.68587C10.396 6.68587 5.17857 5.19147 0.582298 2.32721C-0.0388205 1.95361 -0.163043 1.20641 0.209628 0.583748C0.582299 -0.0389172 1.32764 -0.163449 1.94876 0.21015C6.04814 2.82534 10.8929 4.19521 15.8618 4.19521C16.6071 4.19521 17.104 4.69334 17.104 5.44054C17.104 6.18773 16.4829 6.68587 15.8618 6.68587Z" transform="translate(34.0762 72.019)" fill="#036FF5"/>
<path d="M22.131 38.3754C22.0067 38.3754 21.8825 38.3754 21.7583 38.2508C21.1372 38.0018 20.7645 37.3791 21.0129 36.6319C21.8825 33.8922 22.3794 31.1525 22.3794 28.2882C22.3794 15.5858 13.4353 4.876 1.01295 2.50987C0.391833 2.38534 -0.105061 1.76267 0.0191629 1.01548C0.143387 0.392811 0.764505 -0.105322 1.50985 0.0192106C15.0502 2.50987 24.9881 14.3405 24.9881 28.1637C24.9881 31.277 24.4912 34.3903 23.4974 37.3791C23.1248 38.1263 22.6279 38.3754 22.131 38.3754Z" transform="translate(53.6455 21.6494)" fill="#036FF5"/>
<path d="M14.2294 18.0824C13.7325 18.0824 13.2356 17.9578 12.7387 17.5842L0.440547 7.37253C-0.0563478 6.8744 -0.180572 6.1272 0.316323 5.62907C0.813217 5.13093 1.55856 5.0064 2.05545 5.50453L14.2294 15.5917L29.3846 0.647745C30.13 -0.0994527 31.3722 -0.223987 32.2418 0.398678L46.2791 10.3613L52.8629 1.27041C53.2356 0.772278 53.9809 0.647744 54.602 1.02134C55.0989 1.39494 55.2231 2.26668 54.8505 2.76481L48.1424 12.1048C47.3971 13.101 46.0306 13.3501 45.0368 12.6029L30.9996 2.51574L15.8443 17.4597C15.4716 17.8333 14.8505 18.0824 14.2294 18.0824Z" transform="translate(32.3535 49.7881)" fill="#036FF5"/>
<path d="M6.21118 6.22665H3.72671V2.49066H0V0H6.21118V6.22665Z" transform="translate(81.9873 50.4359)" fill="#036FF5"/>
<path d="M4.37832 16.4065H1.56368C0.93821 16.4065 0.521228 15.9858 0.521228 15.3548C0.521228 14.7237 0.93821 14.3031 1.56368 14.3031H4.16982V2.10339H1.04246C0.416982 2.10339 0 1.68271 0 1.0517C0 0.420678 0.416982 0 1.04246 0H4.27407C5.31652 0 6.25474 0.841354 6.25474 1.99822V14.5134C6.35898 15.5651 5.52502 16.4065 4.37832 16.4065Z" transform="translate(51 67.9625)" fill="#036FF5"/>
<path d="M4.37832 14.0641H1.04246C0.416982 14.0641 0 13.6435 0 13.0125C0 12.3814 0.416982 11.9608 1.04246 11.9608H4.16982C5.21228 10.278 8.33965 4.17821 8.96512 2.4955C9.69484 0.392106 11.5713 -0.238911 13.0307 0.0765977C13.9689 0.286937 14.4901 0.812783 14.6986 1.23346C15.2199 2.07482 15.2199 3.23169 14.8029 4.70406C14.0732 7.3333 12.718 11.4349 12.718 11.6453C12.5095 12.1711 11.9882 12.4866 11.3628 12.2763C10.8415 12.0659 10.5288 11.5401 10.7373 10.9091C10.7373 10.9091 12.0925 6.70228 12.8222 4.07304C13.1349 2.81101 12.9265 2.39033 12.9265 2.28516C12.9265 2.28516 12.8222 2.17999 12.6137 2.07482C12.301 1.96965 11.3628 1.96965 10.9458 3.23168C10.2161 5.12474 6.67172 11.8556 5.83776 13.2228C5.42077 13.7486 4.89954 14.0641 4.37832 14.0641Z" transform="translate(56.0039 58)" fill="#036FF5"/>
<path d="M7.50568 1.99822C7.92266 1.99822 8.33965 2.31373 8.33965 2.83958C8.33965 3.36543 8.02691 3.68093 7.50568 3.68093V5.88949C9.17361 5.88949 10.4246 4.52229 10.4246 2.94475C10.4246 1.26203 9.06936 0 7.50568 0H0V2.20856L7.50568 1.99822Z" transform="translate(67.5752 68.2781)" fill="#036FF5"/>
<path d="M1.87642 1.99822C2.2934 1.99822 2.71038 2.31373 2.71038 2.83958C2.71038 3.26026 2.39765 3.68094 1.87642 3.68094V5.8895C3.54435 5.8895 4.7953 4.52229 4.7953 2.94475C4.7953 1.26203 3.4401 0 1.87642 0H1.04246C0.416982 0 0 0.525848 0 1.0517C0 1.68271 0.521228 2.10339 1.04246 2.10339H1.87642" transform="translate(72.7871 72.0642)" fill="#036FF5"/>
<path d="M13.8647 2.10339C14.1774 2.10339 14.3859 2.31373 14.3859 2.62924C14.3859 2.94475 14.1774 3.15509 13.8647 3.15509L0 2.52407V4.8378L13.8647 5.46881C15.4283 5.46881 16.575 4.20678 16.575 2.73441C16.575 1.15686 15.3241 0 13.8647 0H12.301C11.6755 0 11.2585 0.525848 11.2585 1.0517C11.2585 1.68271 11.7798 2.10339 12.301 2.10339H13.8647Z" transform="translate(60.5908 79.5311)" fill="#036FF5"/>
<path d="M1.87642 1.99822C2.2934 1.99822 2.71039 2.31373 2.71039 2.83958C2.71039 3.26025 2.39765 3.68093 1.87642 3.68093V5.88949C3.54435 5.88949 4.7953 4.52229 4.7953 2.94474C4.7953 1.26203 3.4401 0 1.87642 0H1.04246C0.416982 0 0 0.525848 0 1.0517C0 1.68271 0.521228 2.10339 1.04246 2.10339H1.87642" transform="translate(72.6826 75.8505)" fill="#036FF5"/>
</svg>
