<svg width="100" height="100" viewBox="0 0 100 100" fill="none" xmlns="http://www.w3.org/2000/svg">
<path d="M33.0846 14.3213C24.5025 14.3213 15.9204 12.0797 8.45771 7.84557C5.47264 6.10211 2.61194 4.10959 0 1.868L1.61691 0C4.10448 2.24159 6.8408 4.10959 9.70149 5.72852C16.791 9.71357 24.8756 11.8306 33.0846 11.8306C38.3085 11.8306 43.5323 10.9589 48.5075 9.21543L49.2537 11.5816C44.0299 13.4496 38.5572 14.3213 33.0846 14.3213Z" transform="translate(16.9141 85.6787)" fill="#E3F1FF"/>
<path d="M1.24378 5.97759L0 3.86053C1.99005 2.73973 3.85572 1.36986 5.72139 0L7.21393 1.99254C5.34826 3.3624 3.35821 4.73226 1.24378 5.97759Z" transform="translate(73.6318 87.4221)" fill="#E3F1FF"/>
<path d="M7.08955 75.8406C5.47264 73.2254 4.22886 70.4857 3.10945 67.7459C1.1194 62.0174 0 56.0398 0 50.0623C0 22.4159 22.3881 0 50 0C77.6119 0 100 22.4159 100 50.0623C100 58.7796 97.7612 67.3724 93.408 74.9689L91.2935 73.7235C95.398 66.6252 97.5124 58.406 97.5124 50.0623C97.3881 23.7858 76.1194 2.49066 50 2.49066C23.7562 2.49066 2.48756 23.7858 2.48756 50.0623C2.48756 55.7908 3.48259 61.5193 5.47264 66.8742C6.46766 69.4894 7.71144 72.1046 9.20398 74.5953L7.08955 75.8406Z" fill="#E3F1FF"/>
<path d="M33.5821 67.2478C52.129 67.2478 67.1642 52.1939 67.1642 33.6239C67.1642 15.0539 52.129 0 33.5821 0C15.0352 0 0 15.0539 0 33.6239C0 52.1939 15.0352 67.2478 33.5821 67.2478Z" transform="translate(16.418 16.4384)" fill="#E3F1FF"/>
<path d="M49.7512 49.8132H47.2637C47.2637 23.6613 25.995 2.49066 0 2.49066V0C27.4876 0 49.7512 22.4159 49.7512 49.8132Z" transform="translate(50.124)" fill="#036FF5"/>
<path d="M42.0398 0C41.9154 0 41.9154 0 42.0398 0C41.9154 0 41.9154 0 42.0398 0C41.9154 0 41.9154 0 42.0398 0C41.9154 0 41.9154 0 42.0398 0C41.9154 0 41.9154 0 42.0398 0C41.9154 0 41.9154 0 42.0398 0C41.9154 0 41.9154 0 42.0398 0C41.9154 0 41.9154 0 42.0398 0C41.9154 0 41.9154 0 42.0398 0C41.9154 0 41.9154 0 42.0398 0C41.9154 0 41.9154 0 42.0398 0C41.9154 0 41.9154 0 41.9154 0C41.9154 0 41.9154 0 41.791 0H41.6667C41.5423 0 41.4179 0 41.2935 0V1.24533C41.6667 1.24533 42.0398 1.24533 42.5373 1.24533V0H42.0398ZM37.0647 0.373599C36.6915 0.373599 36.3184 0.498132 36.0697 0.498132C36.0697 0.498132 36.0697 0.498132 35.9453 0.498132L36.0697 1.74346C36.4428 1.74346 36.8159 1.61893 37.3134 1.61893L37.0647 0.373599ZM32.0896 1.24533C31.9652 1.24533 31.9652 1.24533 31.8408 1.36986C31.8408 1.36986 31.8408 1.36986 31.7164 1.36986C31.592 1.36986 31.3433 1.4944 31.2189 1.4944L31.592 2.73973C31.9652 2.61519 32.3383 2.49066 32.7114 2.49066L32.0896 1.24533ZM27.3632 2.61519C27.2388 2.61519 26.99 2.73973 26.8657 2.73973C26.6169 2.86426 26.4925 2.86426 26.2438 2.98879L26.7413 4.10959C27.1144 3.98506 27.4876 3.86052 27.8607 3.61146L27.3632 2.61519ZM22.8856 4.60772C22.7612 4.60772 22.7612 4.73225 22.8856 4.60772C22.7612 4.73225 22.7612 4.73225 22.8856 4.60772C22.7612 4.73225 22.7612 4.73225 22.8856 4.60772C22.7612 4.73225 22.7612 4.73225 22.8856 4.60772C22.7612 4.73225 22.7612 4.73225 22.8856 4.60772C22.7612 4.73225 22.7612 4.73225 22.8856 4.60772C22.7612 4.73225 22.7612 4.73225 22.8856 4.60772C22.7612 4.73225 22.7612 4.73225 22.8856 4.60772C22.7612 4.73225 22.7612 4.73225 22.7612 4.73225C22.5124 4.85679 22.2637 4.98132 22.0149 5.10585L22.6368 6.22665C23.01 5.97758 23.3831 5.85305 23.7562 5.60398L22.8856 4.60772ZM18.5323 7.22291C18.1592 7.47198 17.7861 7.72105 17.5373 7.97011L18.2836 8.96638C18.6567 8.71731 18.9055 8.46824 19.2786 8.21918L18.5323 7.22291ZM14.5522 10.2117C14.1791 10.4608 13.9303 10.7098 13.6816 11.0834L14.5522 11.9552C14.801 11.7061 15.1741 11.457 15.4229 11.208L14.5522 10.2117ZM11.0697 13.6986C10.8209 13.9477 10.6965 14.0722 10.4478 14.3213C10.3234 14.4458 10.3234 14.4458 10.199 14.5704L11.194 15.4421C11.4428 15.193 11.6915 14.8194 11.9403 14.5704L11.0697 13.6986ZM7.83582 17.5592C7.71144 17.6837 7.58706 17.9328 7.46269 18.0573C7.33831 18.1818 7.33831 18.1818 7.21393 18.3064C7.21393 18.3064 7.21393 18.3064 7.21393 18.4309L8.20895 19.1781C8.45771 18.8045 8.70647 18.5554 8.95522 18.1818L7.83582 17.5592ZM5.22388 21.6687C5.22388 21.7933 5.0995 21.9178 5.0995 22.0423C4.97512 22.2914 4.85075 22.4159 4.72637 22.665L5.84577 23.2877C5.97015 22.9141 6.21891 22.5405 6.46766 22.1669L5.22388 21.6687ZM2.98507 26.1519C2.8607 26.2765 2.8607 26.5255 2.73632 26.6501C2.73632 26.7746 2.61194 26.8991 2.61194 27.1482L3.73134 27.6463C3.85572 27.2727 3.9801 26.8991 4.22886 26.5255L2.98507 26.1519ZM1.49254 30.8842C1.36816 31.2578 1.24378 31.6314 1.1194 32.1295L2.36318 32.3786C2.48756 32.005 2.61194 31.6314 2.61194 31.2578L1.49254 30.8842ZM0.373134 35.741C0.373134 35.8655 0.373134 35.8655 0.373134 35.99C0.373134 36.2391 0.248756 36.6127 0.248756 36.8618L1.49254 36.9863C1.49254 36.6127 1.61692 36.2391 1.61692 35.741H0.373134ZM0 40.7223C0 41.0959 0 41.4695 0 41.8431H1.24378C1.24378 41.4695 1.24378 41.0959 1.24378 40.5978L0 40.7223ZM1.24378 45.5791L0 45.7036V45.8281V45.9527C0 46.3263 -1.2047e-07 46.5753 0.124378 46.9489L1.36816 46.8244C1.36816 46.4508 1.36816 46.0772 1.24378 45.5791ZM1.99005 50.4359L0.746269 50.6849C0.746269 50.934 0.870647 51.1831 0.870647 51.4321C0.870647 51.5567 0.870646 51.6812 0.995025 51.8057L2.23881 51.5567C2.11443 51.1831 2.11443 50.8095 1.99005 50.4359ZM3.23383 55.0436L1.99005 55.4172C2.11443 55.7908 2.23881 56.1644 2.36318 56.538L3.48259 56.1644C3.48259 55.7908 3.35821 55.4172 3.23383 55.0436ZM4.97512 59.5268L3.85572 60.0249V60.1494C3.9801 60.3985 4.10448 60.7721 4.35323 61.0212L5.47264 60.3985C5.34826 60.274 5.22388 59.9004 4.97512 59.5268ZM7.33831 63.7609L6.34328 64.3836C6.46766 64.5081 6.46766 64.6326 6.59204 64.7572C6.71642 64.8817 6.8408 65.1308 6.96517 65.2553L7.9602 64.5081C7.71144 64.5081 7.58706 64.1345 7.33831 63.7609ZM10.0746 67.7459L9.0796 68.4931C9.20398 68.6177 9.32836 68.8668 9.45274 68.9913C9.57711 69.1158 9.70149 69.2403 9.70149 69.3649L10.6965 68.6177C10.5721 68.3686 10.3234 67.995 10.0746 67.7459ZM13.3085 71.3574L12.4378 72.2291C12.6866 72.4782 13.0597 72.8518 13.3085 73.1009L14.1791 72.2291C13.9303 71.8555 13.6816 71.6065 13.3085 71.3574ZM17.0398 74.4707L16.2935 75.467C16.6667 75.7161 16.9154 75.9651 17.2886 76.2142L18.0348 75.2179C17.6617 74.9689 17.2886 74.7198 17.0398 74.4707ZM21.0199 77.2105L20.398 78.3313C20.5224 78.4558 20.6468 78.4558 20.7711 78.5803C20.8955 78.5803 21.0199 78.7049 21.0199 78.7049L21.6418 77.5841C21.6418 77.5841 21.2687 77.4595 21.0199 77.2105ZM25.2488 79.452L24.7512 80.5728C24.8756 80.5728 25 80.6974 25 80.6974C25.2488 80.8219 25.3731 80.8219 25.6219 80.9464L26.1194 79.8257C25.995 79.8257 25.6219 79.7011 25.2488 79.452ZM29.7264 81.1955L29.3532 82.4408C29.602 82.5654 29.7264 82.5654 29.9751 82.5654C29.9751 82.5654 29.9751 82.5654 30.0995 82.5654L30.4726 81.32C30.4726 81.4446 30.0995 81.32 29.7264 81.1955ZM34.4527 82.3163L34.204 83.5616C34.3284 83.5616 34.5771 83.5616 34.7015 83.6862C34.7015 83.6862 34.7015 83.6862 34.8259 83.6862C34.9503 83.6862 35.0746 83.6862 35.199 83.6862L35.4478 82.4408C35.199 82.5654 34.8259 82.4408 34.4527 82.3163ZM39.1791 82.939L39.0547 84.1843C39.1791 84.1843 39.4279 84.1843 39.5522 84.1843C39.801 84.1843 39.9254 84.1843 40.1741 84.1843V82.939C40.0498 83.0635 39.6766 82.939 39.1791 82.939ZM45.2736 82.939C44.9005 82.939 44.5274 82.939 44.0298 83.0635V84.3088C44.0298 84.3088 44.0299 84.3088 44.1542 84.3088H44.2786L45.2736 82.939ZM50 82.3163C49.6269 82.4408 49.2537 82.4408 48.7562 82.5654L49.005 83.8107H49.1294C49.2537 83.8107 49.3781 83.8107 49.3781 83.8107L50 82.3163ZM54.7264 81.071C54.3532 81.1955 53.9801 81.32 53.607 81.4446L53.9801 82.6899C54.1045 82.6899 54.3532 82.5654 54.4776 82.5654C54.4776 82.5654 54.4776 82.5654 54.602 82.5654C54.7264 82.5654 54.8507 82.4408 54.9751 82.4408L54.7264 81.071ZM59.204 79.3275C58.8308 79.4521 58.4577 79.7011 58.0846 79.8257L58.5821 80.9464C58.8308 80.8219 59.0796 80.6974 59.3284 80.5728C59.4527 80.5728 59.5771 80.4483 59.5771 80.4483L59.204 79.3275ZM63.4328 76.9614C63.0597 77.2105 62.6866 77.335 62.4378 77.5841L63.0597 78.7049C63.0597 78.7049 63.0597 78.7049 63.1841 78.7049C63.4328 78.5803 63.6816 78.4558 63.9303 78.2067H64.0547L63.4328 76.9614ZM67.4129 74.2217C67.0398 74.4707 66.791 74.7198 66.4179 74.9689L67.1642 75.9651C67.2886 75.8406 67.4129 75.7161 67.5373 75.7161C67.6617 75.5915 67.7861 75.467 67.9104 75.467C67.9104 75.467 67.9104 75.467 68.0348 75.3425L67.4129 74.2217ZM71.0199 70.9838C70.7711 71.2329 70.398 71.6065 70.1493 71.8555L71.0199 72.7273C71.2687 72.4782 71.5174 72.2291 71.7662 71.9801C71.7662 71.9801 71.7662 71.9801 71.8905 71.8555L71.0199 70.9838ZM74.1293 67.3724C73.8806 67.746 73.6318 67.995 73.3831 68.3686L74.3781 69.1158C74.6269 68.7422 74.8756 68.4931 75.1244 68.1196L74.1293 67.3724ZM76.8657 63.3873C76.6169 63.7609 76.4925 64.1345 76.2438 64.3836L77.2388 65.0062C77.2388 65.0062 77.3632 64.8817 77.3632 64.7572C77.3632 64.6326 77.4876 64.6326 77.4876 64.5081L76.8657 63.3873ZM79.2289 59.1532C79.1045 59.5268 78.8557 59.9004 78.7313 60.274L79.8507 60.7721C79.9751 60.3985 80.2239 60.0249 80.3483 59.6513L79.2289 59.1532ZM80.9701 54.67C80.8458 55.0436 80.7214 55.4172 80.597 55.7908L81.7164 56.1644C81.8408 55.9153 81.8408 55.6662 81.9652 55.4172C81.9652 55.2927 81.9652 55.2926 82.0896 55.1681L80.9701 54.67ZM82.0896 49.9377C81.9652 50.3113 81.9652 50.6849 81.8408 51.0585L83.0846 51.3076C83.0846 51.0585 83.209 50.934 83.209 50.6849C83.209 50.5604 83.3333 50.3113 83.3333 50.1868L82.0896 49.9377ZM82.7114 45.0809C82.7114 45.4545 82.5871 45.8281 82.5871 46.3263L83.8308 46.4508V46.3263C83.8308 46.2017 83.8308 46.0772 83.8308 46.0772L82.7114 45.0809ZM84.0796 40.2242H82.8358C82.8358 40.5978 82.8358 40.9714 82.8358 41.4695H84.0796C84.0796 41.2204 84.0796 40.9714 84.0796 40.7223C84.0796 40.7223 84.0796 40.7223 84.0796 40.5978C84.0796 40.3487 84.0796 40.3487 84.0796 40.2242C84.0796 40.3487 84.0796 40.3487 84.0796 40.2242C84.0796 40.3487 84.0796 40.3487 84.0796 40.2242C84.0796 40.3487 84.0796 40.3487 84.0796 40.2242C84.0796 40.3487 84.0796 40.2242 84.0796 40.2242ZM83.5821 35.2428L82.3383 35.4919C82.4627 35.8655 82.4627 36.2391 82.4627 36.7372L83.7065 36.6127C83.7065 36.1146 83.5821 35.741 83.5821 35.2428ZM82.4627 30.3861L81.2189 30.7597C81.3433 31.1333 81.4677 31.5068 81.592 31.8804L82.8358 31.6314C82.7114 31.2578 82.5871 30.8842 82.4627 30.3861ZM80.7214 25.7783L79.602 26.2765C79.7264 26.6501 79.8507 27.0237 80.0995 27.3973L81.2189 26.8991V26.7746C81.2189 26.6501 81.0945 26.5255 81.0945 26.401C80.8458 26.0274 80.8458 25.9029 80.7214 25.7783ZM78.607 21.2951L77.4876 21.9178C77.7363 22.2914 77.8607 22.665 78.1094 22.9141L79.2289 22.2914C78.8557 21.9178 78.7313 21.5442 78.607 21.2951ZM75.8706 17.061L74.8756 17.8082C75.1244 18.1818 75.3731 18.4309 75.6219 18.8045L76.6169 18.0573C76.4925 17.9328 76.4925 17.8082 76.3682 17.6837C76.1194 17.4346 75.995 17.3101 75.8706 17.061ZM72.6368 13.325L71.7662 14.1968C72.0149 14.4458 72.2637 14.8194 72.6368 15.0685L73.5075 14.1968C73.2587 13.9477 72.8856 13.5741 72.6368 13.325ZM69.0299 9.83811L68.2836 10.8344C68.5323 11.0834 68.9055 11.3325 69.1542 11.5816L70.0249 10.7098C69.9005 10.5853 69.7761 10.4608 69.5274 10.3362C69.1542 9.96264 69.1542 9.96264 69.0299 9.83811C69.1542 9.96264 69.1542 9.96264 69.0299 9.83811C69.1542 9.96264 69.1542 9.96264 69.0299 9.83811C69.1542 9.96264 69.1542 9.96264 69.0299 9.83811C69.1542 9.96264 69.1542 9.96264 69.0299 9.83811C69.1542 9.96264 69.1542 9.96264 69.0299 9.83811C69.0299 9.96264 69.0299 9.96264 69.0299 9.83811ZM65.0498 6.97385L64.4279 7.97011C64.801 8.21918 65.0498 8.46824 65.4229 8.59278L66.1692 7.59651C65.5473 7.22291 65.2985 7.09838 65.0498 6.97385ZM60.6965 4.48319L60.199 5.60398C60.5721 5.72852 60.9453 5.97758 61.3184 6.10212L61.9403 4.98132C61.4428 4.85679 61.0696 4.60772 60.6965 4.48319ZM56.0945 2.49066L55.7214 3.61146C56.0945 3.73599 56.4677 3.86052 56.8408 3.98506L57.3383 2.86426C57.3383 2.86426 57.3383 2.86426 57.2139 2.86426C56.7164 2.73973 56.4677 2.61519 56.0945 2.49066ZM51.3682 1.1208L51.1194 2.36613C51.4925 2.49066 51.8657 2.49066 52.2388 2.61519L52.6119 1.36986C52.4876 1.36986 52.3632 1.36986 52.2388 1.24533C52.1144 1.24533 51.99 1.1208 51.7413 1.1208C51.4925 1.1208 51.4925 1.1208 51.3682 1.1208ZM46.5174 0.249066L46.393 1.4944C46.7662 1.4944 47.1393 1.61893 47.6368 1.61893L47.7612 0.373599C47.2637 0.373599 46.8905 0.373599 46.5174 0.249066ZM42.0398 0V1.24533C42.2886 1.24533 42.5373 1.24533 42.7861 1.24533V0C42.6617 0 42.5373 0 42.4129 0C42.1642 0 42.1642 0 42.0398 0C42.1642 0 42.1642 0 42.0398 0C42.1642 0 42.0398 0 42.0398 0Z" transform="translate(7.96094 7.84558)" fill="#489BFD"/>
<path d="M61.5672 1.36986V4.48319L30.2239 22.5405L4.22886 7.59651L7.9602 5.47945L5.47264 4.35865L0 7.59651L30.2239 25.0311L64.6766 5.10585V0L61.5672 1.36986Z" transform="translate(18.9062 60.8967)" fill="#036FF5"/>
<path d="M13.6816 6.22665C7.08955 6.22665 0 3.98506 0 0H2.48756C2.48756 1.4944 6.8408 3.73599 13.6816 3.73599C20.5224 3.73599 24.8756 1.4944 24.8756 0H27.3632C27.3632 3.98506 20.2736 6.22665 13.6816 6.22665Z" transform="translate(49.1289 32.3785)" fill="#036FF5"/>
<path d="M13.6816 12.4533C7.08955 12.4533 0 10.2117 0 6.22665C0 2.24159 7.08955 0 13.6816 0C20.2736 0 27.3632 2.24159 27.3632 6.22665C27.3632 10.2117 20.2736 12.4533 13.6816 12.4533ZM13.6816 2.49066C6.8408 2.49066 2.48756 4.73225 2.48756 6.22665C2.48756 7.72105 6.8408 9.96264 13.6816 9.96264C20.5224 9.96264 24.8756 7.72105 24.8756 6.22665C24.8756 4.73225 20.5224 2.49066 13.6816 2.49066Z" transform="translate(49.1289 18.6799)" fill="#036FF5"/>
<path d="M2.48756 0H0V7.59651H2.48756V0Z" transform="translate(49.1289 24.7821)" fill="#036FF5"/>
<path d="M2.48756 0H0V7.59651H2.48756V0Z" transform="translate(74.0049 24.7821)" fill="#036FF5"/>
<path d="M5.59701 5.10585C1.99005 3.98505 0 2.11706 0 0H2.48756C2.48756 0.747198 3.73134 1.868 6.34328 2.73973L5.59701 5.10585Z" transform="translate(49.1289 39.8506)" fill="#036FF5"/>
<path d="M0.746267 4.98132L0 2.61519C2.48756 1.74346 3.60696 0.747198 3.60696 0H6.09452C5.97015 2.11706 4.10448 3.86052 0.746267 4.98132Z" transform="translate(70.5225 39.8506)" fill="#036FF5"/>
<path d="M2.48756 0H0V7.59651H2.48756V0Z" transform="translate(49.1289 32.3785)" fill="#036FF5"/>
<path d="M2.48756 0H0V7.59651H2.48756V0Z" transform="translate(74.0049 32.3785)" fill="#036FF5"/>
<path d="M13.6816 6.22665C7.08955 6.22665 0 3.98506 0 0H2.48756C2.48756 1.4944 6.8408 3.73599 13.6816 3.73599C20.5224 3.73599 24.8756 1.4944 24.8756 0H27.3632C27.3632 4.10959 20.2736 6.22665 13.6816 6.22665Z" transform="translate(17.6611 43.9602)" fill="#036FF5"/>
<path d="M13.6816 12.4533C7.08955 12.4533 0 10.2117 0 6.22665C0 2.24159 7.08955 0 13.6816 0C20.2736 0 27.3632 2.24159 27.3632 6.22665C27.3632 10.2117 20.2736 12.4533 13.6816 12.4533ZM13.6816 2.49066C6.8408 2.49066 2.48756 4.73225 2.48756 6.22665C2.48756 7.72105 6.8408 9.96264 13.6816 9.96264C20.5224 9.96264 24.8756 7.72105 24.8756 6.22665C24.8756 4.73225 20.398 2.49066 13.6816 2.49066Z" transform="translate(17.6611 30.2616)" fill="#036FF5"/>
<path d="M2.48756 0H0V7.59652H2.48756V0Z" transform="translate(17.6611 36.4883)" fill="#036FF5"/>
<path d="M2.48756 0H0V7.59652H2.48756V0Z" transform="translate(42.5381 36.4883)" fill="#036FF5"/>
<path d="M13.6816 6.22665C7.08955 6.22665 0 3.98506 0 0H2.48756C2.48756 1.4944 6.8408 3.73599 13.6816 3.73599C14.1791 3.73599 14.6766 3.73599 15.1741 3.73599H15.6716V6.22665H15.2985C14.6766 6.22665 14.1791 6.22665 13.6816 6.22665Z" transform="translate(17.6611 51.5566)" fill="#036FF5"/>
<path d="M2.48756 0H0V7.59652H2.48756V0Z" transform="translate(17.6611 43.9602)" fill="#036FF5"/>
<path d="M2.48756 0H0V6.35119H2.48756V0Z" transform="translate(42.5381 43.9602)" fill="#036FF5"/>
<path d="M64.6766 11.8306L44.2786 0L0 25.5293L30.0995 42.9639L64.6766 23.0386V11.8306ZM61.4428 19.9253L57.0896 17.4346L61.5672 14.8194L61.4428 19.9253ZM44.1542 2.36613L61.4428 12.3288L52.8607 17.3101L61.4428 22.2914L30.0995 40.4732L4.22886 25.5293L44.1542 2.36613Z" transform="translate(18.9062 37.9825)" fill="#036FF5"/>
<path d="M15.0498 9.96264L0 1.24533L2.11443 0L17.1642 8.71731L15.0498 9.96264Z" transform="translate(54.2295 50.5604)" fill="#036FF5"/>
<path d="M15.0498 9.96264L0 1.24533L2.11443 0L17.1642 8.71731L15.0498 9.96264Z" transform="translate(49.876 53.051)" fill="#036FF5"/>
</svg>
